G75*
%MOIN*%
%OFA0B0*%
%FSLAX25Y25*%
%IPPOS*%
%LPD*%
%AMOC8*
5,1,8,0,0,1.08239X$1,22.5*
%
%ADD10C,0.00000*%
%ADD11OC8,0.07000*%
%ADD12C,0.05400*%
%ADD13OC8,0.06400*%
%ADD14C,0.06400*%
%ADD15C,0.05600*%
%ADD16C,0.04800*%
%ADD17R,0.06306X0.04731*%
%ADD18R,0.03943X0.03943*%
D10*
X0002194Y0001500D02*
X0002194Y0277091D01*
X0183296Y0277091D01*
X0183296Y0001500D01*
X0002194Y0001500D01*
D11*
X0048644Y0261475D03*
X0058644Y0261475D03*
D12*
X0087682Y0197500D03*
X0087682Y0187500D03*
X0097682Y0187500D03*
X0097682Y0197500D03*
D13*
X0102594Y0035500D03*
X0102594Y0025500D03*
X0112594Y0025500D03*
X0112594Y0035500D03*
X0092594Y0035500D03*
X0092594Y0025500D03*
X0082594Y0025500D03*
X0082594Y0035500D03*
X0072594Y0035500D03*
X0072594Y0025500D03*
X0062594Y0025500D03*
X0062594Y0035500D03*
X0052594Y0035500D03*
X0052594Y0025500D03*
D14*
X0102351Y0049000D02*
X0108351Y0049000D01*
X0108351Y0059000D02*
X0102351Y0059000D01*
X0102351Y0069000D02*
X0108351Y0069000D01*
X0108351Y0079000D02*
X0102351Y0079000D01*
X0102351Y0089000D02*
X0108351Y0089000D01*
X0108351Y0099000D02*
X0102351Y0099000D01*
X0102351Y0109000D02*
X0108351Y0109000D01*
X0108351Y0119000D02*
X0102351Y0119000D01*
X0051115Y0205700D02*
X0051115Y0211700D01*
X0041115Y0211700D02*
X0041115Y0205700D01*
X0115873Y0231300D02*
X0115873Y0237300D01*
X0125873Y0237300D02*
X0125873Y0231300D01*
D15*
X0023522Y0264500D02*
X0023522Y0269700D01*
X0013522Y0269700D02*
X0013522Y0264500D01*
D16*
X0072909Y0253550D03*
X0092594Y0253550D03*
X0112279Y0253550D03*
D17*
X0060959Y0273375D03*
X0047179Y0273375D03*
D18*
X0054069Y0270816D03*
M02*
