%
M48
M72
T01C0.01200
T02C0.02362
T03C0.02400
T04C0.03200
T05C0.04000
%
T01
X29394Y177500
T02
X76296Y48652
X18032Y87581
X55091Y48652
X119177Y41333
X15130Y102577
X76613Y123949
X66407Y128156
X45823Y251251
X17827Y47864
X88118Y112725
X116879Y112725
X108030Y224936
X113132Y159207
X90979Y234652
X69679Y218348
X54247Y218348
X41199Y233333
X21494Y201428
X66436Y152085
X74694Y136500
X59694Y113000
X119694Y23000
X17194Y129000
X44694Y154000
X102194Y129000
X72194Y112000
X43855Y9420
X44160Y113219
X40516Y134825
X18611Y145463
X17307Y161081
X41075Y13526
X48390Y111770
X23103Y146546
X22154Y162585
X39181Y78172
X91828Y154778
X70914Y157258
X74611Y105328
X96729Y150723
X46603Y95467
X14928Y255540
X32138Y163336
X13339Y168923
X27713Y111077
X143162Y17806
X50406Y59821
X89095Y72352
X51146Y82325
X77504Y146168
X83951Y133940
X72792Y101077
X67908Y107471
X62070Y144770
X62577Y59055
X55170Y58491
X50398Y75852
X85934Y88014
X58319Y71770
X89197Y95872
X62280Y69156
X88945Y80360
X53496Y17101
X41636Y43322
X67908Y44833
X67865Y64814
X81810Y64219
X14398Y50951
X32194Y273648
X70288Y53345
X44359Y85392
X32701Y112180
X138670Y12806
X37276Y112384
X138520Y18825
X13536Y98136
X49957Y237987
X26961Y163466
X13213Y164332
X65874Y103152
X58532Y133927
X34694Y191328
X34694Y184000
X50459Y97702
X26398Y171065
T03
X97682Y187500
X87682Y187500
X87682Y197500
X97682Y197500
X112279Y253550
X92594Y253550
X72909Y253550
T04
X48644Y261475
X58644Y261475
X13522Y267100
X23522Y267100
T05
X52594Y25500
X62594Y25500
X72594Y25500
X82594Y25500
X92594Y25500
X102594Y25500
X52594Y35500
X62594Y35500
X72594Y35500
X82594Y35500
X92594Y35500
X102594Y35500
X112594Y25500
X112594Y35500
X115873Y234300
X125873Y234300
X51115Y208700
X41115Y208700
X171505Y49000
X171505Y59000
X171505Y69000
X171505Y79000
X171505Y89000
X171505Y99000
X171505Y109000
X171505Y119000
M30
