G75*
%MOIN*%
%OFA0B0*%
%FSLAX25Y25*%
%IPPOS*%
%LPD*%
%AMOC8*
5,1,8,0,0,1.08239X$1,22.5*
%
%ADD10C,0.00000*%
%ADD11OC8,0.06600*%
%ADD12C,0.05000*%
%ADD13OC8,0.06000*%
%ADD14C,0.06000*%
%ADD15C,0.05200*%
%ADD16C,0.04400*%
%ADD17R,0.05906X0.04331*%
%ADD18R,0.03543X0.03543*%
%ADD19C,0.03562*%
%ADD20C,0.01969*%
%ADD21C,0.01000*%
%ADD22C,0.00800*%
%ADD23C,0.02400*%
D10*
X0002194Y0001500D02*
X0002194Y0277091D01*
X0183296Y0277091D01*
X0183296Y0001500D01*
X0002194Y0001500D01*
D11*
X0048644Y0261475D03*
X0058644Y0261475D03*
D12*
X0087682Y0197500D03*
X0087682Y0187500D03*
X0097682Y0187500D03*
X0097682Y0197500D03*
D13*
X0102594Y0035500D03*
X0102594Y0025500D03*
X0112594Y0025500D03*
X0112594Y0035500D03*
X0092594Y0035500D03*
X0092594Y0025500D03*
X0082594Y0025500D03*
X0082594Y0035500D03*
X0072594Y0035500D03*
X0072594Y0025500D03*
X0062594Y0025500D03*
X0062594Y0035500D03*
X0052594Y0035500D03*
X0052594Y0025500D03*
D14*
X0168505Y0049000D02*
X0174505Y0049000D01*
X0174505Y0059000D02*
X0168505Y0059000D01*
X0168505Y0069000D02*
X0174505Y0069000D01*
X0174505Y0079000D02*
X0168505Y0079000D01*
X0168505Y0089000D02*
X0174505Y0089000D01*
X0174505Y0099000D02*
X0168505Y0099000D01*
X0168505Y0109000D02*
X0174505Y0109000D01*
X0174505Y0119000D02*
X0168505Y0119000D01*
X0125873Y0231300D02*
X0125873Y0237300D01*
X0115873Y0237300D02*
X0115873Y0231300D01*
X0051115Y0211700D02*
X0051115Y0205700D01*
X0041115Y0205700D02*
X0041115Y0211700D01*
D15*
X0023522Y0264500D02*
X0023522Y0269700D01*
X0013522Y0269700D02*
X0013522Y0264500D01*
D16*
X0072909Y0253550D03*
X0092594Y0253550D03*
X0112279Y0253550D03*
D17*
X0060959Y0273375D03*
X0047179Y0273375D03*
D18*
X0054069Y0270816D03*
D19*
X0045823Y0251251D03*
X0049957Y0237987D03*
X0041199Y0233333D03*
X0054247Y0218348D03*
X0069679Y0218348D03*
X0090979Y0234652D03*
X0108030Y0224936D03*
X0113132Y0159207D03*
X0096729Y0150723D03*
X0091828Y0154778D03*
X0077504Y0146168D03*
X0074694Y0136500D03*
X0066407Y0128156D03*
X0058532Y0133927D03*
X0062070Y0144770D03*
X0066436Y0152085D03*
X0070914Y0157258D03*
X0083951Y0133940D03*
X0076613Y0123949D03*
X0072194Y0112000D03*
X0067908Y0107471D03*
X0065874Y0103152D03*
X0072792Y0101077D03*
X0074611Y0105328D03*
X0085934Y0088014D03*
X0088945Y0080360D03*
X0089095Y0072352D03*
X0081810Y0064219D03*
X0070288Y0053345D03*
X0076296Y0048652D03*
X0067908Y0044833D03*
X0062577Y0059055D03*
X0067865Y0064814D03*
X0062280Y0069156D03*
X0058319Y0071770D03*
X0050398Y0075852D03*
X0051146Y0082325D03*
X0044359Y0085392D03*
X0039181Y0078172D03*
X0046603Y0095467D03*
X0050459Y0097702D03*
X0048390Y0111770D03*
X0044160Y0113219D03*
X0037276Y0112384D03*
X0032701Y0112180D03*
X0027713Y0111077D03*
X0015130Y0102577D03*
X0013536Y0098136D03*
X0018032Y0087581D03*
X0014398Y0050951D03*
X0017827Y0047864D03*
X0041075Y0013526D03*
X0043855Y0009420D03*
X0053496Y0017101D03*
X0041636Y0043322D03*
X0050406Y0059821D03*
X0055170Y0058491D03*
X0055091Y0048652D03*
X0089197Y0095872D03*
X0088118Y0112725D03*
X0102194Y0129000D03*
X0116879Y0112725D03*
X0119177Y0041333D03*
X0119694Y0023000D03*
X0138520Y0018825D03*
X0143162Y0017806D03*
X0138670Y0012806D03*
X0059694Y0113000D03*
X0040516Y0134825D03*
X0044694Y0154000D03*
X0032138Y0163336D03*
X0026961Y0163466D03*
X0022154Y0162585D03*
X0017307Y0161081D03*
X0013213Y0164332D03*
X0013339Y0168923D03*
X0026398Y0171065D03*
X0034694Y0184000D03*
X0034694Y0191328D03*
X0021494Y0201428D03*
X0014928Y0255540D03*
X0032194Y0273648D03*
X0023103Y0146546D03*
X0018611Y0145463D03*
X0017194Y0129000D03*
D20*
X0015130Y0102577D02*
X0018032Y0099675D01*
X0018032Y0087581D01*
X0018032Y0087338D02*
X0015961Y0085510D01*
X0015961Y0065899D01*
X0018083Y0063777D01*
X0018083Y0048497D01*
X0017827Y0047864D01*
X0055091Y0048652D02*
X0076296Y0048652D01*
X0116879Y0044000D02*
X0116879Y0112725D01*
X0088118Y0112725D02*
X0088118Y0116317D01*
X0088031Y0116317D02*
X0080399Y0123949D01*
X0076613Y0123949D01*
X0066407Y0128156D02*
X0066436Y0152085D01*
X0107518Y0164822D02*
X0113132Y0159207D01*
X0107518Y0164822D02*
X0107518Y0224424D01*
X0108030Y0224936D01*
X0090979Y0234652D02*
X0088620Y0234652D01*
X0072317Y0218348D01*
X0069679Y0218348D01*
X0054247Y0218348D01*
X0047818Y0218348D01*
X0041199Y0224967D01*
X0041199Y0233333D01*
X0041097Y0234000D02*
X0028699Y0234000D01*
X0025231Y0230373D01*
X0025231Y0205164D01*
X0021494Y0201428D01*
X0045823Y0251251D02*
X0048199Y0253550D01*
X0072909Y0253550D01*
X0048644Y0261475D02*
X0047394Y0264410D01*
X0047179Y0273375D01*
X0116879Y0044000D02*
X0119177Y0041333D01*
D21*
X0122053Y0042439D02*
X0181796Y0042439D01*
X0181796Y0043437D02*
X0121429Y0043437D01*
X0121789Y0043078D02*
X0120922Y0043945D01*
X0119790Y0044414D01*
X0119538Y0044414D01*
X0119164Y0044848D01*
X0119164Y0110652D01*
X0119491Y0110980D01*
X0119961Y0112112D01*
X0119961Y0113338D01*
X0119491Y0114470D01*
X0118625Y0115337D01*
X0117492Y0115806D01*
X0116267Y0115806D01*
X0115134Y0115337D01*
X0114267Y0114470D01*
X0113798Y0113338D01*
X0113798Y0112112D01*
X0114267Y0110980D01*
X0114595Y0110652D01*
X0114595Y0044085D01*
X0114531Y0043226D01*
X0114595Y0043152D01*
X0114595Y0043054D01*
X0115204Y0042445D01*
X0116096Y0041410D01*
X0116096Y0040720D01*
X0116565Y0039588D01*
X0117431Y0038721D01*
X0118564Y0038252D01*
X0119790Y0038252D01*
X0120922Y0038721D01*
X0121789Y0039588D01*
X0122258Y0040720D01*
X0122258Y0041946D01*
X0121789Y0043078D01*
X0122258Y0041440D02*
X0181796Y0041440D01*
X0181796Y0040442D02*
X0122143Y0040442D01*
X0121645Y0039443D02*
X0181796Y0039443D01*
X0181796Y0038445D02*
X0120256Y0038445D01*
X0118097Y0038445D02*
X0115730Y0038445D01*
X0116709Y0039443D02*
X0114731Y0039443D01*
X0114375Y0039800D02*
X0110813Y0039800D01*
X0108294Y0037281D01*
X0108294Y0033719D01*
X0110813Y0031200D01*
X0114375Y0031200D01*
X0116894Y0033719D01*
X0116894Y0037281D01*
X0114375Y0039800D01*
X0116211Y0040442D02*
X0042735Y0040442D01*
X0042249Y0040241D02*
X0043381Y0040710D01*
X0044193Y0041522D01*
X0066323Y0041522D01*
X0066994Y0041467D01*
X0067057Y0041521D01*
X0067141Y0041521D01*
X0067141Y0041522D01*
X0067141Y0041522D01*
X0067371Y0041752D01*
X0068521Y0041752D01*
X0069653Y0042221D01*
X0070520Y0043087D01*
X0070989Y0044220D01*
X0070989Y0045446D01*
X0070607Y0046367D01*
X0074223Y0046367D01*
X0074550Y0046040D01*
X0075683Y0045570D01*
X0076909Y0045570D01*
X0078041Y0046040D01*
X0078908Y0046906D01*
X0079377Y0048039D01*
X0079377Y0049264D01*
X0078908Y0050397D01*
X0078041Y0051264D01*
X0076909Y0051733D01*
X0075683Y0051733D01*
X0074550Y0051264D01*
X0074223Y0050936D01*
X0072236Y0050936D01*
X0072900Y0051600D01*
X0073369Y0052732D01*
X0073369Y0053958D01*
X0072900Y0055090D01*
X0072033Y0055957D01*
X0071141Y0056326D01*
X0071080Y0056499D01*
X0070687Y0056686D01*
X0070378Y0056995D01*
X0070040Y0056995D01*
X0069734Y0057141D01*
X0069323Y0056995D01*
X0064874Y0056995D01*
X0065189Y0057310D01*
X0065658Y0058442D01*
X0065658Y0059668D01*
X0065189Y0060800D01*
X0064322Y0061667D01*
X0063190Y0062136D01*
X0061964Y0062136D01*
X0060831Y0061667D01*
X0060030Y0060866D01*
X0057152Y0060866D01*
X0056915Y0061103D01*
X0055783Y0061572D01*
X0054557Y0061572D01*
X0053424Y0061103D01*
X0053273Y0060952D01*
X0053018Y0061566D01*
X0052206Y0062378D01*
X0052206Y0062464D01*
X0053432Y0063690D01*
X0064471Y0063690D01*
X0064842Y0064061D01*
X0065253Y0063068D01*
X0066120Y0062202D01*
X0067252Y0061733D01*
X0068478Y0061733D01*
X0069610Y0062202D01*
X0070477Y0063068D01*
X0070946Y0064201D01*
X0070946Y0065427D01*
X0070479Y0066555D01*
X0071228Y0067305D01*
X0079745Y0067305D01*
X0080010Y0067040D01*
X0080010Y0066776D01*
X0079198Y0065964D01*
X0078729Y0064832D01*
X0078729Y0063606D01*
X0079198Y0062473D01*
X0080065Y0061607D01*
X0081197Y0061138D01*
X0082423Y0061138D01*
X0083555Y0061607D01*
X0084422Y0062473D01*
X0084891Y0063606D01*
X0084891Y0064832D01*
X0084422Y0065964D01*
X0083610Y0066776D01*
X0083610Y0068531D01*
X0083593Y0068548D01*
X0082935Y0069206D01*
X0088495Y0069206D01*
X0088560Y0069271D01*
X0089708Y0069271D01*
X0090841Y0069740D01*
X0091707Y0070607D01*
X0092177Y0071739D01*
X0092177Y0072965D01*
X0091707Y0074097D01*
X0090841Y0074964D01*
X0089708Y0075433D01*
X0089009Y0075433D01*
X0090745Y0077169D01*
X0090745Y0077803D01*
X0091557Y0078615D01*
X0092027Y0079747D01*
X0092027Y0080973D01*
X0091557Y0082105D01*
X0090691Y0082972D01*
X0089558Y0083441D01*
X0089316Y0083441D01*
X0089943Y0084068D01*
X0090997Y0085122D01*
X0090997Y0093315D01*
X0091809Y0094127D01*
X0092279Y0095259D01*
X0092279Y0096485D01*
X0091809Y0097617D01*
X0090943Y0098484D01*
X0089810Y0098953D01*
X0088585Y0098953D01*
X0087452Y0098484D01*
X0086585Y0097617D01*
X0086116Y0096485D01*
X0086116Y0095259D01*
X0086585Y0094127D01*
X0087397Y0093315D01*
X0087397Y0090743D01*
X0086547Y0091095D01*
X0085322Y0091095D01*
X0084189Y0090626D01*
X0083322Y0089759D01*
X0082853Y0088627D01*
X0082853Y0087401D01*
X0083322Y0086269D01*
X0083733Y0085858D01*
X0082996Y0085121D01*
X0081941Y0084066D01*
X0081941Y0079652D01*
X0080815Y0078526D01*
X0058468Y0078526D01*
X0057816Y0077874D01*
X0057594Y0077652D01*
X0052955Y0077652D01*
X0052143Y0078464D01*
X0051011Y0078933D01*
X0049785Y0078933D01*
X0048652Y0078464D01*
X0047786Y0077597D01*
X0047317Y0076465D01*
X0047317Y0075239D01*
X0047786Y0074107D01*
X0048652Y0073240D01*
X0049785Y0072771D01*
X0051011Y0072771D01*
X0052143Y0073240D01*
X0052955Y0074052D01*
X0056243Y0074052D01*
X0055707Y0073515D01*
X0055238Y0072383D01*
X0055238Y0071157D01*
X0055707Y0070025D01*
X0056573Y0069158D01*
X0057706Y0068689D01*
X0058932Y0068689D01*
X0059199Y0068799D01*
X0059199Y0068543D01*
X0059668Y0067411D01*
X0059788Y0067290D01*
X0051941Y0067290D01*
X0049661Y0065010D01*
X0048994Y0064343D01*
X0048994Y0069269D01*
X0048994Y0069269D01*
X0048994Y0070015D01*
X0048994Y0070759D01*
X0048993Y0070760D01*
X0048993Y0070760D01*
X0048464Y0071290D01*
X0047939Y0071814D01*
X0045244Y0074506D01*
X0045244Y0078834D01*
X0045969Y0081492D01*
X0046159Y0081681D01*
X0046159Y0082186D01*
X0046291Y0082672D01*
X0046184Y0082860D01*
X0046971Y0083647D01*
X0047440Y0084779D01*
X0047440Y0085793D01*
X0048365Y0084868D01*
X0049331Y0084868D01*
X0048534Y0084070D01*
X0048065Y0082938D01*
X0048065Y0081712D01*
X0048534Y0080580D01*
X0049400Y0079713D01*
X0050533Y0079244D01*
X0051759Y0079244D01*
X0052891Y0079713D01*
X0053703Y0080525D01*
X0069681Y0080525D01*
X0070415Y0080515D01*
X0070425Y0080525D01*
X0070439Y0080525D01*
X0070958Y0081043D01*
X0074717Y0084700D01*
X0074731Y0084700D01*
X0075250Y0085219D01*
X0075775Y0085730D01*
X0075775Y0085744D01*
X0075785Y0085754D01*
X0075785Y0086487D01*
X0075796Y0087221D01*
X0075785Y0087231D01*
X0075785Y0099221D01*
X0075839Y0099283D01*
X0075785Y0099955D01*
X0075785Y0100251D01*
X0075874Y0100464D01*
X0075874Y0101690D01*
X0075582Y0102395D01*
X0076357Y0102716D01*
X0077223Y0103583D01*
X0077693Y0104715D01*
X0077693Y0105941D01*
X0077334Y0106806D01*
X0086902Y0106806D01*
X0087332Y0106663D01*
X0087619Y0106806D01*
X0087939Y0106806D01*
X0088260Y0107127D01*
X0092619Y0109306D01*
X0092939Y0109306D01*
X0093260Y0109627D01*
X0093666Y0109830D01*
X0093767Y0110134D01*
X0093994Y0110361D01*
X0093994Y0110814D01*
X0094137Y0111244D01*
X0093994Y0111531D01*
X0093994Y0117246D01*
X0086494Y0124746D01*
X0086494Y0129746D01*
X0085751Y0130488D01*
X0085751Y0131383D01*
X0086563Y0132195D01*
X0087033Y0133327D01*
X0087033Y0134553D01*
X0086563Y0135685D01*
X0085751Y0136497D01*
X0085751Y0140466D01*
X0084697Y0141520D01*
X0080585Y0145632D01*
X0080585Y0146781D01*
X0080116Y0147913D01*
X0079249Y0148780D01*
X0078117Y0149249D01*
X0076891Y0149249D01*
X0075758Y0148780D01*
X0074892Y0147913D01*
X0074423Y0146781D01*
X0074423Y0145555D01*
X0074892Y0144423D01*
X0075758Y0143556D01*
X0076891Y0143087D01*
X0078039Y0143087D01*
X0082151Y0138974D01*
X0082151Y0136497D01*
X0081339Y0135685D01*
X0080870Y0134553D01*
X0080870Y0133327D01*
X0081339Y0132195D01*
X0082151Y0131383D01*
X0082151Y0128997D01*
X0082894Y0128254D01*
X0082894Y0124685D01*
X0081346Y0126233D01*
X0078685Y0126233D01*
X0078358Y0126561D01*
X0077226Y0127030D01*
X0076000Y0127030D01*
X0074867Y0126561D01*
X0074001Y0125694D01*
X0073532Y0124562D01*
X0073532Y0123336D01*
X0074001Y0122204D01*
X0074867Y0121337D01*
X0076000Y0120868D01*
X0077226Y0120868D01*
X0078358Y0121337D01*
X0078685Y0121664D01*
X0079453Y0121664D01*
X0085834Y0115284D01*
X0085834Y0114798D01*
X0085506Y0114470D01*
X0085037Y0113338D01*
X0085037Y0112112D01*
X0085506Y0110980D01*
X0086080Y0110406D01*
X0069708Y0110406D01*
X0069708Y0118261D01*
X0069713Y0118266D01*
X0069708Y0119005D01*
X0069708Y0119746D01*
X0069703Y0119751D01*
X0069703Y0119758D01*
X0069177Y0120276D01*
X0068653Y0120800D01*
X0068646Y0120800D01*
X0064641Y0124753D01*
X0064641Y0125564D01*
X0064662Y0125544D01*
X0065794Y0125075D01*
X0067020Y0125075D01*
X0068152Y0125544D01*
X0069019Y0126410D01*
X0069488Y0127543D01*
X0069488Y0128769D01*
X0069019Y0129901D01*
X0068694Y0130226D01*
X0068718Y0150009D01*
X0069048Y0150339D01*
X0069517Y0151472D01*
X0069517Y0152698D01*
X0069048Y0153830D01*
X0068181Y0154697D01*
X0067049Y0155166D01*
X0065823Y0155166D01*
X0064691Y0154697D01*
X0063824Y0153830D01*
X0063355Y0152698D01*
X0063355Y0151472D01*
X0063824Y0150339D01*
X0064149Y0150014D01*
X0064145Y0147052D01*
X0063815Y0147382D01*
X0062683Y0147851D01*
X0061457Y0147851D01*
X0060325Y0147382D01*
X0059458Y0146515D01*
X0058989Y0145383D01*
X0058989Y0144157D01*
X0059458Y0143025D01*
X0060325Y0142158D01*
X0060892Y0141923D01*
X0061041Y0141291D01*
X0061041Y0135776D01*
X0060278Y0136539D01*
X0059145Y0137008D01*
X0057920Y0137008D01*
X0057899Y0136999D01*
X0056694Y0138204D01*
X0056694Y0152604D01*
X0055698Y0153600D01*
X0031894Y0177404D01*
X0031894Y0177997D01*
X0031513Y0178916D01*
X0030810Y0179619D01*
X0029891Y0180000D01*
X0028897Y0180000D01*
X0027978Y0179619D01*
X0027274Y0178916D01*
X0026894Y0177997D01*
X0026894Y0177003D01*
X0027274Y0176084D01*
X0027978Y0175381D01*
X0028897Y0175000D01*
X0029490Y0175000D01*
X0053294Y0151196D01*
X0053294Y0136796D01*
X0055480Y0134609D01*
X0055451Y0134540D01*
X0055451Y0133314D01*
X0055920Y0132182D01*
X0056787Y0131315D01*
X0057920Y0130846D01*
X0059068Y0130846D01*
X0059102Y0130811D01*
X0059102Y0122027D01*
X0062700Y0118429D01*
X0062700Y0103803D01*
X0062793Y0103711D01*
X0062793Y0102539D01*
X0063262Y0101407D01*
X0064128Y0100540D01*
X0065261Y0100071D01*
X0066487Y0100071D01*
X0067358Y0100432D01*
X0067358Y0099707D01*
X0067332Y0099679D01*
X0067358Y0098967D01*
X0067358Y0098254D01*
X0067386Y0098227D01*
X0067387Y0098189D01*
X0067909Y0097704D01*
X0068413Y0097200D01*
X0068451Y0097200D01*
X0069769Y0095976D01*
X0069769Y0088078D01*
X0069312Y0087621D01*
X0065637Y0087621D01*
X0064790Y0088468D01*
X0049856Y0088468D01*
X0047156Y0091168D01*
X0041287Y0091168D01*
X0040232Y0090113D01*
X0038728Y0088609D01*
X0038728Y0082386D01*
X0038568Y0082262D01*
X0038435Y0082262D01*
X0037990Y0081817D01*
X0037492Y0081433D01*
X0037475Y0081301D01*
X0037381Y0081207D01*
X0037381Y0080729D01*
X0036569Y0079917D01*
X0036100Y0078785D01*
X0036100Y0077559D01*
X0036569Y0076427D01*
X0037435Y0075560D01*
X0038568Y0075091D01*
X0039794Y0075091D01*
X0040926Y0075560D01*
X0041644Y0076278D01*
X0041644Y0074505D01*
X0041643Y0074505D01*
X0041644Y0073759D01*
X0041644Y0073014D01*
X0041644Y0073013D01*
X0042174Y0072484D01*
X0042698Y0071960D01*
X0042699Y0071960D01*
X0045394Y0069268D01*
X0045394Y0056942D01*
X0045253Y0056672D01*
X0045394Y0056224D01*
X0045394Y0055754D01*
X0045609Y0055539D01*
X0045700Y0055249D01*
X0046116Y0055032D01*
X0046448Y0054700D01*
X0046752Y0054700D01*
X0048616Y0053727D01*
X0048948Y0053395D01*
X0049252Y0053395D01*
X0049522Y0053254D01*
X0049970Y0053395D01*
X0067207Y0053395D01*
X0067207Y0052732D01*
X0067676Y0051600D01*
X0068339Y0050936D01*
X0057163Y0050936D01*
X0056836Y0051264D01*
X0055704Y0051733D01*
X0054478Y0051733D01*
X0053345Y0051264D01*
X0052479Y0050397D01*
X0052010Y0049264D01*
X0052010Y0048039D01*
X0052479Y0046906D01*
X0053345Y0046040D01*
X0054478Y0045570D01*
X0055704Y0045570D01*
X0056836Y0046040D01*
X0057163Y0046367D01*
X0065208Y0046367D01*
X0064827Y0045446D01*
X0064827Y0045122D01*
X0044193Y0045122D01*
X0043381Y0045934D01*
X0042249Y0046403D01*
X0041023Y0046403D01*
X0039891Y0045934D01*
X0039024Y0045067D01*
X0038555Y0043935D01*
X0038555Y0043300D01*
X0032698Y0043300D01*
X0032279Y0042881D01*
X0032279Y0062556D01*
X0033267Y0063545D01*
X0034322Y0064599D01*
X0034322Y0075684D01*
X0034469Y0076078D01*
X0034322Y0076401D01*
X0034322Y0076755D01*
X0034025Y0077052D01*
X0032751Y0079847D01*
X0032751Y0093225D01*
X0033833Y0094250D01*
X0033862Y0094250D01*
X0034372Y0094759D01*
X0034896Y0095255D01*
X0034896Y0095284D01*
X0034917Y0095304D01*
X0034917Y0096025D01*
X0034937Y0096745D01*
X0034917Y0096766D01*
X0034917Y0105750D01*
X0038086Y0108896D01*
X0038090Y0108896D01*
X0038616Y0109421D01*
X0038932Y0109735D01*
X0039021Y0109772D01*
X0039678Y0110429D01*
X0040590Y0108849D01*
X0040590Y0108586D01*
X0040950Y0108226D01*
X0041205Y0107786D01*
X0041459Y0107718D01*
X0041645Y0107532D01*
X0042154Y0107532D01*
X0042645Y0107400D01*
X0042873Y0107532D01*
X0045454Y0107532D01*
X0045488Y0107501D01*
X0046193Y0107532D01*
X0046900Y0107532D01*
X0046932Y0107564D01*
X0046977Y0107566D01*
X0047455Y0108087D01*
X0047954Y0108586D01*
X0047954Y0108632D01*
X0048007Y0108689D01*
X0049003Y0108689D01*
X0050029Y0109114D01*
X0045327Y0104349D01*
X0044803Y0103825D01*
X0044803Y0103818D01*
X0044799Y0103814D01*
X0044803Y0103074D01*
X0044803Y0098024D01*
X0043991Y0097212D01*
X0043522Y0096080D01*
X0043522Y0094854D01*
X0043991Y0093722D01*
X0044858Y0092855D01*
X0045991Y0092386D01*
X0047216Y0092386D01*
X0048349Y0092855D01*
X0049216Y0093722D01*
X0049626Y0094712D01*
X0049846Y0094621D01*
X0051072Y0094621D01*
X0052204Y0095090D01*
X0053071Y0095957D01*
X0053540Y0097089D01*
X0053540Y0098315D01*
X0053071Y0099447D01*
X0052271Y0100246D01*
X0052271Y0103052D01*
X0055434Y0106186D01*
X0055439Y0106186D01*
X0055964Y0106711D01*
X0056490Y0107232D01*
X0056490Y0107237D01*
X0056494Y0107240D01*
X0056494Y0107981D01*
X0056497Y0108723D01*
X0056494Y0108727D01*
X0056494Y0113940D01*
X0056498Y0113944D01*
X0056494Y0114685D01*
X0056494Y0115424D01*
X0056489Y0115429D01*
X0056489Y0115435D01*
X0055963Y0115955D01*
X0055439Y0116479D01*
X0055433Y0116479D01*
X0053187Y0118698D01*
X0053187Y0138052D01*
X0053189Y0138054D01*
X0053187Y0138796D01*
X0053187Y0139541D01*
X0053186Y0139543D01*
X0053186Y0139545D01*
X0052661Y0140068D01*
X0052133Y0140596D01*
X0052131Y0140596D01*
X0041494Y0151190D01*
X0041494Y0161088D01*
X0041497Y0161830D01*
X0041494Y0161833D01*
X0041494Y0161837D01*
X0040969Y0162362D01*
X0035698Y0167676D01*
X0035698Y0167680D01*
X0035173Y0168206D01*
X0034651Y0168732D01*
X0034647Y0168732D01*
X0034644Y0168735D01*
X0033903Y0168735D01*
X0033160Y0168738D01*
X0033157Y0168735D01*
X0029211Y0168735D01*
X0028818Y0169128D01*
X0029010Y0169320D01*
X0029480Y0170452D01*
X0029480Y0171678D01*
X0029010Y0172810D01*
X0028144Y0173677D01*
X0027011Y0174146D01*
X0025786Y0174146D01*
X0024653Y0173677D01*
X0023786Y0172810D01*
X0023317Y0171678D01*
X0023317Y0171645D01*
X0022298Y0172664D01*
X0019478Y0175483D01*
X0019478Y0199086D01*
X0019749Y0198816D01*
X0020881Y0198347D01*
X0022107Y0198347D01*
X0023239Y0198816D01*
X0024106Y0199682D01*
X0024575Y0200815D01*
X0024575Y0201278D01*
X0026177Y0202879D01*
X0026835Y0203537D01*
X0027515Y0204217D01*
X0027515Y0204217D01*
X0027515Y0204217D01*
X0027515Y0205162D01*
X0027515Y0206110D01*
X0027515Y0229456D01*
X0029675Y0231716D01*
X0038534Y0231716D01*
X0038587Y0231587D01*
X0038914Y0231260D01*
X0038914Y0224020D01*
X0046872Y0216063D01*
X0052174Y0216063D01*
X0052426Y0215811D01*
X0051970Y0216000D01*
X0050260Y0216000D01*
X0048679Y0215345D01*
X0047470Y0214136D01*
X0046815Y0212555D01*
X0046815Y0204845D01*
X0047470Y0203264D01*
X0048679Y0202055D01*
X0050260Y0201400D01*
X0051970Y0201400D01*
X0053551Y0202055D01*
X0054760Y0203264D01*
X0055415Y0204845D01*
X0055415Y0212555D01*
X0054760Y0214136D01*
X0053627Y0215270D01*
X0053634Y0215267D01*
X0054860Y0215267D01*
X0055992Y0215736D01*
X0056320Y0216063D01*
X0067606Y0216063D01*
X0067934Y0215736D01*
X0069066Y0215267D01*
X0070292Y0215267D01*
X0071424Y0215736D01*
X0071752Y0216063D01*
X0072312Y0216063D01*
X0073263Y0216063D01*
X0073263Y0216063D01*
X0073263Y0216063D01*
X0074053Y0216853D01*
X0074601Y0217401D01*
X0074601Y0217401D01*
X0089237Y0232038D01*
X0090366Y0231571D01*
X0091592Y0231571D01*
X0092724Y0232040D01*
X0093591Y0232906D01*
X0094060Y0234039D01*
X0094060Y0235265D01*
X0093591Y0236397D01*
X0092724Y0237264D01*
X0091592Y0237733D01*
X0090366Y0237733D01*
X0089234Y0237264D01*
X0088906Y0236936D01*
X0087674Y0236936D01*
X0087674Y0236936D01*
X0087673Y0236936D01*
X0086878Y0236140D01*
X0086335Y0235598D01*
X0086335Y0235598D01*
X0071561Y0220823D01*
X0071424Y0220960D01*
X0070292Y0221429D01*
X0069066Y0221429D01*
X0067934Y0220960D01*
X0067606Y0220632D01*
X0056320Y0220632D01*
X0055992Y0220960D01*
X0054860Y0221429D01*
X0053634Y0221429D01*
X0052502Y0220960D01*
X0052174Y0220632D01*
X0048764Y0220632D01*
X0043483Y0225913D01*
X0043483Y0231260D01*
X0043811Y0231587D01*
X0044280Y0232720D01*
X0044280Y0233946D01*
X0043811Y0235078D01*
X0042944Y0235945D01*
X0041812Y0236414D01*
X0040586Y0236414D01*
X0040274Y0236284D01*
X0029615Y0236284D01*
X0029594Y0236305D01*
X0028673Y0236284D01*
X0027753Y0236284D01*
X0027731Y0236263D01*
X0027702Y0236263D01*
X0027065Y0235597D01*
X0026414Y0234946D01*
X0026414Y0234916D01*
X0023597Y0231970D01*
X0022946Y0231319D01*
X0022946Y0231289D01*
X0022926Y0231267D01*
X0022946Y0230347D01*
X0022946Y0206110D01*
X0021345Y0204509D01*
X0020881Y0204509D01*
X0019749Y0204040D01*
X0019478Y0203770D01*
X0019478Y0234514D01*
X0025268Y0240459D01*
X0048071Y0240459D01*
X0047345Y0239732D01*
X0046876Y0238600D01*
X0046876Y0237374D01*
X0047345Y0236242D01*
X0048211Y0235375D01*
X0049344Y0234906D01*
X0050570Y0234906D01*
X0051702Y0235375D01*
X0052569Y0236242D01*
X0053038Y0237374D01*
X0053038Y0238600D01*
X0052569Y0239732D01*
X0051766Y0240535D01*
X0051767Y0240726D01*
X0051769Y0240728D01*
X0051769Y0241470D01*
X0051772Y0242088D01*
X0051820Y0242734D01*
X0051769Y0242793D01*
X0051769Y0242871D01*
X0051290Y0243350D01*
X0050847Y0243864D01*
X0050770Y0243870D01*
X0050715Y0243925D01*
X0050037Y0243925D01*
X0048983Y0244004D01*
X0048928Y0244059D01*
X0048250Y0244059D01*
X0047573Y0244109D01*
X0047514Y0244059D01*
X0025240Y0244059D01*
X0025230Y0244068D01*
X0024497Y0244059D01*
X0023763Y0244059D01*
X0023753Y0244049D01*
X0023739Y0244049D01*
X0023227Y0243523D01*
X0022708Y0243004D01*
X0022708Y0242990D01*
X0016398Y0236511D01*
X0015878Y0235991D01*
X0015878Y0235978D01*
X0015869Y0235968D01*
X0015878Y0235234D01*
X0015878Y0173992D01*
X0016933Y0172938D01*
X0019752Y0170118D01*
X0019752Y0168056D01*
X0019752Y0167367D01*
X0019752Y0167366D01*
X0020327Y0166792D01*
X0021478Y0165640D01*
X0020408Y0165197D01*
X0019542Y0164330D01*
X0019212Y0163533D01*
X0019052Y0163693D01*
X0017920Y0164162D01*
X0016694Y0164162D01*
X0016295Y0163997D01*
X0016295Y0164945D01*
X0015825Y0166077D01*
X0015338Y0166564D01*
X0015952Y0167178D01*
X0016421Y0168310D01*
X0016421Y0169536D01*
X0015952Y0170668D01*
X0015085Y0171535D01*
X0013994Y0171987D01*
X0013994Y0252592D01*
X0014315Y0252459D01*
X0015541Y0252459D01*
X0016673Y0252928D01*
X0017540Y0253795D01*
X0018009Y0254927D01*
X0018009Y0256153D01*
X0017540Y0257285D01*
X0016673Y0258152D01*
X0015541Y0258621D01*
X0014315Y0258621D01*
X0013182Y0258152D01*
X0012316Y0257285D01*
X0012246Y0257117D01*
X0012117Y0257106D01*
X0011895Y0257106D01*
X0011895Y0258557D01*
X0014090Y0258668D01*
X0015881Y0258668D01*
X0015985Y0258587D01*
X0016610Y0258668D01*
X0017240Y0258668D01*
X0017333Y0258761D01*
X0017464Y0258778D01*
X0017849Y0259277D01*
X0018294Y0259722D01*
X0018294Y0259854D01*
X0019962Y0262015D01*
X0020227Y0262280D01*
X0021313Y0261194D01*
X0022746Y0260600D01*
X0024298Y0260600D01*
X0025731Y0261194D01*
X0026828Y0262291D01*
X0027422Y0263724D01*
X0027422Y0270476D01*
X0026854Y0271848D01*
X0029636Y0271848D01*
X0030448Y0271036D01*
X0031581Y0270567D01*
X0032807Y0270567D01*
X0033939Y0271036D01*
X0034806Y0271902D01*
X0035275Y0273035D01*
X0035275Y0274260D01*
X0034806Y0275393D01*
X0034608Y0275591D01*
X0042926Y0275591D01*
X0042926Y0270671D01*
X0043688Y0269910D01*
X0044977Y0269910D01*
X0045099Y0264826D01*
X0044921Y0264386D01*
X0044959Y0264296D01*
X0044044Y0263380D01*
X0044044Y0259570D01*
X0046738Y0256875D01*
X0050549Y0256875D01*
X0053244Y0259570D01*
X0053244Y0263380D01*
X0050549Y0266075D01*
X0049639Y0266075D01*
X0049547Y0269910D01*
X0050670Y0269910D01*
X0050997Y0270237D01*
X0050997Y0268506D01*
X0051759Y0267744D01*
X0056379Y0267744D01*
X0057140Y0268506D01*
X0057140Y0270237D01*
X0057467Y0269910D01*
X0059216Y0269910D01*
X0059281Y0266075D01*
X0056738Y0266075D01*
X0054044Y0263380D01*
X0054044Y0259570D01*
X0056738Y0256875D01*
X0060549Y0256875D01*
X0063244Y0259570D01*
X0063244Y0263380D01*
X0062921Y0263703D01*
X0062817Y0269910D01*
X0064450Y0269910D01*
X0065211Y0270671D01*
X0065211Y0275591D01*
X0181796Y0275591D01*
X0181796Y0003000D01*
X0003694Y0003000D01*
X0003694Y0275591D01*
X0020223Y0275591D01*
X0019872Y0275448D01*
X0019480Y0275448D01*
X0019209Y0275177D01*
X0018855Y0275033D01*
X0018703Y0274671D01*
X0018425Y0274393D01*
X0018425Y0274011D01*
X0017182Y0271055D01*
X0016828Y0271909D01*
X0015731Y0273006D01*
X0014298Y0273600D01*
X0012746Y0273600D01*
X0011313Y0273006D01*
X0010216Y0271909D01*
X0009622Y0270476D01*
X0009622Y0263724D01*
X0010216Y0262291D01*
X0010419Y0262087D01*
X0010050Y0262069D01*
X0009350Y0262069D01*
X0009313Y0262032D01*
X0009260Y0262029D01*
X0008791Y0261510D01*
X0008295Y0261014D01*
X0008295Y0260962D01*
X0008260Y0260923D01*
X0008295Y0260224D01*
X0008295Y0054165D01*
X0008190Y0053594D01*
X0008295Y0053440D01*
X0008295Y0053254D01*
X0008706Y0052844D01*
X0010394Y0050391D01*
X0010394Y0050205D01*
X0010804Y0049795D01*
X0011134Y0049316D01*
X0011317Y0049282D01*
X0011448Y0049151D01*
X0011840Y0049151D01*
X0012652Y0048339D01*
X0013785Y0047870D01*
X0014746Y0047870D01*
X0014746Y0047251D01*
X0015215Y0046119D01*
X0016081Y0045252D01*
X0017214Y0044783D01*
X0018440Y0044783D01*
X0019572Y0045252D01*
X0020439Y0046119D01*
X0020908Y0047251D01*
X0020908Y0048477D01*
X0020439Y0049609D01*
X0020368Y0049680D01*
X0020368Y0064723D01*
X0018246Y0066845D01*
X0018246Y0084479D01*
X0018269Y0084500D01*
X0018645Y0084500D01*
X0019777Y0084969D01*
X0020644Y0085836D01*
X0021113Y0086968D01*
X0021113Y0088194D01*
X0020644Y0089326D01*
X0020316Y0089654D01*
X0020316Y0100621D01*
X0018978Y0101959D01*
X0018211Y0102726D01*
X0018211Y0103190D01*
X0017742Y0104322D01*
X0016875Y0105189D01*
X0015743Y0105658D01*
X0014517Y0105658D01*
X0013732Y0105333D01*
X0013990Y0160751D01*
X0013994Y0160754D01*
X0013994Y0161320D01*
X0014226Y0161416D01*
X0014226Y0160468D01*
X0014695Y0159336D01*
X0015000Y0159030D01*
X0015000Y0149621D01*
X0014923Y0149522D01*
X0015000Y0148891D01*
X0015000Y0148254D01*
X0015088Y0148166D01*
X0015104Y0148042D01*
X0015605Y0147650D01*
X0016023Y0147232D01*
X0015999Y0147208D01*
X0015530Y0146076D01*
X0015530Y0144850D01*
X0015999Y0143718D01*
X0016865Y0142851D01*
X0017998Y0142382D01*
X0019154Y0142382D01*
X0023095Y0138457D01*
X0023622Y0137930D01*
X0023624Y0137930D01*
X0023626Y0137928D01*
X0024371Y0137930D01*
X0036785Y0137930D01*
X0038021Y0136688D01*
X0037904Y0136570D01*
X0037435Y0135438D01*
X0037435Y0134212D01*
X0037904Y0133080D01*
X0038770Y0132213D01*
X0039903Y0131744D01*
X0041129Y0131744D01*
X0042261Y0132213D01*
X0043128Y0133080D01*
X0043185Y0133218D01*
X0043832Y0133218D01*
X0043832Y0117462D01*
X0043683Y0117362D01*
X0043483Y0117362D01*
X0043081Y0116960D01*
X0043025Y0116923D01*
X0041275Y0118672D01*
X0041275Y0118672D01*
X0040221Y0119727D01*
X0026237Y0119727D01*
X0025504Y0119737D01*
X0025494Y0119727D01*
X0025480Y0119727D01*
X0024961Y0119208D01*
X0021462Y0115800D01*
X0021448Y0115800D01*
X0020929Y0115281D01*
X0020404Y0114769D01*
X0020404Y0114755D01*
X0020394Y0114746D01*
X0020394Y0114012D01*
X0020384Y0113278D01*
X0020394Y0113268D01*
X0020394Y0108467D01*
X0020382Y0108455D01*
X0020394Y0107724D01*
X0020394Y0106992D01*
X0020406Y0106980D01*
X0020406Y0106964D01*
X0020931Y0106455D01*
X0021448Y0105938D01*
X0021465Y0105938D01*
X0023516Y0103951D01*
X0023516Y0100555D01*
X0022570Y0099609D01*
X0022033Y0099072D01*
X0021516Y0098555D01*
X0021516Y0098555D01*
X0021515Y0098554D01*
X0021515Y0097809D01*
X0021515Y0097064D01*
X0021515Y0097064D01*
X0021515Y0074160D01*
X0021515Y0073414D01*
X0021515Y0072669D01*
X0021516Y0072669D01*
X0021516Y0072669D01*
X0022033Y0072152D01*
X0022570Y0071615D01*
X0022570Y0071615D01*
X0023106Y0071079D01*
X0023106Y0069231D01*
X0021702Y0067758D01*
X0021189Y0067246D01*
X0021189Y0067221D01*
X0021172Y0067203D01*
X0021189Y0066478D01*
X0021189Y0041242D01*
X0019385Y0040800D01*
X0018857Y0040800D01*
X0018685Y0040629D01*
X0018450Y0040571D01*
X0018176Y0040119D01*
X0017802Y0039746D01*
X0017802Y0039503D01*
X0017677Y0039296D01*
X0017802Y0038783D01*
X0017802Y0024478D01*
X0017801Y0024477D01*
X0017802Y0023731D01*
X0017802Y0022989D01*
X0017804Y0022988D01*
X0017804Y0022985D01*
X0018331Y0022461D01*
X0018857Y0021935D01*
X0018859Y0021935D01*
X0033682Y0007177D01*
X0033733Y0006955D01*
X0034193Y0006668D01*
X0034577Y0006285D01*
X0034805Y0006286D01*
X0034998Y0006165D01*
X0035526Y0006287D01*
X0036068Y0006289D01*
X0036229Y0006450D01*
X0041297Y0007621D01*
X0042109Y0006808D01*
X0043242Y0006339D01*
X0044468Y0006339D01*
X0045600Y0006808D01*
X0046467Y0007675D01*
X0046936Y0008807D01*
X0046936Y0009960D01*
X0049859Y0007037D01*
X0142314Y0007037D01*
X0143369Y0008091D01*
X0143976Y0008699D01*
X0143976Y0008699D01*
X0145011Y0009733D01*
X0145031Y0009753D01*
X0145031Y0015318D01*
X0145774Y0016061D01*
X0146243Y0017193D01*
X0146243Y0018419D01*
X0145774Y0019551D01*
X0144907Y0020418D01*
X0143775Y0020887D01*
X0142549Y0020887D01*
X0141416Y0020418D01*
X0141260Y0020261D01*
X0141132Y0020570D01*
X0140265Y0021437D01*
X0139133Y0021906D01*
X0137907Y0021906D01*
X0136774Y0021437D01*
X0136155Y0020818D01*
X0134319Y0020818D01*
X0128103Y0014602D01*
X0055354Y0014602D01*
X0056108Y0015356D01*
X0056577Y0016488D01*
X0056577Y0017714D01*
X0056108Y0018846D01*
X0055241Y0019713D01*
X0054109Y0020182D01*
X0052883Y0020182D01*
X0051750Y0019713D01*
X0051638Y0019601D01*
X0045439Y0025800D01*
X0038094Y0025800D01*
X0035244Y0029600D01*
X0035244Y0039700D01*
X0040439Y0039700D01*
X0040993Y0040253D01*
X0041023Y0040241D01*
X0042249Y0040241D01*
X0044112Y0041440D02*
X0116069Y0041440D01*
X0115209Y0042439D02*
X0069871Y0042439D01*
X0070665Y0043437D02*
X0114547Y0043437D01*
X0114595Y0044436D02*
X0070989Y0044436D01*
X0070989Y0045434D02*
X0114595Y0045434D01*
X0114595Y0046433D02*
X0078434Y0046433D01*
X0079125Y0047432D02*
X0114595Y0047432D01*
X0114595Y0048430D02*
X0079377Y0048430D01*
X0079309Y0049429D02*
X0114595Y0049429D01*
X0114595Y0050427D02*
X0078877Y0050427D01*
X0077650Y0051426D02*
X0114595Y0051426D01*
X0114595Y0052424D02*
X0073241Y0052424D01*
X0073369Y0053423D02*
X0114595Y0053423D01*
X0114595Y0054421D02*
X0073177Y0054421D01*
X0072570Y0055420D02*
X0114595Y0055420D01*
X0114595Y0056418D02*
X0071109Y0056418D01*
X0069633Y0055195D02*
X0070288Y0053345D01*
X0069633Y0055195D02*
X0049694Y0055195D01*
X0047194Y0056500D01*
X0047194Y0070014D01*
X0043444Y0073760D01*
X0043444Y0079075D01*
X0044359Y0082427D01*
X0044359Y0085392D01*
X0046702Y0083378D02*
X0048247Y0083378D01*
X0048065Y0082379D02*
X0046212Y0082379D01*
X0045939Y0081381D02*
X0048202Y0081381D01*
X0048731Y0080382D02*
X0045666Y0080382D01*
X0045394Y0079384D02*
X0050195Y0079384D01*
X0052097Y0079384D02*
X0081673Y0079384D01*
X0081941Y0080382D02*
X0053560Y0080382D01*
X0052222Y0078385D02*
X0058327Y0078385D01*
X0059213Y0076726D02*
X0058339Y0075852D01*
X0050398Y0075852D01*
X0047668Y0074391D02*
X0045359Y0074391D01*
X0045244Y0075390D02*
X0047317Y0075390D01*
X0047317Y0076388D02*
X0045244Y0076388D01*
X0045244Y0077387D02*
X0047699Y0077387D01*
X0048574Y0078385D02*
X0045244Y0078385D01*
X0041644Y0075390D02*
X0040516Y0075390D01*
X0041643Y0074391D02*
X0034322Y0074391D01*
X0034322Y0073393D02*
X0041644Y0073393D01*
X0041644Y0073014D02*
X0041644Y0073014D01*
X0042264Y0072394D02*
X0034322Y0072394D01*
X0034322Y0071396D02*
X0043263Y0071396D01*
X0044263Y0070397D02*
X0034322Y0070397D01*
X0034322Y0069399D02*
X0045263Y0069399D01*
X0045394Y0068400D02*
X0034322Y0068400D01*
X0034322Y0067402D02*
X0045394Y0067402D01*
X0045394Y0066403D02*
X0034322Y0066403D01*
X0034322Y0065405D02*
X0045394Y0065405D01*
X0045394Y0064406D02*
X0034129Y0064406D01*
X0033130Y0063408D02*
X0045394Y0063408D01*
X0045394Y0062409D02*
X0032279Y0062409D01*
X0032279Y0061411D02*
X0045394Y0061411D01*
X0045394Y0060412D02*
X0032279Y0060412D01*
X0032279Y0059414D02*
X0045394Y0059414D01*
X0045394Y0058415D02*
X0032279Y0058415D01*
X0032279Y0057417D02*
X0045394Y0057417D01*
X0045333Y0056418D02*
X0032279Y0056418D01*
X0032279Y0055420D02*
X0045646Y0055420D01*
X0047286Y0054421D02*
X0032279Y0054421D01*
X0032279Y0053423D02*
X0048921Y0053423D01*
X0052509Y0050427D02*
X0032279Y0050427D01*
X0032279Y0049429D02*
X0052078Y0049429D01*
X0052010Y0048430D02*
X0032279Y0048430D01*
X0032279Y0047432D02*
X0052261Y0047432D01*
X0052952Y0046433D02*
X0032279Y0046433D01*
X0032279Y0045434D02*
X0039391Y0045434D01*
X0038762Y0044436D02*
X0032279Y0044436D01*
X0032279Y0043437D02*
X0038555Y0043437D01*
X0039694Y0041500D02*
X0041515Y0043322D01*
X0041636Y0043322D01*
X0066396Y0043322D01*
X0067908Y0044833D01*
X0067194Y0044000D02*
X0066396Y0043322D01*
X0064827Y0045434D02*
X0043880Y0045434D01*
X0039694Y0041500D02*
X0033444Y0041500D01*
X0033444Y0029000D01*
X0037194Y0024000D01*
X0044694Y0024000D01*
X0051593Y0017101D01*
X0053496Y0017101D01*
X0056262Y0018475D02*
X0131976Y0018475D01*
X0130978Y0017476D02*
X0056577Y0017476D01*
X0056572Y0016478D02*
X0129979Y0016478D01*
X0128981Y0015479D02*
X0056159Y0015479D01*
X0055481Y0019473D02*
X0132975Y0019473D01*
X0133973Y0020472D02*
X0050768Y0020472D01*
X0050813Y0021200D02*
X0054375Y0021200D01*
X0056894Y0023719D01*
X0056894Y0027281D01*
X0054375Y0029800D01*
X0050813Y0029800D01*
X0048294Y0027281D01*
X0048294Y0023719D01*
X0050813Y0021200D01*
X0050542Y0021470D02*
X0049769Y0021470D01*
X0049544Y0022469D02*
X0048771Y0022469D01*
X0048545Y0023467D02*
X0047772Y0023467D01*
X0048294Y0024466D02*
X0046774Y0024466D01*
X0045775Y0025464D02*
X0048294Y0025464D01*
X0048294Y0026463D02*
X0037597Y0026463D01*
X0036848Y0027461D02*
X0048474Y0027461D01*
X0049473Y0028460D02*
X0036099Y0028460D01*
X0035350Y0029458D02*
X0050471Y0029458D01*
X0050813Y0031200D02*
X0054375Y0031200D01*
X0056894Y0033719D01*
X0056894Y0037281D01*
X0054375Y0039800D01*
X0050813Y0039800D01*
X0048294Y0037281D01*
X0048294Y0033719D01*
X0050813Y0031200D01*
X0050557Y0031455D02*
X0035244Y0031455D01*
X0035244Y0030457D02*
X0181796Y0030457D01*
X0181796Y0031455D02*
X0114630Y0031455D01*
X0115629Y0032454D02*
X0181796Y0032454D01*
X0181796Y0033452D02*
X0116627Y0033452D01*
X0116894Y0034451D02*
X0181796Y0034451D01*
X0181796Y0035449D02*
X0116894Y0035449D01*
X0116894Y0036448D02*
X0181796Y0036448D01*
X0181796Y0037446D02*
X0116728Y0037446D01*
X0119519Y0044436D02*
X0181796Y0044436D01*
X0181796Y0045434D02*
X0177020Y0045434D01*
X0176941Y0045355D02*
X0178150Y0046564D01*
X0178805Y0048145D01*
X0178805Y0049855D01*
X0178150Y0051436D01*
X0176941Y0052645D01*
X0175360Y0053300D01*
X0167649Y0053300D01*
X0166069Y0052645D01*
X0164859Y0051436D01*
X0164205Y0049855D01*
X0164205Y0048145D01*
X0164859Y0046564D01*
X0166069Y0045355D01*
X0167649Y0044700D01*
X0175360Y0044700D01*
X0176941Y0045355D01*
X0178019Y0046433D02*
X0181796Y0046433D01*
X0181796Y0047432D02*
X0178509Y0047432D01*
X0178805Y0048430D02*
X0181796Y0048430D01*
X0181796Y0049429D02*
X0178805Y0049429D01*
X0178568Y0050427D02*
X0181796Y0050427D01*
X0181796Y0051426D02*
X0178154Y0051426D01*
X0177162Y0052424D02*
X0181796Y0052424D01*
X0181796Y0053423D02*
X0119164Y0053423D01*
X0119164Y0054421D02*
X0181796Y0054421D01*
X0181796Y0055420D02*
X0177006Y0055420D01*
X0176941Y0055355D02*
X0178150Y0056564D01*
X0178805Y0058145D01*
X0178805Y0059855D01*
X0178150Y0061436D01*
X0176941Y0062645D01*
X0175360Y0063300D01*
X0167649Y0063300D01*
X0166069Y0062645D01*
X0164859Y0061436D01*
X0164205Y0059855D01*
X0164205Y0058145D01*
X0164859Y0056564D01*
X0166069Y0055355D01*
X0167649Y0054700D01*
X0175360Y0054700D01*
X0176941Y0055355D01*
X0178004Y0056418D02*
X0181796Y0056418D01*
X0181796Y0057417D02*
X0178503Y0057417D01*
X0178805Y0058415D02*
X0181796Y0058415D01*
X0181796Y0059414D02*
X0178805Y0059414D01*
X0178574Y0060412D02*
X0181796Y0060412D01*
X0181796Y0061411D02*
X0178161Y0061411D01*
X0177177Y0062409D02*
X0181796Y0062409D01*
X0181796Y0063408D02*
X0119164Y0063408D01*
X0119164Y0064406D02*
X0181796Y0064406D01*
X0181796Y0065405D02*
X0176991Y0065405D01*
X0176941Y0065355D02*
X0178150Y0066564D01*
X0178805Y0068145D01*
X0178805Y0069855D01*
X0178150Y0071436D01*
X0176941Y0072645D01*
X0175360Y0073300D01*
X0167649Y0073300D01*
X0166069Y0072645D01*
X0164859Y0071436D01*
X0164205Y0069855D01*
X0164205Y0068145D01*
X0164859Y0066564D01*
X0166069Y0065355D01*
X0167649Y0064700D01*
X0175360Y0064700D01*
X0176941Y0065355D01*
X0177989Y0066403D02*
X0181796Y0066403D01*
X0181796Y0067402D02*
X0178497Y0067402D01*
X0178805Y0068400D02*
X0181796Y0068400D01*
X0181796Y0069399D02*
X0178805Y0069399D01*
X0178580Y0070397D02*
X0181796Y0070397D01*
X0181796Y0071396D02*
X0178167Y0071396D01*
X0177192Y0072394D02*
X0181796Y0072394D01*
X0181796Y0073393D02*
X0119164Y0073393D01*
X0119164Y0074391D02*
X0181796Y0074391D01*
X0181796Y0075390D02*
X0176976Y0075390D01*
X0176941Y0075355D02*
X0178150Y0076564D01*
X0178805Y0078145D01*
X0178805Y0079855D01*
X0178150Y0081436D01*
X0176941Y0082645D01*
X0175360Y0083300D01*
X0167649Y0083300D01*
X0166069Y0082645D01*
X0164859Y0081436D01*
X0164205Y0079855D01*
X0164205Y0078145D01*
X0164859Y0076564D01*
X0166069Y0075355D01*
X0167649Y0074700D01*
X0175360Y0074700D01*
X0176941Y0075355D01*
X0177974Y0076388D02*
X0181796Y0076388D01*
X0181796Y0077387D02*
X0178491Y0077387D01*
X0178805Y0078385D02*
X0181796Y0078385D01*
X0181796Y0079384D02*
X0178805Y0079384D01*
X0178586Y0080382D02*
X0181796Y0080382D01*
X0181796Y0081381D02*
X0178173Y0081381D01*
X0177207Y0082379D02*
X0181796Y0082379D01*
X0181796Y0083378D02*
X0119164Y0083378D01*
X0119164Y0084376D02*
X0181796Y0084376D01*
X0181796Y0085375D02*
X0176961Y0085375D01*
X0176941Y0085355D02*
X0178150Y0086564D01*
X0178805Y0088145D01*
X0178805Y0089855D01*
X0178150Y0091436D01*
X0176941Y0092645D01*
X0175360Y0093300D01*
X0167649Y0093300D01*
X0166069Y0092645D01*
X0164859Y0091436D01*
X0164205Y0089855D01*
X0164205Y0088145D01*
X0164859Y0086564D01*
X0166069Y0085355D01*
X0167649Y0084700D01*
X0175360Y0084700D01*
X0176941Y0085355D01*
X0177959Y0086373D02*
X0181796Y0086373D01*
X0181796Y0087372D02*
X0178485Y0087372D01*
X0178805Y0088370D02*
X0181796Y0088370D01*
X0181796Y0089369D02*
X0178805Y0089369D01*
X0178593Y0090368D02*
X0181796Y0090368D01*
X0181796Y0091366D02*
X0178179Y0091366D01*
X0177221Y0092365D02*
X0181796Y0092365D01*
X0181796Y0093363D02*
X0119164Y0093363D01*
X0119164Y0092365D02*
X0165788Y0092365D01*
X0164831Y0091366D02*
X0119164Y0091366D01*
X0119164Y0090368D02*
X0164417Y0090368D01*
X0164205Y0089369D02*
X0119164Y0089369D01*
X0119164Y0088370D02*
X0164205Y0088370D01*
X0164525Y0087372D02*
X0119164Y0087372D01*
X0119164Y0086373D02*
X0165050Y0086373D01*
X0166049Y0085375D02*
X0119164Y0085375D01*
X0119164Y0082379D02*
X0165803Y0082379D01*
X0164837Y0081381D02*
X0119164Y0081381D01*
X0119164Y0080382D02*
X0164423Y0080382D01*
X0164205Y0079384D02*
X0119164Y0079384D01*
X0119164Y0078385D02*
X0164205Y0078385D01*
X0164519Y0077387D02*
X0119164Y0077387D01*
X0119164Y0076388D02*
X0165035Y0076388D01*
X0166034Y0075390D02*
X0119164Y0075390D01*
X0119164Y0072394D02*
X0165818Y0072394D01*
X0164843Y0071396D02*
X0119164Y0071396D01*
X0119164Y0070397D02*
X0164429Y0070397D01*
X0164205Y0069399D02*
X0119164Y0069399D01*
X0119164Y0068400D02*
X0164205Y0068400D01*
X0164513Y0067402D02*
X0119164Y0067402D01*
X0119164Y0066403D02*
X0165020Y0066403D01*
X0166019Y0065405D02*
X0119164Y0065405D01*
X0119164Y0062409D02*
X0165833Y0062409D01*
X0164849Y0061411D02*
X0119164Y0061411D01*
X0119164Y0060412D02*
X0164435Y0060412D01*
X0164205Y0059414D02*
X0119164Y0059414D01*
X0119164Y0058415D02*
X0164205Y0058415D01*
X0164506Y0057417D02*
X0119164Y0057417D01*
X0119164Y0056418D02*
X0165006Y0056418D01*
X0166004Y0055420D02*
X0119164Y0055420D01*
X0119164Y0052424D02*
X0165848Y0052424D01*
X0164855Y0051426D02*
X0119164Y0051426D01*
X0119164Y0050427D02*
X0164442Y0050427D01*
X0164205Y0049429D02*
X0119164Y0049429D01*
X0119164Y0048430D02*
X0164205Y0048430D01*
X0164500Y0047432D02*
X0119164Y0047432D01*
X0119164Y0046433D02*
X0164991Y0046433D01*
X0165989Y0045434D02*
X0119164Y0045434D01*
X0114595Y0057417D02*
X0065233Y0057417D01*
X0065647Y0058415D02*
X0114595Y0058415D01*
X0114595Y0059414D02*
X0065658Y0059414D01*
X0065349Y0060412D02*
X0114595Y0060412D01*
X0114595Y0061411D02*
X0083082Y0061411D01*
X0084358Y0062409D02*
X0114595Y0062409D01*
X0114595Y0063408D02*
X0084809Y0063408D01*
X0084891Y0064406D02*
X0114595Y0064406D01*
X0114595Y0065405D02*
X0084654Y0065405D01*
X0083983Y0066403D02*
X0114595Y0066403D01*
X0114595Y0067402D02*
X0083610Y0067402D01*
X0083610Y0068400D02*
X0114595Y0068400D01*
X0114595Y0069399D02*
X0090017Y0069399D01*
X0091498Y0070397D02*
X0114595Y0070397D01*
X0114595Y0071396D02*
X0092034Y0071396D01*
X0092177Y0072394D02*
X0114595Y0072394D01*
X0114595Y0073393D02*
X0091999Y0073393D01*
X0091413Y0074391D02*
X0114595Y0074391D01*
X0114595Y0075390D02*
X0089813Y0075390D01*
X0089964Y0076388D02*
X0114595Y0076388D01*
X0114595Y0077387D02*
X0090745Y0077387D01*
X0091328Y0078385D02*
X0114595Y0078385D01*
X0114595Y0079384D02*
X0091876Y0079384D01*
X0092027Y0080382D02*
X0114595Y0080382D01*
X0114595Y0081381D02*
X0091858Y0081381D01*
X0091283Y0082379D02*
X0114595Y0082379D01*
X0114595Y0083378D02*
X0089711Y0083378D01*
X0090252Y0084376D02*
X0114595Y0084376D01*
X0114595Y0085375D02*
X0090997Y0085375D01*
X0090997Y0086373D02*
X0114595Y0086373D01*
X0114595Y0087372D02*
X0090997Y0087372D01*
X0090997Y0088370D02*
X0114595Y0088370D01*
X0114595Y0089369D02*
X0090997Y0089369D01*
X0090997Y0090368D02*
X0114595Y0090368D01*
X0114595Y0091366D02*
X0090997Y0091366D01*
X0090997Y0092365D02*
X0114595Y0092365D01*
X0114595Y0093363D02*
X0091046Y0093363D01*
X0091907Y0094362D02*
X0114595Y0094362D01*
X0114595Y0095360D02*
X0092279Y0095360D01*
X0092279Y0096359D02*
X0114595Y0096359D01*
X0114595Y0097357D02*
X0091917Y0097357D01*
X0091071Y0098356D02*
X0114595Y0098356D01*
X0114595Y0099354D02*
X0075833Y0099354D01*
X0075827Y0100353D02*
X0114595Y0100353D01*
X0114595Y0101351D02*
X0075874Y0101351D01*
X0075600Y0102350D02*
X0114595Y0102350D01*
X0114595Y0103348D02*
X0076989Y0103348D01*
X0077540Y0104347D02*
X0114595Y0104347D01*
X0114595Y0105345D02*
X0077693Y0105345D01*
X0077526Y0106344D02*
X0114595Y0106344D01*
X0114595Y0107342D02*
X0088691Y0107342D01*
X0087194Y0108606D02*
X0092194Y0111106D01*
X0092194Y0116500D01*
X0084694Y0124000D01*
X0084694Y0129000D01*
X0083951Y0129742D01*
X0083951Y0133940D01*
X0083951Y0139720D01*
X0077504Y0146168D01*
X0080377Y0147283D02*
X0181796Y0147283D01*
X0181796Y0148281D02*
X0098644Y0148281D01*
X0098474Y0148111D02*
X0099341Y0148978D01*
X0099810Y0150110D01*
X0099810Y0151336D01*
X0099341Y0152468D01*
X0098755Y0153054D01*
X0105589Y0160243D01*
X0106100Y0160754D01*
X0106100Y0160781D01*
X0106119Y0160800D01*
X0106100Y0161523D01*
X0106100Y0163008D01*
X0110051Y0159057D01*
X0110051Y0158594D01*
X0110520Y0157461D01*
X0111387Y0156595D01*
X0112519Y0156126D01*
X0113745Y0156126D01*
X0114877Y0156595D01*
X0115744Y0157461D01*
X0116213Y0158594D01*
X0116213Y0159820D01*
X0115744Y0160952D01*
X0114877Y0161819D01*
X0113745Y0162288D01*
X0113282Y0162288D01*
X0109802Y0165768D01*
X0109802Y0222351D01*
X0110642Y0223190D01*
X0111111Y0224323D01*
X0111111Y0225549D01*
X0110642Y0226681D01*
X0109775Y0227548D01*
X0108643Y0228017D01*
X0107417Y0228017D01*
X0106285Y0227548D01*
X0105418Y0226681D01*
X0104949Y0225549D01*
X0104949Y0224323D01*
X0105233Y0223636D01*
X0105233Y0219182D01*
X0105046Y0219370D01*
X0105044Y0219370D01*
X0099639Y0224748D01*
X0099639Y0248273D01*
X0099684Y0248324D01*
X0099639Y0249009D01*
X0099639Y0249696D01*
X0099591Y0249744D01*
X0099587Y0249812D01*
X0099071Y0250264D01*
X0098585Y0250750D01*
X0098517Y0250750D01*
X0096094Y0252875D01*
X0096094Y0254246D01*
X0095561Y0255533D01*
X0094576Y0256517D01*
X0093290Y0257050D01*
X0091898Y0257050D01*
X0090611Y0256517D01*
X0089627Y0255533D01*
X0089094Y0254246D01*
X0089094Y0252854D01*
X0089627Y0251567D01*
X0090611Y0250583D01*
X0091898Y0250050D01*
X0093290Y0250050D01*
X0093674Y0250209D01*
X0096039Y0248134D01*
X0096039Y0224743D01*
X0096038Y0224741D01*
X0096039Y0223996D01*
X0096039Y0223254D01*
X0096041Y0223253D01*
X0096041Y0223250D01*
X0096568Y0222726D01*
X0097094Y0222200D01*
X0097096Y0222200D01*
X0102500Y0216822D01*
X0102500Y0162219D01*
X0095440Y0154791D01*
X0094929Y0154280D01*
X0094929Y0154254D01*
X0094910Y0154235D01*
X0094929Y0153512D01*
X0094929Y0153280D01*
X0094117Y0152468D01*
X0093648Y0151336D01*
X0093648Y0150110D01*
X0094117Y0148978D01*
X0094983Y0148111D01*
X0096116Y0147642D01*
X0097342Y0147642D01*
X0098474Y0148111D01*
X0099466Y0149280D02*
X0181796Y0149280D01*
X0181796Y0150278D02*
X0099810Y0150278D01*
X0099810Y0151277D02*
X0181796Y0151277D01*
X0181796Y0152275D02*
X0099421Y0152275D01*
X0098964Y0153274D02*
X0181796Y0153274D01*
X0181796Y0154272D02*
X0099913Y0154272D01*
X0100862Y0155271D02*
X0181796Y0155271D01*
X0181796Y0156269D02*
X0114092Y0156269D01*
X0115550Y0157268D02*
X0181796Y0157268D01*
X0181796Y0158266D02*
X0116077Y0158266D01*
X0116213Y0159265D02*
X0181796Y0159265D01*
X0181796Y0160263D02*
X0116029Y0160263D01*
X0115434Y0161262D02*
X0181796Y0161262D01*
X0181796Y0162260D02*
X0113811Y0162260D01*
X0112311Y0163259D02*
X0181796Y0163259D01*
X0181796Y0164257D02*
X0111312Y0164257D01*
X0110314Y0165256D02*
X0181796Y0165256D01*
X0181796Y0166254D02*
X0109802Y0166254D01*
X0109802Y0167253D02*
X0181796Y0167253D01*
X0181796Y0168251D02*
X0109802Y0168251D01*
X0109802Y0169250D02*
X0181796Y0169250D01*
X0181796Y0170248D02*
X0109802Y0170248D01*
X0109802Y0171247D02*
X0181796Y0171247D01*
X0181796Y0172245D02*
X0109802Y0172245D01*
X0109802Y0173244D02*
X0181796Y0173244D01*
X0181796Y0174242D02*
X0109802Y0174242D01*
X0109802Y0175241D02*
X0181796Y0175241D01*
X0181796Y0176239D02*
X0109802Y0176239D01*
X0109802Y0177238D02*
X0181796Y0177238D01*
X0181796Y0178237D02*
X0109802Y0178237D01*
X0109802Y0179235D02*
X0181796Y0179235D01*
X0181796Y0180234D02*
X0109802Y0180234D01*
X0109802Y0181232D02*
X0181796Y0181232D01*
X0181796Y0182231D02*
X0109802Y0182231D01*
X0109802Y0183229D02*
X0181796Y0183229D01*
X0181796Y0184228D02*
X0109802Y0184228D01*
X0109802Y0185226D02*
X0181796Y0185226D01*
X0181796Y0186225D02*
X0109802Y0186225D01*
X0109802Y0187223D02*
X0181796Y0187223D01*
X0181796Y0188222D02*
X0109802Y0188222D01*
X0109802Y0189220D02*
X0181796Y0189220D01*
X0181796Y0190219D02*
X0109802Y0190219D01*
X0109802Y0191217D02*
X0181796Y0191217D01*
X0181796Y0192216D02*
X0109802Y0192216D01*
X0109802Y0193214D02*
X0181796Y0193214D01*
X0181796Y0194213D02*
X0109802Y0194213D01*
X0109802Y0195211D02*
X0181796Y0195211D01*
X0181796Y0196210D02*
X0109802Y0196210D01*
X0109802Y0197208D02*
X0181796Y0197208D01*
X0181796Y0198207D02*
X0109802Y0198207D01*
X0109802Y0199205D02*
X0181796Y0199205D01*
X0181796Y0200204D02*
X0109802Y0200204D01*
X0109802Y0201202D02*
X0181796Y0201202D01*
X0181796Y0202201D02*
X0109802Y0202201D01*
X0109802Y0203199D02*
X0181796Y0203199D01*
X0181796Y0204198D02*
X0109802Y0204198D01*
X0109802Y0205196D02*
X0181796Y0205196D01*
X0181796Y0206195D02*
X0109802Y0206195D01*
X0109802Y0207193D02*
X0181796Y0207193D01*
X0181796Y0208192D02*
X0109802Y0208192D01*
X0109802Y0209190D02*
X0181796Y0209190D01*
X0181796Y0210189D02*
X0109802Y0210189D01*
X0109802Y0211187D02*
X0181796Y0211187D01*
X0181796Y0212186D02*
X0109802Y0212186D01*
X0109802Y0213184D02*
X0181796Y0213184D01*
X0181796Y0214183D02*
X0109802Y0214183D01*
X0109802Y0215181D02*
X0181796Y0215181D01*
X0181796Y0216180D02*
X0109802Y0216180D01*
X0109802Y0217178D02*
X0181796Y0217178D01*
X0181796Y0218177D02*
X0109802Y0218177D01*
X0109802Y0219175D02*
X0181796Y0219175D01*
X0181796Y0220174D02*
X0109802Y0220174D01*
X0109802Y0221172D02*
X0181796Y0221172D01*
X0181796Y0222171D02*
X0109802Y0222171D01*
X0110621Y0223170D02*
X0181796Y0223170D01*
X0181796Y0224168D02*
X0111047Y0224168D01*
X0111111Y0225167D02*
X0181796Y0225167D01*
X0181796Y0226165D02*
X0110856Y0226165D01*
X0110159Y0227164D02*
X0114622Y0227164D01*
X0115017Y0227000D02*
X0113437Y0227655D01*
X0112227Y0228864D01*
X0111573Y0230445D01*
X0111573Y0238155D01*
X0112227Y0239736D01*
X0113437Y0240945D01*
X0115017Y0241600D01*
X0116728Y0241600D01*
X0118308Y0240945D01*
X0119518Y0239736D01*
X0120172Y0238155D01*
X0120172Y0230445D01*
X0119518Y0228864D01*
X0118308Y0227655D01*
X0116728Y0227000D01*
X0115017Y0227000D01*
X0117123Y0227164D02*
X0124079Y0227164D01*
X0124145Y0227130D02*
X0124819Y0226911D01*
X0125373Y0226823D01*
X0125373Y0233800D01*
X0126372Y0233800D01*
X0126372Y0226823D01*
X0126926Y0226911D01*
X0127600Y0227130D01*
X0128231Y0227451D01*
X0128804Y0227868D01*
X0129305Y0228368D01*
X0129721Y0228941D01*
X0130043Y0229573D01*
X0130262Y0230246D01*
X0130372Y0230946D01*
X0130372Y0233800D01*
X0126373Y0233800D01*
X0126373Y0234800D01*
X0130372Y0234800D01*
X0130372Y0237654D01*
X0130262Y0238354D01*
X0130043Y0239027D01*
X0129721Y0239659D01*
X0129305Y0240232D01*
X0128804Y0240732D01*
X0128231Y0241149D01*
X0127600Y0241470D01*
X0126926Y0241689D01*
X0126372Y0241777D01*
X0126372Y0234800D01*
X0125373Y0234800D01*
X0125373Y0241777D01*
X0124819Y0241689D01*
X0124145Y0241470D01*
X0123514Y0241149D01*
X0122941Y0240732D01*
X0122440Y0240232D01*
X0122024Y0239659D01*
X0121702Y0239027D01*
X0121483Y0238354D01*
X0121373Y0237654D01*
X0121373Y0234800D01*
X0125372Y0234800D01*
X0125372Y0233800D01*
X0121373Y0233800D01*
X0121373Y0230946D01*
X0121483Y0230246D01*
X0121702Y0229573D01*
X0122024Y0228941D01*
X0122440Y0228368D01*
X0122941Y0227868D01*
X0123514Y0227451D01*
X0124145Y0227130D01*
X0125373Y0227164D02*
X0126372Y0227164D01*
X0126372Y0228162D02*
X0125373Y0228162D01*
X0125373Y0229161D02*
X0126372Y0229161D01*
X0126372Y0230159D02*
X0125373Y0230159D01*
X0125373Y0231158D02*
X0126372Y0231158D01*
X0126372Y0232156D02*
X0125373Y0232156D01*
X0125373Y0233155D02*
X0126372Y0233155D01*
X0126373Y0234153D02*
X0181796Y0234153D01*
X0181796Y0233155D02*
X0130372Y0233155D01*
X0130372Y0232156D02*
X0181796Y0232156D01*
X0181796Y0231158D02*
X0130372Y0231158D01*
X0130233Y0230159D02*
X0181796Y0230159D01*
X0181796Y0229161D02*
X0129833Y0229161D01*
X0129099Y0228162D02*
X0181796Y0228162D01*
X0181796Y0227164D02*
X0127666Y0227164D01*
X0122646Y0228162D02*
X0118816Y0228162D01*
X0119641Y0229161D02*
X0121912Y0229161D01*
X0121512Y0230159D02*
X0120054Y0230159D01*
X0120172Y0231158D02*
X0121373Y0231158D01*
X0121373Y0232156D02*
X0120172Y0232156D01*
X0120172Y0233155D02*
X0121373Y0233155D01*
X0120172Y0234153D02*
X0125372Y0234153D01*
X0125373Y0235152D02*
X0126372Y0235152D01*
X0126372Y0236150D02*
X0125373Y0236150D01*
X0125373Y0237149D02*
X0126372Y0237149D01*
X0126372Y0238147D02*
X0125373Y0238147D01*
X0125373Y0239146D02*
X0126372Y0239146D01*
X0126372Y0240144D02*
X0125373Y0240144D01*
X0125373Y0241143D02*
X0126372Y0241143D01*
X0128239Y0241143D02*
X0181796Y0241143D01*
X0181796Y0242141D02*
X0099639Y0242141D01*
X0099639Y0241143D02*
X0113913Y0241143D01*
X0112636Y0240144D02*
X0099639Y0240144D01*
X0099639Y0239146D02*
X0111983Y0239146D01*
X0111573Y0238147D02*
X0099639Y0238147D01*
X0099639Y0237149D02*
X0111573Y0237149D01*
X0111573Y0236150D02*
X0099639Y0236150D01*
X0099639Y0235152D02*
X0111573Y0235152D01*
X0111573Y0234153D02*
X0099639Y0234153D01*
X0099639Y0233155D02*
X0111573Y0233155D01*
X0111573Y0232156D02*
X0099639Y0232156D01*
X0099639Y0231158D02*
X0111573Y0231158D01*
X0111691Y0230159D02*
X0099639Y0230159D01*
X0099639Y0229161D02*
X0112104Y0229161D01*
X0112929Y0228162D02*
X0099639Y0228162D01*
X0099639Y0227164D02*
X0105900Y0227164D01*
X0105204Y0226165D02*
X0099639Y0226165D01*
X0099639Y0225167D02*
X0104949Y0225167D01*
X0105013Y0224168D02*
X0100222Y0224168D01*
X0101226Y0223170D02*
X0105233Y0223170D01*
X0105233Y0222171D02*
X0102229Y0222171D01*
X0103232Y0221172D02*
X0105233Y0221172D01*
X0105233Y0220174D02*
X0104235Y0220174D01*
X0104300Y0217570D02*
X0104300Y0161500D01*
X0096729Y0153535D01*
X0096729Y0150723D01*
X0094813Y0148281D02*
X0079748Y0148281D01*
X0080585Y0146284D02*
X0181796Y0146284D01*
X0181796Y0145286D02*
X0080931Y0145286D01*
X0081930Y0144287D02*
X0181796Y0144287D01*
X0181796Y0143289D02*
X0082928Y0143289D01*
X0083927Y0142290D02*
X0181796Y0142290D01*
X0181796Y0141292D02*
X0084925Y0141292D01*
X0085751Y0140293D02*
X0181796Y0140293D01*
X0181796Y0139295D02*
X0085751Y0139295D01*
X0085751Y0138296D02*
X0181796Y0138296D01*
X0181796Y0137298D02*
X0085751Y0137298D01*
X0085950Y0136299D02*
X0181796Y0136299D01*
X0181796Y0135301D02*
X0086723Y0135301D01*
X0087033Y0134302D02*
X0181796Y0134302D01*
X0181796Y0133303D02*
X0087023Y0133303D01*
X0086609Y0132305D02*
X0181796Y0132305D01*
X0181796Y0131306D02*
X0085751Y0131306D01*
X0085931Y0130308D02*
X0181796Y0130308D01*
X0181796Y0129309D02*
X0086494Y0129309D01*
X0086494Y0128311D02*
X0181796Y0128311D01*
X0181796Y0127312D02*
X0086494Y0127312D01*
X0086494Y0126314D02*
X0181796Y0126314D01*
X0181796Y0125315D02*
X0086494Y0125315D01*
X0086922Y0124317D02*
X0181796Y0124317D01*
X0181796Y0123318D02*
X0087921Y0123318D01*
X0088920Y0122320D02*
X0165744Y0122320D01*
X0166069Y0122645D02*
X0164859Y0121436D01*
X0164205Y0119855D01*
X0164205Y0118145D01*
X0164859Y0116564D01*
X0166069Y0115355D01*
X0167649Y0114700D01*
X0175360Y0114700D01*
X0176941Y0115355D01*
X0178150Y0116564D01*
X0178805Y0118145D01*
X0178805Y0119855D01*
X0178150Y0121436D01*
X0176941Y0122645D01*
X0175360Y0123300D01*
X0167649Y0123300D01*
X0166069Y0122645D01*
X0164812Y0121321D02*
X0089918Y0121321D01*
X0090917Y0120323D02*
X0164398Y0120323D01*
X0164205Y0119324D02*
X0091915Y0119324D01*
X0092914Y0118326D02*
X0164205Y0118326D01*
X0164543Y0117327D02*
X0093912Y0117327D01*
X0093994Y0116329D02*
X0165095Y0116329D01*
X0166128Y0115330D02*
X0118631Y0115330D01*
X0119549Y0114332D02*
X0181796Y0114332D01*
X0181796Y0115330D02*
X0176882Y0115330D01*
X0177915Y0116329D02*
X0181796Y0116329D01*
X0181796Y0117327D02*
X0178466Y0117327D01*
X0178805Y0118326D02*
X0181796Y0118326D01*
X0181796Y0119324D02*
X0178805Y0119324D01*
X0178611Y0120323D02*
X0181796Y0120323D01*
X0181796Y0121321D02*
X0178198Y0121321D01*
X0177266Y0122320D02*
X0181796Y0122320D01*
X0181796Y0113333D02*
X0175731Y0113333D01*
X0175559Y0113389D02*
X0174859Y0113500D01*
X0172005Y0113500D01*
X0172005Y0109500D01*
X0178982Y0109500D01*
X0178894Y0110054D01*
X0178675Y0110727D01*
X0178354Y0111359D01*
X0177937Y0111932D01*
X0177436Y0112432D01*
X0176863Y0112849D01*
X0176232Y0113170D01*
X0175559Y0113389D01*
X0177534Y0112335D02*
X0181796Y0112335D01*
X0181796Y0111336D02*
X0178365Y0111336D01*
X0178802Y0110338D02*
X0181796Y0110338D01*
X0181796Y0109339D02*
X0172005Y0109339D01*
X0172005Y0109500D02*
X0172005Y0108500D01*
X0178982Y0108500D01*
X0178894Y0107946D01*
X0178675Y0107273D01*
X0178354Y0106641D01*
X0177937Y0106068D01*
X0177436Y0105568D01*
X0176863Y0105151D01*
X0176232Y0104830D01*
X0175559Y0104611D01*
X0174859Y0104500D01*
X0172005Y0104500D01*
X0172005Y0108500D01*
X0171005Y0108500D01*
X0171005Y0104500D01*
X0168151Y0104500D01*
X0167451Y0104611D01*
X0166777Y0104830D01*
X0166146Y0105151D01*
X0165573Y0105568D01*
X0165072Y0106068D01*
X0164656Y0106641D01*
X0164335Y0107273D01*
X0164116Y0107946D01*
X0164028Y0108500D01*
X0171005Y0108500D01*
X0171005Y0109500D01*
X0171005Y0113500D01*
X0168151Y0113500D01*
X0167451Y0113389D01*
X0166777Y0113170D01*
X0166146Y0112849D01*
X0165573Y0112432D01*
X0165072Y0111932D01*
X0164656Y0111359D01*
X0164335Y0110727D01*
X0164116Y0110054D01*
X0164028Y0109500D01*
X0171005Y0109500D01*
X0172005Y0109500D01*
X0172005Y0110338D02*
X0171005Y0110338D01*
X0171005Y0111336D02*
X0172005Y0111336D01*
X0172005Y0112335D02*
X0171005Y0112335D01*
X0171005Y0113333D02*
X0172005Y0113333D01*
X0171005Y0109339D02*
X0119164Y0109339D01*
X0119164Y0108341D02*
X0164053Y0108341D01*
X0164312Y0107342D02*
X0119164Y0107342D01*
X0119164Y0106344D02*
X0164872Y0106344D01*
X0165879Y0105345D02*
X0119164Y0105345D01*
X0119164Y0104347D02*
X0181796Y0104347D01*
X0181796Y0105345D02*
X0177130Y0105345D01*
X0178137Y0106344D02*
X0181796Y0106344D01*
X0181796Y0107342D02*
X0178698Y0107342D01*
X0178956Y0108341D02*
X0181796Y0108341D01*
X0181796Y0103348D02*
X0119164Y0103348D01*
X0119164Y0102350D02*
X0165773Y0102350D01*
X0166069Y0102645D02*
X0164859Y0101436D01*
X0164205Y0099855D01*
X0164205Y0098145D01*
X0164859Y0096564D01*
X0166069Y0095355D01*
X0167649Y0094700D01*
X0175360Y0094700D01*
X0176941Y0095355D01*
X0178150Y0096564D01*
X0178805Y0098145D01*
X0178805Y0099855D01*
X0178150Y0101436D01*
X0176941Y0102645D01*
X0175360Y0103300D01*
X0167649Y0103300D01*
X0166069Y0102645D01*
X0164824Y0101351D02*
X0119164Y0101351D01*
X0119164Y0100353D02*
X0164411Y0100353D01*
X0164205Y0099354D02*
X0119164Y0099354D01*
X0119164Y0098356D02*
X0164205Y0098356D01*
X0164531Y0097357D02*
X0119164Y0097357D01*
X0119164Y0096359D02*
X0165065Y0096359D01*
X0166064Y0095360D02*
X0119164Y0095360D01*
X0119164Y0094362D02*
X0181796Y0094362D01*
X0181796Y0095360D02*
X0176946Y0095360D01*
X0177945Y0096359D02*
X0181796Y0096359D01*
X0181796Y0097357D02*
X0178479Y0097357D01*
X0178805Y0098356D02*
X0181796Y0098356D01*
X0181796Y0099354D02*
X0178805Y0099354D01*
X0178599Y0100353D02*
X0181796Y0100353D01*
X0181796Y0101351D02*
X0178185Y0101351D01*
X0177236Y0102350D02*
X0181796Y0102350D01*
X0172005Y0105345D02*
X0171005Y0105345D01*
X0171005Y0106344D02*
X0172005Y0106344D01*
X0172005Y0107342D02*
X0171005Y0107342D01*
X0171005Y0108341D02*
X0172005Y0108341D01*
X0167279Y0113333D02*
X0119961Y0113333D01*
X0119961Y0112335D02*
X0165476Y0112335D01*
X0164645Y0111336D02*
X0119639Y0111336D01*
X0119164Y0110338D02*
X0164208Y0110338D01*
X0115128Y0115330D02*
X0093994Y0115330D01*
X0093994Y0114332D02*
X0114210Y0114332D01*
X0113798Y0113333D02*
X0093994Y0113333D01*
X0093994Y0112335D02*
X0113798Y0112335D01*
X0114120Y0111336D02*
X0094091Y0111336D01*
X0093971Y0110338D02*
X0114595Y0110338D01*
X0114595Y0109339D02*
X0092972Y0109339D01*
X0090688Y0108341D02*
X0114595Y0108341D01*
X0089197Y0095872D02*
X0089197Y0085868D01*
X0085575Y0082246D01*
X0085575Y0078014D01*
X0082194Y0074765D01*
X0060292Y0074765D01*
X0058319Y0072625D01*
X0058319Y0071770D01*
X0055552Y0070397D02*
X0048994Y0070397D01*
X0048994Y0069399D02*
X0056332Y0069399D01*
X0055238Y0071396D02*
X0048357Y0071396D01*
X0047939Y0071814D02*
X0047939Y0071814D01*
X0047358Y0072394D02*
X0055242Y0072394D01*
X0055656Y0073393D02*
X0052296Y0073393D01*
X0048499Y0073393D02*
X0046358Y0073393D01*
X0048994Y0068400D02*
X0059258Y0068400D01*
X0059676Y0067402D02*
X0048994Y0067402D01*
X0048994Y0066403D02*
X0051054Y0066403D01*
X0050056Y0065405D02*
X0048994Y0065405D01*
X0048994Y0064406D02*
X0049057Y0064406D01*
X0050406Y0063210D02*
X0050406Y0059821D01*
X0052206Y0062409D02*
X0065912Y0062409D01*
X0065112Y0063408D02*
X0053150Y0063408D01*
X0053083Y0061411D02*
X0054167Y0061411D01*
X0056172Y0061411D02*
X0060575Y0061411D01*
X0062589Y0059066D02*
X0055746Y0059066D01*
X0055170Y0058491D01*
X0050406Y0063210D02*
X0052686Y0065490D01*
X0063725Y0065490D01*
X0069241Y0071006D01*
X0087749Y0071006D01*
X0089095Y0072352D01*
X0083957Y0072927D02*
X0088945Y0077915D01*
X0088945Y0080360D01*
X0085934Y0085514D02*
X0083741Y0083321D01*
X0083741Y0078907D01*
X0081560Y0076726D01*
X0059213Y0076726D01*
X0066052Y0072927D02*
X0062280Y0069156D01*
X0066052Y0072927D02*
X0083957Y0072927D01*
X0080491Y0069105D02*
X0081810Y0067786D01*
X0081810Y0064219D01*
X0079637Y0066403D02*
X0070541Y0066403D01*
X0070946Y0065405D02*
X0078966Y0065405D01*
X0078729Y0064406D02*
X0070946Y0064406D01*
X0070617Y0063408D02*
X0078811Y0063408D01*
X0079262Y0062409D02*
X0069818Y0062409D01*
X0067865Y0064814D02*
X0067865Y0066487D01*
X0070483Y0069105D01*
X0080491Y0069105D01*
X0080538Y0061411D02*
X0064578Y0061411D01*
X0067334Y0052424D02*
X0032279Y0052424D01*
X0032279Y0051426D02*
X0053736Y0051426D01*
X0056445Y0051426D02*
X0067850Y0051426D01*
X0072726Y0051426D02*
X0074941Y0051426D01*
X0074458Y0040000D02*
X0073094Y0040000D01*
X0073094Y0036000D01*
X0077094Y0036000D01*
X0077094Y0037364D01*
X0074458Y0040000D01*
X0075014Y0039443D02*
X0080456Y0039443D01*
X0080813Y0039800D02*
X0078294Y0037281D01*
X0078294Y0033719D01*
X0080813Y0031200D01*
X0084375Y0031200D01*
X0086894Y0033719D01*
X0086894Y0037281D01*
X0084375Y0039800D01*
X0080813Y0039800D01*
X0079458Y0038445D02*
X0076013Y0038445D01*
X0077011Y0037446D02*
X0078459Y0037446D01*
X0078294Y0036448D02*
X0077094Y0036448D01*
X0077094Y0035000D02*
X0073094Y0035000D01*
X0073094Y0036000D01*
X0072094Y0036000D01*
X0072094Y0040000D01*
X0070730Y0040000D01*
X0068094Y0037364D01*
X0068094Y0036000D01*
X0072094Y0036000D01*
X0072094Y0035000D01*
X0073094Y0035000D01*
X0073094Y0031000D01*
X0074458Y0031000D01*
X0077094Y0033636D01*
X0077094Y0035000D01*
X0077094Y0034451D02*
X0078294Y0034451D01*
X0078294Y0035449D02*
X0073094Y0035449D01*
X0073094Y0034451D02*
X0072094Y0034451D01*
X0072094Y0035000D02*
X0072094Y0031000D01*
X0070730Y0031000D01*
X0068094Y0033636D01*
X0068094Y0035000D01*
X0072094Y0035000D01*
X0072094Y0035449D02*
X0066894Y0035449D01*
X0066894Y0034451D02*
X0068094Y0034451D01*
X0068277Y0033452D02*
X0066627Y0033452D01*
X0066894Y0033719D02*
X0064375Y0031200D01*
X0060813Y0031200D01*
X0058294Y0033719D01*
X0058294Y0037281D01*
X0060813Y0039800D01*
X0064375Y0039800D01*
X0066894Y0037281D01*
X0066894Y0033719D01*
X0065629Y0032454D02*
X0069276Y0032454D01*
X0070274Y0031455D02*
X0064630Y0031455D01*
X0064375Y0029800D02*
X0060813Y0029800D01*
X0058294Y0027281D01*
X0058294Y0023719D01*
X0060813Y0021200D01*
X0064375Y0021200D01*
X0066894Y0023719D01*
X0066894Y0027281D01*
X0064375Y0029800D01*
X0064717Y0029458D02*
X0070471Y0029458D01*
X0070813Y0029800D02*
X0068294Y0027281D01*
X0068294Y0023719D01*
X0070813Y0021200D01*
X0074375Y0021200D01*
X0076894Y0023719D01*
X0076894Y0027281D01*
X0074375Y0029800D01*
X0070813Y0029800D01*
X0069473Y0028460D02*
X0065715Y0028460D01*
X0066714Y0027461D02*
X0068474Y0027461D01*
X0068294Y0026463D02*
X0066894Y0026463D01*
X0066894Y0025464D02*
X0068294Y0025464D01*
X0068294Y0024466D02*
X0066894Y0024466D01*
X0066642Y0023467D02*
X0068545Y0023467D01*
X0069544Y0022469D02*
X0065644Y0022469D01*
X0064645Y0021470D02*
X0070542Y0021470D01*
X0074645Y0021470D02*
X0080542Y0021470D01*
X0080813Y0021200D02*
X0084375Y0021200D01*
X0086894Y0023719D01*
X0086894Y0027281D01*
X0084375Y0029800D01*
X0080813Y0029800D01*
X0078294Y0027281D01*
X0078294Y0023719D01*
X0080813Y0021200D01*
X0079544Y0022469D02*
X0075644Y0022469D01*
X0076642Y0023467D02*
X0078545Y0023467D01*
X0078294Y0024466D02*
X0076894Y0024466D01*
X0076894Y0025464D02*
X0078294Y0025464D01*
X0078294Y0026463D02*
X0076894Y0026463D01*
X0076714Y0027461D02*
X0078474Y0027461D01*
X0079473Y0028460D02*
X0075715Y0028460D01*
X0074717Y0029458D02*
X0080471Y0029458D01*
X0080557Y0031455D02*
X0074913Y0031455D01*
X0075912Y0032454D02*
X0079559Y0032454D01*
X0078560Y0033452D02*
X0076910Y0033452D01*
X0073094Y0033452D02*
X0072094Y0033452D01*
X0072094Y0032454D02*
X0073094Y0032454D01*
X0073094Y0031455D02*
X0072094Y0031455D01*
X0072094Y0036448D02*
X0073094Y0036448D01*
X0073094Y0037446D02*
X0072094Y0037446D01*
X0072094Y0038445D02*
X0073094Y0038445D01*
X0073094Y0039443D02*
X0072094Y0039443D01*
X0070173Y0039443D02*
X0064731Y0039443D01*
X0065730Y0038445D02*
X0069175Y0038445D01*
X0068176Y0037446D02*
X0066728Y0037446D01*
X0066894Y0036448D02*
X0068094Y0036448D01*
X0060456Y0039443D02*
X0054731Y0039443D01*
X0055730Y0038445D02*
X0059458Y0038445D01*
X0058459Y0037446D02*
X0056728Y0037446D01*
X0056894Y0036448D02*
X0058294Y0036448D01*
X0058294Y0035449D02*
X0056894Y0035449D01*
X0056894Y0034451D02*
X0058294Y0034451D01*
X0058560Y0033452D02*
X0056627Y0033452D01*
X0055629Y0032454D02*
X0059559Y0032454D01*
X0060557Y0031455D02*
X0054630Y0031455D01*
X0054717Y0029458D02*
X0060471Y0029458D01*
X0059473Y0028460D02*
X0055715Y0028460D01*
X0056714Y0027461D02*
X0058474Y0027461D01*
X0058294Y0026463D02*
X0056894Y0026463D01*
X0056894Y0025464D02*
X0058294Y0025464D01*
X0058294Y0024466D02*
X0056894Y0024466D01*
X0056642Y0023467D02*
X0058545Y0023467D01*
X0059544Y0022469D02*
X0055644Y0022469D01*
X0054645Y0021470D02*
X0060542Y0021470D01*
X0051888Y0012802D02*
X0043983Y0020707D01*
X0037194Y0020707D01*
X0030138Y0028375D01*
X0030138Y0032771D01*
X0030479Y0034987D01*
X0030479Y0063302D01*
X0032522Y0065345D01*
X0032522Y0076010D01*
X0030951Y0079456D01*
X0030951Y0094000D01*
X0033117Y0096050D01*
X0033117Y0106500D01*
X0037345Y0110696D01*
X0037345Y0112577D01*
X0037276Y0112384D01*
X0038534Y0109339D02*
X0040307Y0109339D01*
X0040836Y0108341D02*
X0037527Y0108341D01*
X0036521Y0107342D02*
X0048281Y0107342D01*
X0047709Y0108341D02*
X0049266Y0108341D01*
X0047295Y0106344D02*
X0035515Y0106344D01*
X0034917Y0105345D02*
X0046310Y0105345D01*
X0045325Y0104347D02*
X0034917Y0104347D01*
X0034917Y0103348D02*
X0044802Y0103348D01*
X0044803Y0102350D02*
X0034917Y0102350D01*
X0034917Y0101351D02*
X0044803Y0101351D01*
X0044803Y0100353D02*
X0034917Y0100353D01*
X0034917Y0099354D02*
X0044803Y0099354D01*
X0044803Y0098356D02*
X0034917Y0098356D01*
X0034917Y0097357D02*
X0044136Y0097357D01*
X0043638Y0096359D02*
X0034926Y0096359D01*
X0034917Y0095360D02*
X0043522Y0095360D01*
X0043726Y0094362D02*
X0033974Y0094362D01*
X0032897Y0093363D02*
X0044350Y0093363D01*
X0046603Y0095467D02*
X0046603Y0103080D01*
X0052445Y0109000D01*
X0052445Y0114000D01*
X0049587Y0117010D01*
X0049587Y0137829D01*
X0037316Y0149474D01*
X0037316Y0160228D01*
X0034833Y0163336D01*
X0032138Y0163336D01*
X0033898Y0166935D02*
X0028465Y0166935D01*
X0026398Y0169002D01*
X0026398Y0171065D01*
X0028577Y0173244D02*
X0031246Y0173244D01*
X0032244Y0172245D02*
X0029244Y0172245D01*
X0029480Y0171247D02*
X0033243Y0171247D01*
X0034241Y0170248D02*
X0029395Y0170248D01*
X0028941Y0169250D02*
X0035240Y0169250D01*
X0035128Y0168251D02*
X0036238Y0168251D01*
X0036118Y0167253D02*
X0037237Y0167253D01*
X0037109Y0166254D02*
X0038235Y0166254D01*
X0038099Y0165256D02*
X0039234Y0165256D01*
X0039089Y0164257D02*
X0040232Y0164257D01*
X0040080Y0163259D02*
X0041231Y0163259D01*
X0041071Y0162260D02*
X0042229Y0162260D01*
X0041494Y0161262D02*
X0043228Y0161262D01*
X0044226Y0160263D02*
X0041494Y0160263D01*
X0041494Y0159265D02*
X0045225Y0159265D01*
X0046223Y0158266D02*
X0041494Y0158266D01*
X0041494Y0157268D02*
X0047222Y0157268D01*
X0048220Y0156269D02*
X0041494Y0156269D01*
X0041494Y0155271D02*
X0049219Y0155271D01*
X0050217Y0154272D02*
X0041494Y0154272D01*
X0041494Y0153274D02*
X0051216Y0153274D01*
X0052214Y0152275D02*
X0041494Y0152275D01*
X0041494Y0151277D02*
X0053213Y0151277D01*
X0053294Y0150278D02*
X0042409Y0150278D01*
X0043412Y0149280D02*
X0053294Y0149280D01*
X0053294Y0148281D02*
X0044414Y0148281D01*
X0045417Y0147283D02*
X0053294Y0147283D01*
X0053294Y0146284D02*
X0046419Y0146284D01*
X0047422Y0145286D02*
X0053294Y0145286D01*
X0053294Y0144287D02*
X0048425Y0144287D01*
X0049427Y0143289D02*
X0053294Y0143289D01*
X0053294Y0142290D02*
X0050430Y0142290D01*
X0051432Y0141292D02*
X0053294Y0141292D01*
X0053294Y0140293D02*
X0052436Y0140293D01*
X0053187Y0139295D02*
X0053294Y0139295D01*
X0053294Y0138296D02*
X0053188Y0138296D01*
X0053187Y0137298D02*
X0053294Y0137298D01*
X0053187Y0136299D02*
X0053791Y0136299D01*
X0053187Y0135301D02*
X0054789Y0135301D01*
X0055451Y0134302D02*
X0053187Y0134302D01*
X0053187Y0133303D02*
X0055456Y0133303D01*
X0055869Y0132305D02*
X0053187Y0132305D01*
X0053187Y0131306D02*
X0056807Y0131306D01*
X0059102Y0130308D02*
X0053187Y0130308D01*
X0053187Y0129309D02*
X0059102Y0129309D01*
X0059102Y0128311D02*
X0053187Y0128311D01*
X0053187Y0127312D02*
X0059102Y0127312D01*
X0059102Y0126314D02*
X0053187Y0126314D01*
X0053187Y0125315D02*
X0059102Y0125315D01*
X0059102Y0124317D02*
X0053187Y0124317D01*
X0053187Y0123318D02*
X0059102Y0123318D01*
X0059102Y0122320D02*
X0053187Y0122320D01*
X0053187Y0121321D02*
X0059808Y0121321D01*
X0060807Y0120323D02*
X0053187Y0120323D01*
X0053187Y0119324D02*
X0061805Y0119324D01*
X0062700Y0118326D02*
X0053564Y0118326D01*
X0054574Y0117327D02*
X0062700Y0117327D01*
X0062700Y0116329D02*
X0055589Y0116329D01*
X0056494Y0115330D02*
X0062700Y0115330D01*
X0062700Y0114332D02*
X0056496Y0114332D01*
X0056494Y0113333D02*
X0062700Y0113333D01*
X0062700Y0112335D02*
X0056494Y0112335D01*
X0056494Y0111336D02*
X0062700Y0111336D01*
X0062700Y0110338D02*
X0056494Y0110338D01*
X0056494Y0109339D02*
X0062700Y0109339D01*
X0062700Y0108341D02*
X0056495Y0108341D01*
X0056494Y0107342D02*
X0062700Y0107342D01*
X0062700Y0106344D02*
X0055597Y0106344D01*
X0054586Y0105345D02*
X0062700Y0105345D01*
X0062700Y0104347D02*
X0053578Y0104347D01*
X0052570Y0103348D02*
X0062793Y0103348D01*
X0062871Y0102350D02*
X0052271Y0102350D01*
X0052271Y0101351D02*
X0063317Y0101351D01*
X0064580Y0100353D02*
X0052271Y0100353D01*
X0053109Y0099354D02*
X0067344Y0099354D01*
X0067358Y0098356D02*
X0053523Y0098356D01*
X0053540Y0097357D02*
X0068256Y0097357D01*
X0069357Y0096359D02*
X0053237Y0096359D01*
X0052474Y0095360D02*
X0069769Y0095360D01*
X0069769Y0094362D02*
X0049481Y0094362D01*
X0048857Y0093363D02*
X0069769Y0093363D01*
X0069769Y0092365D02*
X0032751Y0092365D01*
X0032751Y0091366D02*
X0069769Y0091366D01*
X0069769Y0090368D02*
X0047956Y0090368D01*
X0048955Y0089369D02*
X0069769Y0089369D01*
X0069769Y0088370D02*
X0064887Y0088370D01*
X0064044Y0086668D02*
X0064891Y0085821D01*
X0070057Y0085821D01*
X0071557Y0087321D01*
X0071569Y0087946D01*
X0071569Y0096761D01*
X0069158Y0099000D01*
X0069158Y0104000D01*
X0070670Y0105328D01*
X0074611Y0105328D01*
X0072792Y0101077D02*
X0072792Y0100901D01*
X0073985Y0099884D01*
X0073985Y0086500D01*
X0069694Y0082325D01*
X0051146Y0082325D01*
X0048840Y0084376D02*
X0047273Y0084376D01*
X0047440Y0085375D02*
X0047858Y0085375D01*
X0049110Y0086668D02*
X0046410Y0089368D01*
X0042032Y0089368D01*
X0040528Y0087864D01*
X0040528Y0081500D01*
X0039181Y0080462D01*
X0039181Y0078172D01*
X0037034Y0080382D02*
X0032751Y0080382D01*
X0032751Y0081381D02*
X0037485Y0081381D01*
X0038720Y0082379D02*
X0032751Y0082379D01*
X0032751Y0083378D02*
X0038728Y0083378D01*
X0038728Y0084376D02*
X0032751Y0084376D01*
X0032751Y0085375D02*
X0038728Y0085375D01*
X0038728Y0086373D02*
X0032751Y0086373D01*
X0032751Y0087372D02*
X0038728Y0087372D01*
X0038728Y0088370D02*
X0032751Y0088370D01*
X0032751Y0089369D02*
X0039488Y0089369D01*
X0040487Y0090368D02*
X0032751Y0090368D01*
X0029093Y0094928D02*
X0031176Y0097010D01*
X0031176Y0108495D01*
X0032770Y0110089D01*
X0032701Y0112180D01*
X0027782Y0108373D02*
X0029132Y0107022D01*
X0029132Y0097869D01*
X0027194Y0095947D01*
X0027194Y0076500D01*
X0028723Y0074000D01*
X0028723Y0066896D01*
X0026762Y0064936D01*
X0026762Y0036500D01*
X0025231Y0035007D01*
X0025231Y0025937D01*
X0035367Y0015800D01*
X0042392Y0017050D01*
X0050605Y0008837D01*
X0141569Y0008837D01*
X0143231Y0010499D01*
X0143231Y0016500D01*
X0143162Y0017806D01*
X0144777Y0020472D02*
X0181796Y0020472D01*
X0181796Y0021470D02*
X0140184Y0021470D01*
X0141172Y0020472D02*
X0141546Y0020472D01*
X0138589Y0019018D02*
X0135065Y0019018D01*
X0128849Y0012802D01*
X0051888Y0012802D01*
X0051239Y0010798D02*
X0043148Y0018889D01*
X0036075Y0018889D01*
X0027050Y0027913D01*
X0027050Y0034000D01*
X0028601Y0035684D01*
X0028601Y0064000D01*
X0030605Y0066125D01*
X0030605Y0075231D01*
X0029093Y0077993D01*
X0029093Y0094928D01*
X0025316Y0096500D02*
X0027194Y0099000D01*
X0027194Y0105573D01*
X0024253Y0108517D01*
X0024253Y0113301D01*
X0026835Y0115884D01*
X0038348Y0115884D01*
X0040678Y0113554D01*
X0040678Y0112295D01*
X0042390Y0109332D01*
X0046154Y0109332D01*
X0048390Y0111770D01*
X0047500Y0112966D01*
X0047500Y0135482D01*
X0044355Y0138628D01*
X0041780Y0138628D01*
X0038556Y0141852D01*
X0025575Y0141852D01*
X0023103Y0144313D01*
X0023103Y0146546D01*
X0022442Y0146546D01*
X0018953Y0150045D01*
X0018953Y0157907D01*
X0022194Y0161120D01*
X0022194Y0162545D01*
X0022154Y0162585D01*
X0020551Y0165256D02*
X0016166Y0165256D01*
X0016295Y0164257D02*
X0019511Y0164257D01*
X0020864Y0166254D02*
X0015648Y0166254D01*
X0015983Y0167253D02*
X0019866Y0167253D01*
X0019752Y0167366D02*
X0019752Y0167366D01*
X0019752Y0168251D02*
X0016396Y0168251D01*
X0016421Y0169250D02*
X0019752Y0169250D01*
X0019622Y0170248D02*
X0016125Y0170248D01*
X0015373Y0171247D02*
X0018624Y0171247D01*
X0017625Y0172245D02*
X0013994Y0172245D01*
X0013994Y0173244D02*
X0016627Y0173244D01*
X0016933Y0172938D02*
X0016933Y0172938D01*
X0015878Y0174242D02*
X0013994Y0174242D01*
X0013994Y0175241D02*
X0015878Y0175241D01*
X0015878Y0176239D02*
X0013994Y0176239D01*
X0013994Y0177238D02*
X0015878Y0177238D01*
X0015878Y0178237D02*
X0013994Y0178237D01*
X0013994Y0179235D02*
X0015878Y0179235D01*
X0015878Y0180234D02*
X0013994Y0180234D01*
X0013994Y0181232D02*
X0015878Y0181232D01*
X0015878Y0182231D02*
X0013994Y0182231D01*
X0013994Y0183229D02*
X0015878Y0183229D01*
X0015878Y0184228D02*
X0013994Y0184228D01*
X0013994Y0185226D02*
X0015878Y0185226D01*
X0015878Y0186225D02*
X0013994Y0186225D01*
X0013994Y0187223D02*
X0015878Y0187223D01*
X0015878Y0188222D02*
X0013994Y0188222D01*
X0013994Y0189220D02*
X0015878Y0189220D01*
X0015878Y0190219D02*
X0013994Y0190219D01*
X0013994Y0191217D02*
X0015878Y0191217D01*
X0015878Y0192216D02*
X0013994Y0192216D01*
X0013994Y0193214D02*
X0015878Y0193214D01*
X0015878Y0194213D02*
X0013994Y0194213D01*
X0013994Y0195211D02*
X0015878Y0195211D01*
X0015878Y0196210D02*
X0013994Y0196210D01*
X0013994Y0197208D02*
X0015878Y0197208D01*
X0015878Y0198207D02*
X0013994Y0198207D01*
X0013994Y0199205D02*
X0015878Y0199205D01*
X0015878Y0200204D02*
X0013994Y0200204D01*
X0013994Y0201202D02*
X0015878Y0201202D01*
X0015878Y0202201D02*
X0013994Y0202201D01*
X0013994Y0203199D02*
X0015878Y0203199D01*
X0015878Y0204198D02*
X0013994Y0204198D01*
X0013994Y0205196D02*
X0015878Y0205196D01*
X0015878Y0206195D02*
X0013994Y0206195D01*
X0013994Y0207193D02*
X0015878Y0207193D01*
X0015878Y0208192D02*
X0013994Y0208192D01*
X0013994Y0209190D02*
X0015878Y0209190D01*
X0015878Y0210189D02*
X0013994Y0210189D01*
X0013994Y0211187D02*
X0015878Y0211187D01*
X0015878Y0212186D02*
X0013994Y0212186D01*
X0013994Y0213184D02*
X0015878Y0213184D01*
X0015878Y0214183D02*
X0013994Y0214183D01*
X0013994Y0215181D02*
X0015878Y0215181D01*
X0015878Y0216180D02*
X0013994Y0216180D01*
X0013994Y0217178D02*
X0015878Y0217178D01*
X0015878Y0218177D02*
X0013994Y0218177D01*
X0013994Y0219175D02*
X0015878Y0219175D01*
X0015878Y0220174D02*
X0013994Y0220174D01*
X0013994Y0221172D02*
X0015878Y0221172D01*
X0015878Y0222171D02*
X0013994Y0222171D01*
X0013994Y0223170D02*
X0015878Y0223170D01*
X0015878Y0224168D02*
X0013994Y0224168D01*
X0013994Y0225167D02*
X0015878Y0225167D01*
X0015878Y0226165D02*
X0013994Y0226165D01*
X0013994Y0227164D02*
X0015878Y0227164D01*
X0015878Y0228162D02*
X0013994Y0228162D01*
X0013994Y0229161D02*
X0015878Y0229161D01*
X0015878Y0230159D02*
X0013994Y0230159D01*
X0013994Y0231158D02*
X0015878Y0231158D01*
X0015878Y0232156D02*
X0013994Y0232156D01*
X0013994Y0233155D02*
X0015878Y0233155D01*
X0015878Y0234153D02*
X0013994Y0234153D01*
X0013994Y0235152D02*
X0015878Y0235152D01*
X0016037Y0236150D02*
X0013994Y0236150D01*
X0013994Y0237149D02*
X0017019Y0237149D01*
X0017992Y0238147D02*
X0013994Y0238147D01*
X0013994Y0239146D02*
X0018964Y0239146D01*
X0019937Y0240144D02*
X0013994Y0240144D01*
X0013994Y0241143D02*
X0020909Y0241143D01*
X0021882Y0242141D02*
X0013994Y0242141D01*
X0013994Y0243140D02*
X0022844Y0243140D01*
X0024508Y0242259D02*
X0017678Y0235246D01*
X0017678Y0174738D01*
X0021552Y0170864D01*
X0021552Y0168112D01*
X0026197Y0163466D01*
X0026961Y0163466D01*
X0033898Y0166935D02*
X0039694Y0161092D01*
X0039694Y0150442D01*
X0051387Y0138796D01*
X0051387Y0117946D01*
X0054694Y0114679D01*
X0054694Y0107986D01*
X0050471Y0103803D01*
X0050471Y0099437D01*
X0050459Y0097702D01*
X0049110Y0086668D02*
X0064044Y0086668D01*
X0071305Y0081381D02*
X0081941Y0081381D01*
X0081941Y0082379D02*
X0072331Y0082379D01*
X0073358Y0083378D02*
X0081941Y0083378D01*
X0082251Y0084376D02*
X0074384Y0084376D01*
X0075410Y0085375D02*
X0083250Y0085375D01*
X0083279Y0086373D02*
X0075785Y0086373D01*
X0075785Y0087372D02*
X0082865Y0087372D01*
X0082853Y0088370D02*
X0075785Y0088370D01*
X0075785Y0089369D02*
X0083161Y0089369D01*
X0083931Y0090368D02*
X0075785Y0090368D01*
X0075785Y0091366D02*
X0087397Y0091366D01*
X0087397Y0092365D02*
X0075785Y0092365D01*
X0075785Y0093363D02*
X0087349Y0093363D01*
X0086488Y0094362D02*
X0075785Y0094362D01*
X0075785Y0095360D02*
X0086116Y0095360D01*
X0086116Y0096359D02*
X0075785Y0096359D01*
X0075785Y0097357D02*
X0086478Y0097357D01*
X0087324Y0098356D02*
X0075785Y0098356D01*
X0067908Y0107471D02*
X0069437Y0108606D01*
X0087194Y0108606D01*
X0085359Y0111336D02*
X0069708Y0111336D01*
X0069708Y0112335D02*
X0085037Y0112335D01*
X0085037Y0113333D02*
X0069708Y0113333D01*
X0069708Y0114332D02*
X0085449Y0114332D01*
X0085787Y0115330D02*
X0069708Y0115330D01*
X0069708Y0116329D02*
X0084789Y0116329D01*
X0083790Y0117327D02*
X0069708Y0117327D01*
X0069712Y0118326D02*
X0082792Y0118326D01*
X0081793Y0119324D02*
X0069708Y0119324D01*
X0069131Y0120323D02*
X0080795Y0120323D01*
X0079796Y0121321D02*
X0078320Y0121321D01*
X0078605Y0126314D02*
X0082894Y0126314D01*
X0082894Y0127312D02*
X0069393Y0127312D01*
X0069488Y0128311D02*
X0082837Y0128311D01*
X0082151Y0129309D02*
X0069264Y0129309D01*
X0068694Y0130308D02*
X0082151Y0130308D01*
X0082151Y0131306D02*
X0068695Y0131306D01*
X0068696Y0132305D02*
X0081294Y0132305D01*
X0080880Y0133303D02*
X0068698Y0133303D01*
X0068699Y0134302D02*
X0080870Y0134302D01*
X0081180Y0135301D02*
X0068700Y0135301D01*
X0068701Y0136299D02*
X0081953Y0136299D01*
X0082151Y0137298D02*
X0068702Y0137298D01*
X0068704Y0138296D02*
X0082151Y0138296D01*
X0081831Y0139295D02*
X0068705Y0139295D01*
X0068706Y0140293D02*
X0080833Y0140293D01*
X0079834Y0141292D02*
X0068707Y0141292D01*
X0068708Y0142290D02*
X0078836Y0142290D01*
X0076403Y0143289D02*
X0068710Y0143289D01*
X0068711Y0144287D02*
X0075027Y0144287D01*
X0074534Y0145286D02*
X0068712Y0145286D01*
X0068713Y0146284D02*
X0074423Y0146284D01*
X0074630Y0147283D02*
X0068714Y0147283D01*
X0068716Y0148281D02*
X0075260Y0148281D01*
X0072649Y0152978D02*
X0071595Y0154032D01*
X0071450Y0154177D01*
X0070302Y0154177D01*
X0069169Y0154646D01*
X0068302Y0155513D01*
X0067833Y0156645D01*
X0067833Y0157871D01*
X0068302Y0159003D01*
X0069169Y0159870D01*
X0070302Y0160339D01*
X0071527Y0160339D01*
X0072660Y0159870D01*
X0073527Y0159003D01*
X0073996Y0157871D01*
X0073996Y0156722D01*
X0074140Y0156578D01*
X0089270Y0156578D01*
X0090082Y0157390D01*
X0091215Y0157859D01*
X0092441Y0157859D01*
X0093573Y0157390D01*
X0094440Y0156523D01*
X0094909Y0155391D01*
X0094909Y0154165D01*
X0094440Y0153033D01*
X0093573Y0152166D01*
X0092441Y0151697D01*
X0091215Y0151697D01*
X0090082Y0152166D01*
X0089270Y0152978D01*
X0072649Y0152978D01*
X0072353Y0153274D02*
X0069278Y0153274D01*
X0069517Y0152275D02*
X0089973Y0152275D01*
X0091828Y0154778D02*
X0073395Y0154778D01*
X0070914Y0157258D01*
X0067997Y0158266D02*
X0051032Y0158266D01*
X0052030Y0157268D02*
X0067833Y0157268D01*
X0067989Y0156269D02*
X0053029Y0156269D01*
X0054027Y0155271D02*
X0068544Y0155271D01*
X0068606Y0154272D02*
X0070071Y0154272D01*
X0069436Y0151277D02*
X0093648Y0151277D01*
X0093682Y0152275D02*
X0094037Y0152275D01*
X0094540Y0153274D02*
X0094922Y0153274D01*
X0094909Y0154272D02*
X0094929Y0154272D01*
X0094909Y0155271D02*
X0095895Y0155271D01*
X0096845Y0156269D02*
X0094545Y0156269D01*
X0093695Y0157268D02*
X0097794Y0157268D01*
X0098743Y0158266D02*
X0073832Y0158266D01*
X0073996Y0157268D02*
X0089960Y0157268D01*
X0093648Y0150278D02*
X0068987Y0150278D01*
X0068717Y0149280D02*
X0093991Y0149280D01*
X0099692Y0159265D02*
X0073265Y0159265D01*
X0071710Y0160263D02*
X0100641Y0160263D01*
X0101591Y0161262D02*
X0048036Y0161262D01*
X0047038Y0162260D02*
X0102500Y0162260D01*
X0102500Y0163259D02*
X0046039Y0163259D01*
X0045041Y0164257D02*
X0102500Y0164257D01*
X0102500Y0165256D02*
X0044042Y0165256D01*
X0043044Y0166254D02*
X0102500Y0166254D01*
X0102500Y0167253D02*
X0042045Y0167253D01*
X0041047Y0168251D02*
X0102500Y0168251D01*
X0102500Y0169250D02*
X0040048Y0169250D01*
X0039050Y0170248D02*
X0102500Y0170248D01*
X0102500Y0171247D02*
X0038051Y0171247D01*
X0037053Y0172245D02*
X0102500Y0172245D01*
X0102500Y0173244D02*
X0036054Y0173244D01*
X0035055Y0174242D02*
X0102500Y0174242D01*
X0102500Y0175241D02*
X0034057Y0175241D01*
X0033058Y0176239D02*
X0102500Y0176239D01*
X0102500Y0177238D02*
X0032060Y0177238D01*
X0031795Y0178237D02*
X0102500Y0178237D01*
X0102500Y0179235D02*
X0031194Y0179235D01*
X0032948Y0181388D02*
X0034081Y0180919D01*
X0035307Y0180919D01*
X0036439Y0181388D01*
X0037306Y0182255D01*
X0037775Y0183387D01*
X0037775Y0184613D01*
X0037306Y0185745D01*
X0036439Y0186612D01*
X0036394Y0186631D01*
X0036394Y0188697D01*
X0036439Y0188716D01*
X0037306Y0189582D01*
X0037775Y0190715D01*
X0037775Y0191941D01*
X0037306Y0193073D01*
X0036439Y0193940D01*
X0035307Y0194409D01*
X0034081Y0194409D01*
X0032948Y0193940D01*
X0032082Y0193073D01*
X0031613Y0191941D01*
X0031613Y0190715D01*
X0032082Y0189582D01*
X0032948Y0188716D01*
X0032994Y0188697D01*
X0032994Y0186631D01*
X0032948Y0186612D01*
X0032082Y0185745D01*
X0031613Y0184613D01*
X0031613Y0183387D01*
X0032082Y0182255D01*
X0032948Y0181388D01*
X0033325Y0181232D02*
X0019478Y0181232D01*
X0019478Y0180234D02*
X0102500Y0180234D01*
X0102500Y0181232D02*
X0036063Y0181232D01*
X0037282Y0182231D02*
X0102500Y0182231D01*
X0102500Y0183229D02*
X0037709Y0183229D01*
X0037775Y0184228D02*
X0085652Y0184228D01*
X0085529Y0184279D02*
X0086926Y0183700D01*
X0088438Y0183700D01*
X0089835Y0184279D01*
X0090903Y0185347D01*
X0091482Y0186744D01*
X0091482Y0188256D01*
X0090903Y0189653D01*
X0089835Y0190721D01*
X0088438Y0191300D01*
X0086926Y0191300D01*
X0085529Y0190721D01*
X0084461Y0189653D01*
X0083882Y0188256D01*
X0083882Y0186744D01*
X0084461Y0185347D01*
X0085529Y0184279D01*
X0084582Y0185226D02*
X0037521Y0185226D01*
X0036827Y0186225D02*
X0084097Y0186225D01*
X0083882Y0187223D02*
X0036394Y0187223D01*
X0036394Y0188222D02*
X0083882Y0188222D01*
X0084281Y0189220D02*
X0036944Y0189220D01*
X0037569Y0190219D02*
X0085027Y0190219D01*
X0086726Y0191217D02*
X0037775Y0191217D01*
X0037661Y0192216D02*
X0102500Y0192216D01*
X0102500Y0193214D02*
X0037165Y0193214D01*
X0035780Y0194213D02*
X0085402Y0194213D01*
X0085132Y0194393D02*
X0085787Y0193955D01*
X0086515Y0193654D01*
X0087288Y0193500D01*
X0087582Y0193500D01*
X0087582Y0197400D01*
X0083682Y0197400D01*
X0083682Y0197106D01*
X0083836Y0196333D01*
X0084137Y0195605D01*
X0084575Y0194950D01*
X0085132Y0194393D01*
X0084401Y0195211D02*
X0019478Y0195211D01*
X0019478Y0194213D02*
X0033607Y0194213D01*
X0032223Y0193214D02*
X0019478Y0193214D01*
X0019478Y0192216D02*
X0031727Y0192216D01*
X0031613Y0191217D02*
X0019478Y0191217D01*
X0019478Y0190219D02*
X0031818Y0190219D01*
X0032444Y0189220D02*
X0019478Y0189220D01*
X0019478Y0188222D02*
X0032994Y0188222D01*
X0032994Y0187223D02*
X0019478Y0187223D01*
X0019478Y0186225D02*
X0032561Y0186225D01*
X0031867Y0185226D02*
X0019478Y0185226D01*
X0019478Y0184228D02*
X0031613Y0184228D01*
X0031678Y0183229D02*
X0019478Y0183229D01*
X0019478Y0182231D02*
X0032106Y0182231D01*
X0027593Y0179235D02*
X0019478Y0179235D01*
X0019478Y0178237D02*
X0026993Y0178237D01*
X0026894Y0177238D02*
X0019478Y0177238D01*
X0019478Y0176239D02*
X0027210Y0176239D01*
X0028315Y0175241D02*
X0019721Y0175241D01*
X0020719Y0174242D02*
X0030247Y0174242D01*
X0024220Y0173244D02*
X0021718Y0173244D01*
X0022298Y0172664D02*
X0022298Y0172664D01*
X0022717Y0172245D02*
X0023553Y0172245D01*
X0017307Y0161081D02*
X0016800Y0160968D01*
X0016800Y0149000D01*
X0018611Y0147583D01*
X0018611Y0145463D01*
X0024367Y0139730D01*
X0037532Y0139730D01*
X0040516Y0136734D01*
X0040516Y0134825D01*
X0040585Y0135018D02*
X0040594Y0135018D01*
X0044908Y0135018D01*
X0045632Y0134294D01*
X0045632Y0116500D01*
X0044229Y0115562D01*
X0044229Y0114000D01*
X0044160Y0113219D01*
X0044160Y0113243D01*
X0039475Y0117927D01*
X0026225Y0117927D01*
X0022194Y0114000D01*
X0022194Y0107738D01*
X0025316Y0104714D01*
X0025316Y0099809D01*
X0023315Y0097809D01*
X0023315Y0073415D01*
X0024906Y0071825D01*
X0024906Y0068510D01*
X0022989Y0066500D01*
X0022989Y0039830D01*
X0019602Y0039000D01*
X0019602Y0023735D01*
X0035319Y0008087D01*
X0043435Y0009962D01*
X0043855Y0009420D01*
X0046936Y0009488D02*
X0047408Y0009488D01*
X0046804Y0008490D02*
X0048406Y0008490D01*
X0049405Y0007491D02*
X0046283Y0007491D01*
X0044839Y0006493D02*
X0181796Y0006493D01*
X0181796Y0007491D02*
X0142769Y0007491D01*
X0143369Y0008091D02*
X0143369Y0008091D01*
X0143767Y0008490D02*
X0181796Y0008490D01*
X0181796Y0009488D02*
X0144766Y0009488D01*
X0145031Y0010487D02*
X0181796Y0010487D01*
X0181796Y0011485D02*
X0145031Y0011485D01*
X0145031Y0012484D02*
X0181796Y0012484D01*
X0181796Y0013482D02*
X0145031Y0013482D01*
X0145031Y0014481D02*
X0181796Y0014481D01*
X0181796Y0015479D02*
X0145192Y0015479D01*
X0145946Y0016478D02*
X0181796Y0016478D01*
X0181796Y0017476D02*
X0146243Y0017476D01*
X0146220Y0018475D02*
X0181796Y0018475D01*
X0181796Y0019473D02*
X0145806Y0019473D01*
X0138739Y0012999D02*
X0132105Y0012999D01*
X0129694Y0010798D01*
X0051239Y0010798D01*
X0042870Y0006493D02*
X0036414Y0006493D01*
X0034369Y0006493D02*
X0003694Y0006493D01*
X0003694Y0007491D02*
X0033366Y0007491D01*
X0032363Y0008490D02*
X0003694Y0008490D01*
X0003694Y0009488D02*
X0031360Y0009488D01*
X0030357Y0010487D02*
X0003694Y0010487D01*
X0003694Y0011485D02*
X0029355Y0011485D01*
X0028352Y0012484D02*
X0003694Y0012484D01*
X0003694Y0013482D02*
X0027349Y0013482D01*
X0026346Y0014481D02*
X0003694Y0014481D01*
X0003694Y0015479D02*
X0025343Y0015479D01*
X0024340Y0016478D02*
X0003694Y0016478D01*
X0003694Y0017476D02*
X0023337Y0017476D01*
X0022334Y0018475D02*
X0003694Y0018475D01*
X0003694Y0019473D02*
X0021332Y0019473D01*
X0020329Y0020472D02*
X0003694Y0020472D01*
X0003694Y0021470D02*
X0019326Y0021470D01*
X0018323Y0022469D02*
X0003694Y0022469D01*
X0003694Y0023467D02*
X0017802Y0023467D01*
X0017801Y0024466D02*
X0003694Y0024466D01*
X0003694Y0025464D02*
X0017802Y0025464D01*
X0017802Y0026463D02*
X0003694Y0026463D01*
X0003694Y0027461D02*
X0017802Y0027461D01*
X0017802Y0028460D02*
X0003694Y0028460D01*
X0003694Y0029458D02*
X0017802Y0029458D01*
X0017802Y0030457D02*
X0003694Y0030457D01*
X0003694Y0031455D02*
X0017802Y0031455D01*
X0017802Y0032454D02*
X0003694Y0032454D01*
X0003694Y0033452D02*
X0017802Y0033452D01*
X0017802Y0034451D02*
X0003694Y0034451D01*
X0003694Y0035449D02*
X0017802Y0035449D01*
X0017802Y0036448D02*
X0003694Y0036448D01*
X0003694Y0037446D02*
X0017802Y0037446D01*
X0017802Y0038445D02*
X0003694Y0038445D01*
X0003694Y0039443D02*
X0017766Y0039443D01*
X0018372Y0040442D02*
X0003694Y0040442D01*
X0003694Y0041440D02*
X0021189Y0041440D01*
X0021189Y0042439D02*
X0003694Y0042439D01*
X0003694Y0043437D02*
X0021189Y0043437D01*
X0021189Y0044436D02*
X0003694Y0044436D01*
X0003694Y0045434D02*
X0015899Y0045434D01*
X0015084Y0046433D02*
X0003694Y0046433D01*
X0003694Y0047432D02*
X0014746Y0047432D01*
X0012561Y0048430D02*
X0003694Y0048430D01*
X0003694Y0049429D02*
X0011056Y0049429D01*
X0010369Y0050427D02*
X0003694Y0050427D01*
X0003694Y0051426D02*
X0009682Y0051426D01*
X0008995Y0052424D02*
X0003694Y0052424D01*
X0003694Y0053423D02*
X0008295Y0053423D01*
X0008295Y0054421D02*
X0003694Y0054421D01*
X0003694Y0055420D02*
X0008295Y0055420D01*
X0008295Y0056418D02*
X0003694Y0056418D01*
X0003694Y0057417D02*
X0008295Y0057417D01*
X0008295Y0058415D02*
X0003694Y0058415D01*
X0003694Y0059414D02*
X0008295Y0059414D01*
X0008295Y0060412D02*
X0003694Y0060412D01*
X0003694Y0061411D02*
X0008295Y0061411D01*
X0008295Y0062409D02*
X0003694Y0062409D01*
X0003694Y0063408D02*
X0008295Y0063408D01*
X0008295Y0064406D02*
X0003694Y0064406D01*
X0003694Y0065405D02*
X0008295Y0065405D01*
X0008295Y0066403D02*
X0003694Y0066403D01*
X0003694Y0067402D02*
X0008295Y0067402D01*
X0008295Y0068400D02*
X0003694Y0068400D01*
X0003694Y0069399D02*
X0008295Y0069399D01*
X0008295Y0070397D02*
X0003694Y0070397D01*
X0003694Y0071396D02*
X0008295Y0071396D01*
X0008295Y0072394D02*
X0003694Y0072394D01*
X0003694Y0073393D02*
X0008295Y0073393D01*
X0008295Y0074391D02*
X0003694Y0074391D01*
X0003694Y0075390D02*
X0008295Y0075390D01*
X0008295Y0076388D02*
X0003694Y0076388D01*
X0003694Y0077387D02*
X0008295Y0077387D01*
X0008295Y0078385D02*
X0003694Y0078385D01*
X0003694Y0079384D02*
X0008295Y0079384D01*
X0008295Y0080382D02*
X0003694Y0080382D01*
X0003694Y0081381D02*
X0008295Y0081381D01*
X0008295Y0082379D02*
X0003694Y0082379D01*
X0003694Y0083378D02*
X0008295Y0083378D01*
X0008295Y0084376D02*
X0003694Y0084376D01*
X0003694Y0085375D02*
X0008295Y0085375D01*
X0008295Y0086373D02*
X0003694Y0086373D01*
X0003694Y0087372D02*
X0008295Y0087372D01*
X0008295Y0088370D02*
X0003694Y0088370D01*
X0003694Y0089369D02*
X0008295Y0089369D01*
X0008295Y0090368D02*
X0003694Y0090368D01*
X0003694Y0091366D02*
X0008295Y0091366D01*
X0008295Y0092365D02*
X0003694Y0092365D01*
X0003694Y0093363D02*
X0008295Y0093363D01*
X0008295Y0094362D02*
X0003694Y0094362D01*
X0003694Y0095360D02*
X0008295Y0095360D01*
X0008295Y0096359D02*
X0003694Y0096359D01*
X0003694Y0097357D02*
X0008295Y0097357D01*
X0008295Y0098356D02*
X0003694Y0098356D01*
X0003694Y0099354D02*
X0008295Y0099354D01*
X0008295Y0100353D02*
X0003694Y0100353D01*
X0003694Y0101351D02*
X0008295Y0101351D01*
X0008295Y0102350D02*
X0003694Y0102350D01*
X0003694Y0103348D02*
X0008295Y0103348D01*
X0008295Y0104347D02*
X0003694Y0104347D01*
X0003694Y0105345D02*
X0008295Y0105345D01*
X0008295Y0106344D02*
X0003694Y0106344D01*
X0003694Y0107342D02*
X0008295Y0107342D01*
X0008295Y0108341D02*
X0003694Y0108341D01*
X0003694Y0109339D02*
X0008295Y0109339D01*
X0008295Y0110338D02*
X0003694Y0110338D01*
X0003694Y0111336D02*
X0008295Y0111336D01*
X0008295Y0112335D02*
X0003694Y0112335D01*
X0003694Y0113333D02*
X0008295Y0113333D01*
X0008295Y0114332D02*
X0003694Y0114332D01*
X0003694Y0115330D02*
X0008295Y0115330D01*
X0008295Y0116329D02*
X0003694Y0116329D01*
X0003694Y0117327D02*
X0008295Y0117327D01*
X0008295Y0118326D02*
X0003694Y0118326D01*
X0003694Y0119324D02*
X0008295Y0119324D01*
X0008295Y0120323D02*
X0003694Y0120323D01*
X0003694Y0121321D02*
X0008295Y0121321D01*
X0008295Y0122320D02*
X0003694Y0122320D01*
X0003694Y0123318D02*
X0008295Y0123318D01*
X0008295Y0124317D02*
X0003694Y0124317D01*
X0003694Y0125315D02*
X0008295Y0125315D01*
X0008295Y0126314D02*
X0003694Y0126314D01*
X0003694Y0127312D02*
X0008295Y0127312D01*
X0008295Y0128311D02*
X0003694Y0128311D01*
X0003694Y0129309D02*
X0008295Y0129309D01*
X0008295Y0130308D02*
X0003694Y0130308D01*
X0003694Y0131306D02*
X0008295Y0131306D01*
X0008295Y0132305D02*
X0003694Y0132305D01*
X0003694Y0133303D02*
X0008295Y0133303D01*
X0008295Y0134302D02*
X0003694Y0134302D01*
X0003694Y0135301D02*
X0008295Y0135301D01*
X0008295Y0136299D02*
X0003694Y0136299D01*
X0003694Y0137298D02*
X0008295Y0137298D01*
X0008295Y0138296D02*
X0003694Y0138296D01*
X0003694Y0139295D02*
X0008295Y0139295D01*
X0008295Y0140293D02*
X0003694Y0140293D01*
X0003694Y0141292D02*
X0008295Y0141292D01*
X0008295Y0142290D02*
X0003694Y0142290D01*
X0003694Y0143289D02*
X0008295Y0143289D01*
X0008295Y0144287D02*
X0003694Y0144287D01*
X0003694Y0145286D02*
X0008295Y0145286D01*
X0008295Y0146284D02*
X0003694Y0146284D01*
X0003694Y0147283D02*
X0008295Y0147283D01*
X0008295Y0148281D02*
X0003694Y0148281D01*
X0003694Y0149280D02*
X0008295Y0149280D01*
X0008295Y0150278D02*
X0003694Y0150278D01*
X0003694Y0151277D02*
X0008295Y0151277D01*
X0008295Y0152275D02*
X0003694Y0152275D01*
X0003694Y0153274D02*
X0008295Y0153274D01*
X0008295Y0154272D02*
X0003694Y0154272D01*
X0003694Y0155271D02*
X0008295Y0155271D01*
X0008295Y0156269D02*
X0003694Y0156269D01*
X0003694Y0157268D02*
X0008295Y0157268D01*
X0008295Y0158266D02*
X0003694Y0158266D01*
X0003694Y0159265D02*
X0008295Y0159265D01*
X0008295Y0160263D02*
X0003694Y0160263D01*
X0003694Y0161262D02*
X0008295Y0161262D01*
X0008295Y0162260D02*
X0003694Y0162260D01*
X0003694Y0163259D02*
X0008295Y0163259D01*
X0008295Y0164257D02*
X0003694Y0164257D01*
X0003694Y0165256D02*
X0008295Y0165256D01*
X0008295Y0166254D02*
X0003694Y0166254D01*
X0003694Y0167253D02*
X0008295Y0167253D01*
X0008295Y0168251D02*
X0003694Y0168251D01*
X0003694Y0169250D02*
X0008295Y0169250D01*
X0008295Y0170248D02*
X0003694Y0170248D01*
X0003694Y0171247D02*
X0008295Y0171247D01*
X0008295Y0172245D02*
X0003694Y0172245D01*
X0003694Y0173244D02*
X0008295Y0173244D01*
X0008295Y0174242D02*
X0003694Y0174242D01*
X0003694Y0175241D02*
X0008295Y0175241D01*
X0008295Y0176239D02*
X0003694Y0176239D01*
X0003694Y0177238D02*
X0008295Y0177238D01*
X0008295Y0178237D02*
X0003694Y0178237D01*
X0003694Y0179235D02*
X0008295Y0179235D01*
X0008295Y0180234D02*
X0003694Y0180234D01*
X0003694Y0181232D02*
X0008295Y0181232D01*
X0008295Y0182231D02*
X0003694Y0182231D01*
X0003694Y0183229D02*
X0008295Y0183229D01*
X0008295Y0184228D02*
X0003694Y0184228D01*
X0003694Y0185226D02*
X0008295Y0185226D01*
X0008295Y0186225D02*
X0003694Y0186225D01*
X0003694Y0187223D02*
X0008295Y0187223D01*
X0008295Y0188222D02*
X0003694Y0188222D01*
X0003694Y0189220D02*
X0008295Y0189220D01*
X0008295Y0190219D02*
X0003694Y0190219D01*
X0003694Y0191217D02*
X0008295Y0191217D01*
X0008295Y0192216D02*
X0003694Y0192216D01*
X0003694Y0193214D02*
X0008295Y0193214D01*
X0008295Y0194213D02*
X0003694Y0194213D01*
X0003694Y0195211D02*
X0008295Y0195211D01*
X0008295Y0196210D02*
X0003694Y0196210D01*
X0003694Y0197208D02*
X0008295Y0197208D01*
X0008295Y0198207D02*
X0003694Y0198207D01*
X0003694Y0199205D02*
X0008295Y0199205D01*
X0008295Y0200204D02*
X0003694Y0200204D01*
X0003694Y0201202D02*
X0008295Y0201202D01*
X0008295Y0202201D02*
X0003694Y0202201D01*
X0003694Y0203199D02*
X0008295Y0203199D01*
X0008295Y0204198D02*
X0003694Y0204198D01*
X0003694Y0205196D02*
X0008295Y0205196D01*
X0008295Y0206195D02*
X0003694Y0206195D01*
X0003694Y0207193D02*
X0008295Y0207193D01*
X0008295Y0208192D02*
X0003694Y0208192D01*
X0003694Y0209190D02*
X0008295Y0209190D01*
X0008295Y0210189D02*
X0003694Y0210189D01*
X0003694Y0211187D02*
X0008295Y0211187D01*
X0008295Y0212186D02*
X0003694Y0212186D01*
X0003694Y0213184D02*
X0008295Y0213184D01*
X0008295Y0214183D02*
X0003694Y0214183D01*
X0003694Y0215181D02*
X0008295Y0215181D01*
X0008295Y0216180D02*
X0003694Y0216180D01*
X0003694Y0217178D02*
X0008295Y0217178D01*
X0008295Y0218177D02*
X0003694Y0218177D01*
X0003694Y0219175D02*
X0008295Y0219175D01*
X0008295Y0220174D02*
X0003694Y0220174D01*
X0003694Y0221172D02*
X0008295Y0221172D01*
X0008295Y0222171D02*
X0003694Y0222171D01*
X0003694Y0223170D02*
X0008295Y0223170D01*
X0008295Y0224168D02*
X0003694Y0224168D01*
X0003694Y0225167D02*
X0008295Y0225167D01*
X0008295Y0226165D02*
X0003694Y0226165D01*
X0003694Y0227164D02*
X0008295Y0227164D01*
X0008295Y0228162D02*
X0003694Y0228162D01*
X0003694Y0229161D02*
X0008295Y0229161D01*
X0008295Y0230159D02*
X0003694Y0230159D01*
X0003694Y0231158D02*
X0008295Y0231158D01*
X0008295Y0232156D02*
X0003694Y0232156D01*
X0003694Y0233155D02*
X0008295Y0233155D01*
X0008295Y0234153D02*
X0003694Y0234153D01*
X0003694Y0235152D02*
X0008295Y0235152D01*
X0008295Y0236150D02*
X0003694Y0236150D01*
X0003694Y0237149D02*
X0008295Y0237149D01*
X0008295Y0238147D02*
X0003694Y0238147D01*
X0003694Y0239146D02*
X0008295Y0239146D01*
X0008295Y0240144D02*
X0003694Y0240144D01*
X0003694Y0241143D02*
X0008295Y0241143D01*
X0008295Y0242141D02*
X0003694Y0242141D01*
X0003694Y0243140D02*
X0008295Y0243140D01*
X0008295Y0244138D02*
X0003694Y0244138D01*
X0003694Y0245137D02*
X0008295Y0245137D01*
X0008295Y0246135D02*
X0003694Y0246135D01*
X0003694Y0247134D02*
X0008295Y0247134D01*
X0008295Y0248132D02*
X0003694Y0248132D01*
X0003694Y0249131D02*
X0008295Y0249131D01*
X0008295Y0250129D02*
X0003694Y0250129D01*
X0003694Y0251128D02*
X0008295Y0251128D01*
X0008295Y0252126D02*
X0003694Y0252126D01*
X0003694Y0253125D02*
X0008295Y0253125D01*
X0008295Y0254123D02*
X0003694Y0254123D01*
X0003694Y0255122D02*
X0008295Y0255122D01*
X0008295Y0256120D02*
X0003694Y0256120D01*
X0003694Y0257119D02*
X0008295Y0257119D01*
X0008295Y0258117D02*
X0003694Y0258117D01*
X0003694Y0259116D02*
X0008295Y0259116D01*
X0008295Y0260114D02*
X0003694Y0260114D01*
X0003694Y0261113D02*
X0008394Y0261113D01*
X0010095Y0260269D02*
X0010095Y0054000D01*
X0012194Y0050951D01*
X0014398Y0050951D01*
X0020368Y0051426D02*
X0021189Y0051426D01*
X0021189Y0052424D02*
X0020368Y0052424D01*
X0020368Y0053423D02*
X0021189Y0053423D01*
X0021189Y0054421D02*
X0020368Y0054421D01*
X0020368Y0055420D02*
X0021189Y0055420D01*
X0021189Y0056418D02*
X0020368Y0056418D01*
X0020368Y0057417D02*
X0021189Y0057417D01*
X0021189Y0058415D02*
X0020368Y0058415D01*
X0020368Y0059414D02*
X0021189Y0059414D01*
X0021189Y0060412D02*
X0020368Y0060412D01*
X0020368Y0061411D02*
X0021189Y0061411D01*
X0021189Y0062409D02*
X0020368Y0062409D01*
X0020368Y0063408D02*
X0021189Y0063408D01*
X0021189Y0064406D02*
X0020368Y0064406D01*
X0019686Y0065405D02*
X0021189Y0065405D01*
X0021189Y0066403D02*
X0018688Y0066403D01*
X0018246Y0067402D02*
X0021346Y0067402D01*
X0022314Y0068400D02*
X0018246Y0068400D01*
X0018246Y0069399D02*
X0023106Y0069399D01*
X0023106Y0070397D02*
X0018246Y0070397D01*
X0018246Y0071396D02*
X0022789Y0071396D01*
X0021790Y0072394D02*
X0018246Y0072394D01*
X0018246Y0073393D02*
X0021515Y0073393D01*
X0021515Y0074160D02*
X0021515Y0074160D01*
X0021515Y0074391D02*
X0018246Y0074391D01*
X0018246Y0075390D02*
X0021515Y0075390D01*
X0021515Y0076388D02*
X0018246Y0076388D01*
X0018246Y0077387D02*
X0021515Y0077387D01*
X0021515Y0078385D02*
X0018246Y0078385D01*
X0018246Y0079384D02*
X0021515Y0079384D01*
X0021515Y0080382D02*
X0018246Y0080382D01*
X0018246Y0081381D02*
X0021515Y0081381D01*
X0021515Y0082379D02*
X0018246Y0082379D01*
X0018246Y0083378D02*
X0021515Y0083378D01*
X0021515Y0084376D02*
X0018246Y0084376D01*
X0020183Y0085375D02*
X0021515Y0085375D01*
X0021515Y0086373D02*
X0020866Y0086373D01*
X0021113Y0087372D02*
X0021515Y0087372D01*
X0021515Y0088370D02*
X0021040Y0088370D01*
X0020601Y0089369D02*
X0021515Y0089369D01*
X0021515Y0090368D02*
X0020316Y0090368D01*
X0020316Y0091366D02*
X0021515Y0091366D01*
X0021515Y0092365D02*
X0020316Y0092365D01*
X0020316Y0093363D02*
X0021515Y0093363D01*
X0021515Y0094362D02*
X0020316Y0094362D01*
X0020316Y0095360D02*
X0021515Y0095360D01*
X0021515Y0096359D02*
X0020316Y0096359D01*
X0020316Y0097357D02*
X0021515Y0097357D01*
X0021515Y0098356D02*
X0020316Y0098356D01*
X0020316Y0099354D02*
X0022315Y0099354D01*
X0022570Y0099609D02*
X0022570Y0099609D01*
X0023314Y0100353D02*
X0020316Y0100353D01*
X0019586Y0101351D02*
X0023516Y0101351D01*
X0023516Y0102350D02*
X0018588Y0102350D01*
X0018145Y0103348D02*
X0023516Y0103348D01*
X0023108Y0104347D02*
X0017717Y0104347D01*
X0016498Y0105345D02*
X0022077Y0105345D01*
X0021042Y0106344D02*
X0013737Y0106344D01*
X0013742Y0107342D02*
X0020394Y0107342D01*
X0020384Y0108341D02*
X0013746Y0108341D01*
X0013751Y0109339D02*
X0020394Y0109339D01*
X0020394Y0110338D02*
X0013756Y0110338D01*
X0013760Y0111336D02*
X0020394Y0111336D01*
X0020394Y0112335D02*
X0013765Y0112335D01*
X0013770Y0113333D02*
X0020385Y0113333D01*
X0020394Y0114332D02*
X0013774Y0114332D01*
X0013779Y0115330D02*
X0020979Y0115330D01*
X0022005Y0116329D02*
X0013784Y0116329D01*
X0013788Y0117327D02*
X0023030Y0117327D01*
X0024055Y0118326D02*
X0013793Y0118326D01*
X0013797Y0119324D02*
X0025077Y0119324D01*
X0027713Y0111077D02*
X0027782Y0108373D01*
X0025316Y0096500D02*
X0025316Y0074000D01*
X0026827Y0072561D01*
X0026827Y0067695D01*
X0024827Y0065695D01*
X0024827Y0038928D01*
X0022690Y0036166D01*
X0022690Y0025692D01*
X0036115Y0012267D01*
X0040601Y0013517D01*
X0041075Y0013526D01*
X0040736Y0007491D02*
X0041426Y0007491D01*
X0035244Y0032454D02*
X0049559Y0032454D01*
X0048560Y0033452D02*
X0035244Y0033452D01*
X0035244Y0034451D02*
X0048294Y0034451D01*
X0048294Y0035449D02*
X0035244Y0035449D01*
X0035244Y0036448D02*
X0048294Y0036448D01*
X0048459Y0037446D02*
X0035244Y0037446D01*
X0035244Y0038445D02*
X0049458Y0038445D01*
X0050456Y0039443D02*
X0035244Y0039443D01*
X0021189Y0045434D02*
X0019755Y0045434D01*
X0020569Y0046433D02*
X0021189Y0046433D01*
X0021189Y0047432D02*
X0020908Y0047432D01*
X0020908Y0048430D02*
X0021189Y0048430D01*
X0021189Y0049429D02*
X0020513Y0049429D01*
X0020368Y0050427D02*
X0021189Y0050427D01*
X0034322Y0075390D02*
X0037846Y0075390D01*
X0036607Y0076388D02*
X0034327Y0076388D01*
X0033872Y0077387D02*
X0036171Y0077387D01*
X0036100Y0078385D02*
X0033417Y0078385D01*
X0032962Y0079384D02*
X0036348Y0079384D01*
X0018032Y0087338D02*
X0018032Y0087581D01*
X0013536Y0098136D02*
X0013079Y0098136D01*
X0011914Y0099467D01*
X0011914Y0101500D01*
X0012194Y0161500D01*
X0012194Y0163312D01*
X0013213Y0164332D01*
X0013994Y0161262D02*
X0014226Y0161262D01*
X0014310Y0160263D02*
X0013988Y0160263D01*
X0013983Y0159265D02*
X0014765Y0159265D01*
X0015000Y0158266D02*
X0013979Y0158266D01*
X0013974Y0157268D02*
X0015000Y0157268D01*
X0015000Y0156269D02*
X0013969Y0156269D01*
X0013965Y0155271D02*
X0015000Y0155271D01*
X0015000Y0154272D02*
X0013960Y0154272D01*
X0013955Y0153274D02*
X0015000Y0153274D01*
X0015000Y0152275D02*
X0013951Y0152275D01*
X0013946Y0151277D02*
X0015000Y0151277D01*
X0015000Y0150278D02*
X0013942Y0150278D01*
X0013937Y0149280D02*
X0014953Y0149280D01*
X0015000Y0148281D02*
X0013932Y0148281D01*
X0013928Y0147283D02*
X0015972Y0147283D01*
X0015616Y0146284D02*
X0013923Y0146284D01*
X0013918Y0145286D02*
X0015530Y0145286D01*
X0015763Y0144287D02*
X0013914Y0144287D01*
X0013909Y0143289D02*
X0016428Y0143289D01*
X0013904Y0142290D02*
X0019246Y0142290D01*
X0020248Y0141292D02*
X0013900Y0141292D01*
X0013895Y0140293D02*
X0021251Y0140293D01*
X0022254Y0139295D02*
X0013890Y0139295D01*
X0013886Y0138296D02*
X0023256Y0138296D01*
X0013881Y0137298D02*
X0037414Y0137298D01*
X0037791Y0136299D02*
X0013876Y0136299D01*
X0013872Y0135301D02*
X0037435Y0135301D01*
X0037435Y0134302D02*
X0013867Y0134302D01*
X0013863Y0133303D02*
X0037811Y0133303D01*
X0038678Y0132305D02*
X0013858Y0132305D01*
X0013853Y0131306D02*
X0043832Y0131306D01*
X0043832Y0130308D02*
X0013849Y0130308D01*
X0013844Y0129309D02*
X0043832Y0129309D01*
X0043832Y0128311D02*
X0013839Y0128311D01*
X0013835Y0127312D02*
X0043832Y0127312D01*
X0043832Y0126314D02*
X0013830Y0126314D01*
X0013825Y0125315D02*
X0043832Y0125315D01*
X0043832Y0124317D02*
X0013821Y0124317D01*
X0013816Y0123318D02*
X0043832Y0123318D01*
X0043832Y0122320D02*
X0013811Y0122320D01*
X0013807Y0121321D02*
X0043832Y0121321D01*
X0043832Y0120323D02*
X0013802Y0120323D01*
X0013732Y0105345D02*
X0013762Y0105345D01*
X0039587Y0110338D02*
X0039730Y0110338D01*
X0042621Y0117327D02*
X0043449Y0117327D01*
X0043832Y0118326D02*
X0041622Y0118326D01*
X0040624Y0119324D02*
X0043832Y0119324D01*
X0043832Y0132305D02*
X0042353Y0132305D01*
X0056024Y0153274D02*
X0063593Y0153274D01*
X0063355Y0152275D02*
X0056694Y0152275D01*
X0056694Y0151277D02*
X0063436Y0151277D01*
X0063885Y0150278D02*
X0056694Y0150278D01*
X0056694Y0149280D02*
X0064148Y0149280D01*
X0064147Y0148281D02*
X0056694Y0148281D01*
X0056694Y0147283D02*
X0060225Y0147283D01*
X0059362Y0146284D02*
X0056694Y0146284D01*
X0056694Y0145286D02*
X0058989Y0145286D01*
X0058989Y0144287D02*
X0056694Y0144287D01*
X0056694Y0143289D02*
X0059348Y0143289D01*
X0060192Y0142290D02*
X0056694Y0142290D01*
X0056694Y0141292D02*
X0061041Y0141292D01*
X0061041Y0140293D02*
X0056694Y0140293D01*
X0056694Y0139295D02*
X0061041Y0139295D01*
X0061041Y0138296D02*
X0056694Y0138296D01*
X0057600Y0137298D02*
X0061041Y0137298D01*
X0061041Y0136299D02*
X0060518Y0136299D01*
X0058532Y0133927D02*
X0060902Y0131557D01*
X0060902Y0122773D01*
X0064500Y0119175D01*
X0064500Y0104549D01*
X0065874Y0103176D01*
X0065874Y0103152D01*
X0067167Y0100353D02*
X0067358Y0100353D01*
X0067908Y0107471D02*
X0067908Y0119000D01*
X0062841Y0124000D01*
X0062841Y0141500D01*
X0062070Y0144770D01*
X0063914Y0147283D02*
X0064146Y0147283D01*
X0064266Y0154272D02*
X0055026Y0154272D01*
X0050033Y0159265D02*
X0068564Y0159265D01*
X0070119Y0160263D02*
X0049035Y0160263D01*
X0064641Y0125315D02*
X0065212Y0125315D01*
X0065082Y0124317D02*
X0073532Y0124317D01*
X0073539Y0123318D02*
X0066094Y0123318D01*
X0067106Y0122320D02*
X0073952Y0122320D01*
X0074905Y0121321D02*
X0068118Y0121321D01*
X0067601Y0125315D02*
X0073844Y0125315D01*
X0074620Y0126314D02*
X0068922Y0126314D01*
X0082264Y0125315D02*
X0082894Y0125315D01*
X0088031Y0116317D02*
X0088118Y0116317D01*
X0085934Y0088014D02*
X0085934Y0085514D01*
X0090813Y0039800D02*
X0088294Y0037281D01*
X0088294Y0033719D01*
X0090813Y0031200D01*
X0094375Y0031200D01*
X0096894Y0033719D01*
X0096894Y0037281D01*
X0094375Y0039800D01*
X0090813Y0039800D01*
X0090456Y0039443D02*
X0084731Y0039443D01*
X0085730Y0038445D02*
X0089458Y0038445D01*
X0088459Y0037446D02*
X0086728Y0037446D01*
X0086894Y0036448D02*
X0088294Y0036448D01*
X0088294Y0035449D02*
X0086894Y0035449D01*
X0086894Y0034451D02*
X0088294Y0034451D01*
X0088560Y0033452D02*
X0086627Y0033452D01*
X0085629Y0032454D02*
X0089559Y0032454D01*
X0090557Y0031455D02*
X0084630Y0031455D01*
X0084717Y0029458D02*
X0090471Y0029458D01*
X0090813Y0029800D02*
X0088294Y0027281D01*
X0088294Y0023719D01*
X0090813Y0021200D01*
X0094375Y0021200D01*
X0096894Y0023719D01*
X0096894Y0027281D01*
X0094375Y0029800D01*
X0090813Y0029800D01*
X0089473Y0028460D02*
X0085715Y0028460D01*
X0086714Y0027461D02*
X0088474Y0027461D01*
X0088294Y0026463D02*
X0086894Y0026463D01*
X0086894Y0025464D02*
X0088294Y0025464D01*
X0088294Y0024466D02*
X0086894Y0024466D01*
X0086642Y0023467D02*
X0088545Y0023467D01*
X0089544Y0022469D02*
X0085644Y0022469D01*
X0084645Y0021470D02*
X0090542Y0021470D01*
X0094645Y0021470D02*
X0100542Y0021470D01*
X0100813Y0021200D02*
X0104375Y0021200D01*
X0106894Y0023719D01*
X0106894Y0027281D01*
X0104375Y0029800D01*
X0100813Y0029800D01*
X0098294Y0027281D01*
X0098294Y0023719D01*
X0100813Y0021200D01*
X0099544Y0022469D02*
X0095644Y0022469D01*
X0096642Y0023467D02*
X0098545Y0023467D01*
X0098294Y0024466D02*
X0096894Y0024466D01*
X0096894Y0025464D02*
X0098294Y0025464D01*
X0098294Y0026463D02*
X0096894Y0026463D01*
X0096714Y0027461D02*
X0098474Y0027461D01*
X0099473Y0028460D02*
X0095715Y0028460D01*
X0094717Y0029458D02*
X0100471Y0029458D01*
X0100813Y0031200D02*
X0104375Y0031200D01*
X0106894Y0033719D01*
X0106894Y0037281D01*
X0104375Y0039800D01*
X0100813Y0039800D01*
X0098294Y0037281D01*
X0098294Y0033719D01*
X0100813Y0031200D01*
X0100557Y0031455D02*
X0094630Y0031455D01*
X0095629Y0032454D02*
X0099559Y0032454D01*
X0098560Y0033452D02*
X0096627Y0033452D01*
X0096894Y0034451D02*
X0098294Y0034451D01*
X0098294Y0035449D02*
X0096894Y0035449D01*
X0096894Y0036448D02*
X0098294Y0036448D01*
X0098459Y0037446D02*
X0096728Y0037446D01*
X0095730Y0038445D02*
X0099458Y0038445D01*
X0100456Y0039443D02*
X0094731Y0039443D01*
X0104731Y0039443D02*
X0110456Y0039443D01*
X0109458Y0038445D02*
X0105730Y0038445D01*
X0106728Y0037446D02*
X0108459Y0037446D01*
X0108294Y0036448D02*
X0106894Y0036448D01*
X0106894Y0035449D02*
X0108294Y0035449D01*
X0108294Y0034451D02*
X0106894Y0034451D01*
X0106627Y0033452D02*
X0108560Y0033452D01*
X0109559Y0032454D02*
X0105629Y0032454D01*
X0104630Y0031455D02*
X0110557Y0031455D01*
X0110813Y0029800D02*
X0108294Y0027281D01*
X0108294Y0023719D01*
X0110813Y0021200D01*
X0114375Y0021200D01*
X0116894Y0023719D01*
X0116894Y0027281D01*
X0114375Y0029800D01*
X0110813Y0029800D01*
X0110471Y0029458D02*
X0104717Y0029458D01*
X0105715Y0028460D02*
X0109473Y0028460D01*
X0108474Y0027461D02*
X0106714Y0027461D01*
X0106894Y0026463D02*
X0108294Y0026463D01*
X0108294Y0025464D02*
X0106894Y0025464D01*
X0106894Y0024466D02*
X0108294Y0024466D01*
X0108545Y0023467D02*
X0106642Y0023467D01*
X0105644Y0022469D02*
X0109544Y0022469D01*
X0110542Y0021470D02*
X0104645Y0021470D01*
X0114645Y0021470D02*
X0136855Y0021470D01*
X0116894Y0024466D02*
X0181796Y0024466D01*
X0181796Y0025464D02*
X0116894Y0025464D01*
X0116894Y0026463D02*
X0181796Y0026463D01*
X0181796Y0027461D02*
X0116714Y0027461D01*
X0115715Y0028460D02*
X0181796Y0028460D01*
X0181796Y0029458D02*
X0114717Y0029458D01*
X0116642Y0023467D02*
X0181796Y0023467D01*
X0181796Y0022469D02*
X0115644Y0022469D01*
X0181796Y0005494D02*
X0003694Y0005494D01*
X0003694Y0004496D02*
X0181796Y0004496D01*
X0181796Y0003497D02*
X0003694Y0003497D01*
X0101812Y0156269D02*
X0112172Y0156269D01*
X0110713Y0157268D02*
X0102761Y0157268D01*
X0103710Y0158266D02*
X0110186Y0158266D01*
X0109843Y0159265D02*
X0104659Y0159265D01*
X0105609Y0160263D02*
X0108845Y0160263D01*
X0107847Y0161262D02*
X0106107Y0161262D01*
X0106100Y0162260D02*
X0106848Y0162260D01*
X0098438Y0183700D02*
X0096926Y0183700D01*
X0095529Y0184279D01*
X0094461Y0185347D01*
X0093882Y0186744D01*
X0093882Y0188256D01*
X0094461Y0189653D01*
X0095529Y0190721D01*
X0096926Y0191300D01*
X0098438Y0191300D01*
X0099835Y0190721D01*
X0100903Y0189653D01*
X0101482Y0188256D01*
X0101482Y0186744D01*
X0100903Y0185347D01*
X0099835Y0184279D01*
X0098438Y0183700D01*
X0099712Y0184228D02*
X0102500Y0184228D01*
X0102500Y0185226D02*
X0100782Y0185226D01*
X0101267Y0186225D02*
X0102500Y0186225D01*
X0102500Y0187223D02*
X0101482Y0187223D01*
X0101482Y0188222D02*
X0102500Y0188222D01*
X0102500Y0189220D02*
X0101083Y0189220D01*
X0100337Y0190219D02*
X0102500Y0190219D01*
X0102500Y0191217D02*
X0098638Y0191217D01*
X0096726Y0191217D02*
X0088638Y0191217D01*
X0090337Y0190219D02*
X0095027Y0190219D01*
X0094281Y0189220D02*
X0091083Y0189220D01*
X0091482Y0188222D02*
X0093882Y0188222D01*
X0093882Y0187223D02*
X0091482Y0187223D01*
X0091267Y0186225D02*
X0094097Y0186225D01*
X0094582Y0185226D02*
X0090782Y0185226D01*
X0089712Y0184228D02*
X0095652Y0184228D01*
X0096926Y0193700D02*
X0095529Y0194279D01*
X0094461Y0195347D01*
X0093882Y0196744D01*
X0093882Y0198256D01*
X0094461Y0199653D01*
X0095529Y0200721D01*
X0096926Y0201300D01*
X0098438Y0201300D01*
X0099835Y0200721D01*
X0100903Y0199653D01*
X0101482Y0198256D01*
X0101482Y0196744D01*
X0100903Y0195347D01*
X0099835Y0194279D01*
X0098438Y0193700D01*
X0096926Y0193700D01*
X0095688Y0194213D02*
X0089962Y0194213D01*
X0090232Y0194393D02*
X0090789Y0194950D01*
X0091227Y0195605D01*
X0091528Y0196333D01*
X0091682Y0197106D01*
X0091682Y0197400D01*
X0087782Y0197400D01*
X0087782Y0197600D01*
X0087582Y0197600D01*
X0087582Y0201500D01*
X0087288Y0201500D01*
X0086515Y0201346D01*
X0085787Y0201045D01*
X0085132Y0200607D01*
X0084575Y0200050D01*
X0084137Y0199395D01*
X0083836Y0198667D01*
X0083682Y0197894D01*
X0083682Y0197600D01*
X0087582Y0197600D01*
X0087582Y0197400D01*
X0087782Y0197400D01*
X0087782Y0193500D01*
X0088076Y0193500D01*
X0088849Y0193654D01*
X0089577Y0193955D01*
X0090232Y0194393D01*
X0090963Y0195211D02*
X0094597Y0195211D01*
X0094103Y0196210D02*
X0091477Y0196210D01*
X0091682Y0197208D02*
X0093882Y0197208D01*
X0093882Y0198207D02*
X0091620Y0198207D01*
X0091682Y0197894D02*
X0091528Y0198667D01*
X0091227Y0199395D01*
X0090789Y0200050D01*
X0090232Y0200607D01*
X0089577Y0201045D01*
X0088849Y0201346D01*
X0088076Y0201500D01*
X0087782Y0201500D01*
X0087782Y0197600D01*
X0091682Y0197600D01*
X0091682Y0197894D01*
X0091305Y0199205D02*
X0094275Y0199205D01*
X0095012Y0200204D02*
X0090635Y0200204D01*
X0089196Y0201202D02*
X0096690Y0201202D01*
X0098674Y0201202D02*
X0102500Y0201202D01*
X0102500Y0200204D02*
X0100352Y0200204D01*
X0101089Y0199205D02*
X0102500Y0199205D01*
X0102500Y0198207D02*
X0101482Y0198207D01*
X0101482Y0197208D02*
X0102500Y0197208D01*
X0102500Y0196210D02*
X0101261Y0196210D01*
X0100767Y0195211D02*
X0102500Y0195211D01*
X0102500Y0194213D02*
X0099676Y0194213D01*
X0102500Y0202201D02*
X0053697Y0202201D01*
X0054695Y0203199D02*
X0102500Y0203199D01*
X0102500Y0204198D02*
X0055147Y0204198D01*
X0055415Y0205196D02*
X0102500Y0205196D01*
X0102500Y0206195D02*
X0055415Y0206195D01*
X0055415Y0207193D02*
X0102500Y0207193D01*
X0102500Y0208192D02*
X0055415Y0208192D01*
X0055415Y0209190D02*
X0102500Y0209190D01*
X0102500Y0210189D02*
X0055415Y0210189D01*
X0055415Y0211187D02*
X0102500Y0211187D01*
X0102500Y0212186D02*
X0055415Y0212186D01*
X0055155Y0213184D02*
X0102500Y0213184D01*
X0102500Y0214183D02*
X0054713Y0214183D01*
X0053715Y0215181D02*
X0102500Y0215181D01*
X0102500Y0216180D02*
X0073380Y0216180D01*
X0074378Y0217178D02*
X0102142Y0217178D01*
X0101139Y0218177D02*
X0075377Y0218177D01*
X0076375Y0219175D02*
X0100135Y0219175D01*
X0099132Y0220174D02*
X0077374Y0220174D01*
X0078372Y0221172D02*
X0098129Y0221172D01*
X0097126Y0222171D02*
X0079371Y0222171D01*
X0080369Y0223170D02*
X0096122Y0223170D01*
X0096039Y0224168D02*
X0081368Y0224168D01*
X0082366Y0225167D02*
X0096039Y0225167D01*
X0096039Y0226165D02*
X0083364Y0226165D01*
X0084363Y0227164D02*
X0096039Y0227164D01*
X0096039Y0228162D02*
X0085361Y0228162D01*
X0086360Y0229161D02*
X0096039Y0229161D01*
X0096039Y0230159D02*
X0087358Y0230159D01*
X0088357Y0231158D02*
X0096039Y0231158D01*
X0096039Y0232156D02*
X0092841Y0232156D01*
X0093694Y0233155D02*
X0096039Y0233155D01*
X0096039Y0234153D02*
X0094060Y0234153D01*
X0094060Y0235152D02*
X0096039Y0235152D01*
X0096039Y0236150D02*
X0093693Y0236150D01*
X0092839Y0237149D02*
X0096039Y0237149D01*
X0096039Y0238147D02*
X0053038Y0238147D01*
X0052944Y0237149D02*
X0089119Y0237149D01*
X0086888Y0236150D02*
X0052477Y0236150D01*
X0051163Y0235152D02*
X0085889Y0235152D01*
X0084891Y0234153D02*
X0044194Y0234153D01*
X0044280Y0233155D02*
X0083892Y0233155D01*
X0082894Y0232156D02*
X0044046Y0232156D01*
X0043483Y0231158D02*
X0081895Y0231158D01*
X0080897Y0230159D02*
X0043483Y0230159D01*
X0043483Y0229161D02*
X0079898Y0229161D01*
X0078900Y0228162D02*
X0043483Y0228162D01*
X0043483Y0227164D02*
X0077902Y0227164D01*
X0076903Y0226165D02*
X0043483Y0226165D01*
X0044230Y0225167D02*
X0075905Y0225167D01*
X0074906Y0224168D02*
X0045228Y0224168D01*
X0046227Y0223170D02*
X0073908Y0223170D01*
X0072909Y0222171D02*
X0047225Y0222171D01*
X0048224Y0221172D02*
X0053015Y0221172D01*
X0055478Y0221172D02*
X0068447Y0221172D01*
X0070910Y0221172D02*
X0071911Y0221172D01*
X0086168Y0201202D02*
X0024575Y0201202D01*
X0024322Y0200204D02*
X0084729Y0200204D01*
X0084059Y0199205D02*
X0023629Y0199205D01*
X0025498Y0202201D02*
X0038533Y0202201D01*
X0038679Y0202055D02*
X0040260Y0201400D01*
X0041970Y0201400D01*
X0043551Y0202055D01*
X0044760Y0203264D01*
X0045415Y0204845D01*
X0045415Y0212555D01*
X0044760Y0214136D01*
X0043551Y0215345D01*
X0041970Y0216000D01*
X0040260Y0216000D01*
X0038679Y0215345D01*
X0037470Y0214136D01*
X0036815Y0212555D01*
X0036815Y0204845D01*
X0037470Y0203264D01*
X0038679Y0202055D01*
X0037535Y0203199D02*
X0026497Y0203199D01*
X0026177Y0202879D02*
X0026177Y0202879D01*
X0027496Y0204198D02*
X0037083Y0204198D01*
X0036815Y0205196D02*
X0027515Y0205196D01*
X0027515Y0206110D02*
X0027515Y0206110D01*
X0027515Y0206195D02*
X0036815Y0206195D01*
X0036815Y0207193D02*
X0027515Y0207193D01*
X0027515Y0208192D02*
X0036815Y0208192D01*
X0036815Y0209190D02*
X0027515Y0209190D01*
X0027515Y0210189D02*
X0036815Y0210189D01*
X0036815Y0211187D02*
X0027515Y0211187D01*
X0027515Y0212186D02*
X0036815Y0212186D01*
X0037076Y0213184D02*
X0027515Y0213184D01*
X0027515Y0214183D02*
X0037517Y0214183D01*
X0038515Y0215181D02*
X0027515Y0215181D01*
X0027515Y0216180D02*
X0046755Y0216180D01*
X0045756Y0217178D02*
X0027515Y0217178D01*
X0027515Y0218177D02*
X0044758Y0218177D01*
X0043759Y0219175D02*
X0027515Y0219175D01*
X0027515Y0220174D02*
X0042761Y0220174D01*
X0041762Y0221172D02*
X0027515Y0221172D01*
X0027515Y0222171D02*
X0040764Y0222171D01*
X0039765Y0223170D02*
X0027515Y0223170D01*
X0027515Y0224168D02*
X0038914Y0224168D01*
X0038914Y0225167D02*
X0027515Y0225167D01*
X0027515Y0226165D02*
X0038914Y0226165D01*
X0038914Y0227164D02*
X0027515Y0227164D01*
X0027515Y0228162D02*
X0038914Y0228162D01*
X0038914Y0229161D02*
X0027515Y0229161D01*
X0028187Y0230159D02*
X0038914Y0230159D01*
X0038914Y0231158D02*
X0029142Y0231158D01*
X0026620Y0235152D02*
X0020099Y0235152D01*
X0019478Y0234153D02*
X0025685Y0234153D01*
X0024730Y0233155D02*
X0019478Y0233155D01*
X0019478Y0232156D02*
X0023775Y0232156D01*
X0022928Y0231158D02*
X0019478Y0231158D01*
X0019478Y0230159D02*
X0022946Y0230159D01*
X0022946Y0229161D02*
X0019478Y0229161D01*
X0019478Y0228162D02*
X0022946Y0228162D01*
X0022946Y0227164D02*
X0019478Y0227164D01*
X0019478Y0226165D02*
X0022946Y0226165D01*
X0022946Y0225167D02*
X0019478Y0225167D01*
X0019478Y0224168D02*
X0022946Y0224168D01*
X0022946Y0223170D02*
X0019478Y0223170D01*
X0019478Y0222171D02*
X0022946Y0222171D01*
X0022946Y0221172D02*
X0019478Y0221172D01*
X0019478Y0220174D02*
X0022946Y0220174D01*
X0022946Y0219175D02*
X0019478Y0219175D01*
X0019478Y0218177D02*
X0022946Y0218177D01*
X0022946Y0217178D02*
X0019478Y0217178D01*
X0019478Y0216180D02*
X0022946Y0216180D01*
X0022946Y0215181D02*
X0019478Y0215181D01*
X0019478Y0214183D02*
X0022946Y0214183D01*
X0022946Y0213184D02*
X0019478Y0213184D01*
X0019478Y0212186D02*
X0022946Y0212186D01*
X0022946Y0211187D02*
X0019478Y0211187D01*
X0019478Y0210189D02*
X0022946Y0210189D01*
X0022946Y0209190D02*
X0019478Y0209190D01*
X0019478Y0208192D02*
X0022946Y0208192D01*
X0022946Y0207193D02*
X0019478Y0207193D01*
X0019478Y0206195D02*
X0022946Y0206195D01*
X0022032Y0205196D02*
X0019478Y0205196D01*
X0019478Y0204198D02*
X0020130Y0204198D01*
X0019478Y0198207D02*
X0083744Y0198207D01*
X0083682Y0197208D02*
X0019478Y0197208D01*
X0019478Y0196210D02*
X0083887Y0196210D01*
X0087582Y0196210D02*
X0087782Y0196210D01*
X0087782Y0197208D02*
X0087582Y0197208D01*
X0087582Y0198207D02*
X0087782Y0198207D01*
X0087782Y0199205D02*
X0087582Y0199205D01*
X0087582Y0200204D02*
X0087782Y0200204D01*
X0087782Y0201202D02*
X0087582Y0201202D01*
X0087582Y0195211D02*
X0087782Y0195211D01*
X0087782Y0194213D02*
X0087582Y0194213D01*
X0104300Y0217570D02*
X0097839Y0224000D01*
X0097839Y0248950D01*
X0092594Y0253550D01*
X0094973Y0256120D02*
X0109617Y0256120D01*
X0109405Y0255909D02*
X0109000Y0255303D01*
X0108721Y0254629D01*
X0108579Y0253914D01*
X0108579Y0253650D01*
X0112179Y0253650D01*
X0112179Y0257250D01*
X0111914Y0257250D01*
X0111200Y0257108D01*
X0110526Y0256829D01*
X0109920Y0256424D01*
X0109405Y0255909D01*
X0108925Y0255122D02*
X0095731Y0255122D01*
X0096094Y0254123D02*
X0108620Y0254123D01*
X0108579Y0253450D02*
X0108579Y0253186D01*
X0108721Y0252471D01*
X0109000Y0251797D01*
X0109405Y0251191D01*
X0109920Y0250676D01*
X0110526Y0250271D01*
X0111200Y0249992D01*
X0111914Y0249850D01*
X0112179Y0249850D01*
X0112179Y0253450D01*
X0112379Y0253450D01*
X0112379Y0253650D01*
X0115979Y0253650D01*
X0115979Y0253914D01*
X0115837Y0254629D01*
X0115558Y0255303D01*
X0115153Y0255909D01*
X0114637Y0256424D01*
X0114031Y0256829D01*
X0113358Y0257108D01*
X0112643Y0257250D01*
X0112379Y0257250D01*
X0112379Y0253650D01*
X0112179Y0253650D01*
X0112179Y0253450D01*
X0108579Y0253450D01*
X0108591Y0253125D02*
X0096094Y0253125D01*
X0096947Y0252126D02*
X0108864Y0252126D01*
X0109468Y0251128D02*
X0098086Y0251128D01*
X0099225Y0250129D02*
X0110869Y0250129D01*
X0112179Y0250129D02*
X0112379Y0250129D01*
X0112379Y0249850D02*
X0112643Y0249850D01*
X0113358Y0249992D01*
X0114031Y0250271D01*
X0114637Y0250676D01*
X0115153Y0251191D01*
X0115558Y0251797D01*
X0115837Y0252471D01*
X0115979Y0253186D01*
X0115979Y0253450D01*
X0112379Y0253450D01*
X0112379Y0249850D01*
X0112379Y0251128D02*
X0112179Y0251128D01*
X0112179Y0252126D02*
X0112379Y0252126D01*
X0112379Y0253125D02*
X0112179Y0253125D01*
X0112179Y0254123D02*
X0112379Y0254123D01*
X0112379Y0255122D02*
X0112179Y0255122D01*
X0112179Y0256120D02*
X0112379Y0256120D01*
X0112379Y0257119D02*
X0112179Y0257119D01*
X0111255Y0257119D02*
X0060793Y0257119D01*
X0061792Y0258117D02*
X0181796Y0258117D01*
X0181796Y0257119D02*
X0113302Y0257119D01*
X0114941Y0256120D02*
X0181796Y0256120D01*
X0181796Y0255122D02*
X0115633Y0255122D01*
X0115937Y0254123D02*
X0181796Y0254123D01*
X0181796Y0253125D02*
X0115967Y0253125D01*
X0115694Y0252126D02*
X0181796Y0252126D01*
X0181796Y0251128D02*
X0115089Y0251128D01*
X0113689Y0250129D02*
X0181796Y0250129D01*
X0181796Y0249131D02*
X0099639Y0249131D01*
X0099639Y0248132D02*
X0181796Y0248132D01*
X0181796Y0247134D02*
X0099639Y0247134D01*
X0099639Y0246135D02*
X0181796Y0246135D01*
X0181796Y0245137D02*
X0099639Y0245137D01*
X0099639Y0244138D02*
X0181796Y0244138D01*
X0181796Y0243140D02*
X0099639Y0243140D01*
X0096039Y0243140D02*
X0051500Y0243140D01*
X0051776Y0242141D02*
X0096039Y0242141D01*
X0096039Y0241143D02*
X0051769Y0241143D01*
X0052157Y0240144D02*
X0096039Y0240144D01*
X0096039Y0239146D02*
X0052812Y0239146D01*
X0049957Y0237987D02*
X0049969Y0241474D01*
X0049969Y0242125D01*
X0048182Y0242259D01*
X0024508Y0242259D01*
X0024962Y0240144D02*
X0047757Y0240144D01*
X0047102Y0239146D02*
X0023989Y0239146D01*
X0023017Y0238147D02*
X0046876Y0238147D01*
X0046969Y0237149D02*
X0022044Y0237149D01*
X0021072Y0236150D02*
X0027594Y0236150D01*
X0016870Y0253125D02*
X0043339Y0253125D01*
X0043211Y0252996D02*
X0042742Y0251864D01*
X0042742Y0250638D01*
X0043211Y0249506D01*
X0044077Y0248639D01*
X0045210Y0248170D01*
X0046436Y0248170D01*
X0047568Y0248639D01*
X0048435Y0249506D01*
X0048904Y0250638D01*
X0048904Y0251053D01*
X0049124Y0251266D01*
X0070244Y0251266D01*
X0070926Y0250583D01*
X0072213Y0250050D01*
X0073605Y0250050D01*
X0074891Y0250583D01*
X0075876Y0251567D01*
X0076409Y0252854D01*
X0076409Y0254246D01*
X0075876Y0255533D01*
X0074891Y0256517D01*
X0073605Y0257050D01*
X0072213Y0257050D01*
X0070926Y0256517D01*
X0070244Y0255834D01*
X0048219Y0255834D01*
X0047291Y0255850D01*
X0047275Y0255834D01*
X0047253Y0255834D01*
X0046598Y0255179D01*
X0045722Y0254332D01*
X0045210Y0254332D01*
X0044077Y0253863D01*
X0043211Y0252996D01*
X0042850Y0252126D02*
X0013994Y0252126D01*
X0013994Y0251128D02*
X0042742Y0251128D01*
X0042952Y0250129D02*
X0013994Y0250129D01*
X0013994Y0249131D02*
X0043585Y0249131D01*
X0048060Y0249131D02*
X0094903Y0249131D01*
X0096039Y0248132D02*
X0013994Y0248132D01*
X0013994Y0247134D02*
X0096039Y0247134D01*
X0096039Y0246135D02*
X0013994Y0246135D01*
X0013994Y0245137D02*
X0096039Y0245137D01*
X0096039Y0244138D02*
X0013994Y0244138D01*
X0017676Y0254123D02*
X0044706Y0254123D01*
X0046539Y0255122D02*
X0018009Y0255122D01*
X0018009Y0256120D02*
X0070529Y0256120D01*
X0075288Y0256120D02*
X0090214Y0256120D01*
X0089457Y0255122D02*
X0076046Y0255122D01*
X0076409Y0254123D02*
X0089094Y0254123D01*
X0089094Y0253125D02*
X0076409Y0253125D01*
X0076107Y0252126D02*
X0089395Y0252126D01*
X0090066Y0251128D02*
X0075436Y0251128D01*
X0073796Y0250129D02*
X0091706Y0250129D01*
X0093481Y0250129D02*
X0093765Y0250129D01*
X0072021Y0250129D02*
X0048693Y0250129D01*
X0048981Y0251128D02*
X0070381Y0251128D01*
X0062790Y0259116D02*
X0181796Y0259116D01*
X0181796Y0260114D02*
X0063244Y0260114D01*
X0063244Y0261113D02*
X0181796Y0261113D01*
X0181796Y0262111D02*
X0063244Y0262111D01*
X0063244Y0263110D02*
X0181796Y0263110D01*
X0181796Y0264108D02*
X0062914Y0264108D01*
X0062897Y0265107D02*
X0181796Y0265107D01*
X0181796Y0266105D02*
X0062880Y0266105D01*
X0062864Y0267104D02*
X0181796Y0267104D01*
X0181796Y0268103D02*
X0062847Y0268103D01*
X0062830Y0269101D02*
X0181796Y0269101D01*
X0181796Y0270100D02*
X0064640Y0270100D01*
X0065211Y0271098D02*
X0181796Y0271098D01*
X0181796Y0272097D02*
X0065211Y0272097D01*
X0065211Y0273095D02*
X0181796Y0273095D01*
X0181796Y0274094D02*
X0065211Y0274094D01*
X0065211Y0275092D02*
X0181796Y0275092D01*
X0181796Y0240144D02*
X0129368Y0240144D01*
X0129983Y0239146D02*
X0181796Y0239146D01*
X0181796Y0238147D02*
X0130294Y0238147D01*
X0130372Y0237149D02*
X0181796Y0237149D01*
X0181796Y0236150D02*
X0130372Y0236150D01*
X0130372Y0235152D02*
X0181796Y0235152D01*
X0123506Y0241143D02*
X0117832Y0241143D01*
X0119109Y0240144D02*
X0122377Y0240144D01*
X0121762Y0239146D02*
X0119762Y0239146D01*
X0120172Y0238147D02*
X0121451Y0238147D01*
X0121373Y0237149D02*
X0120172Y0237149D01*
X0120172Y0236150D02*
X0121373Y0236150D01*
X0121373Y0235152D02*
X0120172Y0235152D01*
X0061144Y0262310D02*
X0058644Y0261475D01*
X0061144Y0262310D02*
X0060959Y0273375D01*
X0059230Y0269101D02*
X0057140Y0269101D01*
X0057140Y0270100D02*
X0057277Y0270100D01*
X0056737Y0268103D02*
X0059247Y0268103D01*
X0059263Y0267104D02*
X0049614Y0267104D01*
X0049638Y0266105D02*
X0059280Y0266105D01*
X0055770Y0265107D02*
X0051517Y0265107D01*
X0052516Y0264108D02*
X0054772Y0264108D01*
X0054044Y0263110D02*
X0053244Y0263110D01*
X0053244Y0262111D02*
X0054044Y0262111D01*
X0054044Y0261113D02*
X0053244Y0261113D01*
X0053244Y0260114D02*
X0054044Y0260114D01*
X0054497Y0259116D02*
X0052790Y0259116D01*
X0051792Y0258117D02*
X0055496Y0258117D01*
X0056495Y0257119D02*
X0050793Y0257119D01*
X0046495Y0257119D02*
X0017609Y0257119D01*
X0016707Y0258117D02*
X0045496Y0258117D01*
X0044497Y0259116D02*
X0017725Y0259116D01*
X0018495Y0260114D02*
X0044044Y0260114D01*
X0044044Y0261113D02*
X0025536Y0261113D01*
X0026649Y0262111D02*
X0044044Y0262111D01*
X0044044Y0263110D02*
X0027167Y0263110D01*
X0027422Y0264108D02*
X0044772Y0264108D01*
X0045092Y0265107D02*
X0027422Y0265107D01*
X0027422Y0266105D02*
X0045068Y0266105D01*
X0045044Y0267104D02*
X0027422Y0267104D01*
X0027422Y0268103D02*
X0045020Y0268103D01*
X0044996Y0269101D02*
X0027422Y0269101D01*
X0027422Y0270100D02*
X0043498Y0270100D01*
X0042926Y0271098D02*
X0034002Y0271098D01*
X0034886Y0272097D02*
X0042926Y0272097D01*
X0042926Y0273095D02*
X0035275Y0273095D01*
X0035275Y0274094D02*
X0042926Y0274094D01*
X0042926Y0275092D02*
X0034930Y0275092D01*
X0032194Y0273648D02*
X0020225Y0273648D01*
X0018607Y0269801D01*
X0018607Y0263206D01*
X0016494Y0260468D01*
X0014044Y0260468D01*
X0010095Y0260269D01*
X0010395Y0262111D02*
X0003694Y0262111D01*
X0003694Y0263110D02*
X0009876Y0263110D01*
X0009622Y0264108D02*
X0003694Y0264108D01*
X0003694Y0265107D02*
X0009622Y0265107D01*
X0009622Y0266105D02*
X0003694Y0266105D01*
X0003694Y0267104D02*
X0009622Y0267104D01*
X0009622Y0268103D02*
X0003694Y0268103D01*
X0003694Y0269101D02*
X0009622Y0269101D01*
X0009622Y0270100D02*
X0003694Y0270100D01*
X0003694Y0271098D02*
X0009880Y0271098D01*
X0010403Y0272097D02*
X0003694Y0272097D01*
X0003694Y0273095D02*
X0011527Y0273095D01*
X0015517Y0273095D02*
X0018040Y0273095D01*
X0018425Y0274094D02*
X0003694Y0274094D01*
X0003694Y0275092D02*
X0019001Y0275092D01*
X0017620Y0272097D02*
X0016641Y0272097D01*
X0017164Y0271098D02*
X0017200Y0271098D01*
X0020059Y0262111D02*
X0020395Y0262111D01*
X0021508Y0261113D02*
X0019266Y0261113D01*
X0014928Y0255540D02*
X0012194Y0255306D01*
X0012194Y0170069D01*
X0013339Y0168923D01*
X0043697Y0202201D02*
X0048533Y0202201D01*
X0047535Y0203199D02*
X0044695Y0203199D01*
X0045147Y0204198D02*
X0047083Y0204198D01*
X0046815Y0205196D02*
X0045415Y0205196D01*
X0045415Y0206195D02*
X0046815Y0206195D01*
X0046815Y0207193D02*
X0045415Y0207193D01*
X0045415Y0208192D02*
X0046815Y0208192D01*
X0046815Y0209190D02*
X0045415Y0209190D01*
X0045415Y0210189D02*
X0046815Y0210189D01*
X0046815Y0211187D02*
X0045415Y0211187D01*
X0045415Y0212186D02*
X0046815Y0212186D01*
X0047076Y0213184D02*
X0045155Y0213184D01*
X0044713Y0214183D02*
X0047517Y0214183D01*
X0048515Y0215181D02*
X0043715Y0215181D01*
X0041199Y0233333D02*
X0041097Y0234000D01*
X0042448Y0236150D02*
X0047436Y0236150D01*
X0048750Y0235152D02*
X0043737Y0235152D01*
X0049590Y0268103D02*
X0051400Y0268103D01*
X0050997Y0269101D02*
X0049567Y0269101D01*
X0050860Y0270100D02*
X0050997Y0270100D01*
X0030386Y0271098D02*
X0027164Y0271098D01*
X0013148Y0258117D02*
X0011895Y0258117D01*
X0011895Y0257119D02*
X0012247Y0257119D01*
D22*
X0034694Y0191328D02*
X0034694Y0184000D01*
X0029394Y0177500D02*
X0054994Y0151900D01*
X0054994Y0137500D01*
X0057394Y0135100D01*
X0058194Y0135100D01*
X0058994Y0134300D01*
X0058532Y0133927D01*
X0040594Y0135018D02*
X0040594Y0135100D01*
X0040516Y0134825D01*
X0062589Y0059066D02*
X0062994Y0059100D01*
X0062577Y0059055D01*
X0138589Y0019018D02*
X0138994Y0019100D01*
X0138520Y0018825D01*
X0138739Y0012999D02*
X0138994Y0012700D01*
X0138670Y0012806D01*
D23*
X0029394Y0177500D03*
M02*
