G75*
%MOIN*%
%OFA0B0*%
%FSLAX25Y25*%
%IPPOS*%
%LPD*%
%AMOC8*
5,1,8,0,0,1.08239X$1,22.5*
%
%ADD10C,0.00000*%
%ADD11R,0.03125X0.02500*%
%ADD12R,0.03937X0.04331*%
%ADD13R,0.04331X0.03937*%
%ADD14R,0.03937X0.05512*%
%ADD15R,0.05512X0.03937*%
%ADD16OC8,0.06600*%
%ADD17R,0.01969X0.03150*%
%ADD18R,0.01378X0.01378*%
%ADD19R,0.02756X0.01121*%
%ADD20R,0.02362X0.01575*%
%ADD21R,0.05906X0.09449*%
%ADD22C,0.05000*%
%ADD23R,0.05000X0.02200*%
%ADD24R,0.02200X0.05000*%
%ADD25OC8,0.06000*%
%ADD26C,0.06000*%
%ADD27R,0.05512X0.02756*%
%ADD28R,0.03937X0.03937*%
%ADD29C,0.05200*%
%ADD30C,0.04400*%
%ADD31R,0.03169X0.01200*%
%ADD32R,0.01200X0.03169*%
%ADD33R,0.08898X0.09606*%
%ADD34R,0.04724X0.11811*%
%ADD35C,0.01969*%
%ADD36C,0.03562*%
%ADD37C,0.01000*%
%ADD38C,0.01575*%
%ADD39C,0.01425*%
%ADD40C,0.00800*%
%ADD41C,0.01200*%
%ADD42C,0.01600*%
%ADD43C,0.03000*%
%ADD44C,0.01100*%
%ADD45C,0.02400*%
D10*
X0002194Y0001500D02*
X0002194Y0277091D01*
X0183296Y0277091D01*
X0183296Y0001500D01*
X0002194Y0001500D01*
D11*
X0054000Y0186227D03*
X0054000Y0188757D03*
X0054000Y0192079D03*
X0040384Y0192123D03*
D12*
X0041347Y0169000D03*
X0048040Y0169000D03*
X0063847Y0171500D03*
X0070540Y0171500D03*
X0085247Y0160700D03*
X0091940Y0160700D03*
X0057394Y0124846D03*
X0057394Y0118154D03*
X0031794Y0118154D03*
X0031794Y0124846D03*
X0031794Y0133354D03*
X0031794Y0140046D03*
X0026994Y0150954D03*
X0026994Y0157646D03*
X0012554Y0092884D03*
X0012554Y0086191D03*
X0043794Y0037646D03*
X0043794Y0030954D03*
X0069769Y0072174D03*
X0076462Y0072174D03*
X0126847Y0019100D03*
X0126847Y0012700D03*
X0133540Y0012700D03*
X0133540Y0019100D03*
X0026540Y0251450D03*
X0019847Y0251450D03*
D13*
X0056594Y0246846D03*
X0056594Y0240154D03*
X0063847Y0194000D03*
X0063847Y0186500D03*
X0063847Y0179000D03*
X0070540Y0179000D03*
X0070540Y0186500D03*
X0070540Y0194000D03*
X0091794Y0174446D03*
X0091794Y0167754D03*
X0091140Y0147900D03*
X0084447Y0147900D03*
X0054994Y0151754D03*
X0054994Y0158446D03*
X0050994Y0124846D03*
X0050994Y0118154D03*
X0044594Y0118154D03*
X0044594Y0124846D03*
X0038194Y0124846D03*
X0038194Y0118154D03*
X0069769Y0084974D03*
X0069769Y0078574D03*
X0076462Y0078574D03*
X0076462Y0084974D03*
X0048594Y0055246D03*
X0048594Y0048554D03*
X0034994Y0047754D03*
X0034994Y0054446D03*
X0020740Y0063900D03*
X0014047Y0063900D03*
X0110047Y0211900D03*
X0116740Y0211900D03*
X0136244Y0032846D03*
X0136244Y0026154D03*
X0143444Y0026154D03*
X0143444Y0032846D03*
D14*
X0049934Y0141831D03*
X0046194Y0133169D03*
X0042454Y0141831D03*
D15*
X0063985Y0120174D03*
X0072647Y0116434D03*
X0072647Y0123914D03*
X0130175Y0033240D03*
X0130175Y0025760D03*
X0121513Y0029500D03*
D16*
X0058644Y0261475D03*
X0048644Y0261475D03*
D17*
X0109149Y0219100D03*
X0116039Y0219100D03*
D18*
X0114562Y0219100D03*
X0110625Y0219100D03*
D19*
X0020899Y0155900D03*
X0020899Y0153931D03*
X0020899Y0151963D03*
X0014403Y0151963D03*
X0014403Y0153931D03*
X0014403Y0155900D03*
D20*
X0014181Y0140700D03*
X0014181Y0136763D03*
X0014181Y0132826D03*
X0024417Y0132826D03*
X0024417Y0136763D03*
X0024417Y0140700D03*
D21*
X0019299Y0136763D03*
D22*
X0022411Y0184473D03*
X0022492Y0192830D03*
X0087682Y0197500D03*
X0087682Y0187500D03*
X0097682Y0187500D03*
X0097682Y0197500D03*
D23*
X0059502Y0097756D03*
X0059502Y0094606D03*
X0059502Y0091457D03*
X0059502Y0088307D03*
X0059502Y0085157D03*
X0059502Y0082008D03*
X0059502Y0078858D03*
X0059502Y0075709D03*
X0025702Y0075709D03*
X0025702Y0078858D03*
X0025702Y0082008D03*
X0025702Y0085157D03*
X0025702Y0088307D03*
X0025702Y0091457D03*
X0025702Y0094606D03*
X0025702Y0097756D03*
D24*
X0031578Y0103632D03*
X0034728Y0103632D03*
X0037877Y0103632D03*
X0041027Y0103632D03*
X0044177Y0103632D03*
X0047326Y0103632D03*
X0050476Y0103632D03*
X0053625Y0103632D03*
X0053625Y0069832D03*
X0050476Y0069832D03*
X0047326Y0069832D03*
X0044177Y0069832D03*
X0041027Y0069832D03*
X0037877Y0069832D03*
X0034728Y0069832D03*
X0031578Y0069832D03*
D25*
X0052594Y0035500D03*
X0052594Y0025500D03*
X0062594Y0025500D03*
X0062594Y0035500D03*
X0072594Y0035500D03*
X0072594Y0025500D03*
X0082594Y0025500D03*
X0082594Y0035500D03*
X0092594Y0035500D03*
X0092594Y0025500D03*
X0102594Y0025500D03*
X0102594Y0035500D03*
X0112594Y0035500D03*
X0112594Y0025500D03*
D26*
X0168505Y0049000D02*
X0174505Y0049000D01*
X0174505Y0059000D02*
X0168505Y0059000D01*
X0168505Y0069000D02*
X0174505Y0069000D01*
X0174505Y0079000D02*
X0168505Y0079000D01*
X0168505Y0089000D02*
X0174505Y0089000D01*
X0174505Y0099000D02*
X0168505Y0099000D01*
X0168505Y0109000D02*
X0174505Y0109000D01*
X0174505Y0119000D02*
X0168505Y0119000D01*
X0125873Y0231300D02*
X0125873Y0237300D01*
X0115873Y0237300D02*
X0115873Y0231300D01*
X0051115Y0211700D02*
X0051115Y0205700D01*
X0041115Y0205700D02*
X0041115Y0211700D01*
D27*
X0014194Y0078446D03*
X0014194Y0071754D03*
D28*
X0101151Y0266216D03*
X0101151Y0274091D03*
X0120836Y0274091D03*
X0120836Y0266216D03*
D29*
X0023522Y0264500D02*
X0023522Y0269700D01*
X0013522Y0269700D02*
X0013522Y0264500D01*
D30*
X0072909Y0253550D03*
X0092594Y0253550D03*
X0112279Y0253550D03*
D31*
X0053995Y0195358D03*
X0053995Y0193390D03*
X0053995Y0191421D03*
X0053995Y0189453D03*
X0053995Y0187484D03*
X0053995Y0185516D03*
X0053995Y0183547D03*
X0053995Y0181579D03*
X0053995Y0179610D03*
X0053995Y0177642D03*
X0040393Y0177642D03*
X0040393Y0179610D03*
X0040393Y0181579D03*
X0040393Y0183547D03*
X0040393Y0185516D03*
X0040393Y0187484D03*
X0040393Y0189453D03*
X0040393Y0191421D03*
X0040393Y0193390D03*
X0040393Y0195358D03*
D32*
X0044241Y0197238D03*
X0050147Y0197238D03*
X0050147Y0175762D03*
X0044241Y0175762D03*
D33*
X0047194Y0186500D03*
D34*
X0023443Y0269988D03*
X0013601Y0269988D03*
D35*
X0045823Y0251251D02*
X0046090Y0251251D01*
X0049694Y0254855D01*
X0048444Y0256050D01*
X0048644Y0261475D01*
X0069394Y0218300D02*
X0069679Y0218348D01*
X0069394Y0218300D02*
X0064594Y0213500D01*
X0064594Y0194300D01*
X0063794Y0193500D02*
X0063794Y0187100D01*
X0054194Y0187100D01*
X0028336Y0157564D02*
X0032709Y0153192D01*
X0032709Y0141069D01*
X0039036Y0141069D01*
X0039694Y0141831D02*
X0042454Y0141831D01*
X0036437Y0136314D02*
X0036437Y0126500D01*
X0038194Y0124846D01*
X0044594Y0124846D01*
X0050994Y0124846D01*
X0057394Y0124846D01*
X0060361Y0124846D01*
X0063280Y0127684D01*
X0065301Y0127684D01*
X0066407Y0128156D01*
X0068598Y0127963D01*
X0072647Y0123914D01*
X0072670Y0123938D02*
X0076613Y0123949D01*
X0088118Y0112725D02*
X0116879Y0112725D01*
X0116984Y0112829D02*
X0116984Y0155199D01*
X0113132Y0159051D01*
X0110047Y0211900D02*
X0109149Y0214000D01*
X0109149Y0219100D01*
X0109149Y0224000D01*
X0108213Y0224936D01*
X0108030Y0224936D01*
X0107794Y0225500D02*
X0098994Y0234300D01*
X0090994Y0234300D01*
X0115873Y0234300D02*
X0115873Y0219000D01*
X0116039Y0219100D01*
X0066105Y0151754D02*
X0054994Y0151754D01*
X0038194Y0124846D02*
X0031794Y0124846D01*
X0013821Y0124764D01*
X0011146Y0122089D01*
X0011146Y0106500D01*
X0015130Y0102577D01*
X0036437Y0136314D02*
X0032787Y0139964D01*
X0028336Y0157564D02*
X0026994Y0157646D01*
X0076462Y0072174D02*
X0076296Y0048652D01*
X0055091Y0048664D02*
X0048889Y0048664D01*
X0048594Y0048554D02*
X0048577Y0046985D01*
X0052228Y0043335D01*
X0052194Y0036500D01*
X0052594Y0035500D01*
X0049591Y0035514D01*
X0047541Y0037564D01*
X0043794Y0037646D01*
X0037194Y0037646D01*
X0034977Y0039964D01*
X0034994Y0047754D01*
X0034743Y0047864D02*
X0017827Y0047864D01*
X0055091Y0048652D02*
X0055091Y0048664D01*
X0119177Y0041333D02*
X0121622Y0041333D01*
X0129827Y0034378D01*
X0129827Y0033240D01*
X0130175Y0033240D01*
X0135944Y0033240D01*
X0136227Y0032764D01*
X0136244Y0032846D01*
D36*
X0138520Y0018825D03*
X0143162Y0017806D03*
X0138670Y0012806D03*
X0119694Y0023000D03*
X0119177Y0041333D03*
X0089095Y0072352D03*
X0088945Y0080360D03*
X0085934Y0088014D03*
X0089197Y0095872D03*
X0088118Y0112725D03*
X0076613Y0123949D03*
X0083951Y0133940D03*
X0077504Y0146168D03*
X0074694Y0136500D03*
X0066407Y0128156D03*
X0058532Y0133927D03*
X0062070Y0144770D03*
X0066436Y0152085D03*
X0070914Y0157258D03*
X0091828Y0154778D03*
X0096729Y0150723D03*
X0102194Y0129000D03*
X0116879Y0112725D03*
X0113132Y0159207D03*
X0074611Y0105328D03*
X0072792Y0101077D03*
X0067908Y0107471D03*
X0065874Y0103152D03*
X0072194Y0112000D03*
X0059694Y0113000D03*
X0048390Y0111770D03*
X0044160Y0113219D03*
X0037276Y0112384D03*
X0032701Y0112180D03*
X0027713Y0111077D03*
X0015130Y0102577D03*
X0013536Y0098136D03*
X0018032Y0087581D03*
X0039181Y0078172D03*
X0044359Y0085392D03*
X0050398Y0075852D03*
X0051146Y0082325D03*
X0058319Y0071770D03*
X0062280Y0069156D03*
X0067865Y0064814D03*
X0062577Y0059055D03*
X0055170Y0058491D03*
X0050406Y0059821D03*
X0055091Y0048652D03*
X0067908Y0044833D03*
X0070288Y0053345D03*
X0076296Y0048652D03*
X0081810Y0064219D03*
X0050459Y0097702D03*
X0046603Y0095467D03*
X0040516Y0134825D03*
X0044694Y0154000D03*
X0032138Y0163336D03*
X0026961Y0163466D03*
X0022154Y0162585D03*
X0017307Y0161081D03*
X0013213Y0164332D03*
X0013339Y0168923D03*
X0026398Y0171065D03*
X0034694Y0184000D03*
X0034694Y0191328D03*
X0021494Y0201428D03*
X0041199Y0233333D03*
X0049957Y0237987D03*
X0045823Y0251251D03*
X0032194Y0273648D03*
X0014928Y0255540D03*
X0054247Y0218348D03*
X0069679Y0218348D03*
X0090979Y0234652D03*
X0108030Y0224936D03*
X0023103Y0146546D03*
X0018611Y0145463D03*
X0017194Y0129000D03*
X0014398Y0050951D03*
X0017827Y0047864D03*
X0041075Y0013526D03*
X0043855Y0009420D03*
X0053496Y0017101D03*
X0041636Y0043322D03*
D37*
X0042194Y0043727D01*
X0042194Y0057786D01*
X0044277Y0059768D01*
X0044177Y0069832D01*
X0047326Y0069832D02*
X0047310Y0062906D01*
X0050406Y0059821D01*
X0050394Y0056981D01*
X0048594Y0055246D01*
X0048889Y0048664D02*
X0048594Y0048554D01*
X0055170Y0058491D02*
X0055170Y0059845D01*
X0050459Y0064555D01*
X0050476Y0069832D01*
X0050398Y0075852D01*
X0052535Y0073632D02*
X0053010Y0074107D01*
X0053479Y0075239D01*
X0053479Y0076465D01*
X0053010Y0077597D01*
X0052143Y0078464D01*
X0051011Y0078933D01*
X0049785Y0078933D01*
X0048652Y0078464D01*
X0047786Y0077597D01*
X0047317Y0076465D01*
X0047317Y0075239D01*
X0047786Y0074107D01*
X0048260Y0073632D01*
X0039668Y0073632D01*
X0039665Y0075091D01*
X0039794Y0075091D01*
X0040926Y0075560D01*
X0041793Y0076427D01*
X0042262Y0077559D01*
X0042262Y0078785D01*
X0041793Y0079917D01*
X0040926Y0080784D01*
X0039794Y0081253D01*
X0038568Y0081253D01*
X0037435Y0080784D01*
X0036569Y0079917D01*
X0036100Y0078785D01*
X0036100Y0077635D01*
X0036060Y0077596D01*
X0036060Y0077594D01*
X0036059Y0077592D01*
X0036061Y0076850D01*
X0036061Y0076105D01*
X0036062Y0076103D01*
X0036068Y0073632D01*
X0029940Y0073632D01*
X0029178Y0072871D01*
X0029178Y0066794D01*
X0029773Y0066199D01*
X0029763Y0058511D01*
X0029751Y0058499D01*
X0029762Y0057768D01*
X0029761Y0057037D01*
X0029773Y0057025D01*
X0029773Y0057008D01*
X0030297Y0056499D01*
X0030814Y0055981D01*
X0030830Y0055981D01*
X0031528Y0055303D01*
X0031528Y0053481D01*
X0031099Y0053043D01*
X0016663Y0053043D01*
X0016143Y0053563D01*
X0015011Y0054032D01*
X0013785Y0054032D01*
X0012652Y0053563D01*
X0011786Y0052696D01*
X0011317Y0051564D01*
X0011317Y0050338D01*
X0011786Y0049206D01*
X0012652Y0048339D01*
X0013785Y0047870D01*
X0014746Y0047870D01*
X0014746Y0047251D01*
X0015215Y0046119D01*
X0016081Y0045252D01*
X0017214Y0044783D01*
X0018440Y0044783D01*
X0019572Y0045252D01*
X0019899Y0045579D01*
X0031528Y0045579D01*
X0031528Y0045247D01*
X0032290Y0044485D01*
X0032702Y0044485D01*
X0032692Y0039992D01*
X0032672Y0039068D01*
X0032690Y0039049D01*
X0032690Y0039023D01*
X0033341Y0038368D01*
X0034909Y0036730D01*
X0034909Y0036700D01*
X0035560Y0036049D01*
X0036197Y0035383D01*
X0036227Y0035383D01*
X0036248Y0035362D01*
X0037168Y0035362D01*
X0038089Y0035342D01*
X0038111Y0035362D01*
X0040525Y0035362D01*
X0040525Y0034943D01*
X0041059Y0034409D01*
X0040904Y0034319D01*
X0040625Y0034040D01*
X0040428Y0033698D01*
X0040325Y0033316D01*
X0040325Y0031438D01*
X0043309Y0031438D01*
X0043309Y0030469D01*
X0040325Y0030469D01*
X0040325Y0028591D01*
X0040428Y0028209D01*
X0040625Y0027867D01*
X0040904Y0027588D01*
X0041246Y0027390D01*
X0041628Y0027288D01*
X0043310Y0027288D01*
X0043310Y0030469D01*
X0044278Y0030469D01*
X0044278Y0027288D01*
X0045960Y0027288D01*
X0046341Y0027390D01*
X0046683Y0027588D01*
X0046963Y0027867D01*
X0047160Y0028209D01*
X0047262Y0028591D01*
X0047262Y0030469D01*
X0044278Y0030469D01*
X0044278Y0031438D01*
X0047262Y0031438D01*
X0047262Y0033316D01*
X0047160Y0033698D01*
X0046963Y0034040D01*
X0046683Y0034319D01*
X0046528Y0034409D01*
X0046997Y0034877D01*
X0047971Y0033903D01*
X0048634Y0033234D01*
X0048640Y0033234D01*
X0048644Y0033229D01*
X0048783Y0033229D01*
X0050813Y0031200D01*
X0054375Y0031200D01*
X0055661Y0032486D01*
X0055661Y0031015D01*
X0054396Y0029779D01*
X0054375Y0029800D01*
X0050813Y0029800D01*
X0048294Y0027281D01*
X0048294Y0023719D01*
X0050813Y0021200D01*
X0054375Y0021200D01*
X0056894Y0023719D01*
X0056894Y0027186D01*
X0058194Y0028458D01*
X0058206Y0028458D01*
X0058726Y0028978D01*
X0059252Y0029492D01*
X0059252Y0029504D01*
X0059261Y0029512D01*
X0059261Y0030248D01*
X0059269Y0030983D01*
X0059261Y0030992D01*
X0059261Y0032752D01*
X0060813Y0031200D01*
X0064375Y0031200D01*
X0065874Y0032699D01*
X0065874Y0031352D01*
X0064330Y0029800D01*
X0060813Y0029800D01*
X0058294Y0027281D01*
X0058294Y0023719D01*
X0059810Y0022203D01*
X0056052Y0022203D01*
X0054998Y0021148D01*
X0054031Y0020182D01*
X0052883Y0020182D01*
X0051750Y0019713D01*
X0050884Y0018846D01*
X0050415Y0017714D01*
X0050415Y0016488D01*
X0050884Y0015356D01*
X0051750Y0014489D01*
X0052883Y0014020D01*
X0054109Y0014020D01*
X0055241Y0014489D01*
X0056108Y0015356D01*
X0056577Y0016488D01*
X0056577Y0017636D01*
X0057543Y0018603D01*
X0078787Y0018603D01*
X0079842Y0019657D01*
X0081384Y0021200D01*
X0084375Y0021200D01*
X0085814Y0022639D01*
X0085814Y0014173D01*
X0084250Y0012610D01*
X0048296Y0012610D01*
X0046635Y0014271D01*
X0046635Y0014271D01*
X0045608Y0015298D01*
X0045580Y0015326D01*
X0043632Y0015326D01*
X0042820Y0016138D01*
X0041688Y0016607D01*
X0040462Y0016607D01*
X0039329Y0016138D01*
X0038463Y0015271D01*
X0037994Y0014139D01*
X0037994Y0012913D01*
X0038463Y0011781D01*
X0039329Y0010914D01*
X0040462Y0010445D01*
X0040944Y0010445D01*
X0040774Y0010033D01*
X0040774Y0008807D01*
X0041243Y0007675D01*
X0042109Y0006808D01*
X0043242Y0006339D01*
X0044468Y0006339D01*
X0045600Y0006808D01*
X0045719Y0006927D01*
X0087009Y0006927D01*
X0088064Y0007981D01*
X0091375Y0011292D01*
X0091375Y0017713D01*
X0093853Y0020229D01*
X0094375Y0020747D01*
X0094375Y0020759D01*
X0094383Y0020768D01*
X0094380Y0021205D01*
X0096894Y0023719D01*
X0096894Y0027281D01*
X0094375Y0029800D01*
X0090813Y0029800D01*
X0089414Y0028401D01*
X0089414Y0030536D01*
X0090445Y0031567D01*
X0090813Y0031200D01*
X0094375Y0031200D01*
X0096894Y0033719D01*
X0096894Y0037281D01*
X0094375Y0039800D01*
X0093298Y0039800D01*
X0110098Y0056600D01*
X0158345Y0056600D01*
X0158386Y0056563D01*
X0159041Y0056600D01*
X0159698Y0056600D01*
X0159737Y0056639D01*
X0164713Y0056917D01*
X0164859Y0056564D01*
X0166069Y0055355D01*
X0167649Y0054700D01*
X0175360Y0054700D01*
X0176941Y0055355D01*
X0178150Y0056564D01*
X0178805Y0058145D01*
X0178805Y0059855D01*
X0178150Y0061436D01*
X0176941Y0062645D01*
X0175360Y0063300D01*
X0167649Y0063300D01*
X0166069Y0062645D01*
X0164859Y0061436D01*
X0164391Y0060305D01*
X0158946Y0060000D01*
X0108690Y0060000D01*
X0086432Y0037743D01*
X0084694Y0039481D01*
X0084694Y0059996D01*
X0089298Y0064600D01*
X0090294Y0065596D01*
X0090294Y0067800D01*
X0158960Y0067800D01*
X0164438Y0067581D01*
X0164859Y0066564D01*
X0166069Y0065355D01*
X0167649Y0064700D01*
X0175360Y0064700D01*
X0176941Y0065355D01*
X0178150Y0066564D01*
X0178805Y0068145D01*
X0178805Y0069855D01*
X0178150Y0071436D01*
X0176941Y0072645D01*
X0175360Y0073300D01*
X0167649Y0073300D01*
X0166069Y0072645D01*
X0164859Y0071436D01*
X0164668Y0070975D01*
X0159726Y0071172D01*
X0159698Y0071200D01*
X0159028Y0071200D01*
X0158358Y0071227D01*
X0158329Y0071200D01*
X0091953Y0071200D01*
X0092177Y0071739D01*
X0092177Y0072965D01*
X0091707Y0074097D01*
X0090841Y0074964D01*
X0089708Y0075433D01*
X0088483Y0075433D01*
X0087350Y0074964D01*
X0086483Y0074097D01*
X0086014Y0072965D01*
X0086014Y0071739D01*
X0086483Y0070607D01*
X0086894Y0070196D01*
X0086894Y0067004D01*
X0084841Y0064952D01*
X0084422Y0065964D01*
X0083555Y0066831D01*
X0082423Y0067300D01*
X0081197Y0067300D01*
X0080065Y0066831D01*
X0079198Y0065964D01*
X0078729Y0064832D01*
X0078729Y0063606D01*
X0079198Y0062473D01*
X0080065Y0061607D01*
X0081197Y0061138D01*
X0081294Y0061138D01*
X0081294Y0039800D01*
X0080813Y0039800D01*
X0079198Y0038185D01*
X0079198Y0041708D01*
X0078143Y0042763D01*
X0076836Y0044070D01*
X0073324Y0044070D01*
X0072824Y0044570D01*
X0072824Y0051523D01*
X0072900Y0051600D01*
X0073369Y0052732D01*
X0073369Y0053958D01*
X0072900Y0055090D01*
X0072033Y0055957D01*
X0070901Y0056426D01*
X0069675Y0056426D01*
X0069665Y0056422D01*
X0069665Y0056453D01*
X0069665Y0062256D01*
X0070477Y0063068D01*
X0070946Y0064201D01*
X0070946Y0065427D01*
X0070477Y0066559D01*
X0069610Y0067426D01*
X0068478Y0067895D01*
X0067252Y0067895D01*
X0066120Y0067426D01*
X0065253Y0066559D01*
X0064784Y0065427D01*
X0064784Y0064583D01*
X0064080Y0065287D01*
X0064080Y0066599D01*
X0064892Y0067411D01*
X0065361Y0068543D01*
X0065361Y0069769D01*
X0064892Y0070901D01*
X0064080Y0071713D01*
X0064080Y0073973D01*
X0064085Y0073978D01*
X0064080Y0074717D01*
X0064080Y0075456D01*
X0064074Y0075462D01*
X0064074Y0075469D01*
X0063548Y0075988D01*
X0063302Y0076234D01*
X0063302Y0076952D01*
X0066304Y0076869D01*
X0066304Y0076067D01*
X0066997Y0075374D01*
X0066501Y0074878D01*
X0066501Y0069470D01*
X0067262Y0068709D01*
X0072276Y0068709D01*
X0073038Y0069470D01*
X0073038Y0074878D01*
X0072542Y0075374D01*
X0073007Y0075839D01*
X0073097Y0075684D01*
X0073376Y0075405D01*
X0073595Y0075279D01*
X0073194Y0074878D01*
X0073194Y0069470D01*
X0073955Y0068709D01*
X0074153Y0068709D01*
X0074026Y0050739D01*
X0073684Y0050397D01*
X0073215Y0049264D01*
X0073215Y0048039D01*
X0073684Y0046906D01*
X0074550Y0046040D01*
X0075683Y0045570D01*
X0076909Y0045570D01*
X0078041Y0046040D01*
X0078908Y0046906D01*
X0079377Y0048039D01*
X0079377Y0049264D01*
X0078908Y0050397D01*
X0078595Y0050710D01*
X0078722Y0068709D01*
X0078969Y0068709D01*
X0079731Y0069470D01*
X0079731Y0074878D01*
X0079330Y0075279D01*
X0079549Y0075405D01*
X0079828Y0075684D01*
X0080025Y0076027D01*
X0080128Y0076408D01*
X0080128Y0078090D01*
X0076947Y0078090D01*
X0076947Y0079058D01*
X0080128Y0079058D01*
X0080128Y0080740D01*
X0080025Y0081121D01*
X0079828Y0081464D01*
X0079549Y0081743D01*
X0079495Y0081774D01*
X0079549Y0081805D01*
X0079828Y0082084D01*
X0080025Y0082427D01*
X0080128Y0082808D01*
X0080128Y0084490D01*
X0076947Y0084490D01*
X0076947Y0085458D01*
X0080128Y0085458D01*
X0080128Y0087140D01*
X0080025Y0087521D01*
X0079828Y0087864D01*
X0079549Y0088143D01*
X0079207Y0088340D01*
X0078825Y0088442D01*
X0076947Y0088442D01*
X0076947Y0085458D01*
X0075978Y0085458D01*
X0075978Y0088442D01*
X0074100Y0088442D01*
X0073718Y0088340D01*
X0073376Y0088143D01*
X0073097Y0087864D01*
X0073007Y0087709D01*
X0072473Y0088242D01*
X0067066Y0088242D01*
X0066304Y0087481D01*
X0066304Y0086836D01*
X0063469Y0086887D01*
X0063502Y0087010D01*
X0063502Y0088257D01*
X0059552Y0088257D01*
X0059552Y0088357D01*
X0063502Y0088357D01*
X0063502Y0089605D01*
X0063399Y0089986D01*
X0063302Y0090155D01*
X0063302Y0090200D01*
X0073298Y0090200D01*
X0085298Y0102200D01*
X0086294Y0103196D01*
X0086294Y0110192D01*
X0086373Y0110113D01*
X0087506Y0109644D01*
X0088731Y0109644D01*
X0089864Y0110113D01*
X0090191Y0110440D01*
X0114807Y0110440D01*
X0115134Y0110113D01*
X0116267Y0109644D01*
X0117492Y0109644D01*
X0118625Y0110113D01*
X0119491Y0110980D01*
X0119961Y0112112D01*
X0119961Y0113338D01*
X0119491Y0114470D01*
X0119268Y0114693D01*
X0119268Y0156145D01*
X0116213Y0159201D01*
X0116213Y0159820D01*
X0115744Y0160952D01*
X0114877Y0161819D01*
X0113745Y0162288D01*
X0112519Y0162288D01*
X0111387Y0161819D01*
X0110520Y0160952D01*
X0110051Y0159820D01*
X0110051Y0158594D01*
X0110520Y0157461D01*
X0111387Y0156595D01*
X0112519Y0156126D01*
X0112826Y0156126D01*
X0114699Y0154253D01*
X0114699Y0115009D01*
X0090191Y0115009D01*
X0089864Y0115337D01*
X0088731Y0115806D01*
X0087506Y0115806D01*
X0086373Y0115337D01*
X0086294Y0115258D01*
X0086294Y0129596D01*
X0101494Y0144796D01*
X0101494Y0152604D01*
X0099094Y0155004D01*
X0099094Y0155004D01*
X0098098Y0156000D01*
X0095090Y0156000D01*
X0094783Y0155694D01*
X0094440Y0156523D01*
X0093728Y0157235D01*
X0094447Y0157235D01*
X0095209Y0157996D01*
X0095209Y0158905D01*
X0100236Y0158914D01*
X0100978Y0158914D01*
X0100979Y0158915D01*
X0100980Y0158915D01*
X0101505Y0159442D01*
X0103800Y0161738D01*
X0108761Y0161738D01*
X0109816Y0162792D01*
X0113883Y0166860D01*
X0126714Y0166860D01*
X0127769Y0167914D01*
X0133702Y0173847D01*
X0133702Y0243612D01*
X0133702Y0244357D01*
X0133702Y0245102D01*
X0133701Y0245103D01*
X0133185Y0245619D01*
X0132647Y0246157D01*
X0132477Y0246327D01*
X0132477Y0254651D01*
X0137961Y0254651D01*
X0137962Y0254650D01*
X0138707Y0254651D01*
X0139451Y0254651D01*
X0139452Y0254652D01*
X0139453Y0254652D01*
X0139980Y0255180D01*
X0140505Y0255705D01*
X0140505Y0255706D01*
X0145426Y0260637D01*
X0145958Y0261169D01*
X0145958Y0261170D01*
X0145959Y0261171D01*
X0145958Y0261917D01*
X0145958Y0269876D01*
X0146019Y0270537D01*
X0145958Y0270609D01*
X0145958Y0270703D01*
X0145489Y0271173D01*
X0145064Y0271683D01*
X0144971Y0271691D01*
X0144904Y0271758D01*
X0144240Y0271758D01*
X0142381Y0271927D01*
X0142314Y0271994D01*
X0141651Y0271994D01*
X0140990Y0272054D01*
X0140917Y0271994D01*
X0124105Y0271994D01*
X0124105Y0275591D01*
X0181796Y0275591D01*
X0181796Y0003000D01*
X0003694Y0003000D01*
X0003694Y0275591D01*
X0009938Y0275591D01*
X0009938Y0271240D01*
X0009622Y0270476D01*
X0009622Y0263724D01*
X0010216Y0262291D01*
X0011313Y0261194D01*
X0012746Y0260600D01*
X0013128Y0260600D01*
X0013128Y0258097D01*
X0012316Y0257285D01*
X0011847Y0256153D01*
X0011847Y0254927D01*
X0012316Y0253795D01*
X0013182Y0252928D01*
X0014315Y0252459D01*
X0015541Y0252459D01*
X0015726Y0252536D01*
X0016579Y0251826D01*
X0016579Y0248746D01*
X0017340Y0247985D01*
X0022354Y0247985D01*
X0023116Y0248746D01*
X0023116Y0248923D01*
X0023174Y0248706D01*
X0023371Y0248364D01*
X0023651Y0248084D01*
X0023993Y0247887D01*
X0024374Y0247785D01*
X0026056Y0247785D01*
X0026056Y0250966D01*
X0027025Y0250966D01*
X0027025Y0251934D01*
X0030009Y0251934D01*
X0030009Y0253813D01*
X0029907Y0254194D01*
X0029709Y0254536D01*
X0029430Y0254816D01*
X0029088Y0255013D01*
X0028706Y0255115D01*
X0027025Y0255115D01*
X0027025Y0251934D01*
X0026056Y0251934D01*
X0026056Y0255115D01*
X0024374Y0255115D01*
X0023993Y0255013D01*
X0023651Y0254816D01*
X0023371Y0254536D01*
X0023174Y0254194D01*
X0023116Y0253977D01*
X0023116Y0254154D01*
X0022354Y0254915D01*
X0018495Y0254915D01*
X0018009Y0255319D01*
X0018009Y0256153D01*
X0017540Y0257285D01*
X0016728Y0258097D01*
X0016728Y0262190D01*
X0016828Y0262291D01*
X0017422Y0263724D01*
X0017422Y0270476D01*
X0017263Y0270860D01*
X0017263Y0275591D01*
X0019781Y0275591D01*
X0019781Y0270860D01*
X0019622Y0270476D01*
X0019622Y0263724D01*
X0020216Y0262291D01*
X0021313Y0261194D01*
X0022746Y0260600D01*
X0024298Y0260600D01*
X0025731Y0261194D01*
X0026828Y0262291D01*
X0027422Y0263724D01*
X0027422Y0267372D01*
X0029377Y0267825D01*
X0061258Y0267825D01*
X0062145Y0266560D01*
X0062145Y0266382D01*
X0062562Y0265966D01*
X0062900Y0265484D01*
X0063075Y0265453D01*
X0063200Y0265328D01*
X0063789Y0265328D01*
X0064369Y0265226D01*
X0064514Y0265328D01*
X0066806Y0265328D01*
X0067392Y0265229D01*
X0067532Y0265328D01*
X0067703Y0265328D01*
X0068123Y0265748D01*
X0071848Y0268394D01*
X0097883Y0268394D01*
X0097883Y0263709D01*
X0098644Y0262948D01*
X0103658Y0262948D01*
X0104420Y0263709D01*
X0104420Y0268394D01*
X0117371Y0268394D01*
X0117368Y0268382D01*
X0117368Y0266701D01*
X0120352Y0266701D01*
X0120352Y0265732D01*
X0121321Y0265732D01*
X0121321Y0266701D01*
X0124305Y0266701D01*
X0124305Y0268382D01*
X0124302Y0268394D01*
X0141487Y0268394D01*
X0142358Y0268314D01*
X0142358Y0262659D01*
X0137959Y0258251D01*
X0129931Y0258251D01*
X0128877Y0257196D01*
X0128877Y0246326D01*
X0128876Y0246326D01*
X0128877Y0245580D01*
X0128877Y0244835D01*
X0128877Y0244835D01*
X0128877Y0244835D01*
X0129394Y0244318D01*
X0129931Y0243781D01*
X0129932Y0243781D01*
X0130102Y0243611D01*
X0130102Y0238846D01*
X0130043Y0239027D01*
X0129721Y0239659D01*
X0129305Y0240232D01*
X0128804Y0240732D01*
X0128231Y0241149D01*
X0127600Y0241470D01*
X0126926Y0241689D01*
X0126372Y0241777D01*
X0126372Y0234800D01*
X0125373Y0234800D01*
X0125373Y0241777D01*
X0124819Y0241689D01*
X0124145Y0241470D01*
X0123514Y0241149D01*
X0122941Y0240732D01*
X0122440Y0240232D01*
X0122024Y0239659D01*
X0121702Y0239027D01*
X0121483Y0238354D01*
X0121373Y0237654D01*
X0121373Y0234800D01*
X0125372Y0234800D01*
X0125372Y0233800D01*
X0121373Y0233800D01*
X0121373Y0230946D01*
X0121483Y0230246D01*
X0121702Y0229573D01*
X0122024Y0228941D01*
X0122440Y0228368D01*
X0122941Y0227868D01*
X0123514Y0227451D01*
X0124145Y0227130D01*
X0124819Y0226911D01*
X0125373Y0226823D01*
X0125373Y0233800D01*
X0126372Y0233800D01*
X0126372Y0226823D01*
X0126926Y0226911D01*
X0127600Y0227130D01*
X0128231Y0227451D01*
X0128804Y0227868D01*
X0129305Y0228368D01*
X0129721Y0228941D01*
X0130043Y0229573D01*
X0130102Y0229754D01*
X0130102Y0175338D01*
X0125223Y0170460D01*
X0112392Y0170460D01*
X0107270Y0165338D01*
X0103800Y0165338D01*
X0103054Y0165338D01*
X0102309Y0165338D01*
X0102309Y0165338D01*
X0102309Y0165338D01*
X0101784Y0164813D01*
X0101255Y0164283D01*
X0099485Y0162513D01*
X0095209Y0162505D01*
X0095209Y0163404D01*
X0094447Y0164165D01*
X0091084Y0164165D01*
X0090968Y0164285D01*
X0091310Y0164285D01*
X0091310Y0167269D01*
X0092278Y0167269D01*
X0092278Y0164285D01*
X0094157Y0164285D01*
X0094538Y0164387D01*
X0094880Y0164585D01*
X0095159Y0164864D01*
X0095357Y0165206D01*
X0095459Y0165588D01*
X0095459Y0167269D01*
X0092278Y0167269D01*
X0092278Y0168238D01*
X0095459Y0168238D01*
X0095459Y0169920D01*
X0095357Y0170301D01*
X0095159Y0170643D01*
X0094880Y0170922D01*
X0094538Y0171120D01*
X0094321Y0171178D01*
X0094498Y0171178D01*
X0095259Y0171939D01*
X0095259Y0176297D01*
X0098980Y0180330D01*
X0099482Y0180831D01*
X0099482Y0180873D01*
X0099510Y0180904D01*
X0099482Y0181613D01*
X0099482Y0184132D01*
X0099835Y0184279D01*
X0100903Y0185347D01*
X0101482Y0186744D01*
X0101482Y0188256D01*
X0100903Y0189653D01*
X0099835Y0190721D01*
X0098438Y0191300D01*
X0096926Y0191300D01*
X0095529Y0190721D01*
X0094761Y0189953D01*
X0094761Y0191603D01*
X0096736Y0193779D01*
X0096926Y0193700D01*
X0098438Y0193700D01*
X0099835Y0194279D01*
X0100903Y0195347D01*
X0101482Y0196744D01*
X0101482Y0198256D01*
X0100903Y0199653D01*
X0099835Y0200721D01*
X0098438Y0201300D01*
X0096926Y0201300D01*
X0095529Y0200721D01*
X0094461Y0199653D01*
X0093882Y0198256D01*
X0093882Y0196744D01*
X0094096Y0196227D01*
X0091657Y0193540D01*
X0091161Y0193043D01*
X0091161Y0192993D01*
X0091127Y0192955D01*
X0091161Y0192254D01*
X0091161Y0189032D01*
X0090903Y0189653D01*
X0089835Y0190721D01*
X0088438Y0191300D01*
X0086926Y0191300D01*
X0085529Y0190721D01*
X0084461Y0189653D01*
X0083882Y0188256D01*
X0083882Y0186744D01*
X0084461Y0185347D01*
X0085529Y0184279D01*
X0085882Y0184132D01*
X0085882Y0183878D01*
X0083319Y0181680D01*
X0083239Y0181680D01*
X0082761Y0181201D01*
X0082247Y0180761D01*
X0082241Y0180682D01*
X0082185Y0180625D01*
X0082185Y0179949D01*
X0082133Y0179274D01*
X0082185Y0179214D01*
X0082185Y0164455D01*
X0082184Y0163726D01*
X0082185Y0163726D01*
X0082185Y0163725D01*
X0082242Y0163667D01*
X0081979Y0163404D01*
X0081979Y0161547D01*
X0081906Y0161475D01*
X0081906Y0161466D01*
X0077494Y0157054D01*
X0077494Y0160604D01*
X0070056Y0168042D01*
X0070056Y0171016D01*
X0071025Y0171016D01*
X0071025Y0171984D01*
X0074009Y0171984D01*
X0074009Y0173863D01*
X0073907Y0174244D01*
X0073709Y0174586D01*
X0073430Y0174866D01*
X0073088Y0175063D01*
X0072706Y0175165D01*
X0071025Y0175165D01*
X0071025Y0171984D01*
X0070056Y0171984D01*
X0070056Y0175165D01*
X0068374Y0175165D01*
X0067993Y0175063D01*
X0067651Y0174866D01*
X0067371Y0174586D01*
X0067174Y0174244D01*
X0067116Y0174027D01*
X0067116Y0174204D01*
X0066354Y0174965D01*
X0063133Y0174965D01*
X0062366Y0175731D01*
X0066551Y0175731D01*
X0067194Y0176374D01*
X0067836Y0175731D01*
X0073244Y0175731D01*
X0074006Y0176493D01*
X0074006Y0181507D01*
X0073244Y0182268D01*
X0071029Y0182268D01*
X0070056Y0183242D01*
X0070056Y0186016D01*
X0071025Y0186016D01*
X0071025Y0186984D01*
X0074206Y0186984D01*
X0074206Y0188666D01*
X0074103Y0189047D01*
X0073906Y0189390D01*
X0073627Y0189669D01*
X0073285Y0189866D01*
X0072903Y0189968D01*
X0071025Y0189968D01*
X0071025Y0186984D01*
X0070056Y0186984D01*
X0070056Y0189968D01*
X0068177Y0189968D01*
X0067796Y0189866D01*
X0067454Y0189669D01*
X0067175Y0189390D01*
X0067085Y0189235D01*
X0066551Y0189768D01*
X0066078Y0189768D01*
X0066078Y0190731D01*
X0066551Y0190731D01*
X0067085Y0191265D01*
X0067175Y0191110D01*
X0067454Y0190831D01*
X0067796Y0190634D01*
X0068177Y0190531D01*
X0070056Y0190531D01*
X0070056Y0193516D01*
X0071025Y0193516D01*
X0071025Y0194484D01*
X0074206Y0194484D01*
X0074206Y0196166D01*
X0074103Y0196547D01*
X0073906Y0196890D01*
X0073627Y0197169D01*
X0073285Y0197366D01*
X0072903Y0197468D01*
X0071025Y0197468D01*
X0071025Y0194484D01*
X0070056Y0194484D01*
X0070056Y0197468D01*
X0068177Y0197468D01*
X0067796Y0197366D01*
X0067454Y0197169D01*
X0067175Y0196890D01*
X0067085Y0196735D01*
X0066878Y0196941D01*
X0066878Y0212554D01*
X0069591Y0215267D01*
X0070292Y0215267D01*
X0071424Y0215736D01*
X0072291Y0216602D01*
X0072760Y0217735D01*
X0072760Y0218961D01*
X0072291Y0220093D01*
X0071424Y0220960D01*
X0070292Y0221429D01*
X0069066Y0221429D01*
X0067934Y0220960D01*
X0067067Y0220093D01*
X0066598Y0218961D01*
X0066598Y0218735D01*
X0062309Y0214446D01*
X0062309Y0197268D01*
X0061144Y0197268D01*
X0060382Y0196507D01*
X0060382Y0191493D01*
X0061144Y0190731D01*
X0061509Y0190731D01*
X0061509Y0189768D01*
X0061144Y0189768D01*
X0060759Y0189384D01*
X0056879Y0189384D01*
X0056879Y0196497D01*
X0056795Y0196581D01*
X0056795Y0206238D01*
X0056849Y0206527D01*
X0056795Y0206789D01*
X0056795Y0207057D01*
X0056682Y0207329D01*
X0056621Y0207618D01*
X0056471Y0207839D01*
X0056368Y0208086D01*
X0056160Y0208294D01*
X0055415Y0209386D01*
X0055415Y0212555D01*
X0054760Y0214136D01*
X0053627Y0215270D01*
X0053634Y0215267D01*
X0054860Y0215267D01*
X0055992Y0215736D01*
X0056859Y0216602D01*
X0057328Y0217735D01*
X0057328Y0218961D01*
X0056859Y0220093D01*
X0055992Y0220960D01*
X0054860Y0221429D01*
X0053634Y0221429D01*
X0052502Y0220960D01*
X0051635Y0220093D01*
X0051166Y0218961D01*
X0051166Y0217735D01*
X0051635Y0216602D01*
X0052426Y0215811D01*
X0051970Y0216000D01*
X0050260Y0216000D01*
X0048679Y0215345D01*
X0047470Y0214136D01*
X0046815Y0212555D01*
X0046815Y0204845D01*
X0047470Y0203264D01*
X0048679Y0202055D01*
X0050260Y0201400D01*
X0051195Y0201400D01*
X0051195Y0200255D01*
X0050944Y0200322D01*
X0050147Y0200322D01*
X0050147Y0197238D01*
X0050146Y0197238D01*
X0050146Y0197238D01*
X0048047Y0197238D01*
X0048047Y0199020D01*
X0048149Y0199401D01*
X0048346Y0199743D01*
X0048626Y0200022D01*
X0048968Y0200220D01*
X0049349Y0200322D01*
X0050146Y0200322D01*
X0050146Y0197238D01*
X0048047Y0197238D01*
X0048047Y0195456D01*
X0048149Y0195075D01*
X0048346Y0194733D01*
X0048626Y0194453D01*
X0048968Y0194256D01*
X0049349Y0194154D01*
X0050146Y0194154D01*
X0050146Y0197238D01*
X0050147Y0197238D01*
X0050147Y0194154D01*
X0050944Y0194154D01*
X0051110Y0194198D01*
X0051110Y0192803D01*
X0047694Y0192803D01*
X0047694Y0187000D01*
X0046694Y0187000D01*
X0046694Y0192803D01*
X0043277Y0192803D01*
X0043277Y0194198D01*
X0043444Y0194154D01*
X0044241Y0194154D01*
X0045039Y0194154D01*
X0045420Y0194256D01*
X0045762Y0194453D01*
X0046041Y0194733D01*
X0046239Y0195075D01*
X0046341Y0195456D01*
X0046341Y0197238D01*
X0046341Y0199020D01*
X0046239Y0199401D01*
X0046041Y0199743D01*
X0045762Y0200022D01*
X0045420Y0200220D01*
X0045039Y0200322D01*
X0044241Y0200322D01*
X0043444Y0200322D01*
X0043193Y0200255D01*
X0043193Y0201906D01*
X0043551Y0202055D01*
X0044760Y0203264D01*
X0045415Y0204845D01*
X0045415Y0212555D01*
X0044760Y0214136D01*
X0043551Y0215345D01*
X0041970Y0216000D01*
X0040260Y0216000D01*
X0038679Y0215345D01*
X0037470Y0214136D01*
X0036815Y0212555D01*
X0036815Y0204845D01*
X0037470Y0203264D01*
X0037593Y0203141D01*
X0037593Y0196581D01*
X0037509Y0196497D01*
X0037509Y0192583D01*
X0037306Y0193073D01*
X0036439Y0193940D01*
X0035307Y0194409D01*
X0034081Y0194409D01*
X0032948Y0193940D01*
X0032082Y0193073D01*
X0031613Y0191941D01*
X0031613Y0191200D01*
X0029844Y0191200D01*
X0029844Y0193534D01*
X0028848Y0194530D01*
X0025901Y0194530D01*
X0025714Y0194982D01*
X0024645Y0196051D01*
X0023248Y0196630D01*
X0021736Y0196630D01*
X0020340Y0196051D01*
X0019271Y0194982D01*
X0018692Y0193586D01*
X0018692Y0192074D01*
X0019271Y0190677D01*
X0020340Y0189608D01*
X0021736Y0189030D01*
X0023248Y0189030D01*
X0024645Y0189608D01*
X0025714Y0190677D01*
X0025901Y0191130D01*
X0026444Y0191130D01*
X0026444Y0177626D01*
X0026405Y0176974D01*
X0026444Y0176930D01*
X0026444Y0176871D01*
X0026906Y0176409D01*
X0027339Y0175920D01*
X0027398Y0175917D01*
X0027440Y0175875D01*
X0027483Y0175875D01*
X0027978Y0175381D01*
X0028609Y0175119D01*
X0027453Y0173963D01*
X0027011Y0174146D01*
X0025786Y0174146D01*
X0025688Y0174106D01*
X0024099Y0175634D01*
X0024099Y0181059D01*
X0024563Y0181252D01*
X0025632Y0182321D01*
X0026211Y0183717D01*
X0026211Y0185229D01*
X0025632Y0186626D01*
X0024563Y0187695D01*
X0023167Y0188273D01*
X0021655Y0188273D01*
X0020258Y0187695D01*
X0019189Y0186626D01*
X0018611Y0185229D01*
X0018611Y0183717D01*
X0019189Y0182321D01*
X0020258Y0181252D01*
X0020699Y0181069D01*
X0020699Y0175595D01*
X0020686Y0175580D01*
X0020699Y0174893D01*
X0020699Y0174206D01*
X0020713Y0174192D01*
X0020713Y0174172D01*
X0021209Y0173696D01*
X0021695Y0173210D01*
X0021715Y0173210D01*
X0023317Y0171669D01*
X0023317Y0170452D01*
X0023670Y0169600D01*
X0016394Y0169600D01*
X0015952Y0170668D01*
X0015085Y0171535D01*
X0013952Y0172004D01*
X0012727Y0172004D01*
X0011594Y0171535D01*
X0010727Y0170668D01*
X0010258Y0169536D01*
X0010258Y0168310D01*
X0010727Y0167178D01*
X0011215Y0166690D01*
X0010601Y0166077D01*
X0010132Y0164945D01*
X0010132Y0163719D01*
X0010601Y0162587D01*
X0011468Y0161720D01*
X0012601Y0161251D01*
X0013826Y0161251D01*
X0014226Y0161416D01*
X0014226Y0160468D01*
X0014695Y0159336D01*
X0015423Y0158607D01*
X0015417Y0158424D01*
X0014797Y0157761D01*
X0012487Y0157761D01*
X0011725Y0156999D01*
X0011725Y0155240D01*
X0011628Y0155071D01*
X0011525Y0154690D01*
X0011525Y0153932D01*
X0014403Y0153932D01*
X0014403Y0153931D01*
X0011525Y0153931D01*
X0011525Y0153173D01*
X0011628Y0152792D01*
X0011725Y0152623D01*
X0011725Y0150864D01*
X0012487Y0150102D01*
X0015988Y0150102D01*
X0015874Y0149970D01*
X0015394Y0149490D01*
X0015394Y0149413D01*
X0014106Y0147921D01*
X0013626Y0147440D01*
X0013626Y0147364D01*
X0013576Y0147306D01*
X0013626Y0146629D01*
X0013626Y0144148D01*
X0012799Y0142787D01*
X0012462Y0142787D01*
X0011700Y0142026D01*
X0011700Y0139374D01*
X0012234Y0138840D01*
X0012079Y0138751D01*
X0011800Y0138471D01*
X0011602Y0138129D01*
X0011500Y0137748D01*
X0011500Y0136763D01*
X0014181Y0136763D01*
X0014181Y0136763D01*
X0011500Y0136763D01*
X0011500Y0135778D01*
X0011602Y0135397D01*
X0011800Y0135055D01*
X0012079Y0134775D01*
X0012234Y0134686D01*
X0011700Y0134152D01*
X0011700Y0131500D01*
X0012462Y0130739D01*
X0015598Y0130739D01*
X0015768Y0130641D01*
X0016149Y0130539D01*
X0018799Y0130539D01*
X0018799Y0136263D01*
X0016862Y0136263D01*
X0016862Y0136763D01*
X0016862Y0137263D01*
X0018799Y0137263D01*
X0018799Y0136263D01*
X0019799Y0136263D01*
X0019799Y0130539D01*
X0022450Y0130539D01*
X0022831Y0130641D01*
X0023000Y0130739D01*
X0026137Y0130739D01*
X0026898Y0131500D01*
X0026898Y0134152D01*
X0026375Y0134676D01*
X0027728Y0134676D01*
X0027730Y0134674D01*
X0028325Y0134675D01*
X0028325Y0133838D01*
X0031309Y0133838D01*
X0031309Y0132869D01*
X0028325Y0132869D01*
X0028325Y0130991D01*
X0028428Y0130609D01*
X0028625Y0130267D01*
X0028904Y0129988D01*
X0029246Y0129790D01*
X0029628Y0129688D01*
X0031310Y0129688D01*
X0031310Y0132869D01*
X0032278Y0132869D01*
X0032278Y0129688D01*
X0033960Y0129688D01*
X0034152Y0129740D01*
X0034152Y0128312D01*
X0029287Y0128312D01*
X0028525Y0127550D01*
X0028525Y0127116D01*
X0013814Y0127048D01*
X0012874Y0127048D01*
X0012870Y0127044D01*
X0012864Y0127044D01*
X0012201Y0126374D01*
X0010199Y0124373D01*
X0008861Y0123035D01*
X0008861Y0107436D01*
X0008854Y0107429D01*
X0008861Y0106491D01*
X0008861Y0105554D01*
X0008868Y0105546D01*
X0008869Y0105536D01*
X0009537Y0104878D01*
X0010199Y0104216D01*
X0010210Y0104216D01*
X0012049Y0102405D01*
X0012049Y0101964D01*
X0012441Y0101017D01*
X0011790Y0100748D01*
X0010924Y0099881D01*
X0010455Y0098749D01*
X0010455Y0097523D01*
X0010858Y0096550D01*
X0010388Y0096550D01*
X0010006Y0096447D01*
X0009664Y0096250D01*
X0009385Y0095971D01*
X0009187Y0095629D01*
X0009085Y0095247D01*
X0009085Y0093369D01*
X0012069Y0093369D01*
X0012069Y0092400D01*
X0009085Y0092400D01*
X0009085Y0090521D01*
X0009187Y0090140D01*
X0009385Y0089798D01*
X0009664Y0089519D01*
X0009819Y0089429D01*
X0009285Y0088895D01*
X0009285Y0083488D01*
X0010047Y0082726D01*
X0010745Y0082726D01*
X0010741Y0080966D01*
X0010138Y0080363D01*
X0010138Y0076530D01*
X0010899Y0075769D01*
X0017488Y0075769D01*
X0018250Y0076530D01*
X0018250Y0077068D01*
X0019714Y0077066D01*
X0019631Y0076978D01*
X0019124Y0076474D01*
X0019124Y0076438D01*
X0017239Y0074431D01*
X0010899Y0074431D01*
X0010138Y0073670D01*
X0010138Y0069837D01*
X0010899Y0069076D01*
X0012344Y0069076D01*
X0012308Y0067168D01*
X0011344Y0067168D01*
X0010582Y0066407D01*
X0010582Y0061393D01*
X0011344Y0060631D01*
X0016751Y0060631D01*
X0017285Y0061165D01*
X0017375Y0061010D01*
X0017654Y0060731D01*
X0017996Y0060534D01*
X0018377Y0060431D01*
X0020256Y0060431D01*
X0020256Y0063416D01*
X0021225Y0063416D01*
X0021225Y0064384D01*
X0024406Y0064384D01*
X0024406Y0066066D01*
X0024303Y0066447D01*
X0024106Y0066790D01*
X0023827Y0067069D01*
X0023485Y0067266D01*
X0023103Y0067368D01*
X0021225Y0067368D01*
X0021225Y0064384D01*
X0020256Y0064384D01*
X0020256Y0067368D01*
X0018377Y0067368D01*
X0017996Y0067266D01*
X0017654Y0067069D01*
X0017375Y0066790D01*
X0017285Y0066635D01*
X0016751Y0067168D01*
X0015909Y0067168D01*
X0015944Y0069076D01*
X0017488Y0069076D01*
X0018250Y0069837D01*
X0018250Y0070249D01*
X0018486Y0070501D01*
X0018994Y0071008D01*
X0018994Y0071041D01*
X0021698Y0073921D01*
X0022052Y0073919D01*
X0022663Y0073309D01*
X0028740Y0073309D01*
X0029502Y0074070D01*
X0029502Y0083309D01*
X0029599Y0083479D01*
X0029702Y0083860D01*
X0029702Y0085107D01*
X0025752Y0085107D01*
X0025752Y0085207D01*
X0029702Y0085207D01*
X0029702Y0086455D01*
X0029599Y0086836D01*
X0029502Y0087006D01*
X0029502Y0089608D01*
X0029599Y0089778D01*
X0029702Y0090159D01*
X0029702Y0091407D01*
X0025752Y0091407D01*
X0025752Y0091507D01*
X0029702Y0091507D01*
X0029702Y0092754D01*
X0029599Y0093136D01*
X0029502Y0093305D01*
X0029502Y0099394D01*
X0028740Y0100156D01*
X0022663Y0100156D01*
X0021902Y0099394D01*
X0021902Y0096413D01*
X0018767Y0096419D01*
X0016617Y0098569D01*
X0016617Y0098749D01*
X0016225Y0099695D01*
X0016875Y0099965D01*
X0017742Y0100832D01*
X0018211Y0101964D01*
X0018211Y0103190D01*
X0017742Y0104322D01*
X0016875Y0105189D01*
X0015743Y0105658D01*
X0015257Y0105658D01*
X0013430Y0107457D01*
X0013430Y0121143D01*
X0014771Y0122484D01*
X0028525Y0122547D01*
X0028525Y0122143D01*
X0029059Y0121609D01*
X0028904Y0121519D01*
X0028625Y0121240D01*
X0028428Y0120898D01*
X0028325Y0120516D01*
X0028325Y0118638D01*
X0031309Y0118638D01*
X0031309Y0117669D01*
X0028325Y0117669D01*
X0028325Y0115791D01*
X0028428Y0115409D01*
X0028625Y0115067D01*
X0028904Y0114788D01*
X0029246Y0114590D01*
X0029628Y0114488D01*
X0030652Y0114488D01*
X0030089Y0113925D01*
X0029835Y0113312D01*
X0029458Y0113689D01*
X0028326Y0114158D01*
X0027100Y0114158D01*
X0025967Y0113689D01*
X0025101Y0112822D01*
X0024632Y0111690D01*
X0024632Y0110464D01*
X0025101Y0109332D01*
X0025967Y0108465D01*
X0027100Y0107996D01*
X0028249Y0107996D01*
X0029376Y0106869D01*
X0029178Y0106671D01*
X0029178Y0100594D01*
X0029940Y0099832D01*
X0039227Y0099832D01*
X0039227Y0098597D01*
X0039222Y0097857D01*
X0039227Y0097852D01*
X0039227Y0097845D01*
X0039750Y0097322D01*
X0040519Y0096543D01*
X0040519Y0086686D01*
X0041278Y0085927D01*
X0041278Y0084779D01*
X0041747Y0083647D01*
X0042613Y0082780D01*
X0043746Y0082311D01*
X0044972Y0082311D01*
X0046104Y0082780D01*
X0046971Y0083647D01*
X0047440Y0084779D01*
X0047440Y0086005D01*
X0046971Y0087137D01*
X0046104Y0088004D01*
X0044972Y0088473D01*
X0044119Y0088473D01*
X0044119Y0093594D01*
X0044858Y0092855D01*
X0045991Y0092386D01*
X0047126Y0092386D01*
X0047356Y0092156D01*
X0047878Y0091630D01*
X0047882Y0091630D01*
X0047884Y0091628D01*
X0048628Y0091628D01*
X0049370Y0091626D01*
X0049372Y0091628D01*
X0052651Y0091628D01*
X0053844Y0092821D01*
X0055702Y0092821D01*
X0055702Y0090155D01*
X0055604Y0089986D01*
X0055502Y0089605D01*
X0055502Y0088357D01*
X0059452Y0088357D01*
X0059452Y0088257D01*
X0055502Y0088257D01*
X0055502Y0087010D01*
X0055604Y0086628D01*
X0055702Y0086459D01*
X0055702Y0083814D01*
X0053862Y0083818D01*
X0053758Y0084070D01*
X0052891Y0084937D01*
X0051759Y0085406D01*
X0050533Y0085406D01*
X0049400Y0084937D01*
X0048534Y0084070D01*
X0048065Y0082938D01*
X0048065Y0081712D01*
X0048534Y0080580D01*
X0049400Y0079713D01*
X0050533Y0079244D01*
X0051759Y0079244D01*
X0052891Y0079713D01*
X0053397Y0080218D01*
X0055702Y0080214D01*
X0055702Y0074070D01*
X0055982Y0073790D01*
X0055707Y0073515D01*
X0055611Y0073285D01*
X0055264Y0073632D01*
X0052535Y0073632D01*
X0053128Y0074391D02*
X0055702Y0074391D01*
X0055702Y0075390D02*
X0053479Y0075390D01*
X0053479Y0076388D02*
X0055702Y0076388D01*
X0055702Y0077387D02*
X0053097Y0077387D01*
X0052222Y0078385D02*
X0055702Y0078385D01*
X0055702Y0079384D02*
X0052097Y0079384D01*
X0050195Y0079384D02*
X0042014Y0079384D01*
X0042262Y0078385D02*
X0048574Y0078385D01*
X0047699Y0077387D02*
X0042190Y0077387D01*
X0041754Y0076388D02*
X0047317Y0076388D01*
X0047317Y0075390D02*
X0040516Y0075390D01*
X0039666Y0074391D02*
X0047668Y0074391D01*
X0048731Y0080382D02*
X0041327Y0080382D01*
X0039181Y0078172D02*
X0037861Y0076851D01*
X0037877Y0069832D01*
X0036066Y0074391D02*
X0029502Y0074391D01*
X0029502Y0075390D02*
X0036064Y0075390D01*
X0036061Y0076388D02*
X0029502Y0076388D01*
X0029502Y0077387D02*
X0036059Y0077387D01*
X0036100Y0078385D02*
X0029502Y0078385D01*
X0029502Y0079384D02*
X0036348Y0079384D01*
X0037034Y0080382D02*
X0029502Y0080382D01*
X0029502Y0081381D02*
X0048202Y0081381D01*
X0048065Y0082379D02*
X0045137Y0082379D01*
X0043580Y0082379D02*
X0029502Y0082379D01*
X0029541Y0083378D02*
X0042015Y0083378D01*
X0041444Y0084376D02*
X0029702Y0084376D01*
X0029702Y0085375D02*
X0041278Y0085375D01*
X0040831Y0086373D02*
X0029702Y0086373D01*
X0029502Y0087372D02*
X0040519Y0087372D01*
X0040519Y0088370D02*
X0029502Y0088370D01*
X0029502Y0089369D02*
X0040519Y0089369D01*
X0040519Y0090368D02*
X0029702Y0090368D01*
X0029702Y0091366D02*
X0040519Y0091366D01*
X0040519Y0092365D02*
X0029702Y0092365D01*
X0029502Y0093363D02*
X0040519Y0093363D01*
X0040519Y0094362D02*
X0029502Y0094362D01*
X0029502Y0095360D02*
X0040519Y0095360D01*
X0040519Y0096359D02*
X0029502Y0096359D01*
X0029502Y0097357D02*
X0039715Y0097357D01*
X0039225Y0098356D02*
X0029502Y0098356D01*
X0029502Y0099354D02*
X0039227Y0099354D01*
X0041027Y0098591D02*
X0042319Y0097282D01*
X0042319Y0087432D01*
X0044359Y0085392D01*
X0046702Y0083378D02*
X0048247Y0083378D01*
X0048840Y0084376D02*
X0047273Y0084376D01*
X0047440Y0085375D02*
X0050458Y0085375D01*
X0051833Y0085375D02*
X0055702Y0085375D01*
X0055702Y0086373D02*
X0047287Y0086373D01*
X0046736Y0087372D02*
X0055502Y0087372D01*
X0055502Y0088370D02*
X0045219Y0088370D01*
X0044119Y0089369D02*
X0055502Y0089369D01*
X0055702Y0090368D02*
X0044119Y0090368D01*
X0044119Y0091366D02*
X0055702Y0091366D01*
X0055702Y0092365D02*
X0053388Y0092365D01*
X0051906Y0093428D02*
X0053099Y0094621D01*
X0058895Y0094621D01*
X0059502Y0094606D01*
X0059502Y0097756D02*
X0075532Y0097756D01*
X0081557Y0103796D01*
X0081557Y0114583D01*
X0082194Y0115165D01*
X0082194Y0128293D01*
X0079359Y0131073D01*
X0079359Y0136975D01*
X0084504Y0142121D01*
X0088890Y0142121D01*
X0091140Y0144258D01*
X0091140Y0147900D01*
X0093920Y0147914D01*
X0096729Y0150723D01*
X0099826Y0154272D02*
X0114680Y0154272D01*
X0114699Y0153274D02*
X0100824Y0153274D01*
X0101494Y0152275D02*
X0114699Y0152275D01*
X0114699Y0151277D02*
X0101494Y0151277D01*
X0101494Y0150278D02*
X0114699Y0150278D01*
X0114699Y0149280D02*
X0101494Y0149280D01*
X0101494Y0148281D02*
X0114699Y0148281D01*
X0114699Y0147283D02*
X0101494Y0147283D01*
X0101494Y0146284D02*
X0114699Y0146284D01*
X0114699Y0145286D02*
X0101494Y0145286D01*
X0100985Y0144287D02*
X0114699Y0144287D01*
X0114699Y0143289D02*
X0099987Y0143289D01*
X0098988Y0142290D02*
X0114699Y0142290D01*
X0114699Y0141292D02*
X0097990Y0141292D01*
X0096991Y0140293D02*
X0114699Y0140293D01*
X0114699Y0139295D02*
X0095993Y0139295D01*
X0094994Y0138296D02*
X0114699Y0138296D01*
X0114699Y0137298D02*
X0093995Y0137298D01*
X0092997Y0136299D02*
X0114699Y0136299D01*
X0114699Y0135301D02*
X0091998Y0135301D01*
X0091000Y0134302D02*
X0114699Y0134302D01*
X0114699Y0133303D02*
X0090001Y0133303D01*
X0089003Y0132305D02*
X0114699Y0132305D01*
X0114699Y0131306D02*
X0088004Y0131306D01*
X0087006Y0130308D02*
X0114699Y0130308D01*
X0114699Y0129309D02*
X0086294Y0129309D01*
X0086294Y0128311D02*
X0114699Y0128311D01*
X0114699Y0127312D02*
X0086294Y0127312D01*
X0086294Y0126314D02*
X0114699Y0126314D01*
X0114699Y0125315D02*
X0086294Y0125315D01*
X0086294Y0124317D02*
X0114699Y0124317D01*
X0114699Y0123318D02*
X0086294Y0123318D01*
X0086294Y0122320D02*
X0114699Y0122320D01*
X0114699Y0121321D02*
X0086294Y0121321D01*
X0086294Y0120323D02*
X0114699Y0120323D01*
X0114699Y0119324D02*
X0086294Y0119324D01*
X0086294Y0118326D02*
X0114699Y0118326D01*
X0114699Y0117327D02*
X0086294Y0117327D01*
X0086294Y0116329D02*
X0114699Y0116329D01*
X0114699Y0115330D02*
X0089870Y0115330D01*
X0086367Y0115330D02*
X0086294Y0115330D01*
X0086294Y0109339D02*
X0171005Y0109339D01*
X0171005Y0109500D02*
X0171005Y0108500D01*
X0172005Y0108500D01*
X0172005Y0109500D01*
X0178982Y0109500D01*
X0178894Y0110054D01*
X0178675Y0110727D01*
X0178354Y0111359D01*
X0177937Y0111932D01*
X0177436Y0112432D01*
X0176863Y0112849D01*
X0176232Y0113170D01*
X0175559Y0113389D01*
X0174859Y0113500D01*
X0172005Y0113500D01*
X0172005Y0109500D01*
X0171005Y0109500D01*
X0171005Y0113500D01*
X0168151Y0113500D01*
X0167451Y0113389D01*
X0166777Y0113170D01*
X0166146Y0112849D01*
X0165573Y0112432D01*
X0165072Y0111932D01*
X0164656Y0111359D01*
X0164335Y0110727D01*
X0164116Y0110054D01*
X0164028Y0109500D01*
X0171005Y0109500D01*
X0171005Y0110338D02*
X0172005Y0110338D01*
X0172005Y0111336D02*
X0171005Y0111336D01*
X0171005Y0112335D02*
X0172005Y0112335D01*
X0172005Y0113333D02*
X0171005Y0113333D01*
X0172005Y0109339D02*
X0181796Y0109339D01*
X0181796Y0108341D02*
X0178956Y0108341D01*
X0178982Y0108500D02*
X0172005Y0108500D01*
X0172005Y0104500D01*
X0174859Y0104500D01*
X0175559Y0104611D01*
X0176232Y0104830D01*
X0176863Y0105151D01*
X0177436Y0105568D01*
X0177937Y0106068D01*
X0178354Y0106641D01*
X0178675Y0107273D01*
X0178894Y0107946D01*
X0178982Y0108500D01*
X0178698Y0107342D02*
X0181796Y0107342D01*
X0181796Y0106344D02*
X0178137Y0106344D01*
X0177130Y0105345D02*
X0181796Y0105345D01*
X0181796Y0104347D02*
X0086294Y0104347D01*
X0086294Y0105345D02*
X0165879Y0105345D01*
X0166146Y0105151D02*
X0165573Y0105568D01*
X0165072Y0106068D01*
X0164656Y0106641D01*
X0164335Y0107273D01*
X0164116Y0107946D01*
X0164028Y0108500D01*
X0171005Y0108500D01*
X0171005Y0104500D01*
X0168151Y0104500D01*
X0167451Y0104611D01*
X0166777Y0104830D01*
X0166146Y0105151D01*
X0164872Y0106344D02*
X0086294Y0106344D01*
X0086294Y0107342D02*
X0164312Y0107342D01*
X0164053Y0108341D02*
X0086294Y0108341D01*
X0090089Y0110338D02*
X0114909Y0110338D01*
X0116879Y0112725D02*
X0116984Y0112829D01*
X0119549Y0114332D02*
X0181796Y0114332D01*
X0181796Y0115330D02*
X0176882Y0115330D01*
X0176941Y0115355D02*
X0178150Y0116564D01*
X0178805Y0118145D01*
X0178805Y0119855D01*
X0178150Y0121436D01*
X0176941Y0122645D01*
X0175360Y0123300D01*
X0167649Y0123300D01*
X0166069Y0122645D01*
X0164859Y0121436D01*
X0164205Y0119855D01*
X0164205Y0118145D01*
X0164859Y0116564D01*
X0166069Y0115355D01*
X0167649Y0114700D01*
X0175360Y0114700D01*
X0176941Y0115355D01*
X0177915Y0116329D02*
X0181796Y0116329D01*
X0181796Y0117327D02*
X0178466Y0117327D01*
X0178805Y0118326D02*
X0181796Y0118326D01*
X0181796Y0119324D02*
X0178805Y0119324D01*
X0178611Y0120323D02*
X0181796Y0120323D01*
X0181796Y0121321D02*
X0178198Y0121321D01*
X0177266Y0122320D02*
X0181796Y0122320D01*
X0181796Y0123318D02*
X0119268Y0123318D01*
X0119268Y0122320D02*
X0165744Y0122320D01*
X0164812Y0121321D02*
X0119268Y0121321D01*
X0119268Y0120323D02*
X0164398Y0120323D01*
X0164205Y0119324D02*
X0119268Y0119324D01*
X0119268Y0118326D02*
X0164205Y0118326D01*
X0164543Y0117327D02*
X0119268Y0117327D01*
X0119268Y0116329D02*
X0165095Y0116329D01*
X0166128Y0115330D02*
X0119268Y0115330D01*
X0119961Y0113333D02*
X0167279Y0113333D01*
X0165476Y0112335D02*
X0119961Y0112335D01*
X0119639Y0111336D02*
X0164645Y0111336D01*
X0164208Y0110338D02*
X0118850Y0110338D01*
X0119268Y0124317D02*
X0181796Y0124317D01*
X0181796Y0125315D02*
X0119268Y0125315D01*
X0119268Y0126314D02*
X0181796Y0126314D01*
X0181796Y0127312D02*
X0119268Y0127312D01*
X0119268Y0128311D02*
X0181796Y0128311D01*
X0181796Y0129309D02*
X0119268Y0129309D01*
X0119268Y0130308D02*
X0181796Y0130308D01*
X0181796Y0131306D02*
X0119268Y0131306D01*
X0119268Y0132305D02*
X0181796Y0132305D01*
X0181796Y0133303D02*
X0119268Y0133303D01*
X0119268Y0134302D02*
X0181796Y0134302D01*
X0181796Y0135301D02*
X0119268Y0135301D01*
X0119268Y0136299D02*
X0181796Y0136299D01*
X0181796Y0137298D02*
X0119268Y0137298D01*
X0119268Y0138296D02*
X0181796Y0138296D01*
X0181796Y0139295D02*
X0119268Y0139295D01*
X0119268Y0140293D02*
X0181796Y0140293D01*
X0181796Y0141292D02*
X0119268Y0141292D01*
X0119268Y0142290D02*
X0181796Y0142290D01*
X0181796Y0143289D02*
X0119268Y0143289D01*
X0119268Y0144287D02*
X0181796Y0144287D01*
X0181796Y0145286D02*
X0119268Y0145286D01*
X0119268Y0146284D02*
X0181796Y0146284D01*
X0181796Y0147283D02*
X0119268Y0147283D01*
X0119268Y0148281D02*
X0181796Y0148281D01*
X0181796Y0149280D02*
X0119268Y0149280D01*
X0119268Y0150278D02*
X0181796Y0150278D01*
X0181796Y0151277D02*
X0119268Y0151277D01*
X0119268Y0152275D02*
X0181796Y0152275D01*
X0181796Y0153274D02*
X0119268Y0153274D01*
X0119268Y0154272D02*
X0181796Y0154272D01*
X0181796Y0155271D02*
X0119268Y0155271D01*
X0119144Y0156269D02*
X0181796Y0156269D01*
X0181796Y0157268D02*
X0118146Y0157268D01*
X0117147Y0158266D02*
X0181796Y0158266D01*
X0181796Y0159265D02*
X0116213Y0159265D01*
X0116029Y0160263D02*
X0181796Y0160263D01*
X0181796Y0161262D02*
X0115434Y0161262D01*
X0113811Y0162260D02*
X0181796Y0162260D01*
X0181796Y0163259D02*
X0110282Y0163259D01*
X0109284Y0162260D02*
X0112453Y0162260D01*
X0110830Y0161262D02*
X0103325Y0161262D01*
X0102326Y0160263D02*
X0110235Y0160263D01*
X0110051Y0159265D02*
X0101329Y0159265D01*
X0100232Y0160714D02*
X0091940Y0160700D01*
X0091828Y0154778D01*
X0094545Y0156269D02*
X0112172Y0156269D01*
X0110713Y0157268D02*
X0094480Y0157268D01*
X0095209Y0158266D02*
X0110186Y0158266D01*
X0108016Y0163538D02*
X0103055Y0163538D01*
X0100232Y0160714D01*
X0100231Y0163259D02*
X0095209Y0163259D01*
X0095370Y0165256D02*
X0102227Y0165256D01*
X0101255Y0164283D02*
X0101255Y0164283D01*
X0101229Y0164257D02*
X0090995Y0164257D01*
X0091310Y0165256D02*
X0092278Y0165256D01*
X0092278Y0166254D02*
X0091310Y0166254D01*
X0091310Y0167253D02*
X0092278Y0167253D01*
X0095459Y0167253D02*
X0109185Y0167253D01*
X0110184Y0168251D02*
X0095459Y0168251D01*
X0095459Y0169250D02*
X0111182Y0169250D01*
X0112181Y0170248D02*
X0095371Y0170248D01*
X0094567Y0171247D02*
X0126010Y0171247D01*
X0127009Y0172245D02*
X0095259Y0172245D01*
X0095259Y0173244D02*
X0128007Y0173244D01*
X0129006Y0174242D02*
X0095259Y0174242D01*
X0095259Y0175241D02*
X0130004Y0175241D01*
X0130102Y0176239D02*
X0095259Y0176239D01*
X0096128Y0177238D02*
X0130102Y0177238D01*
X0130102Y0178237D02*
X0097049Y0178237D01*
X0097970Y0179235D02*
X0130102Y0179235D01*
X0130102Y0180234D02*
X0098892Y0180234D01*
X0099497Y0181232D02*
X0130102Y0181232D01*
X0130102Y0182231D02*
X0099482Y0182231D01*
X0099482Y0183229D02*
X0130102Y0183229D01*
X0130102Y0184228D02*
X0099712Y0184228D01*
X0100782Y0185226D02*
X0130102Y0185226D01*
X0130102Y0186225D02*
X0101267Y0186225D01*
X0101482Y0187223D02*
X0130102Y0187223D01*
X0130102Y0188222D02*
X0101482Y0188222D01*
X0101083Y0189220D02*
X0130102Y0189220D01*
X0130102Y0190219D02*
X0100337Y0190219D01*
X0098638Y0191217D02*
X0130102Y0191217D01*
X0130102Y0192216D02*
X0095317Y0192216D01*
X0094761Y0191217D02*
X0096726Y0191217D01*
X0095027Y0190219D02*
X0094761Y0190219D01*
X0092961Y0192298D02*
X0092961Y0185337D01*
X0086737Y0179113D01*
X0086737Y0166058D01*
X0091940Y0160700D01*
X0095459Y0166254D02*
X0108187Y0166254D01*
X0108016Y0163538D02*
X0113138Y0168660D01*
X0125969Y0168660D01*
X0131902Y0174593D01*
X0131902Y0244357D01*
X0130677Y0245581D01*
X0130677Y0256451D01*
X0138705Y0256451D01*
X0144158Y0261915D01*
X0144158Y0269958D01*
X0141569Y0270194D01*
X0071273Y0270194D01*
X0066957Y0267128D01*
X0063945Y0267128D01*
X0062194Y0269625D01*
X0029170Y0269625D01*
X0023518Y0268314D01*
X0023518Y0267100D01*
X0023522Y0267100D01*
X0027422Y0267104D02*
X0061764Y0267104D01*
X0062422Y0266105D02*
X0027422Y0266105D01*
X0027422Y0265107D02*
X0045770Y0265107D01*
X0046738Y0266075D02*
X0044044Y0263380D01*
X0044044Y0259570D01*
X0046208Y0257406D01*
X0046193Y0257001D01*
X0046139Y0256945D01*
X0046158Y0256067D01*
X0046126Y0255189D01*
X0046179Y0255131D01*
X0046181Y0255053D01*
X0046426Y0254818D01*
X0045940Y0254332D01*
X0045210Y0254332D01*
X0044077Y0253863D01*
X0043211Y0252996D01*
X0042742Y0251864D01*
X0042742Y0250638D01*
X0042913Y0250224D01*
X0039694Y0247004D01*
X0039694Y0236044D01*
X0039454Y0235945D01*
X0038587Y0235078D01*
X0038118Y0233946D01*
X0038118Y0232720D01*
X0038587Y0231587D01*
X0039454Y0230721D01*
X0040586Y0230252D01*
X0041812Y0230252D01*
X0042944Y0230721D01*
X0043811Y0231587D01*
X0044280Y0232720D01*
X0044280Y0233946D01*
X0043811Y0235078D01*
X0043094Y0235795D01*
X0043094Y0245596D01*
X0045668Y0248170D01*
X0046436Y0248170D01*
X0047568Y0248639D01*
X0048435Y0249506D01*
X0048904Y0250638D01*
X0048904Y0250834D01*
X0050661Y0252591D01*
X0050691Y0252592D01*
X0051327Y0253258D01*
X0051978Y0253909D01*
X0051978Y0253938D01*
X0051999Y0253960D01*
X0051978Y0254881D01*
X0051978Y0255801D01*
X0051957Y0255822D01*
X0051956Y0255852D01*
X0051291Y0256489D01*
X0050765Y0257014D01*
X0050768Y0257094D01*
X0053244Y0259570D01*
X0053244Y0263380D01*
X0050549Y0266075D01*
X0046738Y0266075D01*
X0044772Y0264108D02*
X0027422Y0264108D01*
X0027167Y0263110D02*
X0044044Y0263110D01*
X0044044Y0262111D02*
X0026649Y0262111D01*
X0025536Y0261113D02*
X0044044Y0261113D01*
X0044044Y0260114D02*
X0016728Y0260114D01*
X0016728Y0259116D02*
X0044497Y0259116D01*
X0045496Y0258117D02*
X0016728Y0258117D01*
X0017609Y0257119D02*
X0046197Y0257119D01*
X0046157Y0256120D02*
X0018009Y0256120D01*
X0018246Y0255122D02*
X0046180Y0255122D01*
X0044706Y0254123D02*
X0029926Y0254123D01*
X0030009Y0253125D02*
X0043339Y0253125D01*
X0042850Y0252126D02*
X0030009Y0252126D01*
X0030009Y0250966D02*
X0027025Y0250966D01*
X0027025Y0247785D01*
X0028706Y0247785D01*
X0029088Y0247887D01*
X0029430Y0248084D01*
X0029709Y0248364D01*
X0029907Y0248706D01*
X0030009Y0249087D01*
X0030009Y0250966D01*
X0030009Y0250129D02*
X0042819Y0250129D01*
X0042742Y0251128D02*
X0027025Y0251128D01*
X0027025Y0252126D02*
X0026056Y0252126D01*
X0026056Y0253125D02*
X0027025Y0253125D01*
X0027025Y0254123D02*
X0026056Y0254123D01*
X0023155Y0254123D02*
X0023116Y0254123D01*
X0026056Y0250129D02*
X0027025Y0250129D01*
X0027025Y0249131D02*
X0026056Y0249131D01*
X0026056Y0248132D02*
X0027025Y0248132D01*
X0029478Y0248132D02*
X0040822Y0248132D01*
X0039823Y0247134D02*
X0003694Y0247134D01*
X0003694Y0248132D02*
X0017193Y0248132D01*
X0016579Y0249131D02*
X0003694Y0249131D01*
X0003694Y0250129D02*
X0016579Y0250129D01*
X0016579Y0251128D02*
X0003694Y0251128D01*
X0003694Y0252126D02*
X0016218Y0252126D01*
X0014928Y0255540D02*
X0019847Y0251450D01*
X0022502Y0248132D02*
X0023603Y0248132D01*
X0030009Y0249131D02*
X0041820Y0249131D01*
X0044632Y0247134D02*
X0053128Y0247134D01*
X0053128Y0248132D02*
X0045630Y0248132D01*
X0048060Y0249131D02*
X0053128Y0249131D01*
X0053128Y0249353D02*
X0053128Y0244339D01*
X0053890Y0243578D01*
X0059298Y0243578D01*
X0060059Y0244339D01*
X0060059Y0249353D01*
X0059298Y0250115D01*
X0058389Y0250115D01*
X0058379Y0256875D01*
X0060549Y0256875D01*
X0063244Y0259570D01*
X0063244Y0263380D01*
X0060549Y0266075D01*
X0056738Y0266075D01*
X0054044Y0263380D01*
X0054044Y0259570D01*
X0054758Y0258855D01*
X0054778Y0258701D01*
X0054778Y0258190D01*
X0054777Y0258189D01*
X0054778Y0257446D01*
X0054778Y0256701D01*
X0054779Y0256700D01*
X0054789Y0250115D01*
X0053890Y0250115D01*
X0053128Y0249353D01*
X0054789Y0250129D02*
X0048693Y0250129D01*
X0049198Y0251128D02*
X0054787Y0251128D01*
X0054786Y0252126D02*
X0050196Y0252126D01*
X0051200Y0253125D02*
X0054784Y0253125D01*
X0054783Y0254123D02*
X0051995Y0254123D01*
X0051978Y0255122D02*
X0054781Y0255122D01*
X0054780Y0256120D02*
X0051676Y0256120D01*
X0050793Y0257119D02*
X0054778Y0257119D01*
X0054777Y0258117D02*
X0051792Y0258117D01*
X0052790Y0259116D02*
X0054497Y0259116D01*
X0054044Y0260114D02*
X0053244Y0260114D01*
X0053244Y0261113D02*
X0054044Y0261113D01*
X0054044Y0262111D02*
X0053244Y0262111D01*
X0053244Y0263110D02*
X0054044Y0263110D01*
X0054772Y0264108D02*
X0052516Y0264108D01*
X0051517Y0265107D02*
X0055770Y0265107D01*
X0058644Y0261475D02*
X0056578Y0258814D01*
X0056578Y0257446D01*
X0056594Y0246846D01*
X0060059Y0247134D02*
X0128877Y0247134D01*
X0128877Y0248132D02*
X0060059Y0248132D01*
X0060059Y0249131D02*
X0128877Y0249131D01*
X0128877Y0250129D02*
X0113689Y0250129D01*
X0113358Y0249992D02*
X0114031Y0250271D01*
X0114637Y0250676D01*
X0115153Y0251191D01*
X0115558Y0251797D01*
X0115837Y0252471D01*
X0115979Y0253186D01*
X0115979Y0253450D01*
X0112379Y0253450D01*
X0112379Y0253650D01*
X0115979Y0253650D01*
X0115979Y0253914D01*
X0115837Y0254629D01*
X0115558Y0255303D01*
X0115153Y0255909D01*
X0114637Y0256424D01*
X0114031Y0256829D01*
X0113358Y0257108D01*
X0112643Y0257250D01*
X0112379Y0257250D01*
X0112379Y0253650D01*
X0112179Y0253650D01*
X0112179Y0257250D01*
X0111914Y0257250D01*
X0111200Y0257108D01*
X0110526Y0256829D01*
X0109920Y0256424D01*
X0109405Y0255909D01*
X0109000Y0255303D01*
X0108721Y0254629D01*
X0108579Y0253914D01*
X0108579Y0253650D01*
X0112179Y0253650D01*
X0112179Y0253450D01*
X0112379Y0253450D01*
X0112379Y0249850D01*
X0112643Y0249850D01*
X0113358Y0249992D01*
X0112379Y0250129D02*
X0112179Y0250129D01*
X0112179Y0249850D02*
X0112179Y0253450D01*
X0108579Y0253450D01*
X0108579Y0253186D01*
X0108721Y0252471D01*
X0109000Y0251797D01*
X0109405Y0251191D01*
X0109920Y0250676D01*
X0110526Y0250271D01*
X0111200Y0249992D01*
X0111914Y0249850D01*
X0112179Y0249850D01*
X0112179Y0251128D02*
X0112379Y0251128D01*
X0112379Y0252126D02*
X0112179Y0252126D01*
X0112179Y0253125D02*
X0112379Y0253125D01*
X0112379Y0254123D02*
X0112179Y0254123D01*
X0112179Y0255122D02*
X0112379Y0255122D01*
X0112379Y0256120D02*
X0112179Y0256120D01*
X0112179Y0257119D02*
X0112379Y0257119D01*
X0113302Y0257119D02*
X0128877Y0257119D01*
X0128877Y0256120D02*
X0114941Y0256120D01*
X0115633Y0255122D02*
X0128877Y0255122D01*
X0128877Y0254123D02*
X0115937Y0254123D01*
X0115967Y0253125D02*
X0128877Y0253125D01*
X0128877Y0252126D02*
X0115694Y0252126D01*
X0115089Y0251128D02*
X0128877Y0251128D01*
X0132477Y0251128D02*
X0181796Y0251128D01*
X0181796Y0252126D02*
X0132477Y0252126D01*
X0132477Y0253125D02*
X0181796Y0253125D01*
X0181796Y0254123D02*
X0132477Y0254123D01*
X0132477Y0250129D02*
X0181796Y0250129D01*
X0181796Y0249131D02*
X0132477Y0249131D01*
X0132477Y0248132D02*
X0181796Y0248132D01*
X0181796Y0247134D02*
X0132477Y0247134D01*
X0132647Y0246157D02*
X0132647Y0246157D01*
X0132669Y0246135D02*
X0181796Y0246135D01*
X0181796Y0245137D02*
X0133668Y0245137D01*
X0133701Y0245103D02*
X0133701Y0245103D01*
X0133702Y0244138D02*
X0181796Y0244138D01*
X0181796Y0243140D02*
X0133702Y0243140D01*
X0133702Y0243612D02*
X0133702Y0243612D01*
X0133702Y0242141D02*
X0181796Y0242141D01*
X0181796Y0241143D02*
X0133702Y0241143D01*
X0133702Y0240144D02*
X0181796Y0240144D01*
X0181796Y0239146D02*
X0133702Y0239146D01*
X0133702Y0238147D02*
X0181796Y0238147D01*
X0181796Y0237149D02*
X0133702Y0237149D01*
X0133702Y0236150D02*
X0181796Y0236150D01*
X0181796Y0235152D02*
X0133702Y0235152D01*
X0133702Y0234153D02*
X0181796Y0234153D01*
X0181796Y0233155D02*
X0133702Y0233155D01*
X0133702Y0232156D02*
X0181796Y0232156D01*
X0181796Y0231158D02*
X0133702Y0231158D01*
X0133702Y0230159D02*
X0181796Y0230159D01*
X0181796Y0229161D02*
X0133702Y0229161D01*
X0133702Y0228162D02*
X0181796Y0228162D01*
X0181796Y0227164D02*
X0133702Y0227164D01*
X0133702Y0226165D02*
X0181796Y0226165D01*
X0181796Y0225167D02*
X0133702Y0225167D01*
X0133702Y0224168D02*
X0181796Y0224168D01*
X0181796Y0223170D02*
X0133702Y0223170D01*
X0133702Y0222171D02*
X0181796Y0222171D01*
X0181796Y0221172D02*
X0133702Y0221172D01*
X0133702Y0220174D02*
X0181796Y0220174D01*
X0181796Y0219175D02*
X0133702Y0219175D01*
X0133702Y0218177D02*
X0181796Y0218177D01*
X0181796Y0217178D02*
X0133702Y0217178D01*
X0133702Y0216180D02*
X0181796Y0216180D01*
X0181796Y0215181D02*
X0133702Y0215181D01*
X0133702Y0214183D02*
X0181796Y0214183D01*
X0181796Y0213184D02*
X0133702Y0213184D01*
X0133702Y0212186D02*
X0181796Y0212186D01*
X0181796Y0211187D02*
X0133702Y0211187D01*
X0133702Y0210189D02*
X0181796Y0210189D01*
X0181796Y0209190D02*
X0133702Y0209190D01*
X0133702Y0208192D02*
X0181796Y0208192D01*
X0181796Y0207193D02*
X0133702Y0207193D01*
X0133702Y0206195D02*
X0181796Y0206195D01*
X0181796Y0205196D02*
X0133702Y0205196D01*
X0133702Y0204198D02*
X0181796Y0204198D01*
X0181796Y0203199D02*
X0133702Y0203199D01*
X0133702Y0202201D02*
X0181796Y0202201D01*
X0181796Y0201202D02*
X0133702Y0201202D01*
X0133702Y0200204D02*
X0181796Y0200204D01*
X0181796Y0199205D02*
X0133702Y0199205D01*
X0133702Y0198207D02*
X0181796Y0198207D01*
X0181796Y0197208D02*
X0133702Y0197208D01*
X0133702Y0196210D02*
X0181796Y0196210D01*
X0181796Y0195211D02*
X0133702Y0195211D01*
X0133702Y0194213D02*
X0181796Y0194213D01*
X0181796Y0193214D02*
X0133702Y0193214D01*
X0133702Y0192216D02*
X0181796Y0192216D01*
X0181796Y0191217D02*
X0133702Y0191217D01*
X0133702Y0190219D02*
X0181796Y0190219D01*
X0181796Y0189220D02*
X0133702Y0189220D01*
X0133702Y0188222D02*
X0181796Y0188222D01*
X0181796Y0187223D02*
X0133702Y0187223D01*
X0133702Y0186225D02*
X0181796Y0186225D01*
X0181796Y0185226D02*
X0133702Y0185226D01*
X0133702Y0184228D02*
X0181796Y0184228D01*
X0181796Y0183229D02*
X0133702Y0183229D01*
X0133702Y0182231D02*
X0181796Y0182231D01*
X0181796Y0181232D02*
X0133702Y0181232D01*
X0133702Y0180234D02*
X0181796Y0180234D01*
X0181796Y0179235D02*
X0133702Y0179235D01*
X0133702Y0178237D02*
X0181796Y0178237D01*
X0181796Y0177238D02*
X0133702Y0177238D01*
X0133702Y0176239D02*
X0181796Y0176239D01*
X0181796Y0175241D02*
X0133702Y0175241D01*
X0133702Y0174242D02*
X0181796Y0174242D01*
X0181796Y0173244D02*
X0133098Y0173244D01*
X0132100Y0172245D02*
X0181796Y0172245D01*
X0181796Y0171247D02*
X0131101Y0171247D01*
X0130103Y0170248D02*
X0181796Y0170248D01*
X0181796Y0169250D02*
X0129104Y0169250D01*
X0128106Y0168251D02*
X0181796Y0168251D01*
X0181796Y0167253D02*
X0127107Y0167253D01*
X0113278Y0166254D02*
X0181796Y0166254D01*
X0181796Y0165256D02*
X0112279Y0165256D01*
X0111281Y0164257D02*
X0181796Y0164257D01*
X0181796Y0113333D02*
X0175731Y0113333D01*
X0177534Y0112335D02*
X0181796Y0112335D01*
X0181796Y0111336D02*
X0178365Y0111336D01*
X0178802Y0110338D02*
X0181796Y0110338D01*
X0181796Y0103348D02*
X0086294Y0103348D01*
X0085448Y0102350D02*
X0165773Y0102350D01*
X0166069Y0102645D02*
X0164859Y0101436D01*
X0164391Y0100305D01*
X0158946Y0100000D01*
X0091090Y0100000D01*
X0089975Y0098885D01*
X0089810Y0098953D01*
X0088585Y0098953D01*
X0087452Y0098484D01*
X0086585Y0097617D01*
X0086116Y0096485D01*
X0086116Y0095259D01*
X0086585Y0094127D01*
X0087452Y0093260D01*
X0088585Y0092791D01*
X0089810Y0092791D01*
X0090943Y0093260D01*
X0091809Y0094127D01*
X0092279Y0095259D01*
X0092279Y0096381D01*
X0092498Y0096600D01*
X0158345Y0096600D01*
X0158386Y0096563D01*
X0159041Y0096600D01*
X0159698Y0096600D01*
X0159737Y0096639D01*
X0164713Y0096917D01*
X0164859Y0096564D01*
X0166069Y0095355D01*
X0167649Y0094700D01*
X0175360Y0094700D01*
X0176941Y0095355D01*
X0178150Y0096564D01*
X0178805Y0098145D01*
X0178805Y0099855D01*
X0178150Y0101436D01*
X0176941Y0102645D01*
X0175360Y0103300D01*
X0167649Y0103300D01*
X0166069Y0102645D01*
X0164824Y0101351D02*
X0084449Y0101351D01*
X0083451Y0100353D02*
X0164411Y0100353D01*
X0165065Y0096359D02*
X0092279Y0096359D01*
X0092279Y0095360D02*
X0166064Y0095360D01*
X0167649Y0093300D02*
X0166069Y0092645D01*
X0164859Y0091436D01*
X0164485Y0090532D01*
X0158974Y0090400D01*
X0087906Y0090400D01*
X0087680Y0090626D01*
X0086547Y0091095D01*
X0085322Y0091095D01*
X0084189Y0090626D01*
X0083322Y0089759D01*
X0082853Y0088627D01*
X0082853Y0087401D01*
X0083322Y0086269D01*
X0084189Y0085402D01*
X0085322Y0084933D01*
X0086547Y0084933D01*
X0087680Y0085402D01*
X0088546Y0086269D01*
X0088849Y0087000D01*
X0158313Y0087000D01*
X0158331Y0086984D01*
X0159014Y0087000D01*
X0159698Y0087000D01*
X0159715Y0087017D01*
X0164623Y0087135D01*
X0164859Y0086564D01*
X0166069Y0085355D01*
X0167649Y0084700D01*
X0175360Y0084700D01*
X0176941Y0085355D01*
X0178150Y0086564D01*
X0178805Y0088145D01*
X0178805Y0089855D01*
X0178150Y0091436D01*
X0176941Y0092645D01*
X0175360Y0093300D01*
X0167649Y0093300D01*
X0165788Y0092365D02*
X0075462Y0092365D01*
X0074464Y0091366D02*
X0164831Y0091366D01*
X0165050Y0086373D02*
X0088590Y0086373D01*
X0087615Y0085375D02*
X0166049Y0085375D01*
X0167649Y0083300D02*
X0166069Y0082645D01*
X0164859Y0081436D01*
X0164578Y0080755D01*
X0159704Y0080794D01*
X0159698Y0080800D01*
X0159001Y0080800D01*
X0158303Y0080806D01*
X0158298Y0080800D01*
X0092027Y0080800D01*
X0092027Y0080973D01*
X0091557Y0082105D01*
X0090691Y0082972D01*
X0089558Y0083441D01*
X0088333Y0083441D01*
X0087200Y0082972D01*
X0086333Y0082105D01*
X0085864Y0080973D01*
X0085864Y0079747D01*
X0086333Y0078615D01*
X0087200Y0077748D01*
X0088333Y0077279D01*
X0089558Y0077279D01*
X0089851Y0077400D01*
X0158987Y0077400D01*
X0164532Y0077356D01*
X0164859Y0076564D01*
X0166069Y0075355D01*
X0167649Y0074700D01*
X0175360Y0074700D01*
X0176941Y0075355D01*
X0178150Y0076564D01*
X0178805Y0078145D01*
X0178805Y0079855D01*
X0178150Y0081436D01*
X0176941Y0082645D01*
X0175360Y0083300D01*
X0167649Y0083300D01*
X0165803Y0082379D02*
X0091283Y0082379D01*
X0091858Y0081381D02*
X0164837Y0081381D01*
X0165035Y0076388D02*
X0080122Y0076388D01*
X0080128Y0077387D02*
X0088072Y0077387D01*
X0089819Y0077387D02*
X0160631Y0077387D01*
X0165818Y0072394D02*
X0092177Y0072394D01*
X0092034Y0071396D02*
X0164843Y0071396D01*
X0164513Y0067402D02*
X0090294Y0067402D01*
X0090294Y0066403D02*
X0165020Y0066403D01*
X0166019Y0065405D02*
X0090103Y0065405D01*
X0089104Y0064406D02*
X0181796Y0064406D01*
X0181796Y0063408D02*
X0088106Y0063408D01*
X0087107Y0062409D02*
X0165833Y0062409D01*
X0164849Y0061411D02*
X0086109Y0061411D01*
X0085110Y0060412D02*
X0164435Y0060412D01*
X0165006Y0056418D02*
X0109916Y0056418D01*
X0108918Y0055420D02*
X0166004Y0055420D01*
X0167649Y0053300D02*
X0166069Y0052645D01*
X0164859Y0051436D01*
X0164205Y0049855D01*
X0164205Y0048145D01*
X0164859Y0046564D01*
X0166069Y0045355D01*
X0167649Y0044700D01*
X0175360Y0044700D01*
X0176941Y0045355D01*
X0178150Y0046564D01*
X0178805Y0048145D01*
X0178805Y0049855D01*
X0178150Y0051436D01*
X0176941Y0052645D01*
X0175360Y0053300D01*
X0167649Y0053300D01*
X0165848Y0052424D02*
X0105922Y0052424D01*
X0104924Y0051426D02*
X0164855Y0051426D01*
X0164442Y0050427D02*
X0103925Y0050427D01*
X0102926Y0049429D02*
X0164205Y0049429D01*
X0164205Y0048430D02*
X0101928Y0048430D01*
X0100929Y0047432D02*
X0164500Y0047432D01*
X0164991Y0046433D02*
X0099931Y0046433D01*
X0098932Y0045434D02*
X0165989Y0045434D01*
X0177020Y0045434D02*
X0181796Y0045434D01*
X0181796Y0044436D02*
X0097934Y0044436D01*
X0096935Y0043437D02*
X0116924Y0043437D01*
X0116565Y0043078D02*
X0117431Y0043945D01*
X0118564Y0044414D01*
X0119790Y0044414D01*
X0120922Y0043945D01*
X0121249Y0043617D01*
X0121528Y0043617D01*
X0122377Y0043687D01*
X0122460Y0043617D01*
X0122568Y0043617D01*
X0123171Y0043015D01*
X0130665Y0036662D01*
X0130773Y0036662D01*
X0130927Y0036509D01*
X0133469Y0036509D01*
X0133863Y0036115D01*
X0138948Y0036115D01*
X0139709Y0035353D01*
X0139709Y0031832D01*
X0139978Y0032083D01*
X0139978Y0035353D01*
X0140740Y0036115D01*
X0146148Y0036115D01*
X0146909Y0035353D01*
X0146909Y0030339D01*
X0146148Y0029578D01*
X0142571Y0029578D01*
X0142404Y0029422D01*
X0146148Y0029422D01*
X0146909Y0028661D01*
X0146909Y0023647D01*
X0146148Y0022885D01*
X0145244Y0022885D01*
X0145244Y0020081D01*
X0145774Y0019551D01*
X0146243Y0018419D01*
X0146243Y0017193D01*
X0145774Y0016061D01*
X0144907Y0015194D01*
X0143775Y0014725D01*
X0142549Y0014725D01*
X0141416Y0015194D01*
X0140550Y0016061D01*
X0140422Y0016370D01*
X0140265Y0016213D01*
X0139380Y0015846D01*
X0140415Y0015418D01*
X0141282Y0014551D01*
X0141751Y0013419D01*
X0141751Y0012193D01*
X0141282Y0011061D01*
X0140415Y0010194D01*
X0139283Y0009725D01*
X0138057Y0009725D01*
X0136924Y0010194D01*
X0136809Y0010309D01*
X0136809Y0009996D01*
X0136047Y0009235D01*
X0131033Y0009235D01*
X0130272Y0009996D01*
X0130272Y0015404D01*
X0130768Y0015900D01*
X0130272Y0016396D01*
X0130272Y0021804D01*
X0130759Y0022291D01*
X0130659Y0022291D01*
X0130659Y0025276D01*
X0129690Y0025276D01*
X0125919Y0025276D01*
X0125919Y0023594D01*
X0126021Y0023212D01*
X0126218Y0022870D01*
X0126498Y0022591D01*
X0126542Y0022565D01*
X0124340Y0022565D01*
X0123579Y0021804D01*
X0123579Y0020322D01*
X0120640Y0020322D01*
X0120124Y0020838D01*
X0119605Y0021357D01*
X0119605Y0021357D01*
X0119604Y0021358D01*
X0118860Y0021358D01*
X0118114Y0021358D01*
X0118114Y0021358D01*
X0114533Y0021358D01*
X0116894Y0023719D01*
X0116894Y0027281D01*
X0114375Y0029800D01*
X0110813Y0029800D01*
X0109434Y0028421D01*
X0109434Y0030426D01*
X0109442Y0030435D01*
X0109434Y0031170D01*
X0109434Y0031905D01*
X0109425Y0031914D01*
X0109425Y0031926D01*
X0108900Y0032439D01*
X0108379Y0032960D01*
X0108367Y0032960D01*
X0106894Y0034400D01*
X0106894Y0037281D01*
X0104375Y0039800D01*
X0100813Y0039800D01*
X0098294Y0037281D01*
X0098294Y0033719D01*
X0100813Y0031200D01*
X0104375Y0031200D01*
X0104693Y0031518D01*
X0105834Y0030402D01*
X0105834Y0028341D01*
X0104375Y0029800D01*
X0100813Y0029800D01*
X0098294Y0027281D01*
X0098294Y0023719D01*
X0100778Y0021235D01*
X0100778Y0021200D01*
X0100778Y0020456D01*
X0100778Y0020455D01*
X0101349Y0019884D01*
X0104377Y0016855D01*
X0104903Y0016329D01*
X0105431Y0015801D01*
X0105431Y0015801D01*
X0105431Y0015801D01*
X0106175Y0015801D01*
X0106922Y0015801D01*
X0116808Y0015801D01*
X0120642Y0011956D01*
X0120642Y0011954D01*
X0121168Y0011428D01*
X0121694Y0010901D01*
X0121695Y0010901D01*
X0121696Y0010900D01*
X0122439Y0010900D01*
X0123185Y0010899D01*
X0123186Y0010900D01*
X0123579Y0010900D01*
X0123579Y0009996D01*
X0124340Y0009235D01*
X0129354Y0009235D01*
X0130116Y0009996D01*
X0130116Y0015404D01*
X0129620Y0015900D01*
X0130116Y0016396D01*
X0130116Y0021804D01*
X0129628Y0022291D01*
X0129690Y0022291D01*
X0129690Y0025276D01*
X0129690Y0026244D01*
X0125919Y0026244D01*
X0125919Y0027700D01*
X0125569Y0027700D01*
X0125569Y0026993D01*
X0124807Y0026231D01*
X0118219Y0026231D01*
X0117457Y0026993D01*
X0117457Y0030671D01*
X0115536Y0032361D01*
X0114375Y0031200D01*
X0110813Y0031200D01*
X0108294Y0033719D01*
X0108294Y0037281D01*
X0110813Y0039800D01*
X0114375Y0039800D01*
X0116894Y0037281D01*
X0116894Y0035962D01*
X0120523Y0032768D01*
X0124807Y0032768D01*
X0125569Y0032007D01*
X0125569Y0031300D01*
X0126119Y0031300D01*
X0126119Y0034526D01*
X0121036Y0038835D01*
X0120922Y0038721D01*
X0119790Y0038252D01*
X0118564Y0038252D01*
X0117431Y0038721D01*
X0116565Y0039588D01*
X0116096Y0040720D01*
X0116096Y0041946D01*
X0116565Y0043078D01*
X0116300Y0042439D02*
X0095937Y0042439D01*
X0094938Y0041440D02*
X0116096Y0041440D01*
X0116211Y0040442D02*
X0093940Y0040442D01*
X0094731Y0039443D02*
X0100456Y0039443D01*
X0099458Y0038445D02*
X0095730Y0038445D01*
X0096728Y0037446D02*
X0098459Y0037446D01*
X0098294Y0036448D02*
X0096894Y0036448D01*
X0096894Y0035449D02*
X0098294Y0035449D01*
X0098294Y0034451D02*
X0096894Y0034451D01*
X0096627Y0033452D02*
X0098560Y0033452D01*
X0099559Y0032454D02*
X0095629Y0032454D01*
X0094630Y0031455D02*
X0100557Y0031455D01*
X0100471Y0029458D02*
X0094717Y0029458D01*
X0095715Y0028460D02*
X0099473Y0028460D01*
X0098474Y0027461D02*
X0096714Y0027461D01*
X0096894Y0026463D02*
X0098294Y0026463D01*
X0098294Y0025464D02*
X0096894Y0025464D01*
X0096894Y0024466D02*
X0098294Y0024466D01*
X0098545Y0023467D02*
X0096642Y0023467D01*
X0095644Y0022469D02*
X0099544Y0022469D01*
X0100542Y0021470D02*
X0094645Y0021470D01*
X0094097Y0020472D02*
X0100778Y0020472D01*
X0100778Y0020455D02*
X0100778Y0020455D01*
X0101760Y0019473D02*
X0093108Y0019473D01*
X0092125Y0018475D02*
X0102758Y0018475D01*
X0103756Y0017476D02*
X0091375Y0017476D01*
X0091375Y0016478D02*
X0104754Y0016478D01*
X0104377Y0016855D02*
X0104377Y0016855D01*
X0106177Y0017601D02*
X0102578Y0021201D01*
X0102578Y0025100D01*
X0102594Y0025500D01*
X0105715Y0028460D02*
X0105834Y0028460D01*
X0105834Y0029458D02*
X0104717Y0029458D01*
X0105778Y0030457D02*
X0089414Y0030457D01*
X0089414Y0029458D02*
X0090471Y0029458D01*
X0089473Y0028460D02*
X0089414Y0028460D01*
X0090333Y0031455D02*
X0090557Y0031455D01*
X0087614Y0031282D02*
X0091847Y0035514D01*
X0092594Y0035500D01*
X0089132Y0040442D02*
X0084694Y0040442D01*
X0084694Y0041440D02*
X0090130Y0041440D01*
X0091129Y0042439D02*
X0084694Y0042439D01*
X0084694Y0043437D02*
X0092127Y0043437D01*
X0093126Y0044436D02*
X0084694Y0044436D01*
X0084694Y0045434D02*
X0094124Y0045434D01*
X0095123Y0046433D02*
X0084694Y0046433D01*
X0084694Y0047432D02*
X0096121Y0047432D01*
X0097120Y0048430D02*
X0084694Y0048430D01*
X0084694Y0049429D02*
X0098118Y0049429D01*
X0099117Y0050427D02*
X0084694Y0050427D01*
X0084694Y0051426D02*
X0100115Y0051426D01*
X0101114Y0052424D02*
X0084694Y0052424D01*
X0084694Y0053423D02*
X0102112Y0053423D01*
X0103111Y0054421D02*
X0084694Y0054421D01*
X0084694Y0055420D02*
X0104109Y0055420D01*
X0105108Y0056418D02*
X0084694Y0056418D01*
X0084694Y0057417D02*
X0106106Y0057417D01*
X0107105Y0058415D02*
X0084694Y0058415D01*
X0084694Y0059414D02*
X0108103Y0059414D01*
X0107919Y0054421D02*
X0181796Y0054421D01*
X0181796Y0053423D02*
X0106921Y0053423D01*
X0104731Y0039443D02*
X0110456Y0039443D01*
X0109458Y0038445D02*
X0105730Y0038445D01*
X0106728Y0037446D02*
X0108459Y0037446D01*
X0108294Y0036448D02*
X0106894Y0036448D01*
X0106894Y0035449D02*
X0108294Y0035449D01*
X0108294Y0034451D02*
X0106894Y0034451D01*
X0107863Y0033452D02*
X0108560Y0033452D01*
X0108885Y0032454D02*
X0109559Y0032454D01*
X0109434Y0031455D02*
X0110557Y0031455D01*
X0109442Y0030457D02*
X0117457Y0030457D01*
X0117457Y0029458D02*
X0114717Y0029458D01*
X0115715Y0028460D02*
X0117457Y0028460D01*
X0117457Y0027461D02*
X0116714Y0027461D01*
X0116894Y0026463D02*
X0117987Y0026463D01*
X0116894Y0025464D02*
X0129690Y0025464D01*
X0129690Y0024466D02*
X0130659Y0024466D01*
X0130659Y0023467D02*
X0129690Y0023467D01*
X0129690Y0022469D02*
X0130659Y0022469D01*
X0130272Y0021470D02*
X0130116Y0021470D01*
X0130116Y0020472D02*
X0130272Y0020472D01*
X0130272Y0019473D02*
X0130116Y0019473D01*
X0130116Y0018475D02*
X0130272Y0018475D01*
X0130272Y0017476D02*
X0130116Y0017476D01*
X0130116Y0016478D02*
X0130272Y0016478D01*
X0130347Y0015479D02*
X0130041Y0015479D01*
X0130116Y0014481D02*
X0130272Y0014481D01*
X0130272Y0013482D02*
X0130116Y0013482D01*
X0130116Y0012484D02*
X0130272Y0012484D01*
X0130272Y0011485D02*
X0130116Y0011485D01*
X0130116Y0010487D02*
X0130272Y0010487D01*
X0130780Y0009488D02*
X0129608Y0009488D01*
X0126847Y0012700D02*
X0122442Y0012700D01*
X0117555Y0017601D01*
X0106177Y0017601D01*
X0106922Y0015801D02*
X0106922Y0015801D01*
X0110737Y0019558D02*
X0107634Y0022660D01*
X0107634Y0031160D01*
X0103194Y0035500D01*
X0102594Y0035500D01*
X0104630Y0031455D02*
X0104756Y0031455D01*
X0109434Y0029458D02*
X0110471Y0029458D01*
X0109473Y0028460D02*
X0109434Y0028460D01*
X0114630Y0031455D02*
X0116566Y0031455D01*
X0118611Y0034451D02*
X0126119Y0034451D01*
X0126119Y0033452D02*
X0119746Y0033452D01*
X0117476Y0035449D02*
X0125029Y0035449D01*
X0123852Y0036448D02*
X0116894Y0036448D01*
X0116728Y0037446D02*
X0122674Y0037446D01*
X0121496Y0038445D02*
X0120256Y0038445D01*
X0118097Y0038445D02*
X0115730Y0038445D01*
X0116709Y0039443D02*
X0114731Y0039443D01*
X0114694Y0035500D02*
X0112594Y0035500D01*
X0114694Y0035500D02*
X0121513Y0029500D01*
X0133296Y0029500D01*
X0136244Y0026154D01*
X0143444Y0032846D01*
X0146909Y0032454D02*
X0181796Y0032454D01*
X0181796Y0033452D02*
X0146909Y0033452D01*
X0146909Y0034451D02*
X0181796Y0034451D01*
X0181796Y0035449D02*
X0146813Y0035449D01*
X0146909Y0031455D02*
X0181796Y0031455D01*
X0181796Y0030457D02*
X0146909Y0030457D01*
X0146909Y0028460D02*
X0181796Y0028460D01*
X0181796Y0029458D02*
X0142443Y0029458D01*
X0143444Y0026154D02*
X0143444Y0017524D01*
X0143162Y0017806D01*
X0141131Y0015479D02*
X0140267Y0015479D01*
X0141311Y0014481D02*
X0181796Y0014481D01*
X0181796Y0015479D02*
X0145192Y0015479D01*
X0145946Y0016478D02*
X0181796Y0016478D01*
X0181796Y0017476D02*
X0146243Y0017476D01*
X0146220Y0018475D02*
X0181796Y0018475D01*
X0181796Y0019473D02*
X0145806Y0019473D01*
X0145244Y0020472D02*
X0181796Y0020472D01*
X0181796Y0021470D02*
X0145244Y0021470D01*
X0145244Y0022469D02*
X0181796Y0022469D01*
X0181796Y0023467D02*
X0146730Y0023467D01*
X0146909Y0024466D02*
X0181796Y0024466D01*
X0181796Y0025464D02*
X0146909Y0025464D01*
X0146909Y0026463D02*
X0181796Y0026463D01*
X0181796Y0027461D02*
X0146909Y0027461D01*
X0139978Y0032454D02*
X0139709Y0032454D01*
X0139709Y0033452D02*
X0139978Y0033452D01*
X0139978Y0034451D02*
X0139709Y0034451D01*
X0139613Y0035449D02*
X0140074Y0035449D01*
X0133530Y0036448D02*
X0181796Y0036448D01*
X0181796Y0037446D02*
X0129740Y0037446D01*
X0128562Y0038445D02*
X0181796Y0038445D01*
X0181796Y0039443D02*
X0127384Y0039443D01*
X0126206Y0040442D02*
X0181796Y0040442D01*
X0181796Y0041440D02*
X0125028Y0041440D01*
X0123850Y0042439D02*
X0181796Y0042439D01*
X0181796Y0043437D02*
X0122748Y0043437D01*
X0125122Y0032454D02*
X0126119Y0032454D01*
X0126119Y0031455D02*
X0125569Y0031455D01*
X0125569Y0027461D02*
X0125919Y0027461D01*
X0125919Y0026463D02*
X0125039Y0026463D01*
X0125919Y0024466D02*
X0116894Y0024466D01*
X0116642Y0023467D02*
X0125953Y0023467D01*
X0124244Y0022469D02*
X0115644Y0022469D01*
X0114645Y0021470D02*
X0123579Y0021470D01*
X0123579Y0020472D02*
X0120490Y0020472D01*
X0118859Y0019558D02*
X0119894Y0018522D01*
X0126335Y0018522D01*
X0126847Y0019100D01*
X0133540Y0019100D02*
X0133815Y0018825D01*
X0138520Y0018825D01*
X0138670Y0012806D02*
X0133646Y0012806D01*
X0133540Y0012700D01*
X0136301Y0009488D02*
X0181796Y0009488D01*
X0181796Y0008490D02*
X0088572Y0008490D01*
X0089570Y0009488D02*
X0124087Y0009488D01*
X0123579Y0010487D02*
X0090569Y0010487D01*
X0091375Y0011485D02*
X0121111Y0011485D01*
X0120115Y0012484D02*
X0091375Y0012484D01*
X0091375Y0013482D02*
X0119120Y0013482D01*
X0118124Y0014481D02*
X0091375Y0014481D01*
X0091375Y0015479D02*
X0117128Y0015479D01*
X0118859Y0019558D02*
X0110737Y0019558D01*
X0092578Y0021500D02*
X0089575Y0018451D01*
X0089575Y0012038D01*
X0086264Y0008727D01*
X0044548Y0008727D01*
X0043855Y0009420D01*
X0044839Y0006493D02*
X0181796Y0006493D01*
X0181796Y0007491D02*
X0087573Y0007491D01*
X0084996Y0010810D02*
X0087614Y0013428D01*
X0087614Y0031282D01*
X0087135Y0038445D02*
X0085730Y0038445D01*
X0084731Y0039443D02*
X0088133Y0039443D01*
X0081294Y0040442D02*
X0079198Y0040442D01*
X0079198Y0041440D02*
X0081294Y0041440D01*
X0081294Y0042439D02*
X0078467Y0042439D01*
X0077469Y0043437D02*
X0081294Y0043437D01*
X0081294Y0044436D02*
X0072958Y0044436D01*
X0072824Y0045434D02*
X0081294Y0045434D01*
X0081294Y0046433D02*
X0078434Y0046433D01*
X0079125Y0047432D02*
X0081294Y0047432D01*
X0081294Y0048430D02*
X0079377Y0048430D01*
X0079309Y0049429D02*
X0081294Y0049429D01*
X0081294Y0050427D02*
X0078877Y0050427D01*
X0078600Y0051426D02*
X0081294Y0051426D01*
X0081294Y0052424D02*
X0078607Y0052424D01*
X0078614Y0053423D02*
X0081294Y0053423D01*
X0081294Y0054421D02*
X0078621Y0054421D01*
X0078628Y0055420D02*
X0081294Y0055420D01*
X0081294Y0056418D02*
X0078635Y0056418D01*
X0078642Y0057417D02*
X0081294Y0057417D01*
X0081294Y0058415D02*
X0078649Y0058415D01*
X0078656Y0059414D02*
X0081294Y0059414D01*
X0081294Y0060412D02*
X0078664Y0060412D01*
X0078671Y0061411D02*
X0080538Y0061411D01*
X0079262Y0062409D02*
X0078678Y0062409D01*
X0078685Y0063408D02*
X0078811Y0063408D01*
X0078729Y0064406D02*
X0078692Y0064406D01*
X0078699Y0065405D02*
X0078966Y0065405D01*
X0078706Y0066403D02*
X0079637Y0066403D01*
X0078713Y0067402D02*
X0086894Y0067402D01*
X0086894Y0068400D02*
X0078720Y0068400D01*
X0079659Y0069399D02*
X0086894Y0069399D01*
X0086693Y0070397D02*
X0079731Y0070397D01*
X0079731Y0071396D02*
X0086157Y0071396D01*
X0086014Y0072394D02*
X0079731Y0072394D01*
X0079731Y0073393D02*
X0086192Y0073393D01*
X0086778Y0074391D02*
X0079731Y0074391D01*
X0079522Y0075390D02*
X0088378Y0075390D01*
X0089813Y0075390D02*
X0166034Y0075390D01*
X0176976Y0075390D02*
X0181796Y0075390D01*
X0181796Y0076388D02*
X0177974Y0076388D01*
X0178491Y0077387D02*
X0181796Y0077387D01*
X0181796Y0078385D02*
X0178805Y0078385D01*
X0178805Y0079384D02*
X0181796Y0079384D01*
X0181796Y0080382D02*
X0178586Y0080382D01*
X0178173Y0081381D02*
X0181796Y0081381D01*
X0181796Y0082379D02*
X0177207Y0082379D01*
X0176961Y0085375D02*
X0181796Y0085375D01*
X0181796Y0086373D02*
X0177959Y0086373D01*
X0178485Y0087372D02*
X0181796Y0087372D01*
X0181796Y0088370D02*
X0178805Y0088370D01*
X0178805Y0089369D02*
X0181796Y0089369D01*
X0181796Y0090368D02*
X0178593Y0090368D01*
X0178179Y0091366D02*
X0181796Y0091366D01*
X0181796Y0092365D02*
X0177221Y0092365D01*
X0176946Y0095360D02*
X0181796Y0095360D01*
X0181796Y0094362D02*
X0091907Y0094362D01*
X0091046Y0093363D02*
X0181796Y0093363D01*
X0181796Y0096359D02*
X0177945Y0096359D01*
X0178479Y0097357D02*
X0181796Y0097357D01*
X0181796Y0098356D02*
X0178805Y0098356D01*
X0178805Y0099354D02*
X0181796Y0099354D01*
X0181796Y0100353D02*
X0178599Y0100353D01*
X0178185Y0101351D02*
X0181796Y0101351D01*
X0181796Y0102350D02*
X0177236Y0102350D01*
X0172005Y0105345D02*
X0171005Y0105345D01*
X0171005Y0106344D02*
X0172005Y0106344D01*
X0172005Y0107342D02*
X0171005Y0107342D01*
X0171005Y0108341D02*
X0172005Y0108341D01*
X0181796Y0084376D02*
X0080128Y0084376D01*
X0080128Y0083378D02*
X0088180Y0083378D01*
X0089711Y0083378D02*
X0181796Y0083378D01*
X0181796Y0074391D02*
X0091413Y0074391D01*
X0091999Y0073393D02*
X0181796Y0073393D01*
X0181796Y0072394D02*
X0177192Y0072394D01*
X0178167Y0071396D02*
X0181796Y0071396D01*
X0181796Y0070397D02*
X0178580Y0070397D01*
X0178805Y0069399D02*
X0181796Y0069399D01*
X0181796Y0068400D02*
X0178805Y0068400D01*
X0178497Y0067402D02*
X0181796Y0067402D01*
X0181796Y0066403D02*
X0177989Y0066403D01*
X0176991Y0065405D02*
X0181796Y0065405D01*
X0181796Y0062409D02*
X0177177Y0062409D01*
X0178161Y0061411D02*
X0181796Y0061411D01*
X0181796Y0060412D02*
X0178574Y0060412D01*
X0178805Y0059414D02*
X0181796Y0059414D01*
X0181796Y0058415D02*
X0178805Y0058415D01*
X0178503Y0057417D02*
X0181796Y0057417D01*
X0181796Y0056418D02*
X0178004Y0056418D01*
X0177006Y0055420D02*
X0181796Y0055420D01*
X0181796Y0052424D02*
X0177162Y0052424D01*
X0178154Y0051426D02*
X0181796Y0051426D01*
X0181796Y0050427D02*
X0178568Y0050427D01*
X0178805Y0049429D02*
X0181796Y0049429D01*
X0181796Y0048430D02*
X0178805Y0048430D01*
X0178509Y0047432D02*
X0181796Y0047432D01*
X0181796Y0046433D02*
X0178019Y0046433D01*
X0181796Y0013482D02*
X0141724Y0013482D01*
X0141751Y0012484D02*
X0181796Y0012484D01*
X0181796Y0011485D02*
X0141458Y0011485D01*
X0140708Y0010487D02*
X0181796Y0010487D01*
X0181796Y0005494D02*
X0003694Y0005494D01*
X0003694Y0004496D02*
X0181796Y0004496D01*
X0181796Y0003497D02*
X0003694Y0003497D01*
X0003694Y0006493D02*
X0042870Y0006493D01*
X0041426Y0007491D02*
X0003694Y0007491D01*
X0003694Y0008490D02*
X0040905Y0008490D01*
X0040774Y0009488D02*
X0003694Y0009488D01*
X0003694Y0010487D02*
X0040361Y0010487D01*
X0038758Y0011485D02*
X0003694Y0011485D01*
X0003694Y0012484D02*
X0038171Y0012484D01*
X0037994Y0013482D02*
X0003694Y0013482D01*
X0003694Y0014481D02*
X0038135Y0014481D01*
X0038671Y0015479D02*
X0003694Y0015479D01*
X0003694Y0016478D02*
X0040150Y0016478D01*
X0042000Y0016478D02*
X0050419Y0016478D01*
X0050415Y0017476D02*
X0003694Y0017476D01*
X0003694Y0018475D02*
X0050730Y0018475D01*
X0051511Y0019473D02*
X0003694Y0019473D01*
X0003694Y0020472D02*
X0054321Y0020472D01*
X0054998Y0021148D02*
X0054998Y0021148D01*
X0055319Y0021470D02*
X0054645Y0021470D01*
X0055644Y0022469D02*
X0059544Y0022469D01*
X0058545Y0023467D02*
X0056642Y0023467D01*
X0056894Y0024466D02*
X0058294Y0024466D01*
X0058294Y0025464D02*
X0056894Y0025464D01*
X0056894Y0026463D02*
X0058294Y0026463D01*
X0058474Y0027461D02*
X0057175Y0027461D01*
X0058208Y0028460D02*
X0059473Y0028460D01*
X0059218Y0029458D02*
X0060471Y0029458D01*
X0059263Y0030457D02*
X0064983Y0030457D01*
X0064630Y0031455D02*
X0065874Y0031455D01*
X0065874Y0032454D02*
X0065629Y0032454D01*
X0067674Y0030610D02*
X0067674Y0039983D01*
X0064611Y0043046D01*
X0064611Y0055959D01*
X0065918Y0057266D01*
X0065918Y0060904D01*
X0062280Y0064542D01*
X0062280Y0069156D01*
X0062280Y0074711D01*
X0061268Y0075709D01*
X0059502Y0075709D01*
X0059502Y0078858D02*
X0069769Y0078574D01*
X0069769Y0072174D01*
X0073038Y0072394D02*
X0073194Y0072394D01*
X0073194Y0071396D02*
X0073038Y0071396D01*
X0073038Y0070397D02*
X0073194Y0070397D01*
X0073265Y0069399D02*
X0072967Y0069399D01*
X0074151Y0068400D02*
X0065302Y0068400D01*
X0065361Y0069399D02*
X0066572Y0069399D01*
X0066501Y0070397D02*
X0065100Y0070397D01*
X0064397Y0071396D02*
X0066501Y0071396D01*
X0066501Y0072394D02*
X0064080Y0072394D01*
X0064080Y0073393D02*
X0066501Y0073393D01*
X0066501Y0074391D02*
X0064082Y0074391D01*
X0064080Y0075390D02*
X0066981Y0075390D01*
X0066304Y0076388D02*
X0063302Y0076388D01*
X0059502Y0082008D02*
X0051437Y0082022D01*
X0051146Y0082325D01*
X0053451Y0084376D02*
X0055702Y0084376D01*
X0059502Y0085157D02*
X0069769Y0084974D01*
X0066304Y0087372D02*
X0063502Y0087372D01*
X0063502Y0088370D02*
X0073831Y0088370D01*
X0073465Y0090368D02*
X0083931Y0090368D01*
X0083161Y0089369D02*
X0063502Y0089369D01*
X0065874Y0103152D02*
X0064760Y0104000D01*
X0064760Y0106156D01*
X0063213Y0107703D01*
X0055469Y0107703D01*
X0053609Y0105844D01*
X0053625Y0103632D01*
X0050476Y0103632D02*
X0050459Y0097702D01*
X0046603Y0095467D02*
X0048630Y0093428D01*
X0051906Y0093428D01*
X0047147Y0092365D02*
X0044119Y0092365D01*
X0044119Y0093363D02*
X0044350Y0093363D01*
X0041027Y0098591D02*
X0041027Y0103632D01*
X0041011Y0113390D01*
X0038178Y0116223D01*
X0038194Y0118154D01*
X0037276Y0112384D02*
X0037861Y0111799D01*
X0037877Y0103632D01*
X0034728Y0103632D02*
X0034694Y0110169D01*
X0032701Y0112180D01*
X0030495Y0114332D02*
X0013430Y0114332D01*
X0013430Y0115330D02*
X0028473Y0115330D01*
X0028325Y0116329D02*
X0013430Y0116329D01*
X0013430Y0117327D02*
X0028325Y0117327D01*
X0028325Y0119324D02*
X0013430Y0119324D01*
X0013430Y0118326D02*
X0031309Y0118326D01*
X0028325Y0120323D02*
X0013430Y0120323D01*
X0013609Y0121321D02*
X0028706Y0121321D01*
X0028525Y0122320D02*
X0014607Y0122320D01*
X0012140Y0126314D02*
X0003694Y0126314D01*
X0003694Y0127312D02*
X0028525Y0127312D01*
X0029286Y0128311D02*
X0003694Y0128311D01*
X0003694Y0129309D02*
X0034152Y0129309D01*
X0032278Y0130308D02*
X0031310Y0130308D01*
X0031310Y0131306D02*
X0032278Y0131306D01*
X0032278Y0132305D02*
X0031310Y0132305D01*
X0031309Y0133303D02*
X0026898Y0133303D01*
X0026898Y0132305D02*
X0028325Y0132305D01*
X0028325Y0131306D02*
X0026705Y0131306D01*
X0028601Y0130308D02*
X0003694Y0130308D01*
X0003694Y0131306D02*
X0011894Y0131306D01*
X0011700Y0132305D02*
X0003694Y0132305D01*
X0003694Y0133303D02*
X0011700Y0133303D01*
X0011850Y0134302D02*
X0003694Y0134302D01*
X0003694Y0135301D02*
X0011658Y0135301D01*
X0011500Y0136299D02*
X0003694Y0136299D01*
X0003694Y0137298D02*
X0011500Y0137298D01*
X0011699Y0138296D02*
X0003694Y0138296D01*
X0003694Y0139295D02*
X0011780Y0139295D01*
X0011700Y0140293D02*
X0003694Y0140293D01*
X0003694Y0141292D02*
X0011700Y0141292D01*
X0011964Y0142290D02*
X0003694Y0142290D01*
X0003694Y0143289D02*
X0013104Y0143289D01*
X0013626Y0144287D02*
X0003694Y0144287D01*
X0003694Y0145286D02*
X0013626Y0145286D01*
X0013626Y0146284D02*
X0003694Y0146284D01*
X0003694Y0147283D02*
X0013577Y0147283D01*
X0014417Y0148281D02*
X0003694Y0148281D01*
X0003694Y0149280D02*
X0015279Y0149280D01*
X0016761Y0150544D02*
X0017081Y0150864D01*
X0017081Y0152623D01*
X0017179Y0152792D01*
X0017281Y0153173D01*
X0017281Y0153931D01*
X0014403Y0153931D01*
X0014403Y0153932D01*
X0017281Y0153932D01*
X0017281Y0154690D01*
X0017189Y0155033D01*
X0017343Y0155190D01*
X0017342Y0155212D01*
X0018221Y0156152D01*
X0018221Y0153272D01*
X0018124Y0153103D01*
X0018021Y0152721D01*
X0018021Y0151963D01*
X0020899Y0151963D01*
X0020899Y0151963D01*
X0018021Y0151963D01*
X0018021Y0151205D01*
X0018124Y0150823D01*
X0018285Y0150544D01*
X0017863Y0150544D01*
X0017805Y0150594D01*
X0017128Y0150544D01*
X0016761Y0150544D01*
X0017081Y0151277D02*
X0018021Y0151277D01*
X0018021Y0152275D02*
X0017081Y0152275D01*
X0017281Y0153274D02*
X0018221Y0153274D01*
X0018221Y0154272D02*
X0017281Y0154272D01*
X0017397Y0155271D02*
X0018221Y0155271D01*
X0020293Y0156500D02*
X0020899Y0155900D01*
X0020293Y0156500D02*
X0020293Y0157078D01*
X0022194Y0158940D01*
X0022154Y0162585D01*
X0017307Y0161081D02*
X0017194Y0157688D01*
X0015534Y0155914D01*
X0014403Y0155900D01*
X0015270Y0158266D02*
X0003694Y0158266D01*
X0003694Y0157268D02*
X0011994Y0157268D01*
X0011725Y0156269D02*
X0003694Y0156269D01*
X0003694Y0155271D02*
X0011725Y0155271D01*
X0011525Y0154272D02*
X0003694Y0154272D01*
X0003694Y0153274D02*
X0011525Y0153274D01*
X0011725Y0152275D02*
X0003694Y0152275D01*
X0003694Y0151277D02*
X0011725Y0151277D01*
X0012311Y0150278D02*
X0003694Y0150278D01*
X0003694Y0159265D02*
X0014765Y0159265D01*
X0014310Y0160263D02*
X0003694Y0160263D01*
X0003694Y0161262D02*
X0012574Y0161262D01*
X0013853Y0161262D02*
X0014226Y0161262D01*
X0010928Y0162260D02*
X0003694Y0162260D01*
X0003694Y0163259D02*
X0010323Y0163259D01*
X0010132Y0164257D02*
X0003694Y0164257D01*
X0003694Y0165256D02*
X0010261Y0165256D01*
X0010779Y0166254D02*
X0003694Y0166254D01*
X0003694Y0167253D02*
X0010696Y0167253D01*
X0010283Y0168251D02*
X0003694Y0168251D01*
X0003694Y0169250D02*
X0010258Y0169250D01*
X0010554Y0170248D02*
X0003694Y0170248D01*
X0003694Y0171247D02*
X0011306Y0171247D01*
X0015373Y0171247D02*
X0023317Y0171247D01*
X0023402Y0170248D02*
X0016125Y0170248D01*
X0020699Y0174242D02*
X0003694Y0174242D01*
X0003694Y0173244D02*
X0021661Y0173244D01*
X0022718Y0172245D02*
X0003694Y0172245D01*
X0003694Y0175241D02*
X0020692Y0175241D01*
X0020699Y0176239D02*
X0003694Y0176239D01*
X0003694Y0177238D02*
X0020699Y0177238D01*
X0020699Y0178237D02*
X0003694Y0178237D01*
X0003694Y0179235D02*
X0020699Y0179235D01*
X0020699Y0180234D02*
X0003694Y0180234D01*
X0003694Y0181232D02*
X0020306Y0181232D01*
X0019280Y0182231D02*
X0003694Y0182231D01*
X0003694Y0183229D02*
X0018813Y0183229D01*
X0018611Y0184228D02*
X0003694Y0184228D01*
X0003694Y0185226D02*
X0018611Y0185226D01*
X0019023Y0186225D02*
X0003694Y0186225D01*
X0003694Y0187223D02*
X0019787Y0187223D01*
X0021530Y0188222D02*
X0003694Y0188222D01*
X0003694Y0189220D02*
X0021277Y0189220D01*
X0019729Y0190219D02*
X0003694Y0190219D01*
X0003694Y0191217D02*
X0019047Y0191217D01*
X0018692Y0192216D02*
X0003694Y0192216D01*
X0003694Y0193214D02*
X0018692Y0193214D01*
X0018952Y0194213D02*
X0003694Y0194213D01*
X0003694Y0195211D02*
X0019500Y0195211D01*
X0020722Y0196210D02*
X0003694Y0196210D01*
X0003694Y0197208D02*
X0037593Y0197208D01*
X0037593Y0198207D02*
X0003694Y0198207D01*
X0003694Y0199205D02*
X0019359Y0199205D01*
X0019749Y0198816D02*
X0020881Y0198347D01*
X0022107Y0198347D01*
X0023239Y0198816D01*
X0024106Y0199682D01*
X0024575Y0200815D01*
X0024575Y0202041D01*
X0024106Y0203173D01*
X0023239Y0204040D01*
X0022107Y0204509D01*
X0020881Y0204509D01*
X0019749Y0204040D01*
X0018882Y0203173D01*
X0018413Y0202041D01*
X0018413Y0200815D01*
X0018882Y0199682D01*
X0019749Y0198816D01*
X0018666Y0200204D02*
X0003694Y0200204D01*
X0003694Y0201202D02*
X0018413Y0201202D01*
X0018479Y0202201D02*
X0003694Y0202201D01*
X0003694Y0203199D02*
X0018908Y0203199D01*
X0020130Y0204198D02*
X0003694Y0204198D01*
X0003694Y0205196D02*
X0036815Y0205196D01*
X0036815Y0206195D02*
X0003694Y0206195D01*
X0003694Y0207193D02*
X0036815Y0207193D01*
X0036815Y0208192D02*
X0003694Y0208192D01*
X0003694Y0209190D02*
X0036815Y0209190D01*
X0036815Y0210189D02*
X0003694Y0210189D01*
X0003694Y0211187D02*
X0036815Y0211187D01*
X0036815Y0212186D02*
X0003694Y0212186D01*
X0003694Y0213184D02*
X0037076Y0213184D01*
X0037517Y0214183D02*
X0003694Y0214183D01*
X0003694Y0215181D02*
X0038515Y0215181D01*
X0043715Y0215181D02*
X0048515Y0215181D01*
X0047517Y0214183D02*
X0044713Y0214183D01*
X0045155Y0213184D02*
X0047076Y0213184D01*
X0046815Y0212186D02*
X0045415Y0212186D01*
X0045415Y0211187D02*
X0046815Y0211187D01*
X0046815Y0210189D02*
X0045415Y0210189D01*
X0045415Y0209190D02*
X0046815Y0209190D01*
X0046815Y0208192D02*
X0045415Y0208192D01*
X0045415Y0207193D02*
X0046815Y0207193D01*
X0046815Y0206195D02*
X0045415Y0206195D01*
X0045415Y0205196D02*
X0046815Y0205196D01*
X0047083Y0204198D02*
X0045147Y0204198D01*
X0044695Y0203199D02*
X0047535Y0203199D01*
X0048533Y0202201D02*
X0043697Y0202201D01*
X0043193Y0201202D02*
X0051195Y0201202D01*
X0050146Y0200204D02*
X0050147Y0200204D01*
X0050146Y0199205D02*
X0050147Y0199205D01*
X0050146Y0198207D02*
X0050147Y0198207D01*
X0050146Y0197208D02*
X0050147Y0197208D01*
X0050146Y0196210D02*
X0050147Y0196210D01*
X0050146Y0195211D02*
X0050147Y0195211D01*
X0050146Y0194213D02*
X0050147Y0194213D01*
X0049128Y0194213D02*
X0045259Y0194213D01*
X0044241Y0194213D02*
X0044241Y0194213D01*
X0044241Y0194154D02*
X0044241Y0197238D01*
X0044241Y0200322D01*
X0044241Y0197238D01*
X0044241Y0197238D01*
X0046341Y0197238D01*
X0044241Y0197238D01*
X0044241Y0197238D01*
X0044241Y0197238D01*
X0044241Y0194154D01*
X0044241Y0195211D02*
X0044241Y0195211D01*
X0044241Y0196210D02*
X0044241Y0196210D01*
X0044241Y0197208D02*
X0044241Y0197208D01*
X0044241Y0198207D02*
X0044241Y0198207D01*
X0044241Y0199205D02*
X0044241Y0199205D01*
X0044241Y0200204D02*
X0044241Y0200204D01*
X0045448Y0200204D02*
X0048940Y0200204D01*
X0048096Y0199205D02*
X0046291Y0199205D01*
X0046341Y0198207D02*
X0048047Y0198207D01*
X0048047Y0197208D02*
X0046341Y0197208D01*
X0046341Y0196210D02*
X0048047Y0196210D01*
X0048112Y0195211D02*
X0046275Y0195211D01*
X0046694Y0192216D02*
X0047694Y0192216D01*
X0047694Y0191217D02*
X0046694Y0191217D01*
X0046694Y0190219D02*
X0047694Y0190219D01*
X0047694Y0189220D02*
X0046694Y0189220D01*
X0046694Y0188222D02*
X0047694Y0188222D01*
X0047694Y0187223D02*
X0046694Y0187223D01*
X0046694Y0186000D02*
X0047694Y0186000D01*
X0047694Y0180197D01*
X0051110Y0180197D01*
X0051110Y0178802D01*
X0050944Y0178846D01*
X0050147Y0178846D01*
X0050147Y0175762D01*
X0050147Y0172678D01*
X0050944Y0172678D01*
X0051326Y0172780D01*
X0051668Y0172978D01*
X0051947Y0173257D01*
X0052144Y0173599D01*
X0052247Y0173980D01*
X0052247Y0175742D01*
X0056117Y0175742D01*
X0056879Y0176503D01*
X0056879Y0178811D01*
X0058094Y0177596D01*
X0058094Y0175196D01*
X0060579Y0172711D01*
X0060579Y0168796D01*
X0061340Y0168035D01*
X0065255Y0168035D01*
X0074094Y0159196D01*
X0074094Y0156624D01*
X0073996Y0156722D01*
X0073996Y0157871D01*
X0073527Y0159003D01*
X0072660Y0159870D01*
X0071527Y0160339D01*
X0070302Y0160339D01*
X0069918Y0160180D01*
X0066098Y0164000D01*
X0042898Y0164000D01*
X0041363Y0165535D01*
X0043854Y0165535D01*
X0044616Y0166296D01*
X0044616Y0166473D01*
X0044674Y0166256D01*
X0044871Y0165914D01*
X0045151Y0165634D01*
X0045493Y0165437D01*
X0045874Y0165335D01*
X0047556Y0165335D01*
X0047556Y0168516D01*
X0048525Y0168516D01*
X0048525Y0169484D01*
X0051509Y0169484D01*
X0051509Y0171363D01*
X0051407Y0171744D01*
X0051209Y0172086D01*
X0050930Y0172366D01*
X0050588Y0172563D01*
X0050206Y0172665D01*
X0048525Y0172665D01*
X0048525Y0169484D01*
X0047556Y0169484D01*
X0047556Y0172665D01*
X0045874Y0172665D01*
X0045493Y0172563D01*
X0045151Y0172366D01*
X0044871Y0172086D01*
X0044674Y0171744D01*
X0044616Y0171527D01*
X0044616Y0171704D01*
X0043854Y0172465D01*
X0042294Y0172465D01*
X0042294Y0173511D01*
X0042441Y0173257D01*
X0042720Y0172978D01*
X0043062Y0172780D01*
X0043444Y0172678D01*
X0044241Y0172678D01*
X0044241Y0175762D01*
X0044241Y0175762D01*
X0044241Y0172678D01*
X0045039Y0172678D01*
X0045420Y0172780D01*
X0045762Y0172978D01*
X0046041Y0173257D01*
X0046239Y0173599D01*
X0046341Y0173980D01*
X0046341Y0175762D01*
X0044241Y0175762D01*
X0044241Y0175762D01*
X0046341Y0175762D01*
X0046341Y0177544D01*
X0046239Y0177925D01*
X0046041Y0178267D01*
X0045762Y0178547D01*
X0045420Y0178744D01*
X0045039Y0178846D01*
X0044241Y0178846D01*
X0044241Y0175762D01*
X0044241Y0178846D01*
X0043444Y0178846D01*
X0043277Y0178802D01*
X0043277Y0180197D01*
X0046694Y0180197D01*
X0046694Y0186000D01*
X0046694Y0185226D02*
X0047694Y0185226D01*
X0047694Y0184228D02*
X0046694Y0184228D01*
X0046694Y0183229D02*
X0047694Y0183229D01*
X0047694Y0182231D02*
X0046694Y0182231D01*
X0046694Y0181232D02*
X0047694Y0181232D01*
X0047694Y0180234D02*
X0046694Y0180234D01*
X0046059Y0178237D02*
X0048328Y0178237D01*
X0048346Y0178267D02*
X0048149Y0177925D01*
X0048047Y0177544D01*
X0048047Y0175762D01*
X0048047Y0173980D01*
X0048149Y0173599D01*
X0048346Y0173257D01*
X0048626Y0172978D01*
X0048968Y0172780D01*
X0049349Y0172678D01*
X0050146Y0172678D01*
X0050146Y0175762D01*
X0048047Y0175762D01*
X0050146Y0175762D01*
X0050146Y0175762D01*
X0050147Y0175762D01*
X0050146Y0175762D01*
X0050146Y0178846D01*
X0049349Y0178846D01*
X0048968Y0178744D01*
X0048626Y0178547D01*
X0048346Y0178267D01*
X0048047Y0177238D02*
X0046341Y0177238D01*
X0046341Y0176239D02*
X0048047Y0176239D01*
X0048047Y0175241D02*
X0046341Y0175241D01*
X0046341Y0174242D02*
X0048047Y0174242D01*
X0048359Y0173244D02*
X0046028Y0173244D01*
X0045031Y0172245D02*
X0044074Y0172245D01*
X0044241Y0173244D02*
X0044241Y0173244D01*
X0044241Y0174242D02*
X0044241Y0174242D01*
X0044241Y0175241D02*
X0044241Y0175241D01*
X0044241Y0175762D02*
X0044241Y0175762D01*
X0044241Y0176239D02*
X0044241Y0176239D01*
X0044241Y0177238D02*
X0044241Y0177238D01*
X0044241Y0178237D02*
X0044241Y0178237D01*
X0043277Y0179235D02*
X0051110Y0179235D01*
X0050147Y0178237D02*
X0050146Y0178237D01*
X0050146Y0177238D02*
X0050147Y0177238D01*
X0050146Y0176239D02*
X0050147Y0176239D01*
X0050146Y0175241D02*
X0050147Y0175241D01*
X0050146Y0174242D02*
X0050147Y0174242D01*
X0050146Y0173244D02*
X0050147Y0173244D01*
X0051050Y0172245D02*
X0060579Y0172245D01*
X0060579Y0171247D02*
X0051509Y0171247D01*
X0051509Y0170248D02*
X0060579Y0170248D01*
X0060579Y0169250D02*
X0048525Y0169250D01*
X0048525Y0168516D02*
X0051509Y0168516D01*
X0051509Y0166637D01*
X0051407Y0166256D01*
X0051209Y0165914D01*
X0050930Y0165634D01*
X0050588Y0165437D01*
X0050206Y0165335D01*
X0048525Y0165335D01*
X0048525Y0168516D01*
X0048525Y0168251D02*
X0047556Y0168251D01*
X0047556Y0167253D02*
X0048525Y0167253D01*
X0048525Y0166254D02*
X0047556Y0166254D01*
X0044675Y0166254D02*
X0044574Y0166254D01*
X0042641Y0164257D02*
X0069032Y0164257D01*
X0070031Y0163259D02*
X0066839Y0163259D01*
X0067838Y0162260D02*
X0071029Y0162260D01*
X0072028Y0161262D02*
X0068836Y0161262D01*
X0069835Y0160263D02*
X0070119Y0160263D01*
X0071710Y0160263D02*
X0073026Y0160263D01*
X0073265Y0159265D02*
X0074025Y0159265D01*
X0074094Y0158266D02*
X0073832Y0158266D01*
X0073996Y0157268D02*
X0074094Y0157268D01*
X0073395Y0154778D02*
X0070914Y0157258D01*
X0067989Y0156269D02*
X0058459Y0156269D01*
X0058459Y0155939D02*
X0058459Y0160600D01*
X0064690Y0160600D01*
X0067833Y0157456D01*
X0067833Y0156645D01*
X0068302Y0155513D01*
X0069169Y0154646D01*
X0070302Y0154177D01*
X0070394Y0154177D01*
X0070394Y0147246D01*
X0067894Y0144746D01*
X0067894Y0135754D01*
X0068948Y0134700D01*
X0076618Y0127030D01*
X0076094Y0127030D01*
X0075941Y0127183D01*
X0072609Y0127183D01*
X0070284Y0129507D01*
X0069741Y0130156D01*
X0069626Y0130166D01*
X0069544Y0130247D01*
X0068698Y0130247D01*
X0068670Y0130250D01*
X0068152Y0130768D01*
X0067020Y0131237D01*
X0065794Y0131237D01*
X0064662Y0130768D01*
X0063862Y0129968D01*
X0063296Y0129968D01*
X0062366Y0129982D01*
X0062352Y0129968D01*
X0062333Y0129968D01*
X0061676Y0129311D01*
X0060269Y0127943D01*
X0059901Y0128312D01*
X0054887Y0128312D01*
X0054194Y0127619D01*
X0053698Y0128115D01*
X0048290Y0128115D01*
X0047794Y0127619D01*
X0047298Y0128115D01*
X0041890Y0128115D01*
X0041394Y0127619D01*
X0040898Y0128115D01*
X0038721Y0128115D01*
X0038721Y0132262D01*
X0038770Y0132213D01*
X0039903Y0131744D01*
X0041051Y0131744D01*
X0041081Y0131714D01*
X0041756Y0131714D01*
X0042925Y0131622D01*
X0042925Y0129875D01*
X0043687Y0129113D01*
X0048701Y0129113D01*
X0049462Y0129875D01*
X0049462Y0136464D01*
X0048701Y0137225D01*
X0043687Y0137225D01*
X0043080Y0136618D01*
X0042261Y0137437D01*
X0041445Y0137775D01*
X0044961Y0137775D01*
X0045722Y0138536D01*
X0045722Y0145125D01*
X0044961Y0145887D01*
X0039947Y0145887D01*
X0039185Y0145125D01*
X0039185Y0144115D01*
X0038748Y0144115D01*
X0037986Y0143353D01*
X0034993Y0143353D01*
X0034993Y0152246D01*
X0034993Y0153193D01*
X0034993Y0154138D01*
X0034993Y0154138D01*
X0034993Y0154138D01*
X0034298Y0154833D01*
X0033655Y0155476D01*
X0033655Y0155476D01*
X0030262Y0158868D01*
X0030262Y0160350D01*
X0029501Y0161112D01*
X0028965Y0161112D01*
X0029502Y0161649D01*
X0029526Y0161591D01*
X0030393Y0160724D01*
X0031526Y0160255D01*
X0032751Y0160255D01*
X0033884Y0160724D01*
X0034750Y0161591D01*
X0035220Y0162723D01*
X0035220Y0163949D01*
X0034750Y0165081D01*
X0033884Y0165948D01*
X0032751Y0166417D01*
X0031681Y0166417D01*
X0029494Y0168604D01*
X0028894Y0169204D01*
X0029010Y0169320D01*
X0029480Y0170452D01*
X0029480Y0171182D01*
X0033494Y0175196D01*
X0033494Y0176604D01*
X0033494Y0178561D01*
X0033589Y0178697D01*
X0033494Y0179246D01*
X0033494Y0179804D01*
X0033377Y0179921D01*
X0033136Y0181310D01*
X0034081Y0180919D01*
X0035307Y0180919D01*
X0035694Y0181079D01*
X0035694Y0166396D01*
X0040494Y0161596D01*
X0041490Y0160600D01*
X0051528Y0160600D01*
X0051528Y0160152D01*
X0048948Y0160152D01*
X0048898Y0160102D01*
X0047999Y0160102D01*
X0046945Y0159047D01*
X0046945Y0148239D01*
X0048010Y0147174D01*
X0049064Y0146120D01*
X0058175Y0146120D01*
X0058989Y0145306D01*
X0058989Y0144157D01*
X0059458Y0143025D01*
X0060325Y0142158D01*
X0061457Y0141689D01*
X0062683Y0141689D01*
X0063815Y0142158D01*
X0064682Y0143025D01*
X0065151Y0144157D01*
X0065151Y0145383D01*
X0064682Y0146515D01*
X0063815Y0147382D01*
X0062683Y0147851D01*
X0061535Y0147851D01*
X0059917Y0149469D01*
X0064699Y0149469D01*
X0065823Y0149004D01*
X0067049Y0149004D01*
X0068181Y0149473D01*
X0069048Y0150339D01*
X0069517Y0151472D01*
X0069517Y0152698D01*
X0069048Y0153830D01*
X0068181Y0154697D01*
X0067049Y0155166D01*
X0065823Y0155166D01*
X0064691Y0154697D01*
X0064032Y0154038D01*
X0058459Y0154038D01*
X0058459Y0154261D01*
X0057698Y0155022D01*
X0052290Y0155022D01*
X0051528Y0154261D01*
X0051528Y0149720D01*
X0050555Y0149720D01*
X0050545Y0149730D01*
X0050545Y0156552D01*
X0051227Y0156552D01*
X0051251Y0156530D01*
X0051528Y0156538D01*
X0051528Y0155939D01*
X0052290Y0155178D01*
X0057698Y0155178D01*
X0058459Y0155939D01*
X0057790Y0155271D02*
X0068544Y0155271D01*
X0068606Y0154272D02*
X0070071Y0154272D01*
X0070394Y0153274D02*
X0069278Y0153274D01*
X0069517Y0152275D02*
X0070394Y0152275D01*
X0070394Y0151277D02*
X0069436Y0151277D01*
X0068987Y0150278D02*
X0070394Y0150278D01*
X0070394Y0149280D02*
X0067715Y0149280D01*
X0065156Y0149280D02*
X0060107Y0149280D01*
X0061105Y0148281D02*
X0070394Y0148281D01*
X0070394Y0147283D02*
X0063914Y0147283D01*
X0064778Y0146284D02*
X0069432Y0146284D01*
X0068434Y0145286D02*
X0065151Y0145286D01*
X0065151Y0144287D02*
X0067894Y0144287D01*
X0067894Y0143289D02*
X0064791Y0143289D01*
X0063947Y0142290D02*
X0067894Y0142290D01*
X0067894Y0141292D02*
X0053402Y0141292D01*
X0053402Y0141346D02*
X0050418Y0141346D01*
X0050418Y0137575D01*
X0052100Y0137575D01*
X0052481Y0137677D01*
X0052823Y0137875D01*
X0053103Y0138154D01*
X0053300Y0138496D01*
X0053402Y0138877D01*
X0053402Y0141346D01*
X0053402Y0142315D02*
X0053402Y0144784D01*
X0053300Y0145166D01*
X0053103Y0145508D01*
X0052823Y0145787D01*
X0052481Y0145984D01*
X0052100Y0146087D01*
X0050418Y0146087D01*
X0050418Y0142315D01*
X0049450Y0142315D01*
X0049450Y0146087D01*
X0047768Y0146087D01*
X0047386Y0145984D01*
X0047044Y0145787D01*
X0046765Y0145508D01*
X0046568Y0145166D01*
X0046465Y0144784D01*
X0046465Y0142315D01*
X0049450Y0142315D01*
X0049450Y0141346D01*
X0050418Y0141346D01*
X0050418Y0142315D01*
X0053402Y0142315D01*
X0053402Y0143289D02*
X0059348Y0143289D01*
X0058989Y0144287D02*
X0053402Y0144287D01*
X0053231Y0145286D02*
X0058989Y0145286D01*
X0058921Y0147920D02*
X0062070Y0144771D01*
X0062070Y0144770D01*
X0060192Y0142290D02*
X0050418Y0142290D01*
X0049450Y0142290D02*
X0045722Y0142290D01*
X0045722Y0141292D02*
X0046465Y0141292D01*
X0046465Y0141346D02*
X0046465Y0138877D01*
X0046568Y0138496D01*
X0046765Y0138154D01*
X0047044Y0137875D01*
X0047386Y0137677D01*
X0047768Y0137575D01*
X0049450Y0137575D01*
X0049450Y0141346D01*
X0046465Y0141346D01*
X0046465Y0140293D02*
X0045722Y0140293D01*
X0045722Y0139295D02*
X0046465Y0139295D01*
X0046683Y0138296D02*
X0045482Y0138296D01*
X0045722Y0143289D02*
X0046465Y0143289D01*
X0046465Y0144287D02*
X0045722Y0144287D01*
X0045562Y0145286D02*
X0046637Y0145286D01*
X0048010Y0147174D02*
X0048010Y0147174D01*
X0047901Y0147283D02*
X0034993Y0147283D01*
X0034993Y0148281D02*
X0046945Y0148281D01*
X0046945Y0149280D02*
X0034993Y0149280D01*
X0034993Y0150278D02*
X0046945Y0150278D01*
X0046945Y0151277D02*
X0034993Y0151277D01*
X0034993Y0152246D02*
X0034993Y0152246D01*
X0034993Y0152275D02*
X0046945Y0152275D01*
X0046945Y0153274D02*
X0034993Y0153274D01*
X0034859Y0154272D02*
X0046945Y0154272D01*
X0046945Y0155271D02*
X0033861Y0155271D01*
X0032862Y0156269D02*
X0046945Y0156269D01*
X0046945Y0157268D02*
X0031863Y0157268D01*
X0030864Y0158266D02*
X0046945Y0158266D01*
X0047162Y0159265D02*
X0030262Y0159265D01*
X0030262Y0160263D02*
X0031505Y0160263D01*
X0032772Y0160263D02*
X0051528Y0160263D01*
X0051940Y0158352D02*
X0054994Y0158446D01*
X0051940Y0158352D02*
X0049694Y0158352D01*
X0049644Y0158302D01*
X0048745Y0158302D01*
X0048745Y0148985D01*
X0049810Y0147920D01*
X0049810Y0147920D01*
X0058921Y0147920D01*
X0058447Y0154272D02*
X0064266Y0154272D01*
X0066436Y0152085D02*
X0066105Y0151754D01*
X0067833Y0157268D02*
X0058459Y0157268D01*
X0058459Y0158266D02*
X0067023Y0158266D01*
X0066025Y0159265D02*
X0058459Y0159265D01*
X0058459Y0160263D02*
X0065026Y0160263D01*
X0068034Y0165256D02*
X0041642Y0165256D01*
X0039829Y0162260D02*
X0035028Y0162260D01*
X0035220Y0163259D02*
X0038831Y0163259D01*
X0037832Y0164257D02*
X0035092Y0164257D01*
X0034576Y0165256D02*
X0036834Y0165256D01*
X0035835Y0166254D02*
X0033144Y0166254D01*
X0030845Y0167253D02*
X0035694Y0167253D01*
X0035694Y0168251D02*
X0029847Y0168251D01*
X0028941Y0169250D02*
X0035694Y0169250D01*
X0035694Y0170248D02*
X0029395Y0170248D01*
X0029545Y0171247D02*
X0035694Y0171247D01*
X0035694Y0172245D02*
X0030543Y0172245D01*
X0031542Y0173244D02*
X0035694Y0173244D01*
X0035694Y0174242D02*
X0032540Y0174242D01*
X0033494Y0175241D02*
X0035694Y0175241D01*
X0035694Y0176239D02*
X0033494Y0176239D01*
X0033494Y0177238D02*
X0035694Y0177238D01*
X0035694Y0178237D02*
X0033494Y0178237D01*
X0033496Y0179235D02*
X0035694Y0179235D01*
X0035694Y0180234D02*
X0033323Y0180234D01*
X0033325Y0181232D02*
X0033149Y0181232D01*
X0026444Y0181232D02*
X0024516Y0181232D01*
X0024099Y0180234D02*
X0026444Y0180234D01*
X0026444Y0179235D02*
X0024099Y0179235D01*
X0024099Y0178237D02*
X0026444Y0178237D01*
X0026421Y0177238D02*
X0024099Y0177238D01*
X0024099Y0176239D02*
X0027056Y0176239D01*
X0028315Y0175241D02*
X0024508Y0175241D01*
X0025546Y0174242D02*
X0027732Y0174242D01*
X0026444Y0182231D02*
X0025542Y0182231D01*
X0026009Y0183229D02*
X0026444Y0183229D01*
X0026444Y0184228D02*
X0026211Y0184228D01*
X0026211Y0185226D02*
X0026444Y0185226D01*
X0026444Y0186225D02*
X0025799Y0186225D01*
X0026444Y0187223D02*
X0025035Y0187223D01*
X0026444Y0188222D02*
X0023291Y0188222D01*
X0023708Y0189220D02*
X0026444Y0189220D01*
X0026444Y0190219D02*
X0025255Y0190219D01*
X0025485Y0195211D02*
X0037509Y0195211D01*
X0037509Y0194213D02*
X0035780Y0194213D01*
X0037165Y0193214D02*
X0037509Y0193214D01*
X0037509Y0196210D02*
X0024262Y0196210D01*
X0023629Y0199205D02*
X0037593Y0199205D01*
X0037593Y0200204D02*
X0024322Y0200204D01*
X0024575Y0201202D02*
X0037593Y0201202D01*
X0037593Y0202201D02*
X0024509Y0202201D01*
X0024080Y0203199D02*
X0037535Y0203199D01*
X0037083Y0204198D02*
X0022857Y0204198D01*
X0029165Y0194213D02*
X0033607Y0194213D01*
X0032223Y0193214D02*
X0029844Y0193214D01*
X0029844Y0192216D02*
X0031727Y0192216D01*
X0031613Y0191217D02*
X0029844Y0191217D01*
X0039241Y0189453D02*
X0040393Y0189453D01*
X0040393Y0191421D02*
X0040393Y0193390D01*
X0043277Y0193214D02*
X0051110Y0193214D01*
X0056879Y0193214D02*
X0060382Y0193214D01*
X0060382Y0192216D02*
X0056879Y0192216D01*
X0056879Y0191217D02*
X0060658Y0191217D01*
X0061509Y0190219D02*
X0056879Y0190219D01*
X0056879Y0194213D02*
X0060382Y0194213D01*
X0060382Y0195211D02*
X0056879Y0195211D01*
X0056879Y0196210D02*
X0060382Y0196210D01*
X0061083Y0197208D02*
X0056795Y0197208D01*
X0056795Y0198207D02*
X0062309Y0198207D01*
X0062309Y0199205D02*
X0056795Y0199205D01*
X0056795Y0200204D02*
X0062309Y0200204D01*
X0062309Y0201202D02*
X0056795Y0201202D01*
X0056795Y0202201D02*
X0062309Y0202201D01*
X0062309Y0203199D02*
X0056795Y0203199D01*
X0056795Y0204198D02*
X0062309Y0204198D01*
X0062309Y0205196D02*
X0056795Y0205196D01*
X0056795Y0206195D02*
X0062309Y0206195D01*
X0062309Y0207193D02*
X0056738Y0207193D01*
X0056263Y0208192D02*
X0062309Y0208192D01*
X0062309Y0209190D02*
X0055549Y0209190D01*
X0055415Y0210189D02*
X0062309Y0210189D01*
X0062309Y0211187D02*
X0055415Y0211187D01*
X0055415Y0212186D02*
X0062309Y0212186D01*
X0062309Y0213184D02*
X0055155Y0213184D01*
X0054713Y0214183D02*
X0062309Y0214183D01*
X0063044Y0215181D02*
X0053715Y0215181D01*
X0052057Y0216180D02*
X0003694Y0216180D01*
X0003694Y0217178D02*
X0051396Y0217178D01*
X0051166Y0218177D02*
X0003694Y0218177D01*
X0003694Y0219175D02*
X0051255Y0219175D01*
X0051716Y0220174D02*
X0003694Y0220174D01*
X0003694Y0221172D02*
X0053015Y0221172D01*
X0055478Y0221172D02*
X0068447Y0221172D01*
X0067148Y0220174D02*
X0056778Y0220174D01*
X0057239Y0219175D02*
X0066687Y0219175D01*
X0066040Y0218177D02*
X0057328Y0218177D01*
X0057097Y0217178D02*
X0065041Y0217178D01*
X0064043Y0216180D02*
X0056436Y0216180D01*
X0066878Y0212186D02*
X0106582Y0212186D01*
X0106582Y0213184D02*
X0067509Y0213184D01*
X0068507Y0214183D02*
X0106582Y0214183D01*
X0106582Y0214407D02*
X0106582Y0209393D01*
X0107344Y0208631D01*
X0112751Y0208631D01*
X0113285Y0209165D01*
X0113375Y0209010D01*
X0113654Y0208731D01*
X0113996Y0208534D01*
X0114377Y0208431D01*
X0116256Y0208431D01*
X0116256Y0211416D01*
X0117225Y0211416D01*
X0117225Y0212384D01*
X0120406Y0212384D01*
X0120406Y0214066D01*
X0120303Y0214447D01*
X0120106Y0214790D01*
X0119827Y0215069D01*
X0119485Y0215266D01*
X0119103Y0215368D01*
X0117225Y0215368D01*
X0117225Y0212384D01*
X0116256Y0212384D01*
X0116256Y0215368D01*
X0114377Y0215368D01*
X0113996Y0215266D01*
X0113654Y0215069D01*
X0113375Y0214790D01*
X0113285Y0214635D01*
X0112751Y0215168D01*
X0111433Y0215168D01*
X0111433Y0217111D01*
X0111853Y0217111D01*
X0112594Y0217852D01*
X0113335Y0217111D01*
X0113754Y0217111D01*
X0113754Y0216987D01*
X0114516Y0216225D01*
X0117561Y0216225D01*
X0118323Y0216987D01*
X0118323Y0218819D01*
X0118484Y0219467D01*
X0118323Y0219735D01*
X0118323Y0221213D01*
X0118157Y0221379D01*
X0118157Y0227592D01*
X0118308Y0227655D01*
X0119518Y0228864D01*
X0120172Y0230445D01*
X0120172Y0238155D01*
X0119518Y0239736D01*
X0118308Y0240945D01*
X0116728Y0241600D01*
X0115017Y0241600D01*
X0113437Y0240945D01*
X0112227Y0239736D01*
X0111573Y0238155D01*
X0111573Y0230445D01*
X0112227Y0228864D01*
X0113437Y0227655D01*
X0113588Y0227592D01*
X0113588Y0221089D01*
X0113335Y0221089D01*
X0112594Y0220348D01*
X0111853Y0221089D01*
X0111433Y0221089D01*
X0111433Y0224946D01*
X0111111Y0225269D01*
X0111111Y0225549D01*
X0110642Y0226681D01*
X0109775Y0227548D01*
X0108643Y0228017D01*
X0108508Y0228017D01*
X0099940Y0236584D01*
X0093403Y0236584D01*
X0092724Y0237264D01*
X0091592Y0237733D01*
X0090366Y0237733D01*
X0089234Y0237264D01*
X0088367Y0236397D01*
X0087898Y0235265D01*
X0087898Y0234039D01*
X0088367Y0232906D01*
X0089234Y0232040D01*
X0090366Y0231571D01*
X0091592Y0231571D01*
X0092666Y0232016D01*
X0098048Y0232016D01*
X0104949Y0225114D01*
X0104949Y0224323D01*
X0105418Y0223190D01*
X0106285Y0222324D01*
X0106864Y0222083D01*
X0106864Y0214689D01*
X0106582Y0214407D01*
X0106864Y0215181D02*
X0069506Y0215181D01*
X0066878Y0211187D02*
X0106582Y0211187D01*
X0106582Y0210189D02*
X0066878Y0210189D01*
X0066878Y0209190D02*
X0106785Y0209190D01*
X0106864Y0216180D02*
X0071868Y0216180D01*
X0072529Y0217178D02*
X0106864Y0217178D01*
X0106864Y0218177D02*
X0072760Y0218177D01*
X0072671Y0219175D02*
X0106864Y0219175D01*
X0106864Y0220174D02*
X0072210Y0220174D01*
X0070910Y0221172D02*
X0106864Y0221172D01*
X0106653Y0222171D02*
X0003694Y0222171D01*
X0003694Y0223170D02*
X0105439Y0223170D01*
X0105013Y0224168D02*
X0003694Y0224168D01*
X0003694Y0225167D02*
X0104896Y0225167D01*
X0103898Y0226165D02*
X0003694Y0226165D01*
X0003694Y0227164D02*
X0102899Y0227164D01*
X0101901Y0228162D02*
X0003694Y0228162D01*
X0003694Y0229161D02*
X0100902Y0229161D01*
X0099904Y0230159D02*
X0003694Y0230159D01*
X0003694Y0231158D02*
X0039017Y0231158D01*
X0038351Y0232156D02*
X0003694Y0232156D01*
X0003694Y0233155D02*
X0038118Y0233155D01*
X0038204Y0234153D02*
X0003694Y0234153D01*
X0003694Y0235152D02*
X0038661Y0235152D01*
X0039694Y0236150D02*
X0003694Y0236150D01*
X0003694Y0237149D02*
X0039694Y0237149D01*
X0039694Y0238147D02*
X0003694Y0238147D01*
X0003694Y0239146D02*
X0039694Y0239146D01*
X0039694Y0240144D02*
X0003694Y0240144D01*
X0003694Y0241143D02*
X0039694Y0241143D01*
X0039694Y0242141D02*
X0003694Y0242141D01*
X0003694Y0243140D02*
X0039694Y0243140D01*
X0039694Y0244138D02*
X0003694Y0244138D01*
X0003694Y0245137D02*
X0039694Y0245137D01*
X0039694Y0246135D02*
X0003694Y0246135D01*
X0003694Y0253125D02*
X0012985Y0253125D01*
X0012179Y0254123D02*
X0003694Y0254123D01*
X0003694Y0255122D02*
X0011847Y0255122D01*
X0011847Y0256120D02*
X0003694Y0256120D01*
X0003694Y0257119D02*
X0012247Y0257119D01*
X0013128Y0258117D02*
X0003694Y0258117D01*
X0003694Y0259116D02*
X0013128Y0259116D01*
X0013128Y0260114D02*
X0003694Y0260114D01*
X0003694Y0261113D02*
X0011508Y0261113D01*
X0010395Y0262111D02*
X0003694Y0262111D01*
X0003694Y0263110D02*
X0009876Y0263110D01*
X0009622Y0264108D02*
X0003694Y0264108D01*
X0003694Y0265107D02*
X0009622Y0265107D01*
X0009622Y0266105D02*
X0003694Y0266105D01*
X0003694Y0267104D02*
X0009622Y0267104D01*
X0009622Y0268103D02*
X0003694Y0268103D01*
X0003694Y0269101D02*
X0009622Y0269101D01*
X0009622Y0270100D02*
X0003694Y0270100D01*
X0003694Y0271098D02*
X0009880Y0271098D01*
X0009938Y0272097D02*
X0003694Y0272097D01*
X0003694Y0273095D02*
X0009938Y0273095D01*
X0009938Y0274094D02*
X0003694Y0274094D01*
X0003694Y0275092D02*
X0009938Y0275092D01*
X0013601Y0269988D02*
X0013522Y0267100D01*
X0014928Y0265692D01*
X0014928Y0255540D01*
X0016728Y0261113D02*
X0021508Y0261113D01*
X0020395Y0262111D02*
X0016728Y0262111D01*
X0017167Y0263110D02*
X0019876Y0263110D01*
X0019622Y0264108D02*
X0017422Y0264108D01*
X0017422Y0265107D02*
X0019622Y0265107D01*
X0019622Y0266105D02*
X0017422Y0266105D01*
X0017422Y0267104D02*
X0019622Y0267104D01*
X0019622Y0268103D02*
X0017422Y0268103D01*
X0017422Y0269101D02*
X0019622Y0269101D01*
X0019622Y0270100D02*
X0017422Y0270100D01*
X0017263Y0271098D02*
X0019781Y0271098D01*
X0019781Y0272097D02*
X0017263Y0272097D01*
X0017263Y0273095D02*
X0019781Y0273095D01*
X0019781Y0274094D02*
X0017263Y0274094D01*
X0017263Y0275092D02*
X0019781Y0275092D01*
X0032194Y0273648D02*
X0063024Y0273648D01*
X0065567Y0270688D01*
X0067103Y0272223D01*
X0093414Y0272223D01*
X0094784Y0274091D01*
X0101151Y0274091D01*
X0097883Y0268103D02*
X0071438Y0268103D01*
X0070032Y0267104D02*
X0097883Y0267104D01*
X0097883Y0266105D02*
X0068626Y0266105D01*
X0063244Y0263110D02*
X0098482Y0263110D01*
X0097883Y0264108D02*
X0062516Y0264108D01*
X0061517Y0265107D02*
X0097883Y0265107D01*
X0094576Y0256517D02*
X0093290Y0257050D01*
X0091898Y0257050D01*
X0090611Y0256517D01*
X0089627Y0255533D01*
X0089094Y0254246D01*
X0089094Y0252854D01*
X0089627Y0251567D01*
X0090611Y0250583D01*
X0091898Y0250050D01*
X0093290Y0250050D01*
X0094576Y0250583D01*
X0095561Y0251567D01*
X0096094Y0252854D01*
X0096094Y0254246D01*
X0095561Y0255533D01*
X0094576Y0256517D01*
X0094973Y0256120D02*
X0109617Y0256120D01*
X0108925Y0255122D02*
X0095731Y0255122D01*
X0096094Y0254123D02*
X0108620Y0254123D01*
X0108591Y0253125D02*
X0096094Y0253125D01*
X0095792Y0252126D02*
X0108864Y0252126D01*
X0109468Y0251128D02*
X0095121Y0251128D01*
X0093481Y0250129D02*
X0110869Y0250129D01*
X0111255Y0257119D02*
X0060793Y0257119D01*
X0061792Y0258117D02*
X0129798Y0258117D01*
X0124005Y0263327D02*
X0124203Y0263669D01*
X0124305Y0264050D01*
X0124305Y0265732D01*
X0121321Y0265732D01*
X0121321Y0262748D01*
X0123002Y0262748D01*
X0123384Y0262850D01*
X0123726Y0263048D01*
X0124005Y0263327D01*
X0123788Y0263110D02*
X0142358Y0263110D01*
X0142358Y0264108D02*
X0124305Y0264108D01*
X0124305Y0265107D02*
X0142358Y0265107D01*
X0142358Y0266105D02*
X0121321Y0266105D01*
X0120352Y0266105D02*
X0104420Y0266105D01*
X0104420Y0265107D02*
X0117368Y0265107D01*
X0117368Y0265732D02*
X0117368Y0264050D01*
X0117470Y0263669D01*
X0117668Y0263327D01*
X0117947Y0263048D01*
X0118289Y0262850D01*
X0118670Y0262748D01*
X0120352Y0262748D01*
X0120352Y0265732D01*
X0117368Y0265732D01*
X0117368Y0267104D02*
X0104420Y0267104D01*
X0104420Y0268103D02*
X0117368Y0268103D01*
X0120352Y0265107D02*
X0121321Y0265107D01*
X0121321Y0264108D02*
X0120352Y0264108D01*
X0120352Y0263110D02*
X0121321Y0263110D01*
X0124305Y0267104D02*
X0142358Y0267104D01*
X0142358Y0268103D02*
X0124305Y0268103D01*
X0124105Y0272097D02*
X0181796Y0272097D01*
X0181796Y0273095D02*
X0124105Y0273095D01*
X0124105Y0274094D02*
X0181796Y0274094D01*
X0181796Y0275092D02*
X0124105Y0275092D01*
X0117368Y0264108D02*
X0104420Y0264108D01*
X0103820Y0263110D02*
X0117885Y0263110D01*
X0128876Y0246135D02*
X0060059Y0246135D01*
X0060059Y0245137D02*
X0128877Y0245137D01*
X0129574Y0244138D02*
X0059858Y0244138D01*
X0059298Y0243422D02*
X0053890Y0243422D01*
X0053128Y0242661D01*
X0053128Y0239787D01*
X0052514Y0239787D01*
X0051702Y0240599D01*
X0050570Y0241068D01*
X0049344Y0241068D01*
X0048211Y0240599D01*
X0047345Y0239732D01*
X0046876Y0238600D01*
X0046876Y0237374D01*
X0047345Y0236242D01*
X0048211Y0235375D01*
X0049344Y0234906D01*
X0050570Y0234906D01*
X0051702Y0235375D01*
X0052514Y0236187D01*
X0054025Y0236187D01*
X0054078Y0236141D01*
X0054761Y0236187D01*
X0055446Y0236187D01*
X0055496Y0236236D01*
X0055566Y0236241D01*
X0056016Y0236757D01*
X0056144Y0236885D01*
X0059298Y0236885D01*
X0060059Y0237647D01*
X0060059Y0242661D01*
X0059298Y0243422D01*
X0059580Y0243140D02*
X0130102Y0243140D01*
X0130102Y0242141D02*
X0060059Y0242141D01*
X0060059Y0241143D02*
X0113913Y0241143D01*
X0112636Y0240144D02*
X0060059Y0240144D01*
X0060059Y0239146D02*
X0111983Y0239146D01*
X0111573Y0238147D02*
X0060059Y0238147D01*
X0059561Y0237149D02*
X0089119Y0237149D01*
X0088265Y0236150D02*
X0054217Y0236150D01*
X0054067Y0236150D02*
X0052477Y0236150D01*
X0051163Y0235152D02*
X0087898Y0235152D01*
X0087898Y0234153D02*
X0044194Y0234153D01*
X0044280Y0233155D02*
X0088264Y0233155D01*
X0089117Y0232156D02*
X0044046Y0232156D01*
X0043381Y0231158D02*
X0098905Y0231158D01*
X0101373Y0235152D02*
X0111573Y0235152D01*
X0111573Y0236150D02*
X0100374Y0236150D01*
X0102371Y0234153D02*
X0111573Y0234153D01*
X0111573Y0233155D02*
X0103370Y0233155D01*
X0104368Y0232156D02*
X0111573Y0232156D01*
X0111573Y0231158D02*
X0105367Y0231158D01*
X0106365Y0230159D02*
X0111691Y0230159D01*
X0112104Y0229161D02*
X0107364Y0229161D01*
X0108362Y0228162D02*
X0112929Y0228162D01*
X0113588Y0227164D02*
X0110159Y0227164D01*
X0110856Y0226165D02*
X0113588Y0226165D01*
X0113588Y0225167D02*
X0111213Y0225167D01*
X0111433Y0224168D02*
X0113588Y0224168D01*
X0113588Y0223170D02*
X0111433Y0223170D01*
X0111433Y0222171D02*
X0113588Y0222171D01*
X0113588Y0221172D02*
X0111433Y0221172D01*
X0111920Y0217178D02*
X0113267Y0217178D01*
X0113849Y0215181D02*
X0111433Y0215181D01*
X0111433Y0216180D02*
X0130102Y0216180D01*
X0130102Y0217178D02*
X0118323Y0217178D01*
X0118323Y0218177D02*
X0130102Y0218177D01*
X0130102Y0219175D02*
X0118411Y0219175D01*
X0118323Y0220174D02*
X0130102Y0220174D01*
X0130102Y0221172D02*
X0118323Y0221172D01*
X0118157Y0222171D02*
X0130102Y0222171D01*
X0130102Y0223170D02*
X0118157Y0223170D01*
X0118157Y0224168D02*
X0130102Y0224168D01*
X0130102Y0225167D02*
X0118157Y0225167D01*
X0118157Y0226165D02*
X0130102Y0226165D01*
X0130102Y0227164D02*
X0127666Y0227164D01*
X0126372Y0227164D02*
X0125373Y0227164D01*
X0125373Y0228162D02*
X0126372Y0228162D01*
X0126372Y0229161D02*
X0125373Y0229161D01*
X0125373Y0230159D02*
X0126372Y0230159D01*
X0126372Y0231158D02*
X0125373Y0231158D01*
X0125373Y0232156D02*
X0126372Y0232156D01*
X0126372Y0233155D02*
X0125373Y0233155D01*
X0125372Y0234153D02*
X0120172Y0234153D01*
X0120172Y0233155D02*
X0121373Y0233155D01*
X0121373Y0232156D02*
X0120172Y0232156D01*
X0120172Y0231158D02*
X0121373Y0231158D01*
X0121512Y0230159D02*
X0120054Y0230159D01*
X0119641Y0229161D02*
X0121912Y0229161D01*
X0122646Y0228162D02*
X0118816Y0228162D01*
X0118157Y0227164D02*
X0124079Y0227164D01*
X0125373Y0235152D02*
X0126372Y0235152D01*
X0126372Y0236150D02*
X0125373Y0236150D01*
X0125373Y0237149D02*
X0126372Y0237149D01*
X0126372Y0238147D02*
X0125373Y0238147D01*
X0125373Y0239146D02*
X0126372Y0239146D01*
X0126372Y0240144D02*
X0125373Y0240144D01*
X0125373Y0241143D02*
X0126372Y0241143D01*
X0128239Y0241143D02*
X0130102Y0241143D01*
X0130102Y0240144D02*
X0129368Y0240144D01*
X0129983Y0239146D02*
X0130102Y0239146D01*
X0123506Y0241143D02*
X0117832Y0241143D01*
X0119109Y0240144D02*
X0122377Y0240144D01*
X0121762Y0239146D02*
X0119762Y0239146D01*
X0120172Y0238147D02*
X0121451Y0238147D01*
X0121373Y0237149D02*
X0120172Y0237149D01*
X0120172Y0236150D02*
X0121373Y0236150D01*
X0121373Y0235152D02*
X0120172Y0235152D01*
X0111573Y0237149D02*
X0092839Y0237149D01*
X0091706Y0250129D02*
X0073796Y0250129D01*
X0073605Y0250050D02*
X0074891Y0250583D01*
X0075876Y0251567D01*
X0076409Y0252854D01*
X0076409Y0254246D01*
X0075876Y0255533D01*
X0074891Y0256517D01*
X0073605Y0257050D01*
X0072213Y0257050D01*
X0070926Y0256517D01*
X0069942Y0255533D01*
X0069409Y0254246D01*
X0069409Y0252854D01*
X0069942Y0251567D01*
X0070926Y0250583D01*
X0072213Y0250050D01*
X0073605Y0250050D01*
X0072021Y0250129D02*
X0058389Y0250129D01*
X0058387Y0251128D02*
X0070381Y0251128D01*
X0069710Y0252126D02*
X0058386Y0252126D01*
X0058384Y0253125D02*
X0069409Y0253125D01*
X0069409Y0254123D02*
X0058383Y0254123D01*
X0058381Y0255122D02*
X0069771Y0255122D01*
X0070529Y0256120D02*
X0058380Y0256120D01*
X0062790Y0259116D02*
X0138822Y0259116D01*
X0139819Y0260114D02*
X0063244Y0260114D01*
X0063244Y0261113D02*
X0140815Y0261113D01*
X0141812Y0262111D02*
X0063244Y0262111D01*
X0075288Y0256120D02*
X0090214Y0256120D01*
X0089457Y0255122D02*
X0076046Y0255122D01*
X0076409Y0254123D02*
X0089094Y0254123D01*
X0089094Y0253125D02*
X0076409Y0253125D01*
X0076107Y0252126D02*
X0089395Y0252126D01*
X0090066Y0251128D02*
X0075436Y0251128D01*
X0056594Y0240154D02*
X0054701Y0237987D01*
X0049957Y0237987D01*
X0052157Y0240144D02*
X0053128Y0240144D01*
X0053128Y0241143D02*
X0043094Y0241143D01*
X0043094Y0242141D02*
X0053128Y0242141D01*
X0053608Y0243140D02*
X0043094Y0243140D01*
X0043094Y0244138D02*
X0053330Y0244138D01*
X0053128Y0245137D02*
X0043094Y0245137D01*
X0043633Y0246135D02*
X0053128Y0246135D01*
X0047757Y0240144D02*
X0043094Y0240144D01*
X0043094Y0239146D02*
X0047102Y0239146D01*
X0046876Y0238147D02*
X0043094Y0238147D01*
X0043094Y0237149D02*
X0046969Y0237149D01*
X0047436Y0236150D02*
X0043094Y0236150D01*
X0043737Y0235152D02*
X0048750Y0235152D01*
X0066878Y0208192D02*
X0130102Y0208192D01*
X0130102Y0209190D02*
X0120210Y0209190D01*
X0120303Y0209353D02*
X0120406Y0209734D01*
X0120406Y0211416D01*
X0117225Y0211416D01*
X0117225Y0208431D01*
X0119103Y0208431D01*
X0119485Y0208534D01*
X0119827Y0208731D01*
X0120106Y0209010D01*
X0120303Y0209353D01*
X0120406Y0210189D02*
X0130102Y0210189D01*
X0130102Y0211187D02*
X0120406Y0211187D01*
X0120406Y0213184D02*
X0130102Y0213184D01*
X0130102Y0212186D02*
X0117225Y0212186D01*
X0117225Y0213184D02*
X0116256Y0213184D01*
X0116256Y0214183D02*
X0117225Y0214183D01*
X0117225Y0215181D02*
X0116256Y0215181D01*
X0116256Y0211187D02*
X0117225Y0211187D01*
X0117225Y0210189D02*
X0116256Y0210189D01*
X0116256Y0209190D02*
X0117225Y0209190D01*
X0120374Y0214183D02*
X0130102Y0214183D01*
X0130102Y0215181D02*
X0119632Y0215181D01*
X0129099Y0228162D02*
X0130102Y0228162D01*
X0130102Y0229161D02*
X0129833Y0229161D01*
X0130102Y0207193D02*
X0066878Y0207193D01*
X0066878Y0206195D02*
X0130102Y0206195D01*
X0130102Y0205196D02*
X0066878Y0205196D01*
X0066878Y0204198D02*
X0130102Y0204198D01*
X0130102Y0203199D02*
X0066878Y0203199D01*
X0066878Y0202201D02*
X0130102Y0202201D01*
X0130102Y0201202D02*
X0098674Y0201202D01*
X0100352Y0200204D02*
X0130102Y0200204D01*
X0130102Y0199205D02*
X0101089Y0199205D01*
X0101482Y0198207D02*
X0130102Y0198207D01*
X0130102Y0197208D02*
X0101482Y0197208D01*
X0101261Y0196210D02*
X0130102Y0196210D01*
X0130102Y0195211D02*
X0100767Y0195211D01*
X0099676Y0194213D02*
X0130102Y0194213D01*
X0130102Y0193214D02*
X0096223Y0193214D01*
X0092961Y0192298D02*
X0097682Y0197500D01*
X0095012Y0200204D02*
X0090635Y0200204D01*
X0090789Y0200050D02*
X0090232Y0200607D01*
X0089577Y0201045D01*
X0088849Y0201346D01*
X0088076Y0201500D01*
X0087782Y0201500D01*
X0087782Y0197600D01*
X0087582Y0197600D01*
X0087582Y0201500D01*
X0087288Y0201500D01*
X0086515Y0201346D01*
X0085787Y0201045D01*
X0085132Y0200607D01*
X0084575Y0200050D01*
X0084137Y0199395D01*
X0083836Y0198667D01*
X0083682Y0197894D01*
X0083682Y0197600D01*
X0087582Y0197600D01*
X0087582Y0197400D01*
X0083682Y0197400D01*
X0083682Y0197106D01*
X0083836Y0196333D01*
X0084137Y0195605D01*
X0084575Y0194950D01*
X0085132Y0194393D01*
X0085787Y0193955D01*
X0086515Y0193654D01*
X0087288Y0193500D01*
X0087582Y0193500D01*
X0087582Y0197400D01*
X0087782Y0197400D01*
X0087782Y0197600D01*
X0091682Y0197600D01*
X0091682Y0197894D01*
X0091528Y0198667D01*
X0091227Y0199395D01*
X0090789Y0200050D01*
X0091305Y0199205D02*
X0094275Y0199205D01*
X0093882Y0198207D02*
X0091620Y0198207D01*
X0091682Y0197400D02*
X0087782Y0197400D01*
X0087782Y0193500D01*
X0088076Y0193500D01*
X0088849Y0193654D01*
X0089577Y0193955D01*
X0090232Y0194393D01*
X0090789Y0194950D01*
X0091227Y0195605D01*
X0091528Y0196333D01*
X0091682Y0197106D01*
X0091682Y0197400D01*
X0091682Y0197208D02*
X0093882Y0197208D01*
X0094080Y0196210D02*
X0091477Y0196210D01*
X0090963Y0195211D02*
X0093174Y0195211D01*
X0092268Y0194213D02*
X0089962Y0194213D01*
X0091331Y0193214D02*
X0074206Y0193214D01*
X0074206Y0193516D02*
X0071025Y0193516D01*
X0071025Y0190531D01*
X0072903Y0190531D01*
X0073285Y0190634D01*
X0073627Y0190831D01*
X0073906Y0191110D01*
X0074103Y0191453D01*
X0074206Y0191834D01*
X0074206Y0193516D01*
X0074206Y0192216D02*
X0091161Y0192216D01*
X0091161Y0191217D02*
X0088638Y0191217D01*
X0086726Y0191217D02*
X0073967Y0191217D01*
X0074004Y0189220D02*
X0084281Y0189220D01*
X0083882Y0188222D02*
X0074206Y0188222D01*
X0074206Y0187223D02*
X0083882Y0187223D01*
X0084097Y0186225D02*
X0071025Y0186225D01*
X0071025Y0186016D02*
X0074206Y0186016D01*
X0074206Y0184334D01*
X0074103Y0183953D01*
X0073906Y0183610D01*
X0073627Y0183331D01*
X0073285Y0183134D01*
X0072903Y0183031D01*
X0071025Y0183031D01*
X0071025Y0186016D01*
X0071025Y0185226D02*
X0070056Y0185226D01*
X0070056Y0184228D02*
X0071025Y0184228D01*
X0071025Y0183229D02*
X0070069Y0183229D01*
X0073282Y0182231D02*
X0083961Y0182231D01*
X0085126Y0183229D02*
X0073450Y0183229D01*
X0074177Y0184228D02*
X0085652Y0184228D01*
X0084582Y0185226D02*
X0074206Y0185226D01*
X0074006Y0181232D02*
X0082791Y0181232D01*
X0082185Y0180234D02*
X0074006Y0180234D01*
X0074006Y0179235D02*
X0082167Y0179235D01*
X0082185Y0178237D02*
X0074006Y0178237D01*
X0074006Y0177238D02*
X0082185Y0177238D01*
X0082185Y0176239D02*
X0073752Y0176239D01*
X0073907Y0174242D02*
X0082185Y0174242D01*
X0082185Y0173244D02*
X0074009Y0173244D01*
X0074009Y0172245D02*
X0082185Y0172245D01*
X0082185Y0171247D02*
X0071025Y0171247D01*
X0071025Y0171016D02*
X0074009Y0171016D01*
X0074009Y0169137D01*
X0073907Y0168756D01*
X0073709Y0168414D01*
X0073430Y0168134D01*
X0073088Y0167937D01*
X0072706Y0167835D01*
X0071025Y0167835D01*
X0071025Y0171016D01*
X0071025Y0170248D02*
X0070056Y0170248D01*
X0070056Y0169250D02*
X0071025Y0169250D01*
X0071025Y0168251D02*
X0070056Y0168251D01*
X0070845Y0167253D02*
X0082185Y0167253D01*
X0082185Y0168251D02*
X0073547Y0168251D01*
X0074009Y0169250D02*
X0082185Y0169250D01*
X0082185Y0170248D02*
X0074009Y0170248D01*
X0071025Y0172245D02*
X0070056Y0172245D01*
X0070056Y0173244D02*
X0071025Y0173244D01*
X0071025Y0174242D02*
X0070056Y0174242D01*
X0067173Y0174242D02*
X0067077Y0174242D01*
X0067059Y0176239D02*
X0067328Y0176239D01*
X0062857Y0175241D02*
X0082185Y0175241D01*
X0083985Y0179880D02*
X0083985Y0164471D01*
X0085327Y0163128D01*
X0085247Y0160700D01*
X0083700Y0160714D01*
X0077504Y0154518D01*
X0077504Y0146168D01*
X0080694Y0142396D02*
X0082294Y0143996D01*
X0082294Y0144431D01*
X0083963Y0144431D01*
X0083963Y0147416D01*
X0084932Y0147416D01*
X0084932Y0144431D01*
X0086810Y0144431D01*
X0087192Y0144534D01*
X0087534Y0144731D01*
X0087813Y0145010D01*
X0087902Y0145165D01*
X0088436Y0144631D01*
X0088920Y0144631D01*
X0088171Y0143921D01*
X0085249Y0143921D01*
X0084502Y0143921D01*
X0083758Y0143921D01*
X0083758Y0143921D01*
X0083758Y0143921D01*
X0083256Y0143419D01*
X0082704Y0142866D01*
X0078123Y0138285D01*
X0077559Y0137720D01*
X0077559Y0137720D01*
X0077559Y0137720D01*
X0077559Y0136976D01*
X0077559Y0131808D01*
X0077551Y0131801D01*
X0077558Y0131182D01*
X0071494Y0137246D01*
X0071494Y0143254D01*
X0072494Y0144254D01*
X0072494Y0143996D01*
X0073490Y0143000D01*
X0075090Y0141400D01*
X0079698Y0141400D01*
X0080694Y0142396D01*
X0080588Y0142290D02*
X0082128Y0142290D01*
X0082704Y0142866D02*
X0082704Y0142866D01*
X0083126Y0143289D02*
X0081587Y0143289D01*
X0082294Y0144287D02*
X0088557Y0144287D01*
X0085249Y0143921D02*
X0085249Y0143921D01*
X0084932Y0145286D02*
X0083963Y0145286D01*
X0083963Y0146284D02*
X0084932Y0146284D01*
X0084932Y0147283D02*
X0083963Y0147283D01*
X0081129Y0141292D02*
X0071494Y0141292D01*
X0071494Y0142290D02*
X0074200Y0142290D01*
X0073201Y0143289D02*
X0071528Y0143289D01*
X0069694Y0144000D02*
X0072194Y0146500D01*
X0072194Y0153577D01*
X0073395Y0154778D01*
X0077494Y0157268D02*
X0077708Y0157268D01*
X0077494Y0158266D02*
X0078707Y0158266D01*
X0079705Y0159265D02*
X0077494Y0159265D01*
X0077494Y0160263D02*
X0080704Y0160263D01*
X0081702Y0161262D02*
X0076836Y0161262D01*
X0075838Y0162260D02*
X0081979Y0162260D01*
X0081979Y0163259D02*
X0074839Y0163259D01*
X0073841Y0164257D02*
X0082185Y0164257D01*
X0082185Y0165256D02*
X0072842Y0165256D01*
X0071844Y0166254D02*
X0082185Y0166254D01*
X0091794Y0174446D02*
X0091777Y0175177D01*
X0097682Y0181577D01*
X0097682Y0187500D01*
X0091161Y0189220D02*
X0091083Y0189220D01*
X0091161Y0190219D02*
X0090337Y0190219D01*
X0087682Y0187500D02*
X0087682Y0183050D01*
X0083985Y0179880D01*
X0085027Y0190219D02*
X0066078Y0190219D01*
X0067037Y0191217D02*
X0067113Y0191217D01*
X0070056Y0191217D02*
X0071025Y0191217D01*
X0071025Y0192216D02*
X0070056Y0192216D01*
X0070056Y0193214D02*
X0071025Y0193214D01*
X0071025Y0194213D02*
X0085402Y0194213D01*
X0084401Y0195211D02*
X0074206Y0195211D01*
X0074194Y0196210D02*
X0083887Y0196210D01*
X0083682Y0197208D02*
X0073558Y0197208D01*
X0071025Y0197208D02*
X0070056Y0197208D01*
X0070056Y0196210D02*
X0071025Y0196210D01*
X0071025Y0195211D02*
X0070056Y0195211D01*
X0067522Y0197208D02*
X0066878Y0197208D01*
X0066878Y0198207D02*
X0083744Y0198207D01*
X0084059Y0199205D02*
X0066878Y0199205D01*
X0066878Y0200204D02*
X0084729Y0200204D01*
X0086168Y0201202D02*
X0066878Y0201202D01*
X0070056Y0189220D02*
X0071025Y0189220D01*
X0071025Y0188222D02*
X0070056Y0188222D01*
X0070056Y0187223D02*
X0071025Y0187223D01*
X0059047Y0174242D02*
X0052247Y0174242D01*
X0052247Y0175241D02*
X0058094Y0175241D01*
X0058094Y0176239D02*
X0056615Y0176239D01*
X0056879Y0177238D02*
X0058094Y0177238D01*
X0057453Y0178237D02*
X0056879Y0178237D01*
X0060046Y0173244D02*
X0051934Y0173244D01*
X0048525Y0172245D02*
X0047556Y0172245D01*
X0047556Y0171247D02*
X0048525Y0171247D01*
X0048525Y0170248D02*
X0047556Y0170248D01*
X0051509Y0168251D02*
X0061124Y0168251D01*
X0066037Y0167253D02*
X0051509Y0167253D01*
X0051406Y0166254D02*
X0067035Y0166254D01*
X0069694Y0144000D02*
X0069694Y0136500D01*
X0079694Y0126500D01*
X0079694Y0114000D01*
X0074611Y0108918D01*
X0074611Y0105328D01*
X0071697Y0106344D02*
X0070776Y0106344D01*
X0070586Y0105886D02*
X0070989Y0106858D01*
X0070989Y0108084D01*
X0070520Y0109216D01*
X0069653Y0110083D01*
X0068521Y0110552D01*
X0067295Y0110552D01*
X0066163Y0110083D01*
X0065296Y0109216D01*
X0064988Y0108473D01*
X0064545Y0108916D01*
X0065045Y0109415D01*
X0065045Y0109415D01*
X0065582Y0109952D01*
X0066099Y0110469D01*
X0066100Y0110469D01*
X0066100Y0111214D01*
X0066100Y0111960D01*
X0066100Y0111960D01*
X0066100Y0116905D01*
X0067280Y0116905D01*
X0068041Y0117667D01*
X0068041Y0122681D01*
X0067280Y0123442D01*
X0062194Y0123442D01*
X0064207Y0125399D01*
X0064858Y0125399D01*
X0065326Y0125211D01*
X0065394Y0125240D01*
X0065794Y0125075D01*
X0067020Y0125075D01*
X0067894Y0125436D01*
X0068591Y0124739D01*
X0068591Y0121407D01*
X0069352Y0120646D01*
X0075941Y0120646D01*
X0076163Y0120868D01*
X0077226Y0120868D01*
X0077894Y0121145D01*
X0077894Y0114746D01*
X0072811Y0109663D01*
X0072811Y0107885D01*
X0071999Y0107073D01*
X0071530Y0105941D01*
X0071530Y0104927D01*
X0070586Y0105886D01*
X0071119Y0105345D02*
X0071530Y0105345D01*
X0070989Y0107342D02*
X0072268Y0107342D01*
X0072811Y0108341D02*
X0070883Y0108341D01*
X0070397Y0109339D02*
X0072811Y0109339D01*
X0073486Y0110338D02*
X0069038Y0110338D01*
X0066778Y0110338D02*
X0065968Y0110338D01*
X0066099Y0110469D02*
X0066099Y0110469D01*
X0066100Y0111336D02*
X0074484Y0111336D01*
X0075483Y0112335D02*
X0066100Y0112335D01*
X0066100Y0113333D02*
X0068901Y0113333D01*
X0068970Y0113265D02*
X0069312Y0113068D01*
X0069693Y0112965D01*
X0072162Y0112965D01*
X0072162Y0115950D01*
X0068391Y0115950D01*
X0068391Y0114268D01*
X0068493Y0113886D01*
X0068690Y0113544D01*
X0068970Y0113265D01*
X0068391Y0114332D02*
X0066100Y0114332D01*
X0066100Y0115330D02*
X0068391Y0115330D01*
X0068391Y0116918D02*
X0068391Y0118600D01*
X0068493Y0118981D01*
X0068690Y0119323D01*
X0068970Y0119603D01*
X0069312Y0119800D01*
X0069693Y0119902D01*
X0072162Y0119902D01*
X0072162Y0116918D01*
X0072162Y0115950D01*
X0073131Y0115950D01*
X0073131Y0116918D01*
X0076902Y0116918D01*
X0076902Y0118600D01*
X0076800Y0118981D01*
X0076603Y0119323D01*
X0076324Y0119603D01*
X0075981Y0119800D01*
X0075600Y0119902D01*
X0073131Y0119902D01*
X0073131Y0116918D01*
X0072162Y0116918D01*
X0068391Y0116918D01*
X0068391Y0117327D02*
X0067701Y0117327D01*
X0068041Y0118326D02*
X0068391Y0118326D01*
X0068691Y0119324D02*
X0068041Y0119324D01*
X0068041Y0120323D02*
X0077894Y0120323D01*
X0077894Y0119324D02*
X0076602Y0119324D01*
X0076902Y0118326D02*
X0077894Y0118326D01*
X0077894Y0117327D02*
X0076902Y0117327D01*
X0076902Y0115950D02*
X0073131Y0115950D01*
X0073131Y0112965D01*
X0075600Y0112965D01*
X0075981Y0113068D01*
X0076324Y0113265D01*
X0076603Y0113544D01*
X0076800Y0113886D01*
X0076902Y0114268D01*
X0076902Y0115950D01*
X0076902Y0115330D02*
X0077894Y0115330D01*
X0077894Y0116329D02*
X0073131Y0116329D01*
X0072162Y0116329D02*
X0066100Y0116329D01*
X0064300Y0119000D02*
X0064300Y0111215D01*
X0062689Y0109605D01*
X0057993Y0109605D01*
X0055827Y0111770D01*
X0048390Y0111770D01*
X0050977Y0114358D01*
X0050994Y0118154D01*
X0054099Y0115286D02*
X0054225Y0115067D01*
X0054504Y0114788D01*
X0054846Y0114590D01*
X0055228Y0114488D01*
X0056910Y0114488D01*
X0056910Y0117669D01*
X0057878Y0117669D01*
X0057878Y0114488D01*
X0059560Y0114488D01*
X0059941Y0114590D01*
X0060283Y0114788D01*
X0060563Y0115067D01*
X0060760Y0115409D01*
X0060862Y0115791D01*
X0060862Y0116905D01*
X0062500Y0116905D01*
X0062500Y0111961D01*
X0061943Y0111405D01*
X0058738Y0111405D01*
X0057109Y0113033D01*
X0056572Y0113570D01*
X0055827Y0113570D01*
X0052739Y0113570D01*
X0052773Y0113604D01*
X0052773Y0113609D01*
X0052777Y0113613D01*
X0052777Y0114354D01*
X0052779Y0114885D01*
X0053698Y0114885D01*
X0054099Y0115286D01*
X0052777Y0114332D02*
X0062500Y0114332D01*
X0062500Y0115330D02*
X0060714Y0115330D01*
X0060862Y0116329D02*
X0062500Y0116329D01*
X0062500Y0113333D02*
X0056809Y0113333D01*
X0056572Y0113570D02*
X0056572Y0113570D01*
X0056572Y0113570D01*
X0057808Y0112335D02*
X0062500Y0112335D01*
X0064969Y0109339D02*
X0065419Y0109339D01*
X0067908Y0107471D02*
X0067956Y0105994D01*
X0072792Y0101077D01*
X0078458Y0095360D02*
X0086116Y0095360D01*
X0086116Y0096359D02*
X0079457Y0096359D01*
X0080455Y0097357D02*
X0086478Y0097357D01*
X0087324Y0098356D02*
X0081454Y0098356D01*
X0082452Y0099354D02*
X0090444Y0099354D01*
X0086488Y0094362D02*
X0077460Y0094362D01*
X0076461Y0093363D02*
X0087349Y0093363D01*
X0083279Y0086373D02*
X0080128Y0086373D01*
X0080066Y0087372D02*
X0082865Y0087372D01*
X0082853Y0088370D02*
X0079094Y0088370D01*
X0076947Y0088370D02*
X0075978Y0088370D01*
X0075978Y0087372D02*
X0076947Y0087372D01*
X0076947Y0086373D02*
X0075978Y0086373D01*
X0076947Y0085375D02*
X0084254Y0085375D01*
X0086608Y0082379D02*
X0079998Y0082379D01*
X0079876Y0081381D02*
X0086033Y0081381D01*
X0085864Y0080382D02*
X0080128Y0080382D01*
X0080128Y0079384D02*
X0086015Y0079384D01*
X0086563Y0078385D02*
X0076947Y0078385D01*
X0076462Y0078574D02*
X0076462Y0084974D01*
X0075978Y0084490D02*
X0076947Y0084490D01*
X0076947Y0079058D01*
X0075978Y0079058D01*
X0075978Y0082042D01*
X0075978Y0084490D01*
X0075978Y0084376D02*
X0076947Y0084376D01*
X0076947Y0083378D02*
X0075978Y0083378D01*
X0075978Y0082379D02*
X0076947Y0082379D01*
X0076947Y0081381D02*
X0075978Y0081381D01*
X0075978Y0080382D02*
X0076947Y0080382D01*
X0076947Y0079384D02*
X0075978Y0079384D01*
X0073403Y0075390D02*
X0072558Y0075390D01*
X0073038Y0074391D02*
X0073194Y0074391D01*
X0073194Y0073393D02*
X0073038Y0073393D01*
X0074144Y0067402D02*
X0069634Y0067402D01*
X0070541Y0066403D02*
X0074137Y0066403D01*
X0074130Y0065405D02*
X0070946Y0065405D01*
X0070946Y0064406D02*
X0074123Y0064406D01*
X0074116Y0063408D02*
X0070617Y0063408D01*
X0069818Y0062409D02*
X0074109Y0062409D01*
X0074102Y0061411D02*
X0069665Y0061411D01*
X0069665Y0060412D02*
X0074094Y0060412D01*
X0074087Y0059414D02*
X0069665Y0059414D01*
X0069665Y0058415D02*
X0074080Y0058415D01*
X0074073Y0057417D02*
X0069665Y0057417D01*
X0070919Y0056418D02*
X0074066Y0056418D01*
X0074059Y0055420D02*
X0072570Y0055420D01*
X0073177Y0054421D02*
X0074052Y0054421D01*
X0074045Y0053423D02*
X0073369Y0053423D01*
X0073241Y0052424D02*
X0074038Y0052424D01*
X0074031Y0051426D02*
X0072824Y0051426D01*
X0072824Y0050427D02*
X0073714Y0050427D01*
X0073283Y0049429D02*
X0072824Y0049429D01*
X0072824Y0048430D02*
X0073215Y0048430D01*
X0073466Y0047432D02*
X0072824Y0047432D01*
X0072824Y0046433D02*
X0074157Y0046433D01*
X0071024Y0043825D02*
X0071024Y0052609D01*
X0070288Y0053345D01*
X0067865Y0056435D02*
X0067865Y0064814D01*
X0066096Y0067402D02*
X0064883Y0067402D01*
X0065188Y0066403D02*
X0064080Y0066403D01*
X0064080Y0065405D02*
X0064784Y0065405D01*
X0062577Y0059055D02*
X0062594Y0035500D01*
X0059559Y0032454D02*
X0059261Y0032454D01*
X0059261Y0031455D02*
X0060557Y0031455D01*
X0057461Y0030258D02*
X0057461Y0040148D01*
X0060158Y0042845D01*
X0060158Y0056500D01*
X0058319Y0058448D01*
X0058319Y0071770D01*
X0055776Y0069227D01*
X0053625Y0069227D01*
X0053625Y0069832D01*
X0055503Y0073393D02*
X0055656Y0073393D01*
X0067865Y0056435D02*
X0066688Y0055211D01*
X0066688Y0045896D01*
X0067908Y0044833D01*
X0069868Y0042435D02*
X0069653Y0042221D01*
X0068521Y0041752D01*
X0068451Y0041752D01*
X0069444Y0040758D01*
X0069474Y0040728D01*
X0069474Y0038744D01*
X0070730Y0040000D01*
X0072094Y0040000D01*
X0072094Y0036000D01*
X0073094Y0036000D01*
X0073094Y0040000D01*
X0074458Y0040000D01*
X0075598Y0038860D01*
X0075598Y0040217D01*
X0075345Y0040470D01*
X0071833Y0040470D01*
X0070779Y0041524D01*
X0069868Y0042435D01*
X0070862Y0041440D02*
X0068762Y0041440D01*
X0069474Y0040442D02*
X0075373Y0040442D01*
X0075598Y0039443D02*
X0075014Y0039443D01*
X0073094Y0039443D02*
X0072094Y0039443D01*
X0072094Y0038445D02*
X0073094Y0038445D01*
X0073094Y0037446D02*
X0072094Y0037446D01*
X0072094Y0036448D02*
X0073094Y0036448D01*
X0073094Y0035000D02*
X0073094Y0031000D01*
X0074458Y0031000D01*
X0075598Y0032140D01*
X0075598Y0031822D01*
X0073575Y0029800D01*
X0070813Y0029800D01*
X0068294Y0027281D01*
X0068294Y0023719D01*
X0069810Y0022203D01*
X0065378Y0022203D01*
X0066894Y0023719D01*
X0066894Y0027272D01*
X0068948Y0029339D01*
X0069474Y0029864D01*
X0069474Y0029867D01*
X0069476Y0029870D01*
X0069474Y0030613D01*
X0069474Y0032256D01*
X0070730Y0031000D01*
X0072094Y0031000D01*
X0072094Y0035000D01*
X0073094Y0035000D01*
X0073094Y0034451D02*
X0072094Y0034451D01*
X0072094Y0033452D02*
X0073094Y0033452D01*
X0073094Y0032454D02*
X0072094Y0032454D01*
X0072094Y0031455D02*
X0073094Y0031455D01*
X0074232Y0030457D02*
X0069474Y0030457D01*
X0069474Y0031455D02*
X0070274Y0031455D01*
X0070471Y0029458D02*
X0069068Y0029458D01*
X0069473Y0028460D02*
X0068074Y0028460D01*
X0068474Y0027461D02*
X0067082Y0027461D01*
X0066894Y0026463D02*
X0068294Y0026463D01*
X0068294Y0025464D02*
X0066894Y0025464D01*
X0066894Y0024466D02*
X0068294Y0024466D01*
X0068545Y0023467D02*
X0066642Y0023467D01*
X0065644Y0022469D02*
X0069544Y0022469D01*
X0072594Y0025500D02*
X0072578Y0026257D01*
X0077398Y0031077D01*
X0077398Y0040963D01*
X0076091Y0042270D01*
X0072579Y0042270D01*
X0071024Y0043825D01*
X0070173Y0039443D02*
X0069474Y0039443D01*
X0067674Y0030610D02*
X0062594Y0025500D01*
X0057461Y0030258D02*
X0052594Y0025500D01*
X0049544Y0022469D02*
X0003694Y0022469D01*
X0003694Y0023467D02*
X0048545Y0023467D01*
X0048294Y0024466D02*
X0003694Y0024466D01*
X0003694Y0025464D02*
X0048294Y0025464D01*
X0048294Y0026463D02*
X0003694Y0026463D01*
X0003694Y0027461D02*
X0041124Y0027461D01*
X0040360Y0028460D02*
X0003694Y0028460D01*
X0003694Y0029458D02*
X0040325Y0029458D01*
X0040325Y0030457D02*
X0003694Y0030457D01*
X0003694Y0031455D02*
X0040325Y0031455D01*
X0040325Y0032454D02*
X0003694Y0032454D01*
X0003694Y0033452D02*
X0040362Y0033452D01*
X0041017Y0034451D02*
X0003694Y0034451D01*
X0003694Y0035449D02*
X0036134Y0035449D01*
X0035162Y0036448D02*
X0003694Y0036448D01*
X0003694Y0037446D02*
X0034224Y0037446D01*
X0033265Y0038445D02*
X0003694Y0038445D01*
X0003694Y0039443D02*
X0032680Y0039443D01*
X0032693Y0040442D02*
X0003694Y0040442D01*
X0003694Y0041440D02*
X0032695Y0041440D01*
X0032698Y0042439D02*
X0003694Y0042439D01*
X0003694Y0043437D02*
X0032700Y0043437D01*
X0032702Y0044436D02*
X0003694Y0044436D01*
X0003694Y0045434D02*
X0015899Y0045434D01*
X0015084Y0046433D02*
X0003694Y0046433D01*
X0003694Y0047432D02*
X0014746Y0047432D01*
X0012561Y0048430D02*
X0003694Y0048430D01*
X0003694Y0049429D02*
X0011693Y0049429D01*
X0011317Y0050427D02*
X0003694Y0050427D01*
X0003694Y0051426D02*
X0011317Y0051426D01*
X0011673Y0052424D02*
X0003694Y0052424D01*
X0003694Y0053423D02*
X0012512Y0053423D01*
X0014694Y0051243D02*
X0031856Y0051243D01*
X0034994Y0054446D01*
X0031562Y0057780D01*
X0031578Y0069832D01*
X0029178Y0069399D02*
X0017811Y0069399D01*
X0018389Y0070397D02*
X0029178Y0070397D01*
X0029178Y0071396D02*
X0019327Y0071396D01*
X0020265Y0072394D02*
X0029178Y0072394D01*
X0028824Y0073393D02*
X0029700Y0073393D01*
X0025702Y0075709D02*
X0020922Y0075723D01*
X0017194Y0071754D01*
X0014194Y0071754D01*
X0014047Y0063900D01*
X0012312Y0067402D02*
X0003694Y0067402D01*
X0003694Y0068400D02*
X0012331Y0068400D01*
X0010576Y0069399D02*
X0003694Y0069399D01*
X0003694Y0070397D02*
X0010138Y0070397D01*
X0010138Y0071396D02*
X0003694Y0071396D01*
X0003694Y0072394D02*
X0010138Y0072394D01*
X0010138Y0073393D02*
X0003694Y0073393D01*
X0003694Y0074391D02*
X0010859Y0074391D01*
X0010280Y0076388D02*
X0003694Y0076388D01*
X0003694Y0075390D02*
X0018140Y0075390D01*
X0018108Y0076388D02*
X0019077Y0076388D01*
X0021203Y0073393D02*
X0022579Y0073393D01*
X0025702Y0078858D02*
X0014694Y0078873D01*
X0014194Y0078446D01*
X0012537Y0079000D01*
X0012554Y0086191D01*
X0010745Y0082379D02*
X0003694Y0082379D01*
X0003694Y0081381D02*
X0010742Y0081381D01*
X0010157Y0080382D02*
X0003694Y0080382D01*
X0003694Y0079384D02*
X0010138Y0079384D01*
X0010138Y0078385D02*
X0003694Y0078385D01*
X0003694Y0077387D02*
X0010138Y0077387D01*
X0009395Y0083378D02*
X0003694Y0083378D01*
X0003694Y0084376D02*
X0009285Y0084376D01*
X0009285Y0085375D02*
X0003694Y0085375D01*
X0003694Y0086373D02*
X0009285Y0086373D01*
X0009285Y0087372D02*
X0003694Y0087372D01*
X0003694Y0088370D02*
X0009285Y0088370D01*
X0009759Y0089369D02*
X0003694Y0089369D01*
X0003694Y0090368D02*
X0009126Y0090368D01*
X0009085Y0091366D02*
X0003694Y0091366D01*
X0003694Y0092365D02*
X0009085Y0092365D01*
X0009085Y0094362D02*
X0003694Y0094362D01*
X0003694Y0095360D02*
X0009115Y0095360D01*
X0009852Y0096359D02*
X0003694Y0096359D01*
X0003694Y0097357D02*
X0010523Y0097357D01*
X0010455Y0098356D02*
X0003694Y0098356D01*
X0003694Y0099354D02*
X0010705Y0099354D01*
X0011395Y0100353D02*
X0003694Y0100353D01*
X0003694Y0101351D02*
X0012302Y0101351D01*
X0012049Y0102350D02*
X0003694Y0102350D01*
X0003694Y0103348D02*
X0011090Y0103348D01*
X0010068Y0104347D02*
X0003694Y0104347D01*
X0003694Y0105345D02*
X0009062Y0105345D01*
X0008861Y0106344D02*
X0003694Y0106344D01*
X0003694Y0107342D02*
X0008855Y0107342D01*
X0008861Y0108341D02*
X0003694Y0108341D01*
X0003694Y0109339D02*
X0008861Y0109339D01*
X0008861Y0110338D02*
X0003694Y0110338D01*
X0003694Y0111336D02*
X0008861Y0111336D01*
X0008861Y0112335D02*
X0003694Y0112335D01*
X0003694Y0113333D02*
X0008861Y0113333D01*
X0008861Y0114332D02*
X0003694Y0114332D01*
X0003694Y0115330D02*
X0008861Y0115330D01*
X0008861Y0116329D02*
X0003694Y0116329D01*
X0003694Y0117327D02*
X0008861Y0117327D01*
X0008861Y0118326D02*
X0003694Y0118326D01*
X0003694Y0119324D02*
X0008861Y0119324D01*
X0008861Y0120323D02*
X0003694Y0120323D01*
X0003694Y0121321D02*
X0008861Y0121321D01*
X0008861Y0122320D02*
X0003694Y0122320D01*
X0003694Y0123318D02*
X0009144Y0123318D01*
X0010143Y0124317D02*
X0003694Y0124317D01*
X0003694Y0125315D02*
X0011141Y0125315D01*
X0018799Y0131306D02*
X0019799Y0131306D01*
X0019799Y0132305D02*
X0018799Y0132305D01*
X0018799Y0133303D02*
X0019799Y0133303D01*
X0019799Y0134302D02*
X0018799Y0134302D01*
X0018799Y0135301D02*
X0019799Y0135301D01*
X0018799Y0136299D02*
X0016862Y0136299D01*
X0016862Y0136763D02*
X0014181Y0136763D01*
X0016862Y0136763D01*
X0014181Y0136763D02*
X0014181Y0136763D01*
X0014181Y0140700D02*
X0014181Y0141596D01*
X0015426Y0143644D01*
X0015426Y0146695D01*
X0017194Y0148744D01*
X0021154Y0148744D01*
X0023103Y0146546D01*
X0025916Y0145286D02*
X0030424Y0145286D01*
X0030424Y0146284D02*
X0026184Y0146284D01*
X0026184Y0145933D02*
X0026184Y0147159D01*
X0026130Y0147288D01*
X0026510Y0147288D01*
X0026510Y0150469D01*
X0027478Y0150469D01*
X0027478Y0147288D01*
X0029160Y0147288D01*
X0029541Y0147390D01*
X0029883Y0147588D01*
X0030163Y0147867D01*
X0030360Y0148209D01*
X0030424Y0148448D01*
X0030424Y0143512D01*
X0029287Y0143512D01*
X0028525Y0142750D01*
X0028525Y0139655D01*
X0027724Y0138850D01*
X0026375Y0138850D01*
X0026898Y0139374D01*
X0026898Y0142026D01*
X0026217Y0142707D01*
X0026217Y0142772D01*
X0025947Y0143043D01*
X0025686Y0143682D01*
X0025686Y0144074D01*
X0025415Y0144345D01*
X0025370Y0144456D01*
X0025715Y0144801D01*
X0026184Y0145933D01*
X0026132Y0147283D02*
X0030424Y0147283D01*
X0030424Y0148281D02*
X0030379Y0148281D01*
X0030424Y0144287D02*
X0025473Y0144287D01*
X0025846Y0143289D02*
X0029064Y0143289D01*
X0028525Y0142290D02*
X0026634Y0142290D01*
X0026898Y0141292D02*
X0028525Y0141292D01*
X0028525Y0140293D02*
X0026898Y0140293D01*
X0026819Y0139295D02*
X0028166Y0139295D01*
X0031794Y0140046D02*
X0032709Y0140046D01*
X0032709Y0141069D01*
X0032709Y0140896D02*
X0031794Y0140046D01*
X0032787Y0139964D01*
X0034993Y0144287D02*
X0039185Y0144287D01*
X0039346Y0145286D02*
X0034993Y0145286D01*
X0034993Y0146284D02*
X0048900Y0146284D01*
X0049450Y0145286D02*
X0050418Y0145286D01*
X0050418Y0144287D02*
X0049450Y0144287D01*
X0049450Y0143289D02*
X0050418Y0143289D01*
X0050418Y0141292D02*
X0049450Y0141292D01*
X0049450Y0140293D02*
X0050418Y0140293D01*
X0050418Y0139295D02*
X0049450Y0139295D01*
X0049450Y0138296D02*
X0050418Y0138296D01*
X0049462Y0136299D02*
X0056547Y0136299D01*
X0056787Y0136539D02*
X0055920Y0135672D01*
X0055451Y0134540D01*
X0055451Y0133314D01*
X0055920Y0132182D01*
X0056787Y0131315D01*
X0057920Y0130846D01*
X0059145Y0130846D01*
X0060278Y0131315D01*
X0061145Y0132182D01*
X0061614Y0133314D01*
X0061614Y0134540D01*
X0061145Y0135672D01*
X0060278Y0136539D01*
X0059145Y0137008D01*
X0057920Y0137008D01*
X0056787Y0136539D01*
X0055766Y0135301D02*
X0049462Y0135301D01*
X0049462Y0134302D02*
X0055451Y0134302D01*
X0055456Y0133303D02*
X0049462Y0133303D01*
X0049462Y0132305D02*
X0055869Y0132305D01*
X0056807Y0131306D02*
X0049462Y0131306D01*
X0049462Y0130308D02*
X0064202Y0130308D01*
X0061674Y0129309D02*
X0048897Y0129309D01*
X0046194Y0133169D02*
X0041827Y0133514D01*
X0040516Y0134825D01*
X0042400Y0137298D02*
X0067894Y0137298D01*
X0067894Y0138296D02*
X0053185Y0138296D01*
X0053402Y0139295D02*
X0067894Y0139295D01*
X0067894Y0140293D02*
X0053402Y0140293D01*
X0060257Y0131306D02*
X0072342Y0131306D01*
X0073340Y0130308D02*
X0068612Y0130308D01*
X0070482Y0129309D02*
X0074339Y0129309D01*
X0075337Y0128311D02*
X0071481Y0128311D01*
X0072479Y0127312D02*
X0076336Y0127312D01*
X0077433Y0131306D02*
X0077556Y0131306D01*
X0077559Y0132305D02*
X0076434Y0132305D01*
X0075436Y0133303D02*
X0077559Y0133303D01*
X0077559Y0134302D02*
X0074437Y0134302D01*
X0073439Y0135301D02*
X0077559Y0135301D01*
X0077559Y0136299D02*
X0072440Y0136299D01*
X0071494Y0137298D02*
X0077559Y0137298D01*
X0078134Y0138296D02*
X0071494Y0138296D01*
X0071494Y0139295D02*
X0079133Y0139295D01*
X0080131Y0140293D02*
X0071494Y0140293D01*
X0067894Y0136299D02*
X0060518Y0136299D01*
X0061298Y0135301D02*
X0068348Y0135301D01*
X0069346Y0134302D02*
X0061614Y0134302D01*
X0061609Y0133303D02*
X0070345Y0133303D01*
X0071343Y0132305D02*
X0061196Y0132305D01*
X0060647Y0128311D02*
X0059902Y0128311D01*
X0054886Y0128311D02*
X0038721Y0128311D01*
X0038721Y0129309D02*
X0043491Y0129309D01*
X0042925Y0130308D02*
X0038721Y0130308D01*
X0038721Y0131306D02*
X0042925Y0131306D01*
X0039036Y0141069D02*
X0039694Y0141831D01*
X0050545Y0150278D02*
X0051528Y0150278D01*
X0051528Y0151277D02*
X0050545Y0151277D01*
X0050545Y0152275D02*
X0051528Y0152275D01*
X0051528Y0153274D02*
X0050545Y0153274D01*
X0050545Y0154272D02*
X0051540Y0154272D01*
X0052197Y0155271D02*
X0050545Y0155271D01*
X0050545Y0156269D02*
X0051528Y0156269D01*
X0040828Y0161262D02*
X0034422Y0161262D01*
X0029855Y0161262D02*
X0029115Y0161262D01*
X0026994Y0157646D02*
X0026543Y0157564D01*
X0022924Y0154000D01*
X0020899Y0153931D01*
X0023777Y0151438D02*
X0026509Y0151438D01*
X0026509Y0150469D01*
X0023525Y0150469D01*
X0023525Y0149627D01*
X0022816Y0149627D01*
X0022527Y0149916D01*
X0022856Y0150005D01*
X0023198Y0150202D01*
X0023478Y0150481D01*
X0023675Y0150823D01*
X0023777Y0151205D01*
X0023777Y0151438D01*
X0023777Y0151277D02*
X0026509Y0151277D01*
X0026510Y0151438D02*
X0026510Y0154181D01*
X0027478Y0154181D01*
X0027478Y0151438D01*
X0026510Y0151438D01*
X0026510Y0152275D02*
X0027478Y0152275D01*
X0027478Y0153274D02*
X0026510Y0153274D01*
X0026510Y0150278D02*
X0027478Y0150278D01*
X0027478Y0149280D02*
X0026510Y0149280D01*
X0026510Y0148281D02*
X0027478Y0148281D01*
X0023525Y0150278D02*
X0023274Y0150278D01*
X0018611Y0145463D02*
X0020731Y0143329D01*
X0023886Y0143329D01*
X0024417Y0142027D01*
X0024417Y0140700D01*
X0026748Y0134302D02*
X0028325Y0134302D01*
X0029814Y0113333D02*
X0029843Y0113333D01*
X0027713Y0111077D02*
X0031562Y0107229D01*
X0031578Y0103632D01*
X0029178Y0103348D02*
X0018145Y0103348D01*
X0018211Y0102350D02*
X0029178Y0102350D01*
X0029178Y0101351D02*
X0017957Y0101351D01*
X0017263Y0100353D02*
X0029419Y0100353D01*
X0029178Y0104347D02*
X0017717Y0104347D01*
X0016498Y0105345D02*
X0029178Y0105345D01*
X0029178Y0106344D02*
X0014560Y0106344D01*
X0013546Y0107342D02*
X0028902Y0107342D01*
X0026267Y0108341D02*
X0013430Y0108341D01*
X0013430Y0109339D02*
X0025097Y0109339D01*
X0024684Y0110338D02*
X0013430Y0110338D01*
X0013430Y0111336D02*
X0024632Y0111336D01*
X0024899Y0112335D02*
X0013430Y0112335D01*
X0013430Y0113333D02*
X0025612Y0113333D01*
X0021902Y0099354D02*
X0016366Y0099354D01*
X0016830Y0098356D02*
X0021902Y0098356D01*
X0021902Y0097357D02*
X0017829Y0097357D01*
X0018020Y0094621D02*
X0014516Y0098125D01*
X0013536Y0098136D01*
X0016022Y0094073D02*
X0016748Y0093347D01*
X0017271Y0092822D01*
X0017273Y0092822D01*
X0017274Y0092821D01*
X0018019Y0092821D01*
X0021718Y0092814D01*
X0021702Y0092754D01*
X0021702Y0091507D01*
X0025652Y0091507D01*
X0025652Y0091407D01*
X0021702Y0091407D01*
X0021702Y0090159D01*
X0021716Y0090107D01*
X0019863Y0090107D01*
X0019777Y0090193D01*
X0018645Y0090662D01*
X0017419Y0090662D01*
X0016286Y0090193D01*
X0015420Y0089326D01*
X0015411Y0089306D01*
X0015288Y0089429D01*
X0015443Y0089519D01*
X0015722Y0089798D01*
X0015920Y0090140D01*
X0016022Y0090521D01*
X0016022Y0092400D01*
X0013038Y0092400D01*
X0013038Y0093369D01*
X0016022Y0093369D01*
X0016022Y0094073D01*
X0016732Y0093363D02*
X0013038Y0093363D01*
X0012069Y0093363D02*
X0003694Y0093363D01*
X0015348Y0089369D02*
X0015462Y0089369D01*
X0015981Y0090368D02*
X0016708Y0090368D01*
X0016022Y0091366D02*
X0021702Y0091366D01*
X0021702Y0090368D02*
X0019355Y0090368D01*
X0018758Y0088307D02*
X0018032Y0087581D01*
X0018032Y0084235D01*
X0020244Y0082008D01*
X0025702Y0082008D01*
X0025652Y0085107D02*
X0021702Y0085107D01*
X0021702Y0083860D01*
X0021716Y0083808D01*
X0020993Y0083808D01*
X0019832Y0084977D01*
X0019832Y0085024D01*
X0020644Y0085836D01*
X0020922Y0086507D01*
X0021716Y0086507D01*
X0021702Y0086455D01*
X0021702Y0085207D01*
X0025652Y0085207D01*
X0025652Y0085107D01*
X0025702Y0088307D02*
X0018758Y0088307D01*
X0020183Y0085375D02*
X0021702Y0085375D01*
X0021702Y0086373D02*
X0020866Y0086373D01*
X0020428Y0084376D02*
X0021702Y0084376D01*
X0021702Y0092365D02*
X0016022Y0092365D01*
X0018020Y0094621D02*
X0025702Y0094606D01*
X0029178Y0068400D02*
X0015932Y0068400D01*
X0015913Y0067402D02*
X0029178Y0067402D01*
X0029569Y0066403D02*
X0024315Y0066403D01*
X0024406Y0065405D02*
X0029772Y0065405D01*
X0029771Y0064406D02*
X0024406Y0064406D01*
X0024406Y0063416D02*
X0021225Y0063416D01*
X0021225Y0060431D01*
X0023103Y0060431D01*
X0023485Y0060534D01*
X0023827Y0060731D01*
X0024106Y0061010D01*
X0024303Y0061353D01*
X0024406Y0061734D01*
X0024406Y0063416D01*
X0024406Y0063408D02*
X0029769Y0063408D01*
X0029768Y0062409D02*
X0024406Y0062409D01*
X0024319Y0061411D02*
X0029767Y0061411D01*
X0029765Y0060412D02*
X0003694Y0060412D01*
X0003694Y0059414D02*
X0029764Y0059414D01*
X0029752Y0058415D02*
X0003694Y0058415D01*
X0003694Y0057417D02*
X0029761Y0057417D01*
X0030378Y0056418D02*
X0003694Y0056418D01*
X0003694Y0055420D02*
X0031408Y0055420D01*
X0031528Y0054421D02*
X0003694Y0054421D01*
X0003694Y0061411D02*
X0010582Y0061411D01*
X0010582Y0062409D02*
X0003694Y0062409D01*
X0003694Y0063408D02*
X0010582Y0063408D01*
X0010582Y0064406D02*
X0003694Y0064406D01*
X0003694Y0065405D02*
X0010582Y0065405D01*
X0010582Y0066403D02*
X0003694Y0066403D01*
X0014694Y0051243D02*
X0014398Y0050951D01*
X0016283Y0053423D02*
X0031471Y0053423D01*
X0034743Y0047864D02*
X0034994Y0047754D01*
X0031528Y0045434D02*
X0019755Y0045434D01*
X0017827Y0047503D02*
X0017827Y0047864D01*
X0020256Y0061411D02*
X0021225Y0061411D01*
X0021225Y0062409D02*
X0020256Y0062409D01*
X0020256Y0063408D02*
X0021225Y0063408D01*
X0021225Y0064406D02*
X0020256Y0064406D01*
X0020256Y0065405D02*
X0021225Y0065405D01*
X0021225Y0066403D02*
X0020256Y0066403D01*
X0043310Y0030457D02*
X0044278Y0030457D01*
X0044278Y0029458D02*
X0043310Y0029458D01*
X0043310Y0028460D02*
X0044278Y0028460D01*
X0044278Y0027461D02*
X0043310Y0027461D01*
X0046464Y0027461D02*
X0048474Y0027461D01*
X0049473Y0028460D02*
X0047227Y0028460D01*
X0047262Y0029458D02*
X0050471Y0029458D01*
X0050557Y0031455D02*
X0047262Y0031455D01*
X0047262Y0030457D02*
X0055089Y0030457D01*
X0054630Y0031455D02*
X0055661Y0031455D01*
X0055629Y0032454D02*
X0055661Y0032454D01*
X0049559Y0032454D02*
X0047262Y0032454D01*
X0047226Y0033452D02*
X0048417Y0033452D01*
X0047423Y0034451D02*
X0046571Y0034451D01*
X0050542Y0021470D02*
X0003694Y0021470D01*
X0041075Y0013526D02*
X0044835Y0013526D01*
X0047551Y0010810D01*
X0084996Y0010810D01*
X0085122Y0013482D02*
X0047424Y0013482D01*
X0046425Y0014481D02*
X0051770Y0014481D01*
X0050832Y0015479D02*
X0043479Y0015479D01*
X0053496Y0017101D02*
X0054694Y0018299D01*
X0056798Y0020403D01*
X0078042Y0020403D01*
X0082577Y0024938D01*
X0082594Y0025500D01*
X0084645Y0021470D02*
X0085814Y0021470D01*
X0085814Y0020472D02*
X0080656Y0020472D01*
X0079658Y0019473D02*
X0085814Y0019473D01*
X0085814Y0018475D02*
X0057415Y0018475D01*
X0056577Y0017476D02*
X0085814Y0017476D01*
X0085814Y0016478D02*
X0056572Y0016478D01*
X0056159Y0015479D02*
X0085814Y0015479D01*
X0085814Y0014481D02*
X0055221Y0014481D01*
X0074913Y0031455D02*
X0075231Y0031455D01*
X0079198Y0038445D02*
X0079458Y0038445D01*
X0079198Y0039443D02*
X0080456Y0039443D01*
X0085644Y0022469D02*
X0085814Y0022469D01*
X0092578Y0021500D02*
X0092594Y0025500D01*
X0085294Y0065405D02*
X0084654Y0065405D01*
X0083983Y0066403D02*
X0086293Y0066403D01*
X0076481Y0113333D02*
X0076392Y0113333D01*
X0076902Y0114332D02*
X0077480Y0114332D01*
X0073131Y0114332D02*
X0072162Y0114332D01*
X0072162Y0115330D02*
X0073131Y0115330D01*
X0073131Y0113333D02*
X0072162Y0113333D01*
X0072162Y0117327D02*
X0073131Y0117327D01*
X0073131Y0118326D02*
X0072162Y0118326D01*
X0072162Y0119324D02*
X0073131Y0119324D01*
X0072647Y0123914D02*
X0072670Y0123938D01*
X0068591Y0124317D02*
X0063093Y0124317D01*
X0064121Y0125315D02*
X0065067Y0125315D01*
X0067601Y0125315D02*
X0068015Y0125315D01*
X0068591Y0123318D02*
X0067404Y0123318D01*
X0068041Y0122320D02*
X0068591Y0122320D01*
X0068677Y0121321D02*
X0068041Y0121321D01*
X0063985Y0120174D02*
X0064300Y0119000D01*
X0057878Y0117327D02*
X0056910Y0117327D01*
X0056910Y0116329D02*
X0057878Y0116329D01*
X0057878Y0115330D02*
X0056910Y0115330D01*
X0048390Y0111770D02*
X0047326Y0111500D01*
X0047326Y0103632D01*
X0044177Y0103632D02*
X0044160Y0113219D01*
X0044160Y0116500D01*
X0044594Y0118154D01*
X0042454Y0173244D02*
X0042294Y0173244D01*
X0087582Y0194213D02*
X0087782Y0194213D01*
X0087782Y0195211D02*
X0087582Y0195211D01*
X0087582Y0196210D02*
X0087782Y0196210D01*
X0087782Y0197208D02*
X0087582Y0197208D01*
X0087582Y0198207D02*
X0087782Y0198207D01*
X0087782Y0199205D02*
X0087582Y0199205D01*
X0087582Y0200204D02*
X0087782Y0200204D01*
X0087782Y0201202D02*
X0087582Y0201202D01*
X0089196Y0201202D02*
X0096690Y0201202D01*
X0103800Y0165338D02*
X0103800Y0165338D01*
X0098827Y0155271D02*
X0113681Y0155271D01*
X0113132Y0159051D02*
X0113132Y0159207D01*
X0139922Y0255122D02*
X0181796Y0255122D01*
X0181796Y0256120D02*
X0140919Y0256120D01*
X0141915Y0257119D02*
X0181796Y0257119D01*
X0181796Y0258117D02*
X0142912Y0258117D01*
X0143908Y0259116D02*
X0181796Y0259116D01*
X0181796Y0260114D02*
X0144905Y0260114D01*
X0145902Y0261113D02*
X0181796Y0261113D01*
X0181796Y0262111D02*
X0145958Y0262111D01*
X0145958Y0263110D02*
X0181796Y0263110D01*
X0181796Y0264108D02*
X0145958Y0264108D01*
X0145958Y0265107D02*
X0181796Y0265107D01*
X0181796Y0266105D02*
X0145958Y0266105D01*
X0145958Y0267104D02*
X0181796Y0267104D01*
X0181796Y0268103D02*
X0145958Y0268103D01*
X0145958Y0269101D02*
X0181796Y0269101D01*
X0181796Y0270100D02*
X0145979Y0270100D01*
X0145564Y0271098D02*
X0181796Y0271098D01*
D38*
X0032709Y0140896D02*
X0028591Y0136763D01*
X0024417Y0136763D01*
D39*
X0054194Y0185500D02*
X0054194Y0187100D01*
D40*
X0053995Y0187484D01*
X0053995Y0185516D02*
X0054194Y0185500D01*
X0053995Y0183547D02*
X0058847Y0183547D01*
X0063847Y0179000D01*
X0059794Y0178300D02*
X0059794Y0175900D01*
X0063794Y0171900D01*
X0063847Y0171500D01*
X0064594Y0171100D01*
X0075794Y0159900D01*
X0075794Y0154300D01*
X0074194Y0152700D01*
X0074194Y0144700D01*
X0075794Y0143100D01*
X0078994Y0143100D01*
X0080594Y0144700D01*
X0080594Y0150300D01*
X0081394Y0151100D01*
X0092594Y0151100D01*
X0095794Y0154300D01*
X0097394Y0154300D01*
X0099794Y0151900D01*
X0099794Y0145500D01*
X0084594Y0130300D01*
X0084594Y0103900D01*
X0072594Y0091900D01*
X0059794Y0091900D01*
X0059502Y0091457D01*
X0088594Y0066300D02*
X0082994Y0060700D01*
X0082994Y0035900D01*
X0082594Y0035500D01*
X0086994Y0033500D02*
X0082994Y0029500D01*
X0082994Y0025500D01*
X0082594Y0025500D01*
X0086994Y0033500D02*
X0086994Y0035900D01*
X0109394Y0058300D01*
X0158994Y0058300D01*
X0171505Y0059000D01*
X0171505Y0069000D02*
X0158994Y0069500D01*
X0088594Y0069500D01*
X0088594Y0066300D01*
X0088594Y0069500D02*
X0088594Y0071900D01*
X0089095Y0072352D01*
X0090194Y0079100D02*
X0089394Y0079900D01*
X0088945Y0080360D01*
X0090194Y0079100D02*
X0158994Y0079100D01*
X0171505Y0079000D01*
X0171505Y0089000D02*
X0158994Y0088700D01*
X0086194Y0088700D01*
X0085934Y0088014D01*
X0089197Y0095872D02*
X0089394Y0095900D01*
X0091794Y0098300D01*
X0158994Y0098300D01*
X0171505Y0099000D01*
X0108030Y0224936D02*
X0107794Y0225500D01*
X0090994Y0234300D02*
X0090979Y0234652D01*
X0064594Y0194300D02*
X0063847Y0194000D01*
X0063794Y0193500D01*
X0063794Y0187100D02*
X0063847Y0186500D01*
X0064594Y0186300D01*
X0070194Y0180700D01*
X0070194Y0179100D01*
X0070540Y0179000D01*
X0059794Y0178300D02*
X0056594Y0181500D01*
X0054194Y0181500D01*
X0053995Y0181579D01*
X0040393Y0181579D02*
X0039794Y0181500D01*
X0038194Y0181500D01*
X0037394Y0180700D01*
X0037394Y0167100D01*
X0042194Y0162300D01*
X0065394Y0162300D01*
X0070194Y0157500D01*
X0070914Y0157258D01*
X0041347Y0169000D02*
X0040594Y0169500D01*
X0040594Y0177500D01*
X0040393Y0177642D01*
X0040393Y0183547D02*
X0035147Y0183547D01*
X0034694Y0184000D01*
X0034694Y0189500D02*
X0034694Y0191328D01*
X0034694Y0189500D02*
X0040393Y0189453D01*
X0038994Y0189500D01*
X0034694Y0189500D01*
X0028144Y0189500D01*
X0028144Y0192830D01*
X0022492Y0192830D01*
X0028144Y0189500D02*
X0028144Y0177575D01*
X0029394Y0177500D01*
X0031794Y0175900D02*
X0031794Y0179100D01*
X0030944Y0184000D01*
X0030944Y0187484D01*
X0040393Y0187484D01*
X0040594Y0187100D01*
X0040594Y0185500D01*
X0040393Y0185516D01*
X0039794Y0185500D01*
X0031794Y0175900D02*
X0026994Y0171100D01*
X0026398Y0171065D01*
X0022399Y0174910D01*
X0022399Y0184473D01*
X0027794Y0167900D02*
X0014194Y0167900D01*
X0013394Y0168700D01*
X0013339Y0168923D01*
X0013394Y0164700D02*
X0013213Y0164332D01*
X0013394Y0164700D02*
X0019794Y0164700D01*
X0021394Y0166300D01*
X0023794Y0166300D01*
X0026194Y0163900D01*
X0026961Y0163466D01*
X0027794Y0167900D02*
X0031794Y0163900D01*
X0032138Y0163336D01*
X0026994Y0151963D02*
X0020899Y0151963D01*
X0041199Y0233333D02*
X0041394Y0233500D01*
X0041394Y0246300D01*
X0045394Y0250300D01*
X0045823Y0251251D01*
X0023794Y0267100D02*
X0023522Y0267100D01*
X0023794Y0267100D02*
X0023794Y0270300D01*
X0023443Y0269988D01*
D41*
X0053995Y0189453D02*
X0053995Y0187484D01*
D42*
X0026994Y0151963D02*
X0026994Y0150954D01*
X0022411Y0184473D02*
X0022399Y0184473D01*
D43*
X0040393Y0193390D02*
X0040393Y0195358D01*
X0040393Y0207978D01*
X0041115Y0208700D01*
X0051115Y0208700D02*
X0052494Y0208700D01*
X0053995Y0206500D01*
X0053995Y0195358D01*
X0053995Y0193390D01*
D44*
X0053995Y0191421D01*
D45*
X0029394Y0177500D03*
M02*
