G75*
%MOIN*%
%OFA0B0*%
%FSLAX25Y25*%
%IPPOS*%
%LPD*%
%AMOC8*
5,1,8,0,0,1.08239X$1,22.5*
%
%ADD10C,0.00000*%
%ADD11R,0.04337X0.04731*%
%ADD12R,0.04731X0.04337*%
%ADD13R,0.04337X0.05912*%
%ADD14R,0.05912X0.04337*%
%ADD15OC8,0.07000*%
%ADD16R,0.01778X0.01778*%
%ADD17R,0.01476X0.01378*%
%ADD18R,0.01969X0.03150*%
%ADD19R,0.01378X0.01378*%
%ADD20R,0.03156X0.01521*%
%ADD21R,0.02762X0.01975*%
%ADD22R,0.06306X0.09849*%
%ADD23C,0.05400*%
%ADD24R,0.05400X0.02600*%
%ADD25R,0.02600X0.05400*%
%ADD26OC8,0.06400*%
%ADD27C,0.06400*%
%ADD28R,0.05912X0.03156*%
%ADD29R,0.04337X0.04337*%
%ADD30C,0.05600*%
%ADD31C,0.04800*%
%ADD32R,0.03569X0.01600*%
%ADD33R,0.01600X0.03569*%
%ADD34R,0.09298X0.10006*%
%ADD35R,0.05124X0.12211*%
D10*
X0002194Y0001500D02*
X0002194Y0277091D01*
X0183296Y0277091D01*
X0183296Y0001500D01*
X0002194Y0001500D01*
D11*
X0043794Y0030954D03*
X0043794Y0037646D03*
X0069769Y0072174D03*
X0076462Y0072174D03*
X0057394Y0118154D03*
X0057394Y0124846D03*
X0031794Y0124846D03*
X0031794Y0118154D03*
X0031794Y0133354D03*
X0031794Y0140046D03*
X0026994Y0150954D03*
X0026994Y0157646D03*
X0041347Y0169000D03*
X0048040Y0169000D03*
X0063847Y0171500D03*
X0070540Y0171500D03*
X0085247Y0160700D03*
X0091940Y0160700D03*
X0026540Y0251450D03*
X0019847Y0251450D03*
X0012554Y0092884D03*
X0012554Y0086191D03*
X0126847Y0019100D03*
X0126847Y0012700D03*
X0133540Y0012700D03*
X0133540Y0019100D03*
D12*
X0136244Y0026154D03*
X0136244Y0032846D03*
X0143444Y0032846D03*
X0143444Y0026154D03*
X0076462Y0078574D03*
X0076462Y0084974D03*
X0069769Y0084974D03*
X0069769Y0078574D03*
X0048594Y0055246D03*
X0048594Y0048554D03*
X0034994Y0047754D03*
X0034994Y0054446D03*
X0020740Y0063900D03*
X0014047Y0063900D03*
X0038194Y0118154D03*
X0038194Y0124846D03*
X0044594Y0124846D03*
X0044594Y0118154D03*
X0050994Y0118154D03*
X0050994Y0124846D03*
X0054994Y0151754D03*
X0054994Y0158446D03*
X0063847Y0179000D03*
X0063847Y0186500D03*
X0063847Y0194000D03*
X0070540Y0194000D03*
X0070540Y0186500D03*
X0070540Y0179000D03*
X0091794Y0174446D03*
X0091794Y0167754D03*
X0091140Y0147900D03*
X0084447Y0147900D03*
X0110047Y0211900D03*
X0116740Y0211900D03*
X0056594Y0240154D03*
X0056594Y0246846D03*
D13*
X0049934Y0141831D03*
X0046194Y0133169D03*
X0042454Y0141831D03*
D14*
X0063985Y0120174D03*
X0072647Y0116434D03*
X0072647Y0123914D03*
X0130175Y0033240D03*
X0130175Y0025760D03*
X0121513Y0029500D03*
D15*
X0058644Y0261475D03*
X0048644Y0261475D03*
D16*
X0110625Y0219100D03*
X0114562Y0219100D03*
D17*
X0114612Y0219100D03*
D18*
X0116039Y0219100D03*
X0109149Y0219100D03*
D19*
X0110625Y0219100D03*
D20*
X0020899Y0155900D03*
X0020899Y0153931D03*
X0020899Y0151963D03*
X0014403Y0151963D03*
X0014403Y0153931D03*
X0014403Y0155900D03*
D21*
X0014181Y0140700D03*
X0014181Y0136763D03*
X0014181Y0132826D03*
X0024417Y0132826D03*
X0024417Y0136763D03*
X0024417Y0140700D03*
D22*
X0019299Y0136763D03*
D23*
X0022411Y0184473D03*
X0022492Y0192830D03*
X0087682Y0197500D03*
X0087682Y0187500D03*
X0097682Y0187500D03*
X0097682Y0197500D03*
D24*
X0059502Y0097756D03*
X0059502Y0094606D03*
X0059502Y0091457D03*
X0059502Y0088307D03*
X0059502Y0085157D03*
X0059502Y0082008D03*
X0059502Y0078858D03*
X0059502Y0075709D03*
X0025702Y0075709D03*
X0025702Y0078858D03*
X0025702Y0082008D03*
X0025702Y0085157D03*
X0025702Y0088307D03*
X0025702Y0091457D03*
X0025702Y0094606D03*
X0025702Y0097756D03*
D25*
X0031578Y0103632D03*
X0034728Y0103632D03*
X0037877Y0103632D03*
X0041027Y0103632D03*
X0044177Y0103632D03*
X0047326Y0103632D03*
X0050476Y0103632D03*
X0053625Y0103632D03*
X0053625Y0069832D03*
X0050476Y0069832D03*
X0047326Y0069832D03*
X0044177Y0069832D03*
X0041027Y0069832D03*
X0037877Y0069832D03*
X0034728Y0069832D03*
X0031578Y0069832D03*
D26*
X0052594Y0035500D03*
X0052594Y0025500D03*
X0062594Y0025500D03*
X0062594Y0035500D03*
X0072594Y0035500D03*
X0072594Y0025500D03*
X0082594Y0025500D03*
X0082594Y0035500D03*
X0092594Y0035500D03*
X0092594Y0025500D03*
X0102594Y0025500D03*
X0102594Y0035500D03*
X0112594Y0035500D03*
X0112594Y0025500D03*
D27*
X0108351Y0049000D02*
X0102351Y0049000D01*
X0102351Y0059000D02*
X0108351Y0059000D01*
X0108351Y0069000D02*
X0102351Y0069000D01*
X0102351Y0079000D02*
X0108351Y0079000D01*
X0108351Y0089000D02*
X0102351Y0089000D01*
X0102351Y0099000D02*
X0108351Y0099000D01*
X0108351Y0109000D02*
X0102351Y0109000D01*
X0102351Y0119000D02*
X0108351Y0119000D01*
X0051115Y0205700D02*
X0051115Y0211700D01*
X0041115Y0211700D02*
X0041115Y0205700D01*
X0115873Y0231300D02*
X0115873Y0237300D01*
X0125873Y0237300D02*
X0125873Y0231300D01*
D28*
X0014194Y0078446D03*
X0014194Y0071754D03*
D29*
X0101151Y0266216D03*
X0101151Y0274091D03*
X0120836Y0274091D03*
X0120836Y0266216D03*
D30*
X0023522Y0264500D02*
X0023522Y0269700D01*
X0013522Y0269700D02*
X0013522Y0264500D01*
D31*
X0072909Y0253550D03*
X0092594Y0253550D03*
X0112279Y0253550D03*
D32*
X0053995Y0195358D03*
X0053995Y0193390D03*
X0053995Y0191421D03*
X0053995Y0189453D03*
X0053995Y0187484D03*
X0053995Y0185516D03*
X0053995Y0183547D03*
X0053995Y0181579D03*
X0053995Y0179610D03*
X0053995Y0177642D03*
X0040393Y0177642D03*
X0040393Y0179610D03*
X0040393Y0181579D03*
X0040393Y0183547D03*
X0040393Y0185516D03*
X0040393Y0187484D03*
X0040393Y0189453D03*
X0040393Y0191421D03*
X0040393Y0193390D03*
X0040393Y0195358D03*
D33*
X0044241Y0197238D03*
X0050147Y0197238D03*
X0050147Y0175762D03*
X0044241Y0175762D03*
D34*
X0047194Y0186500D03*
D35*
X0023443Y0269988D03*
X0013601Y0269988D03*
M02*
