G75*
%MOIN*%
%OFA0B0*%
%FSLAX25Y25*%
%IPPOS*%
%LPD*%
%AMOC8*
5,1,8,0,0,1.08239X$1,22.5*
%
%ADD10C,0.00000*%
%ADD11C,0.00300*%
%ADD12C,0.00600*%
%ADD13R,0.00984X0.00984*%
%ADD14C,0.00400*%
%ADD15C,0.00500*%
%ADD16C,0.01378*%
%ADD17C,0.00200*%
D10*
X0002194Y0001500D02*
X0002194Y0277091D01*
X0183296Y0277091D01*
X0183296Y0001500D01*
X0002194Y0001500D01*
D11*
X0036291Y0031591D02*
X0036775Y0031107D01*
X0038710Y0031107D01*
X0039194Y0031591D01*
X0039194Y0032558D01*
X0038710Y0033042D01*
X0038710Y0034053D02*
X0039194Y0034053D01*
X0038710Y0034053D02*
X0036775Y0035988D01*
X0036291Y0035988D01*
X0036291Y0034053D01*
X0036775Y0033042D02*
X0036291Y0032558D01*
X0036291Y0031591D01*
X0040841Y0050350D02*
X0040841Y0051801D01*
X0041325Y0052285D01*
X0042293Y0052285D01*
X0042776Y0051801D01*
X0042776Y0050350D01*
X0042776Y0051317D02*
X0043744Y0052285D01*
X0043744Y0053297D02*
X0043260Y0053297D01*
X0041325Y0055231D01*
X0040841Y0055231D01*
X0040841Y0053297D01*
X0040841Y0050350D02*
X0043744Y0050350D01*
X0037625Y0058200D02*
X0035690Y0058200D01*
X0037625Y0060135D01*
X0037625Y0060619D01*
X0037142Y0061102D01*
X0036174Y0061102D01*
X0035690Y0060619D01*
X0034679Y0060619D02*
X0034679Y0059651D01*
X0034195Y0059167D01*
X0032744Y0059167D01*
X0032744Y0058200D02*
X0032744Y0061102D01*
X0034195Y0061102D01*
X0034679Y0060619D01*
X0033711Y0059167D02*
X0034679Y0058200D01*
X0021622Y0058969D02*
X0019687Y0057034D01*
X0019687Y0056550D01*
X0018675Y0056550D02*
X0016740Y0056550D01*
X0017708Y0056550D02*
X0017708Y0059452D01*
X0016740Y0058485D01*
X0015729Y0058969D02*
X0015245Y0059452D01*
X0014278Y0059452D01*
X0013794Y0058969D01*
X0013794Y0057034D01*
X0014278Y0056550D01*
X0015245Y0056550D01*
X0015729Y0057034D01*
X0019687Y0059452D02*
X0021622Y0059452D01*
X0021622Y0058969D01*
X0008154Y0072142D02*
X0005252Y0074077D01*
X0006219Y0075089D02*
X0005252Y0076056D01*
X0008154Y0076056D01*
X0008154Y0075089D02*
X0008154Y0077024D01*
X0008154Y0074077D02*
X0005252Y0072142D01*
X0004985Y0085938D02*
X0006920Y0085938D01*
X0007404Y0086422D01*
X0007404Y0087389D01*
X0006920Y0087873D01*
X0007404Y0088884D02*
X0007404Y0090819D01*
X0007404Y0089852D02*
X0004501Y0089852D01*
X0005469Y0088884D01*
X0004985Y0087873D02*
X0004501Y0087389D01*
X0004501Y0086422D01*
X0004985Y0085938D01*
X0005952Y0091831D02*
X0005952Y0093282D01*
X0006436Y0093766D01*
X0006920Y0093766D01*
X0007404Y0093282D01*
X0007404Y0092315D01*
X0006920Y0091831D01*
X0005952Y0091831D01*
X0004985Y0092798D01*
X0004501Y0093766D01*
X0024925Y0118257D02*
X0024441Y0118741D01*
X0024441Y0119708D01*
X0024925Y0120192D01*
X0025893Y0121203D02*
X0025893Y0122655D01*
X0026376Y0123138D01*
X0026860Y0123138D01*
X0027344Y0122655D01*
X0027344Y0121687D01*
X0026860Y0121203D01*
X0025893Y0121203D01*
X0024925Y0122171D01*
X0024441Y0123138D01*
X0024925Y0118257D02*
X0026860Y0118257D01*
X0027344Y0118741D01*
X0027344Y0119708D01*
X0026860Y0120192D01*
X0025082Y0127200D02*
X0023147Y0127200D01*
X0025082Y0129135D01*
X0025082Y0129619D01*
X0024599Y0130102D01*
X0023631Y0130102D01*
X0023147Y0129619D01*
X0022136Y0129619D02*
X0021652Y0130102D01*
X0020684Y0130102D01*
X0020201Y0129619D01*
X0020201Y0127684D01*
X0020684Y0127200D01*
X0021652Y0127200D01*
X0022136Y0127684D01*
X0019204Y0127200D02*
X0018236Y0127200D01*
X0018720Y0127200D02*
X0018720Y0130102D01*
X0018236Y0130102D02*
X0019204Y0130102D01*
X0031284Y0143900D02*
X0032252Y0143900D01*
X0032736Y0144384D01*
X0033747Y0143900D02*
X0035682Y0143900D01*
X0034715Y0143900D02*
X0034715Y0146802D01*
X0033747Y0145835D01*
X0032736Y0146319D02*
X0032252Y0146802D01*
X0031284Y0146802D01*
X0030801Y0146319D01*
X0030801Y0144384D01*
X0031284Y0143900D01*
X0032325Y0151350D02*
X0031841Y0151834D01*
X0031841Y0152801D01*
X0032325Y0153285D01*
X0032325Y0154297D02*
X0031841Y0154780D01*
X0031841Y0155748D01*
X0032325Y0156231D01*
X0032809Y0156231D01*
X0034744Y0154297D01*
X0034744Y0156231D01*
X0034260Y0153285D02*
X0034744Y0152801D01*
X0034744Y0151834D01*
X0034260Y0151350D01*
X0032325Y0151350D01*
X0041451Y0160950D02*
X0041451Y0163852D01*
X0042902Y0163852D01*
X0043386Y0163369D01*
X0043386Y0162401D01*
X0042902Y0161917D01*
X0041451Y0161917D01*
X0042418Y0161917D02*
X0043386Y0160950D01*
X0044397Y0161434D02*
X0044881Y0160950D01*
X0045849Y0160950D01*
X0046332Y0161434D01*
X0046332Y0161917D01*
X0045849Y0162401D01*
X0045365Y0162401D01*
X0045849Y0162401D02*
X0046332Y0162885D01*
X0046332Y0163369D01*
X0045849Y0163852D01*
X0044881Y0163852D01*
X0044397Y0163369D01*
X0053891Y0139064D02*
X0056794Y0139064D01*
X0056794Y0138097D02*
X0056794Y0140031D01*
X0054859Y0138097D02*
X0053891Y0139064D01*
X0054375Y0137085D02*
X0053891Y0136601D01*
X0053891Y0135150D01*
X0056794Y0135150D01*
X0056794Y0136601D01*
X0056310Y0137085D01*
X0054375Y0137085D01*
X0052235Y0133406D02*
X0051751Y0133406D01*
X0051268Y0132923D01*
X0051268Y0131472D01*
X0052235Y0131472D01*
X0052719Y0131955D01*
X0052719Y0132923D01*
X0052235Y0133406D01*
X0051268Y0131472D02*
X0050300Y0132439D01*
X0049816Y0133406D01*
X0050300Y0130460D02*
X0051268Y0130460D01*
X0051751Y0129976D01*
X0051751Y0128525D01*
X0051751Y0129492D02*
X0052719Y0130460D01*
X0052719Y0128525D02*
X0049816Y0128525D01*
X0049816Y0129976D01*
X0050300Y0130460D01*
X0041100Y0130851D02*
X0039649Y0130851D01*
X0039165Y0131335D01*
X0039165Y0131819D01*
X0039649Y0132302D01*
X0040617Y0132302D01*
X0041100Y0131819D01*
X0041100Y0129884D01*
X0040617Y0129400D01*
X0039649Y0129400D01*
X0039165Y0129884D01*
X0038154Y0129400D02*
X0037186Y0130367D01*
X0037670Y0130367D02*
X0036219Y0130367D01*
X0036219Y0129400D02*
X0036219Y0132302D01*
X0037670Y0132302D01*
X0038154Y0131819D01*
X0038154Y0130851D01*
X0037670Y0130367D01*
X0060468Y0150844D02*
X0060468Y0152295D01*
X0060951Y0152779D01*
X0061919Y0152779D01*
X0062403Y0152295D01*
X0062403Y0150844D01*
X0062403Y0151811D02*
X0063370Y0152779D01*
X0063370Y0153790D02*
X0063370Y0155725D01*
X0063370Y0154758D02*
X0060468Y0154758D01*
X0061435Y0153790D01*
X0060951Y0156737D02*
X0060468Y0157220D01*
X0060468Y0158188D01*
X0060951Y0158672D01*
X0061435Y0158672D01*
X0061919Y0158188D01*
X0062403Y0158672D01*
X0062886Y0158672D01*
X0063370Y0158188D01*
X0063370Y0157220D01*
X0062886Y0156737D01*
X0061919Y0157704D02*
X0061919Y0158188D01*
X0063370Y0150844D02*
X0060468Y0150844D01*
X0063853Y0136852D02*
X0063369Y0136369D01*
X0063369Y0134434D01*
X0063853Y0133950D01*
X0064820Y0133950D01*
X0065304Y0134434D01*
X0066315Y0134434D02*
X0066799Y0133950D01*
X0067767Y0133950D01*
X0068250Y0134434D01*
X0068250Y0136369D01*
X0067767Y0136852D01*
X0066799Y0136852D01*
X0066315Y0136369D01*
X0066315Y0135885D01*
X0066799Y0135401D01*
X0068250Y0135401D01*
X0065304Y0136369D02*
X0064820Y0136852D01*
X0063853Y0136852D01*
X0079203Y0118214D02*
X0078719Y0117731D01*
X0078719Y0116763D01*
X0079203Y0116279D01*
X0079203Y0115268D02*
X0078719Y0114784D01*
X0078719Y0113333D01*
X0081622Y0113333D01*
X0081622Y0114784D01*
X0081138Y0115268D01*
X0079203Y0115268D01*
X0081622Y0116279D02*
X0079687Y0118214D01*
X0079203Y0118214D01*
X0081622Y0118214D02*
X0081622Y0116279D01*
X0076860Y0093026D02*
X0077344Y0092543D01*
X0075409Y0090608D01*
X0075893Y0090124D01*
X0076860Y0090124D01*
X0077344Y0090608D01*
X0077344Y0092543D01*
X0076860Y0093026D02*
X0075893Y0093026D01*
X0075409Y0092543D01*
X0075409Y0090608D01*
X0074397Y0090124D02*
X0072462Y0090124D01*
X0073430Y0090124D02*
X0073430Y0093026D01*
X0072462Y0092059D01*
X0071451Y0092543D02*
X0070967Y0093026D01*
X0070000Y0093026D01*
X0069516Y0092543D01*
X0069516Y0090608D01*
X0070000Y0090124D01*
X0070967Y0090124D01*
X0071451Y0090608D01*
X0082067Y0081933D02*
X0084970Y0081933D01*
X0084970Y0082900D02*
X0084970Y0080965D01*
X0084970Y0079954D02*
X0084970Y0078019D01*
X0084970Y0078986D02*
X0082067Y0078986D01*
X0083035Y0078019D01*
X0082551Y0077007D02*
X0082067Y0076523D01*
X0082067Y0075556D01*
X0082551Y0075072D01*
X0084486Y0075072D01*
X0084970Y0075556D01*
X0084970Y0076523D01*
X0084486Y0077007D01*
X0083035Y0080965D02*
X0082067Y0081933D01*
X0076771Y0067026D02*
X0075803Y0067026D01*
X0075319Y0066543D01*
X0074308Y0066543D02*
X0073824Y0067026D01*
X0072857Y0067026D01*
X0072373Y0066543D01*
X0071361Y0066543D02*
X0071361Y0065575D01*
X0070878Y0065091D01*
X0069426Y0065091D01*
X0069426Y0064124D02*
X0069426Y0067026D01*
X0070878Y0067026D01*
X0071361Y0066543D01*
X0070394Y0065091D02*
X0071361Y0064124D01*
X0072373Y0064124D02*
X0074308Y0066059D01*
X0074308Y0066543D01*
X0074308Y0064124D02*
X0072373Y0064124D01*
X0075319Y0064124D02*
X0077254Y0066059D01*
X0077254Y0066543D01*
X0076771Y0067026D01*
X0077254Y0064124D02*
X0075319Y0064124D01*
X0081211Y0045052D02*
X0082179Y0045052D01*
X0081695Y0045052D02*
X0081695Y0042634D01*
X0081211Y0042150D01*
X0080728Y0042150D01*
X0080244Y0042634D01*
X0083190Y0042150D02*
X0085125Y0042150D01*
X0084158Y0042150D02*
X0084158Y0045052D01*
X0083190Y0044085D01*
X0115344Y0019652D02*
X0115344Y0016750D01*
X0115344Y0017717D02*
X0116795Y0017717D01*
X0117279Y0018201D01*
X0117279Y0019169D01*
X0116795Y0019652D01*
X0115344Y0019652D01*
X0116311Y0017717D02*
X0117279Y0016750D01*
X0118290Y0016750D02*
X0120225Y0016750D01*
X0119258Y0016750D02*
X0119258Y0019652D01*
X0118290Y0018685D01*
X0119258Y0014502D02*
X0119258Y0011600D01*
X0120225Y0011600D02*
X0118290Y0011600D01*
X0117279Y0011600D02*
X0116311Y0012567D01*
X0116795Y0012567D02*
X0115344Y0012567D01*
X0115344Y0011600D02*
X0115344Y0014502D01*
X0116795Y0014502D01*
X0117279Y0014019D01*
X0117279Y0013051D01*
X0116795Y0012567D01*
X0118290Y0013535D02*
X0119258Y0014502D01*
X0121237Y0014019D02*
X0121721Y0014502D01*
X0122688Y0014502D01*
X0123172Y0014019D01*
X0123172Y0013535D01*
X0121237Y0011600D01*
X0123172Y0011600D01*
X0123172Y0016750D02*
X0121237Y0016750D01*
X0122204Y0016750D02*
X0122204Y0019652D01*
X0121237Y0018685D01*
X0123451Y0037100D02*
X0124902Y0037100D01*
X0125386Y0037584D01*
X0125386Y0039519D01*
X0124902Y0040002D01*
X0123451Y0040002D01*
X0123451Y0037100D01*
X0126397Y0037584D02*
X0126881Y0037100D01*
X0127849Y0037100D01*
X0128332Y0037584D01*
X0128332Y0038067D01*
X0127849Y0038551D01*
X0127365Y0038551D01*
X0127849Y0038551D02*
X0128332Y0039035D01*
X0128332Y0039519D01*
X0127849Y0040002D01*
X0126881Y0040002D01*
X0126397Y0039519D01*
X0134094Y0038567D02*
X0135545Y0038567D01*
X0136029Y0039051D01*
X0136029Y0040019D01*
X0135545Y0040502D01*
X0134094Y0040502D01*
X0134094Y0037600D01*
X0135061Y0038567D02*
X0136029Y0037600D01*
X0137040Y0038084D02*
X0137040Y0038567D01*
X0137524Y0039051D01*
X0138492Y0039051D01*
X0138975Y0038567D01*
X0138975Y0038084D01*
X0138492Y0037600D01*
X0137524Y0037600D01*
X0137040Y0038084D01*
X0137524Y0039051D02*
X0137040Y0039535D01*
X0137040Y0040019D01*
X0137524Y0040502D01*
X0138492Y0040502D01*
X0138975Y0040019D01*
X0138975Y0039535D01*
X0138492Y0039051D01*
X0147891Y0032994D02*
X0147891Y0032027D01*
X0148375Y0031543D01*
X0148859Y0031543D01*
X0149343Y0032027D01*
X0149343Y0033478D01*
X0150310Y0033478D02*
X0148375Y0033478D01*
X0147891Y0032994D01*
X0150310Y0033478D02*
X0150794Y0032994D01*
X0150794Y0032027D01*
X0150310Y0031543D01*
X0150794Y0030531D02*
X0150794Y0028597D01*
X0150794Y0029564D02*
X0147891Y0029564D01*
X0148859Y0028597D01*
X0148375Y0027585D02*
X0149343Y0027585D01*
X0149826Y0027101D01*
X0149826Y0025650D01*
X0149826Y0026617D02*
X0150794Y0027585D01*
X0150794Y0025650D02*
X0147891Y0025650D01*
X0147891Y0027101D01*
X0148375Y0027585D01*
X0088949Y0139850D02*
X0088949Y0142752D01*
X0087497Y0141301D01*
X0089432Y0141301D01*
X0086486Y0140334D02*
X0086002Y0139850D01*
X0085034Y0139850D01*
X0084551Y0140334D01*
X0084551Y0142269D01*
X0085034Y0142752D01*
X0086002Y0142752D01*
X0086486Y0142269D01*
X0096491Y0165710D02*
X0096491Y0167162D01*
X0096975Y0167645D01*
X0097943Y0167645D01*
X0098426Y0167162D01*
X0098426Y0165710D01*
X0099394Y0165710D02*
X0096491Y0165710D01*
X0098426Y0166678D02*
X0099394Y0167645D01*
X0099394Y0168657D02*
X0097459Y0170592D01*
X0096975Y0170592D01*
X0096491Y0170108D01*
X0096491Y0169141D01*
X0096975Y0168657D01*
X0099394Y0168657D02*
X0099394Y0170592D01*
X0099394Y0171603D02*
X0099394Y0173538D01*
X0099394Y0172571D02*
X0096491Y0172571D01*
X0097459Y0171603D01*
X0077744Y0171442D02*
X0077744Y0169507D01*
X0077744Y0170474D02*
X0074841Y0170474D01*
X0075809Y0169507D01*
X0076293Y0168495D02*
X0076776Y0168012D01*
X0076776Y0166560D01*
X0077744Y0166560D02*
X0074841Y0166560D01*
X0074841Y0168012D01*
X0075325Y0168495D01*
X0076293Y0168495D01*
X0076776Y0167528D02*
X0077744Y0168495D01*
X0077260Y0172453D02*
X0077744Y0172937D01*
X0077744Y0173905D01*
X0077260Y0174388D01*
X0076776Y0174388D01*
X0076293Y0173905D01*
X0076293Y0172453D01*
X0077260Y0172453D01*
X0076293Y0172453D02*
X0075325Y0173421D01*
X0074841Y0174388D01*
X0075325Y0175757D02*
X0077260Y0175757D01*
X0077744Y0176241D01*
X0077744Y0177208D01*
X0077260Y0177692D01*
X0077260Y0178703D02*
X0077744Y0179187D01*
X0077744Y0180155D01*
X0077260Y0180638D01*
X0076293Y0180638D01*
X0075809Y0180155D01*
X0075809Y0179671D01*
X0076293Y0178703D01*
X0074841Y0178703D01*
X0074841Y0180638D01*
X0075325Y0181560D02*
X0077260Y0181560D01*
X0077744Y0182044D01*
X0077744Y0183012D01*
X0077260Y0183495D01*
X0077744Y0184507D02*
X0077744Y0186442D01*
X0077744Y0185474D02*
X0074841Y0185474D01*
X0075809Y0184507D01*
X0075325Y0183495D02*
X0074841Y0183012D01*
X0074841Y0182044D01*
X0075325Y0181560D01*
X0075325Y0177692D02*
X0074841Y0177208D01*
X0074841Y0176241D01*
X0075325Y0175757D01*
X0075325Y0187453D02*
X0074841Y0187937D01*
X0074841Y0188905D01*
X0075325Y0189388D01*
X0075809Y0189388D01*
X0076293Y0188905D01*
X0076776Y0189388D01*
X0077260Y0189388D01*
X0077744Y0188905D01*
X0077744Y0187937D01*
X0077260Y0187453D01*
X0076293Y0188421D02*
X0076293Y0188905D01*
X0077260Y0190310D02*
X0075325Y0190310D01*
X0074841Y0190794D01*
X0074841Y0191762D01*
X0075325Y0192245D01*
X0075809Y0193257D02*
X0074841Y0194224D01*
X0077744Y0194224D01*
X0077744Y0193257D02*
X0077744Y0195192D01*
X0077744Y0196203D02*
X0075809Y0198138D01*
X0075325Y0198138D01*
X0074841Y0197655D01*
X0074841Y0196687D01*
X0075325Y0196203D01*
X0077744Y0196203D02*
X0077744Y0198138D01*
X0077260Y0192245D02*
X0077744Y0191762D01*
X0077744Y0190794D01*
X0077260Y0190310D01*
X0049254Y0217134D02*
X0048770Y0216650D01*
X0047803Y0216650D01*
X0047319Y0217134D01*
X0048287Y0218101D02*
X0048770Y0218101D01*
X0049254Y0217617D01*
X0049254Y0217134D01*
X0048770Y0218101D02*
X0049254Y0218585D01*
X0049254Y0219069D01*
X0048770Y0219552D01*
X0047803Y0219552D01*
X0047319Y0219069D01*
X0046307Y0219552D02*
X0045340Y0219552D01*
X0045824Y0219552D02*
X0045824Y0217134D01*
X0045340Y0216650D01*
X0044856Y0216650D01*
X0044373Y0217134D01*
X0051454Y0232600D02*
X0051454Y0235502D01*
X0052905Y0235502D01*
X0053389Y0235019D01*
X0053389Y0234051D01*
X0052905Y0233567D01*
X0051454Y0233567D01*
X0052422Y0233567D02*
X0053389Y0232600D01*
X0054401Y0232600D02*
X0056336Y0234535D01*
X0056336Y0235019D01*
X0055852Y0235502D01*
X0054884Y0235502D01*
X0054401Y0235019D01*
X0054401Y0232600D02*
X0056336Y0232600D01*
X0057347Y0233084D02*
X0057831Y0232600D01*
X0058799Y0232600D01*
X0059282Y0233084D01*
X0059282Y0234051D01*
X0058799Y0234535D01*
X0058315Y0234535D01*
X0057347Y0234051D01*
X0057347Y0235502D01*
X0059282Y0235502D01*
X0024832Y0243400D02*
X0022897Y0243400D01*
X0023865Y0243400D02*
X0023865Y0246302D01*
X0022897Y0245335D01*
X0021886Y0245819D02*
X0021886Y0244851D01*
X0021402Y0244367D01*
X0019951Y0244367D01*
X0019951Y0243400D02*
X0019951Y0246302D01*
X0021402Y0246302D01*
X0021886Y0245819D01*
X0020918Y0244367D02*
X0021886Y0243400D01*
X0017986Y0195511D02*
X0017986Y0193576D01*
X0015084Y0193576D01*
X0015084Y0192564D02*
X0017986Y0192564D01*
X0017986Y0190629D02*
X0015084Y0190629D01*
X0016051Y0191597D01*
X0015084Y0192564D01*
X0015118Y0187018D02*
X0016086Y0187018D01*
X0016570Y0186534D01*
X0016570Y0185083D01*
X0017537Y0185083D02*
X0014635Y0185083D01*
X0014635Y0186534D01*
X0015118Y0187018D01*
X0016570Y0186050D02*
X0017537Y0187018D01*
X0017537Y0184071D02*
X0014635Y0184071D01*
X0015602Y0183104D01*
X0014635Y0182136D01*
X0017537Y0182136D01*
X0007836Y0157314D02*
X0007836Y0155379D01*
X0007836Y0156347D02*
X0004934Y0156347D01*
X0005901Y0155379D01*
X0005418Y0154368D02*
X0004934Y0153884D01*
X0004934Y0152917D01*
X0005418Y0152433D01*
X0007353Y0152433D01*
X0007836Y0152917D01*
X0007836Y0153884D01*
X0007353Y0154368D01*
X0007836Y0151436D02*
X0007836Y0150469D01*
X0007836Y0150952D02*
X0004934Y0150952D01*
X0004934Y0150469D02*
X0004934Y0151436D01*
X0041852Y0089785D02*
X0042819Y0089785D01*
X0042335Y0089785D02*
X0042335Y0086882D01*
X0041852Y0086882D02*
X0042819Y0086882D01*
X0043816Y0087366D02*
X0043816Y0089301D01*
X0044300Y0089785D01*
X0045267Y0089785D01*
X0045751Y0089301D01*
X0046763Y0089785D02*
X0046763Y0088334D01*
X0047730Y0088817D01*
X0048214Y0088817D01*
X0048698Y0088334D01*
X0048698Y0087366D01*
X0048214Y0086882D01*
X0047246Y0086882D01*
X0046763Y0087366D01*
X0045751Y0087366D02*
X0045267Y0086882D01*
X0044300Y0086882D01*
X0043816Y0087366D01*
X0046763Y0089785D02*
X0048698Y0089785D01*
X0111528Y0204550D02*
X0111044Y0205034D01*
X0111044Y0206969D01*
X0111528Y0207452D01*
X0112495Y0207452D01*
X0112979Y0206969D01*
X0113990Y0206969D02*
X0113990Y0206485D01*
X0114474Y0206001D01*
X0115442Y0206001D01*
X0115925Y0205517D01*
X0115925Y0205034D01*
X0115442Y0204550D01*
X0114474Y0204550D01*
X0113990Y0205034D01*
X0113990Y0205517D01*
X0114474Y0206001D01*
X0115442Y0206001D02*
X0115925Y0206485D01*
X0115925Y0206969D01*
X0115442Y0207452D01*
X0114474Y0207452D01*
X0113990Y0206969D01*
X0112979Y0205034D02*
X0112495Y0204550D01*
X0111528Y0204550D01*
X0120244Y0218000D02*
X0120244Y0220902D01*
X0122179Y0220902D01*
X0123190Y0219935D02*
X0124158Y0220902D01*
X0124158Y0218000D01*
X0125125Y0218000D02*
X0123190Y0218000D01*
X0121211Y0219451D02*
X0120244Y0219451D01*
X0109060Y0232529D02*
X0109544Y0233012D01*
X0109544Y0233496D01*
X0109060Y0233980D01*
X0106641Y0233980D01*
X0106641Y0233496D02*
X0106641Y0234464D01*
X0107125Y0235475D02*
X0106641Y0235959D01*
X0106641Y0236926D01*
X0107125Y0237410D01*
X0107609Y0237410D01*
X0109544Y0235475D01*
X0109544Y0237410D01*
D12*
X0110873Y0239300D02*
X0113373Y0241800D01*
X0118373Y0241800D01*
X0120873Y0239300D01*
X0123373Y0241800D01*
X0128373Y0241800D01*
X0130873Y0239300D01*
X0130873Y0229300D01*
X0128373Y0226800D01*
X0123373Y0226800D01*
X0120873Y0229300D01*
X0118373Y0226800D01*
X0113373Y0226800D01*
X0110873Y0229300D01*
X0110873Y0239300D01*
X0120873Y0239300D02*
X0120873Y0229300D01*
X0056115Y0213700D02*
X0056115Y0203700D01*
X0053615Y0201200D01*
X0048615Y0201200D01*
X0046115Y0203700D01*
X0043615Y0201200D01*
X0038615Y0201200D01*
X0036115Y0203700D01*
X0036115Y0213700D01*
X0038615Y0216200D01*
X0043615Y0216200D01*
X0046115Y0213700D01*
X0048615Y0216200D01*
X0053615Y0216200D01*
X0056115Y0213700D01*
X0046115Y0213700D02*
X0046115Y0203700D01*
X0040594Y0138100D02*
X0040594Y0134900D01*
X0042794Y0134900D01*
X0049594Y0134900D02*
X0051794Y0134900D01*
X0051794Y0138100D01*
X0065716Y0125774D02*
X0065716Y0123574D01*
X0065716Y0125774D02*
X0068916Y0125774D01*
X0065716Y0116774D02*
X0065716Y0114574D01*
X0068916Y0114574D01*
X0056401Y0100532D02*
X0030200Y0100532D01*
X0028802Y0099134D01*
X0028802Y0072933D01*
X0056401Y0072933D01*
X0056401Y0100532D01*
X0030388Y0097532D02*
X0030390Y0097607D01*
X0030396Y0097681D01*
X0030406Y0097755D01*
X0030419Y0097828D01*
X0030437Y0097901D01*
X0030458Y0097972D01*
X0030483Y0098043D01*
X0030512Y0098112D01*
X0030545Y0098179D01*
X0030581Y0098244D01*
X0030620Y0098308D01*
X0030662Y0098369D01*
X0030708Y0098428D01*
X0030757Y0098485D01*
X0030809Y0098538D01*
X0030863Y0098589D01*
X0030920Y0098638D01*
X0030980Y0098682D01*
X0031042Y0098724D01*
X0031106Y0098763D01*
X0031172Y0098798D01*
X0031239Y0098829D01*
X0031309Y0098857D01*
X0031379Y0098881D01*
X0031451Y0098902D01*
X0031524Y0098918D01*
X0031597Y0098931D01*
X0031672Y0098940D01*
X0031746Y0098945D01*
X0031821Y0098946D01*
X0031895Y0098943D01*
X0031970Y0098936D01*
X0032043Y0098925D01*
X0032117Y0098911D01*
X0032189Y0098892D01*
X0032260Y0098870D01*
X0032330Y0098844D01*
X0032399Y0098814D01*
X0032465Y0098781D01*
X0032530Y0098744D01*
X0032593Y0098704D01*
X0032654Y0098660D01*
X0032712Y0098614D01*
X0032768Y0098564D01*
X0032821Y0098512D01*
X0032872Y0098457D01*
X0032919Y0098399D01*
X0032963Y0098339D01*
X0033004Y0098276D01*
X0033042Y0098212D01*
X0033076Y0098146D01*
X0033107Y0098077D01*
X0033134Y0098008D01*
X0033157Y0097937D01*
X0033176Y0097865D01*
X0033192Y0097792D01*
X0033204Y0097718D01*
X0033212Y0097644D01*
X0033216Y0097569D01*
X0033216Y0097495D01*
X0033212Y0097420D01*
X0033204Y0097346D01*
X0033192Y0097272D01*
X0033176Y0097199D01*
X0033157Y0097127D01*
X0033134Y0097056D01*
X0033107Y0096987D01*
X0033076Y0096918D01*
X0033042Y0096852D01*
X0033004Y0096788D01*
X0032963Y0096725D01*
X0032919Y0096665D01*
X0032872Y0096607D01*
X0032821Y0096552D01*
X0032768Y0096500D01*
X0032712Y0096450D01*
X0032654Y0096404D01*
X0032593Y0096360D01*
X0032530Y0096320D01*
X0032465Y0096283D01*
X0032399Y0096250D01*
X0032330Y0096220D01*
X0032260Y0096194D01*
X0032189Y0096172D01*
X0032117Y0096153D01*
X0032043Y0096139D01*
X0031970Y0096128D01*
X0031895Y0096121D01*
X0031821Y0096118D01*
X0031746Y0096119D01*
X0031672Y0096124D01*
X0031597Y0096133D01*
X0031524Y0096146D01*
X0031451Y0096162D01*
X0031379Y0096183D01*
X0031309Y0096207D01*
X0031239Y0096235D01*
X0031172Y0096266D01*
X0031106Y0096301D01*
X0031042Y0096340D01*
X0030980Y0096382D01*
X0030920Y0096426D01*
X0030863Y0096475D01*
X0030809Y0096526D01*
X0030757Y0096579D01*
X0030708Y0096636D01*
X0030662Y0096695D01*
X0030620Y0096756D01*
X0030581Y0096820D01*
X0030545Y0096885D01*
X0030512Y0096952D01*
X0030483Y0097021D01*
X0030458Y0097092D01*
X0030437Y0097163D01*
X0030419Y0097236D01*
X0030406Y0097309D01*
X0030396Y0097383D01*
X0030390Y0097457D01*
X0030388Y0097532D01*
X0050094Y0040500D02*
X0047594Y0038000D01*
X0047594Y0023000D01*
X0050094Y0020500D01*
X0055094Y0020500D01*
X0057594Y0023000D01*
X0060094Y0020500D01*
X0065094Y0020500D01*
X0067594Y0023000D01*
X0070094Y0020500D01*
X0075094Y0020500D01*
X0077594Y0023000D01*
X0080094Y0020500D01*
X0085094Y0020500D01*
X0087594Y0023000D01*
X0090094Y0020500D01*
X0095094Y0020500D01*
X0097594Y0023000D01*
X0100094Y0020500D01*
X0105094Y0020500D01*
X0107594Y0023000D01*
X0110094Y0020500D01*
X0115094Y0020500D01*
X0117594Y0023000D01*
X0117594Y0038000D01*
X0115094Y0040500D01*
X0110094Y0040500D01*
X0107594Y0038000D01*
X0105094Y0040500D01*
X0100094Y0040500D01*
X0097594Y0038000D01*
X0095094Y0040500D01*
X0090094Y0040500D01*
X0087594Y0038000D01*
X0085094Y0040500D01*
X0080094Y0040500D01*
X0077594Y0038000D01*
X0075094Y0040500D01*
X0070094Y0040500D01*
X0067594Y0038000D01*
X0065094Y0040500D01*
X0060094Y0040500D01*
X0057594Y0038000D01*
X0055094Y0040500D01*
X0050094Y0040500D01*
X0123244Y0035100D02*
X0123244Y0032900D01*
X0123244Y0035100D02*
X0126444Y0035100D01*
X0123244Y0026100D02*
X0123244Y0023900D01*
X0126444Y0023900D01*
X0164005Y0046500D02*
X0166505Y0044000D01*
X0176505Y0044000D01*
X0179005Y0046500D01*
X0179005Y0051500D01*
X0176505Y0054000D01*
X0179005Y0056500D01*
X0179005Y0061500D01*
X0176505Y0064000D01*
X0179005Y0066500D01*
X0179005Y0071500D01*
X0176505Y0074000D01*
X0179005Y0076500D01*
X0179005Y0081500D01*
X0176505Y0084000D01*
X0179005Y0086500D01*
X0179005Y0091500D01*
X0176505Y0094000D01*
X0179005Y0096500D01*
X0179005Y0101500D01*
X0176505Y0104000D01*
X0179005Y0106500D01*
X0179005Y0111500D01*
X0176505Y0114000D01*
X0179005Y0116500D01*
X0179005Y0121500D01*
X0176505Y0124000D01*
X0166505Y0124000D01*
X0164005Y0121500D01*
X0164005Y0116500D01*
X0166505Y0114000D01*
X0164005Y0111500D01*
X0164005Y0106500D01*
X0166505Y0104000D01*
X0164005Y0101500D01*
X0164005Y0096500D01*
X0166505Y0094000D01*
X0164005Y0091500D01*
X0164005Y0086500D01*
X0166505Y0084000D01*
X0164005Y0081500D01*
X0164005Y0076500D01*
X0166505Y0074000D01*
X0164005Y0071500D01*
X0164005Y0066500D01*
X0166505Y0064000D01*
X0164005Y0061500D01*
X0164005Y0056500D01*
X0166505Y0054000D01*
X0164005Y0051500D01*
X0164005Y0046500D01*
D13*
X0113086Y0219100D03*
D14*
X0031791Y0263455D02*
X0028722Y0266525D01*
X0030257Y0266525D02*
X0030257Y0263455D01*
X0028722Y0263455D02*
X0031791Y0266525D01*
X0031791Y0264990D02*
X0028722Y0264990D01*
X0019817Y0157931D02*
X0015486Y0157931D01*
X0015486Y0156931D02*
X0019817Y0156931D01*
X0019817Y0149931D02*
X0015486Y0149931D01*
D15*
X0015362Y0142413D02*
X0023236Y0142413D01*
X0015455Y0142263D02*
X0015457Y0142302D01*
X0015463Y0142341D01*
X0015473Y0142379D01*
X0015486Y0142416D01*
X0015503Y0142451D01*
X0015523Y0142485D01*
X0015547Y0142516D01*
X0015574Y0142545D01*
X0015603Y0142571D01*
X0015635Y0142594D01*
X0015669Y0142614D01*
X0015705Y0142630D01*
X0015742Y0142642D01*
X0015781Y0142651D01*
X0015820Y0142656D01*
X0015859Y0142657D01*
X0015898Y0142654D01*
X0015937Y0142647D01*
X0015974Y0142636D01*
X0016011Y0142622D01*
X0016046Y0142604D01*
X0016079Y0142583D01*
X0016110Y0142558D01*
X0016138Y0142531D01*
X0016163Y0142501D01*
X0016185Y0142468D01*
X0016204Y0142434D01*
X0016219Y0142398D01*
X0016231Y0142360D01*
X0016239Y0142322D01*
X0016243Y0142283D01*
X0016243Y0142243D01*
X0016239Y0142204D01*
X0016231Y0142166D01*
X0016219Y0142128D01*
X0016204Y0142092D01*
X0016185Y0142058D01*
X0016163Y0142025D01*
X0016138Y0141995D01*
X0016110Y0141968D01*
X0016079Y0141943D01*
X0016046Y0141922D01*
X0016011Y0141904D01*
X0015974Y0141890D01*
X0015937Y0141879D01*
X0015898Y0141872D01*
X0015859Y0141869D01*
X0015820Y0141870D01*
X0015781Y0141875D01*
X0015742Y0141884D01*
X0015705Y0141896D01*
X0015669Y0141912D01*
X0015635Y0141932D01*
X0015603Y0141955D01*
X0015574Y0141981D01*
X0015547Y0142010D01*
X0015523Y0142041D01*
X0015503Y0142075D01*
X0015486Y0142110D01*
X0015473Y0142147D01*
X0015463Y0142185D01*
X0015457Y0142224D01*
X0015455Y0142263D01*
X0015362Y0131113D02*
X0023236Y0131113D01*
X0052345Y0018754D02*
X0050844Y0017253D01*
X0052345Y0018754D02*
X0052345Y0014250D01*
X0050844Y0014250D02*
X0053846Y0014250D01*
X0108344Y0042250D02*
X0111346Y0042250D01*
X0109845Y0042250D02*
X0109845Y0046754D01*
X0108344Y0045253D01*
X0112948Y0044502D02*
X0115950Y0044502D01*
X0115200Y0042250D02*
X0115200Y0046754D01*
X0112948Y0044502D01*
X0157751Y0045751D02*
X0157751Y0047253D01*
X0157751Y0046502D02*
X0161504Y0046502D01*
X0162255Y0045751D01*
X0162255Y0045001D01*
X0161504Y0044250D01*
X0160003Y0048854D02*
X0160003Y0051856D01*
X0162255Y0051106D02*
X0157751Y0051106D01*
X0160003Y0048854D01*
X0180751Y0048751D02*
X0185255Y0048751D01*
X0185255Y0047250D02*
X0185255Y0050253D01*
X0182252Y0047250D02*
X0180751Y0048751D01*
X0161504Y0116750D02*
X0160754Y0116750D01*
X0160003Y0117501D01*
X0160003Y0119002D01*
X0160754Y0119753D01*
X0161504Y0119753D01*
X0162255Y0119002D01*
X0162255Y0117501D01*
X0161504Y0116750D01*
X0160003Y0117501D02*
X0159252Y0116750D01*
X0158502Y0116750D01*
X0157751Y0117501D01*
X0157751Y0119002D01*
X0158502Y0119753D01*
X0159252Y0119753D01*
X0160003Y0119002D01*
X0125994Y0260153D02*
X0095994Y0260153D01*
X0095994Y0280153D01*
X0125994Y0280153D01*
X0125994Y0260153D01*
X0117884Y0263185D02*
X0117884Y0264405D01*
X0117884Y0263185D02*
X0104104Y0263185D01*
X0104104Y0264484D01*
X0104104Y0270035D02*
X0104104Y0270390D01*
X0104104Y0275508D02*
X0104104Y0277142D01*
X0117884Y0277142D01*
X0117884Y0275547D01*
X0117884Y0270468D02*
X0117884Y0269996D01*
X0026790Y0276681D02*
X0010254Y0276681D01*
D16*
X0014194Y0075100D03*
D17*
X0027940Y0197056D02*
X0028941Y0197056D01*
X0029441Y0197556D01*
X0029441Y0200058D01*
X0030386Y0199057D02*
X0031387Y0200058D01*
X0031387Y0197056D01*
X0030386Y0197056D02*
X0032388Y0197056D01*
X0027940Y0197056D02*
X0027440Y0197556D01*
X0027440Y0200058D01*
M02*
